G04 Generated by Ultiboard 13.0 *
%FSLAX24Y24*%
%MOIN*%

%ADD10C,0.0001*%
%ADD11C,0.0100*%
%ADD12C,0.0001*%
%ADD13C,0.0050*%
%ADD14C,0.0540*%
%ADD15R,0.0540X0.0540*%
%ADD16C,0.0500*%
%ADD17C,0.0534*%
%ADD18C,0.0591*%
%ADD19C,0.0394*%


G04 ColorRGB 0000FF for the following layer *
%LNCopper Bottom*%
%LPD*%
G54D10*
G36*
X60649Y33349D02*
X60649Y33349D01*
X-49Y33349D01*
X-49Y-649D01*
X60649Y-649D01*
X60649Y33349D01*
D02*
G37*
%LPC*%
G36*
X46000Y13399D02*
G75*
D01*
G02X45971Y13401I-1J201*
G01*
G74*
D01*
G02X45858Y13458I29J199*
G01*
X45858Y13458D01*
X45658Y13658D01*
G75*
D01*
G02X45599Y13800I141J142*
G01*
X45599Y13800D01*
X45599Y14117D01*
X45517Y14199D01*
X45300Y14199D01*
G75*
D01*
G02X45284Y14200I5J201*
G01*
G74*
D01*
G02X45158Y14258I15J199*
G01*
X45158Y14258D01*
X45058Y14358D01*
G75*
D01*
G02X44999Y14501I141J142*
G01*
X44999Y14501D01*
X44999Y16717D01*
X44917Y16799D01*
X35883Y16799D01*
X35801Y16717D01*
X35801Y16100D01*
G75*
D01*
G02X35742Y15958I-201J0*
G01*
X35742Y15958D01*
X35642Y15858D01*
G74*
D01*
G02X35572Y15812I142J140*
G01*
G75*
D01*
G02X35500Y15799I-71J188*
G01*
X35500Y15799D01*
X35483Y15799D01*
X35401Y15717D01*
X35401Y15200D01*
G75*
D01*
G02X35342Y15058I-201J0*
G01*
X35342Y15058D01*
X35201Y14917D01*
X35201Y14400D01*
G75*
D01*
G02X35142Y14258I-201J0*
G01*
X35142Y14258D01*
X35001Y14117D01*
X35001Y13600D01*
G75*
D01*
G02X34942Y13458I-201J0*
G01*
X34942Y13458D01*
X34801Y13317D01*
X34801Y12000D01*
G75*
D01*
G02X34742Y11858I-201J0*
G01*
X34742Y11858D01*
X34542Y11658D01*
G74*
D01*
G02X34466Y11610I142J141*
G01*
G75*
D01*
G02X34400Y11599I-66J190*
G01*
X34400Y11599D01*
X34232Y11599D01*
G75*
D01*
G02X33600Y11599I-316J-244*
G01*
X33600Y11599D01*
X29283Y11599D01*
X29201Y11517D01*
X29201Y8800D01*
G75*
D01*
G02X29142Y8658I-201J0*
G01*
X29142Y8658D01*
X28982Y8498D01*
X28982Y8498D01*
X28601Y8117D01*
X28601Y7800D01*
G75*
D01*
G02X28542Y7658I-201J0*
G01*
X28542Y7658D01*
X28342Y7458D01*
G74*
D01*
G02X28308Y7431I141J142*
G01*
G75*
D01*
G02X27867Y7751I-392J-76*
G01*
G74*
D01*
G02X27934Y7790I133J151*
G01*
G75*
D01*
G02X28000Y7801I66J-190*
G01*
X28000Y7801D01*
X28117Y7801D01*
X28199Y7883D01*
X28199Y8071D01*
G75*
D01*
G02X27600Y8599I-283J282*
G01*
G74*
D01*
G02X27571Y8601I1J201*
G01*
G74*
D01*
G02X27458Y8658I29J199*
G01*
X27458Y8658D01*
X27317Y8799D01*
X24883Y8799D01*
X24801Y8717D01*
X24801Y3083D01*
X24883Y3001D01*
X25000Y3001D01*
G74*
D01*
G02X25142Y2942I0J201*
G01*
X25142Y2942D01*
X25342Y2742D01*
G74*
D01*
G02X25401Y2600I141J142*
G01*
X25401Y2600D01*
X25401Y2417D01*
G75*
D01*
G02X25008Y2141I-1J-417*
G01*
G75*
D01*
G02X24999Y2200I191J59*
G01*
X24999Y2200D01*
X24999Y2517D01*
X24917Y2599D01*
X24800Y2599D01*
G75*
D01*
G02X24658Y2658I0J201*
G01*
X24658Y2658D01*
X24601Y2715D01*
X24601Y2365D01*
G75*
D01*
G02X24199Y2365I-201J-364*
G01*
X24199Y2365D01*
X24199Y9099D01*
G75*
D01*
G02X24258Y9242I201J1*
G01*
X24258Y9242D01*
X24358Y9342D01*
G74*
D01*
G02X24484Y9400I141J141*
G01*
G75*
D01*
G02X24500Y9401I20J-199*
G01*
X24500Y9401D01*
X27517Y9401D01*
X27519Y9403D01*
G75*
D01*
G02X28175Y9659I397J-49*
G01*
X28175Y9659D01*
X28199Y9683D01*
X28199Y10071D01*
G75*
D01*
G02X27559Y10173I-283J283*
G01*
G74*
D01*
G02X27518Y10199I86J181*
G01*
X27518Y10199D01*
X23900Y10199D01*
G75*
D01*
G02X23884Y10200I5J201*
G01*
G74*
D01*
G02X23758Y10258I15J199*
G01*
X23758Y10258D01*
X23658Y10358D01*
G75*
D01*
G02X23599Y10501I141J142*
G01*
X23599Y10501D01*
X23599Y11517D01*
X23517Y11599D01*
X23322Y11599D01*
G75*
D01*
G02X23280Y11603I-2J201*
G01*
G74*
D01*
G02X23229Y11622I44J196*
G01*
G75*
D01*
G02X22680Y12039I-129J400*
G01*
G74*
D01*
G02X22658Y12058I119J160*
G01*
X22658Y12058D01*
X22601Y12115D01*
X22601Y8483D01*
X22683Y8401D01*
X22919Y8401D01*
G75*
D01*
G02X22681Y7999I181J-379*
G01*
X22681Y7999D01*
X22600Y7999D01*
G75*
D01*
G02X22458Y8058I0J201*
G01*
X22458Y8058D01*
X22401Y8115D01*
X22401Y8083D01*
X22542Y7942D01*
G74*
D01*
G02X22601Y7800I141J142*
G01*
X22601Y7800D01*
X22601Y7683D01*
X22683Y7601D01*
X22800Y7601D01*
G74*
D01*
G02X22996Y7443I0J201*
G01*
X22996Y7443D01*
X23370Y7443D01*
G74*
D01*
G02X23521Y7292I0J151*
G01*
X23521Y7292D01*
X23521Y6752D01*
G75*
D01*
G02X23370Y6601I-151J0*
G01*
X23370Y6601D01*
X22830Y6601D01*
G75*
D01*
G02X22679Y6752I0J151*
G01*
X22679Y6752D01*
X22679Y7158D01*
X22658Y7180D01*
G74*
D01*
G02X22641Y7199I140J143*
G01*
X22641Y7199D01*
X22600Y7199D01*
G75*
D01*
G02X22458Y7258I0J201*
G01*
X22458Y7258D01*
X22258Y7458D01*
G75*
D01*
G02X22199Y7600I141J142*
G01*
X22199Y7600D01*
X22199Y7717D01*
X22058Y7858D01*
G75*
D01*
G02X21999Y8000I141J142*
G01*
X21999Y8000D01*
X21999Y14699D01*
G75*
D01*
G02X22058Y14842I201J1*
G01*
X22058Y14842D01*
X22158Y14942D01*
G74*
D01*
G02X22284Y15000I141J141*
G01*
G75*
D01*
G02X22300Y15001I20J-199*
G01*
X22300Y15001D01*
X23600Y15001D01*
G75*
D01*
G02X23666Y14990I0J-201*
G01*
G74*
D01*
G02X23742Y14942I67J190*
G01*
X23742Y14942D01*
X23883Y14801D01*
X27117Y14801D01*
X27199Y14883D01*
X27199Y14999D01*
G75*
D01*
G02X27258Y15142I201J1*
G01*
X27258Y15142D01*
X27519Y15403D01*
G74*
D01*
G02X27600Y15599I397J49*
G01*
X27600Y15599D01*
X27400Y15599D01*
G75*
D01*
G02X27371Y15601I-1J201*
G01*
G74*
D01*
G02X27258Y15658I29J199*
G01*
X27258Y15658D01*
X27058Y15858D01*
G75*
D01*
G02X26999Y16000I141J142*
G01*
X26999Y16000D01*
X26999Y23515D01*
X26942Y23458D01*
G74*
D01*
G02X26866Y23410I142J141*
G01*
G75*
D01*
G02X26800Y23399I-66J190*
G01*
X26800Y23399D01*
X23395Y23399D01*
G75*
D01*
G02X22805Y23399I-295J-299*
G01*
X22805Y23399D01*
X13512Y23399D01*
G75*
D01*
G02X13304Y23801I-414J41*
G01*
X13304Y23801D01*
X22805Y23801D01*
G75*
D01*
G02X23395Y23801I295J299*
G01*
X23395Y23801D01*
X26717Y23801D01*
X26799Y23883D01*
X26799Y24299D01*
G75*
D01*
G02X26858Y24442I201J1*
G01*
X26858Y24442D01*
X26935Y24519D01*
X26999Y24647D01*
X26999Y25600D01*
G75*
D01*
G02X27058Y25742I201J0*
G01*
X27058Y25742D01*
X27258Y25942D01*
G74*
D01*
G02X27371Y25999I142J141*
G01*
G75*
D01*
G02X27400Y26001I28J-199*
G01*
X27400Y26001D01*
X27727Y26001D01*
G75*
D01*
G02X27867Y26751I188J353*
G01*
X27867Y26751D01*
X28058Y26942D01*
G74*
D01*
G02X28123Y26986I142J140*
G01*
G75*
D01*
G02X28200Y27001I76J-186*
G01*
X28200Y27001D01*
X34100Y27001D01*
G75*
D01*
G02X34172Y26988I1J-201*
G01*
G74*
D01*
G02X34242Y26942I73J187*
G01*
X34242Y26942D01*
X34319Y26865D01*
X34447Y26801D01*
X38900Y26801D01*
G75*
D01*
G02X38972Y26788I1J-201*
G01*
G74*
D01*
G02X39042Y26742I73J187*
G01*
X39042Y26742D01*
X39119Y26665D01*
X39290Y26580D01*
G74*
D01*
G02X39401Y26400I90J180*
G01*
X39401Y26400D01*
X39401Y23283D01*
X39483Y23201D01*
X45717Y23201D01*
X45799Y23283D01*
X45799Y23400D01*
G75*
D01*
G02X45910Y23580I201J0*
G01*
X45910Y23580D01*
X46001Y23625D01*
G74*
D01*
G02X46154Y23796I199J24*
G01*
G75*
D01*
G02X46913Y24001I343J237*
G01*
X46913Y24001D01*
X47000Y24001D01*
G74*
D01*
G02X47142Y23942I0J201*
G01*
X47142Y23942D01*
X47199Y23885D01*
X47199Y25517D01*
X47117Y25599D01*
X46730Y25599D01*
G75*
D01*
G02X46618Y25633I0J201*
G01*
G75*
D01*
G02X46913Y26001I-120J398*
G01*
X46913Y26001D01*
X47200Y26001D01*
G74*
D01*
G02X47342Y25942I0J201*
G01*
X47342Y25942D01*
X47399Y25885D01*
X47399Y26517D01*
X47317Y26599D01*
X46730Y26599D01*
G75*
D01*
G02X46618Y26633I0J201*
G01*
G75*
D01*
G02X46913Y27001I-120J398*
G01*
X46913Y27001D01*
X47400Y27001D01*
G74*
D01*
G02X47542Y26942I0J201*
G01*
X47542Y26942D01*
X47742Y26742D01*
G74*
D01*
G02X47801Y26600I141J142*
G01*
X47801Y26600D01*
X47801Y23683D01*
X47942Y23542D01*
G74*
D01*
G02X48001Y23400I141J142*
G01*
X48001Y23400D01*
X48001Y15300D01*
G75*
D01*
G02X47942Y15158I-201J0*
G01*
X47942Y15158D01*
X47842Y15058D01*
G74*
D01*
G02X47772Y15012I142J140*
G01*
G75*
D01*
G02X47700Y14999I-71J188*
G01*
X47700Y14999D01*
X47683Y14999D01*
X47401Y14717D01*
X47401Y14400D01*
G75*
D01*
G02X47342Y14258I-201J0*
G01*
X47342Y14258D01*
X47201Y14117D01*
X47201Y13700D01*
G75*
D01*
G02X47142Y13558I-201J0*
G01*
X47142Y13558D01*
X47042Y13458D01*
G74*
D01*
G02X46972Y13412I142J140*
G01*
G75*
D01*
G02X46900Y13399I-71J188*
G01*
X46900Y13399D01*
X46000Y13399D01*
D02*
G37*
G36*
X58294Y17947D02*
G75*
D01*
G02X58294Y17947I408J85*
G01*
D02*
G37*
G36*
X46893Y24901D02*
G75*
D01*
G02X46893Y24901I-395J131*
G01*
D02*
G37*
G36*
X58905Y27396D02*
G75*
D01*
G02X58905Y27396I-203J-364*
G01*
D02*
G37*
G36*
X46893Y27901D02*
G75*
D01*
G02X46893Y27901I-395J131*
G01*
D02*
G37*
G36*
X33543Y8498D02*
G75*
D01*
G02X33543Y8498I373J-144*
G01*
D02*
G37*
G36*
X9098Y7368D02*
G75*
D01*
G02X9098Y7368I222J352*
G01*
D02*
G37*
G36*
X18547Y2390D02*
G75*
D01*
G02X18547Y2390I-147J-390*
G01*
D02*
G37*
G36*
X9098Y10632D02*
G75*
D01*
G02X9098Y10632I222J-352*
G01*
D02*
G37*
G36*
X13349Y17947D02*
G75*
D01*
G02X13349Y17947I-246J371*
G01*
D02*
G37*
G36*
X22680Y11022D02*
G75*
D01*
G02X22680Y11022I420J0*
G01*
D02*
G37*
G36*
X22680Y10022D02*
G75*
D01*
G02X22680Y10022I420J0*
G01*
D02*
G37*
G36*
X22680Y9022D02*
G75*
D01*
G02X22680Y9022I420J0*
G01*
D02*
G37*
G36*
X58286Y28032D02*
G75*
D01*
G02X58286Y28032I416J0*
G01*
D02*
G37*
G36*
X58286Y29032D02*
G75*
D01*
G02X58286Y29032I416J0*
G01*
D02*
G37*
G36*
X22680Y25100D02*
G75*
D01*
G02X22680Y25100I420J0*
G01*
D02*
G37*
G36*
X22680Y26100D02*
G75*
D01*
G02X22680Y26100I420J0*
G01*
D02*
G37*
G36*
X58286Y19032D02*
G75*
D01*
G02X58286Y19032I416J0*
G01*
D02*
G37*
G36*
X58286Y20032D02*
G75*
D01*
G02X58286Y20032I416J0*
G01*
D02*
G37*
G36*
X58286Y21032D02*
G75*
D01*
G02X58286Y21032I416J0*
G01*
D02*
G37*
G36*
X58286Y22032D02*
G75*
D01*
G02X58286Y22032I416J0*
G01*
D02*
G37*
G36*
X58286Y23032D02*
G75*
D01*
G02X58286Y23032I416J0*
G01*
D02*
G37*
G36*
X58286Y24032D02*
G75*
D01*
G02X58286Y24032I416J0*
G01*
D02*
G37*
G36*
X58286Y25032D02*
G75*
D01*
G02X58286Y25032I416J0*
G01*
D02*
G37*
G36*
X58286Y26032D02*
G75*
D01*
G02X58286Y26032I416J0*
G01*
D02*
G37*
G36*
X58286Y14032D02*
G75*
D01*
G02X58286Y14032I416J0*
G01*
D02*
G37*
G36*
X58286Y15032D02*
G75*
D01*
G02X58286Y15032I416J0*
G01*
D02*
G37*
G36*
X58286Y16032D02*
G75*
D01*
G02X58286Y16032I416J0*
G01*
D02*
G37*
G36*
X58286Y17032D02*
G75*
D01*
G02X58286Y17032I416J0*
G01*
D02*
G37*
G36*
X23370Y19521D02*
G74*
D01*
G02X23521Y19370I0J151*
G01*
X23521Y19370D01*
X23521Y18830D01*
G75*
D01*
G02X23370Y18679I-151J0*
G01*
X23370Y18679D01*
X22830Y18679D01*
G75*
D01*
G02X22679Y18830I0J151*
G01*
X22679Y18830D01*
X22679Y19370D01*
G75*
D01*
G02X22830Y19521I151J0*
G01*
X22830Y19521D01*
X23370Y19521D01*
D02*
G37*
G36*
X22680Y20100D02*
G75*
D01*
G02X22680Y20100I420J0*
G01*
D02*
G37*
G36*
X22680Y21100D02*
G75*
D01*
G02X22680Y21100I420J0*
G01*
D02*
G37*
G36*
X22680Y22100D02*
G75*
D01*
G02X22680Y22100I420J0*
G01*
D02*
G37*
G36*
X46301Y29032D02*
G75*
D01*
G02X46301Y29032I197J0*
G01*
D02*
G37*
G36*
X46350Y28642D02*
G74*
D01*
G02X46108Y28884I148J390*
G01*
X46108Y28884D01*
X46350Y28884D01*
X46350Y28642D01*
D02*
G37*
G36*
X46887Y28884D02*
G74*
D01*
G02X46645Y28642I389J147*
G01*
X46645Y28642D01*
X46645Y28884D01*
X46887Y28884D01*
D02*
G37*
G36*
X46108Y29179D02*
G74*
D01*
G02X46350Y29421I389J147*
G01*
X46350Y29421D01*
X46350Y29179D01*
X46108Y29179D01*
D02*
G37*
G36*
X46645Y29421D02*
G74*
D01*
G02X46887Y29179I146J388*
G01*
X46887Y29179D01*
X46645Y29179D01*
X46645Y29421D01*
D02*
G37*
G36*
X33516Y10354D02*
G75*
D01*
G02X33516Y10354I400J0*
G01*
D02*
G37*
G36*
X33516Y9354D02*
G75*
D01*
G02X33516Y9354I400J0*
G01*
D02*
G37*
G36*
X38312Y9022D02*
G75*
D01*
G02X38312Y9022I420J0*
G01*
D02*
G37*
G36*
X38312Y10022D02*
G75*
D01*
G02X38312Y10022I420J0*
G01*
D02*
G37*
G36*
X38312Y11022D02*
G75*
D01*
G02X38312Y11022I420J0*
G01*
D02*
G37*
G36*
X38312Y12022D02*
G75*
D01*
G02X38312Y12022I420J0*
G01*
D02*
G37*
G36*
X38312Y13022D02*
G75*
D01*
G02X38312Y13022I420J0*
G01*
D02*
G37*
G36*
X38312Y14022D02*
G75*
D01*
G02X38312Y14022I420J0*
G01*
D02*
G37*
G36*
X2046Y2433D02*
G75*
D01*
G02X2046Y2679I98J123*
G01*
X2046Y2679D01*
X1798Y2679D01*
X1798Y2816D01*
G75*
D01*
G02X1885Y2903I87J0*
G01*
X1885Y2903D01*
X2141Y2903D01*
X2141Y2714D01*
X2145Y2714D01*
X2145Y2714D01*
X2382Y2714D01*
X2387Y2714D01*
X2387Y2714D01*
X2387Y2903D01*
X2642Y2903D01*
G74*
D01*
G02X2729Y2816I0J87*
G01*
X2729Y2816D01*
X2729Y2679D01*
X2481Y2679D01*
G75*
D01*
G02X2481Y2433I-98J-123*
G01*
X2481Y2433D01*
X2729Y2433D01*
X2729Y2296D01*
G75*
D01*
G02X2642Y2209I-87J0*
G01*
X2642Y2209D01*
X2387Y2209D01*
X2387Y2398D01*
X2382Y2398D01*
X2382Y2398D01*
X2145Y2398D01*
X2141Y2398D01*
X2141Y2398D01*
X2141Y2209D01*
X1885Y2209D01*
G75*
D01*
G02X1798Y2296I0J87*
G01*
X1798Y2296D01*
X1798Y2433D01*
X2046Y2433D01*
D02*
G37*
G36*
X3956Y3614D02*
X3956Y3619D01*
X3956Y3619D01*
X3956Y3855D01*
G74*
D01*
G02X3956Y3860I158J3*
G01*
X3956Y3860D01*
X3767Y3860D01*
X3767Y4115D01*
G75*
D01*
G02X3854Y4202I87J0*
G01*
X3854Y4202D01*
X3991Y4202D01*
X3991Y3955D01*
G75*
D01*
G02X4237Y3955I123J-99*
G01*
X4237Y3955D01*
X4237Y4202D01*
X4374Y4202D01*
G74*
D01*
G02X4461Y4115I0J87*
G01*
X4461Y4115D01*
X4461Y3860D01*
X4272Y3860D01*
G74*
D01*
G02X4272Y3855I158J2*
G01*
X4272Y3855D01*
X4272Y3619D01*
X4272Y3614D01*
X4272Y3614D01*
X4461Y3614D01*
X4461Y3359D01*
G75*
D01*
G02X4374Y3272I-87J0*
G01*
X4374Y3272D01*
X4237Y3272D01*
X4237Y3519D01*
G75*
D01*
G02X3991Y3519I-123J99*
G01*
X3991Y3519D01*
X3991Y3272D01*
X3854Y3272D01*
G75*
D01*
G02X3767Y3359I0J87*
G01*
X3767Y3359D01*
X3767Y3614D01*
X3956Y3614D01*
D02*
G37*
G36*
X1798Y5178D02*
G75*
D01*
G02X1885Y5265I87J0*
G01*
X1885Y5265D01*
X2642Y5265D01*
G74*
D01*
G02X2729Y5178I0J87*
G01*
X2729Y5178D01*
X2729Y4658D01*
G75*
D01*
G02X2642Y4571I-87J0*
G01*
X2642Y4571D01*
X1885Y4571D01*
G75*
D01*
G02X1798Y4658I0J87*
G01*
X1798Y4658D01*
X1798Y5178D01*
D02*
G37*
G36*
X33516Y7354D02*
G75*
D01*
G02X33516Y7354I400J0*
G01*
D02*
G37*
G36*
X38312Y8022D02*
G75*
D01*
G02X38312Y8022I420J0*
G01*
D02*
G37*
G36*
X39002Y7443D02*
G74*
D01*
G02X39152Y7292I1J151*
G01*
X39152Y7292D01*
X39152Y6752D01*
G75*
D01*
G02X39002Y6601I-150J-1*
G01*
X39002Y6601D01*
X38462Y6601D01*
G75*
D01*
G02X38311Y6752I0J151*
G01*
X38311Y6752D01*
X38311Y7292D01*
G75*
D01*
G02X38462Y7443I151J0*
G01*
X38462Y7443D01*
X39002Y7443D01*
D02*
G37*
G36*
X18983Y2000D02*
G75*
D01*
G02X18983Y2000I417J0*
G01*
D02*
G37*
G36*
X19983Y2000D02*
G75*
D01*
G02X19983Y2000I417J0*
G01*
D02*
G37*
G36*
X20983Y2000D02*
G75*
D01*
G02X20983Y2000I417J0*
G01*
D02*
G37*
G36*
X21983Y2000D02*
G75*
D01*
G02X21983Y2000I417J0*
G01*
D02*
G37*
G36*
X22983Y2000D02*
G75*
D01*
G02X22983Y2000I417J0*
G01*
D02*
G37*
G36*
X25983Y2000D02*
G75*
D01*
G02X25983Y2000I417J0*
G01*
D02*
G37*
G36*
X7132Y26584D02*
G75*
D01*
G02X7132Y26584I446J0*
G01*
D02*
G37*
G36*
X7172Y21491D02*
X7172Y21491D01*
X7354Y21308D01*
X7172Y21125D01*
G75*
D01*
G02X7172Y21491I406J183*
G01*
D02*
G37*
G36*
X7984Y21491D02*
G75*
D01*
G02X7984Y21125I-406J-183*
G01*
X7984Y21125D01*
X7801Y21308D01*
X7984Y21491D01*
D02*
G37*
G36*
X7401Y21308D02*
G75*
D01*
G02X7401Y21308I177J0*
G01*
D02*
G37*
G36*
X7760Y20902D02*
G75*
D01*
G02X7395Y20902I-182J405*
G01*
X7395Y20902D01*
X7578Y21085D01*
X7760Y20902D01*
D02*
G37*
G36*
X7132Y22292D02*
G75*
D01*
G02X7132Y22292I446J0*
G01*
D02*
G37*
G36*
X7395Y21714D02*
G75*
D01*
G02X7760Y21714I183J-406*
G01*
X7760Y21714D01*
X7578Y21531D01*
X7395Y21714D01*
D02*
G37*
G36*
X7760Y25194D02*
G75*
D01*
G02X7395Y25194I-182J405*
G01*
X7395Y25194D01*
X7578Y25377D01*
X7760Y25194D01*
D02*
G37*
G36*
X7395Y26006D02*
G75*
D01*
G02X7760Y26006I183J-406*
G01*
X7760Y26006D01*
X7578Y25823D01*
X7395Y26006D01*
D02*
G37*
G36*
X7984Y25783D02*
G75*
D01*
G02X7984Y25417I-406J-183*
G01*
X7984Y25417D01*
X7801Y25600D01*
X7984Y25783D01*
D02*
G37*
G36*
X7172Y25783D02*
X7172Y25783D01*
X7354Y25600D01*
X7172Y25417D01*
G75*
D01*
G02X7172Y25783I406J183*
G01*
D02*
G37*
G36*
X7401Y25600D02*
G75*
D01*
G02X7401Y25600I177J0*
G01*
D02*
G37*
G36*
X7132Y15784D02*
G75*
D01*
G02X7132Y15784I446J0*
G01*
D02*
G37*
G36*
X7132Y14800D02*
G75*
D01*
G02X7132Y14800I446J0*
G01*
D02*
G37*
G36*
X11463Y7720D02*
G75*
D01*
G02X11463Y7720I417J0*
G01*
D02*
G37*
G36*
X12680Y25361D02*
G75*
D01*
G02X12680Y25361I417J0*
G01*
D02*
G37*
G36*
X11463Y10280D02*
G75*
D01*
G02X11463Y10280I417J0*
G01*
D02*
G37*
G36*
X12658Y13200D02*
G75*
D01*
G02X12658Y13200I445J0*
G01*
D02*
G37*
%LPD*%
G36*
X28313Y24403D02*
G75*
D01*
G02X27764Y23984I-397J-49*
G01*
G74*
D01*
G02X27742Y23958I163J116*
G01*
X27742Y23958D01*
X27665Y23881D01*
X27601Y23753D01*
X27601Y23600D01*
G75*
D01*
G02X27601Y23107I314J-246*
G01*
X27601Y23107D01*
X27601Y22600D01*
G75*
D01*
G02X28313Y22398I315J-245*
G01*
X28313Y22398D01*
X28458Y22542D01*
G74*
D01*
G02X28571Y22599I142J141*
G01*
G75*
D01*
G02X28600Y22601I28J-199*
G01*
X28600Y22601D01*
X29117Y22601D01*
G75*
D01*
G02X29655Y22635I283J-201*
G01*
G75*
D01*
G02X30001Y22253I344J-36*
G01*
X30001Y22253D01*
X30001Y22100D01*
G75*
D01*
G02X29942Y21958I-201J0*
G01*
X29942Y21958D01*
X29842Y21858D01*
G74*
D01*
G02X29772Y21812I142J140*
G01*
G75*
D01*
G02X29700Y21799I-71J188*
G01*
X29700Y21799D01*
X28883Y21799D01*
X28801Y21717D01*
X28801Y21400D01*
G75*
D01*
G02X28742Y21258I-201J0*
G01*
X28742Y21258D01*
X28601Y21117D01*
X28601Y20800D01*
G75*
D01*
G02X28542Y20658I-201J0*
G01*
X28542Y20658D01*
X28342Y20458D01*
G74*
D01*
G02X28308Y20431I141J142*
G01*
G75*
D01*
G02X27601Y20107I-391J-81*
G01*
X27601Y20107D01*
X27601Y19600D01*
G75*
D01*
G02X28279Y19185I321J-237*
G01*
G74*
D01*
G02X28342Y19142I80J185*
G01*
X28342Y19142D01*
X28542Y18942D01*
G74*
D01*
G02X28601Y18800I141J142*
G01*
X28601Y18800D01*
X28601Y17083D01*
X28683Y17001D01*
X33727Y17001D01*
G75*
D01*
G02X33867Y17751I188J353*
G01*
G74*
D01*
G02X33934Y17790I133J151*
G01*
G75*
D01*
G02X34000Y17801I66J-190*
G01*
X34000Y17801D01*
X34117Y17801D01*
X34199Y17883D01*
X34199Y18071D01*
G75*
D01*
G02X34199Y18636I-283J283*
G01*
X34199Y18636D01*
X34199Y19071D01*
G75*
D01*
G02X34199Y19636I-283J283*
G01*
X34199Y19636D01*
X34199Y19899D01*
G75*
D01*
G02X34225Y19999I201J1*
G01*
X34225Y19999D01*
X34101Y19999D01*
G75*
D01*
G02X34313Y20401I-185J355*
G01*
X34313Y20401D01*
X37917Y20401D01*
X37999Y20483D01*
X37999Y22225D01*
G74*
D01*
G02X37972Y22212I100J174*
G01*
G75*
D01*
G02X37900Y22199I-71J188*
G01*
X37900Y22199D01*
X34285Y22199D01*
G75*
D01*
G02X34230Y22601I-369J154*
G01*
X34230Y22601D01*
X34315Y22601D01*
X34117Y22799D01*
X34000Y22799D01*
G75*
D01*
G02X33934Y22810I0J201*
G01*
G74*
D01*
G02X33858Y22858I67J190*
G01*
X33858Y22858D01*
X33774Y22942D01*
G74*
D01*
G02X33735Y22997I141J142*
G01*
G75*
D01*
G02X34279Y23185I181J357*
G01*
G74*
D01*
G02X34342Y23142I80J185*
G01*
X34342Y23142D01*
X34683Y22801D01*
X37517Y22801D01*
X37599Y22883D01*
X37599Y25800D01*
G75*
D01*
G02X37658Y25942I201J0*
G01*
X37658Y25942D01*
X37858Y26142D01*
G74*
D01*
G02X37971Y26199I142J141*
G01*
G75*
D01*
G02X38000Y26201I28J-199*
G01*
X38000Y26201D01*
X38317Y26201D01*
X38327Y26211D01*
G74*
D01*
G02X38437Y26399I404J110*
G01*
X38437Y26399D01*
X34400Y26399D01*
G75*
D01*
G02X34364Y26402I-1J201*
G01*
G74*
D01*
G02X34310Y26420I36J198*
G01*
G75*
D01*
G02X34281Y26190I-393J-67*
G01*
X34281Y26190D01*
X34116Y26354D01*
X34225Y26463D01*
X34110Y26520D01*
G74*
D01*
G02X34058Y26558I91J179*
G01*
X34058Y26558D01*
X34017Y26599D01*
X33961Y26599D01*
X33916Y26554D01*
X33871Y26599D01*
X28283Y26599D01*
X28253Y26569D01*
G75*
D01*
G02X28104Y26001I-336J-215*
G01*
X28104Y26001D01*
X28200Y26001D01*
G75*
D01*
G02X28255Y25993I-1J-201*
G01*
G74*
D01*
G02X28380Y25890I54J193*
G01*
X28380Y25890D01*
X28425Y25799D01*
G74*
D01*
G02X28601Y25600I24J199*
G01*
X28601Y25600D01*
X28601Y24683D01*
X28683Y24601D01*
X33600Y24601D01*
X33601Y24601D01*
G75*
D01*
G02X33559Y24173I315J-247*
G01*
G74*
D01*
G02X33518Y24199I86J181*
G01*
X33518Y24199D01*
X28600Y24199D01*
G75*
D01*
G02X28571Y24201I-1J201*
G01*
G74*
D01*
G02X28458Y24258I29J199*
G01*
X28458Y24258D01*
X28313Y24403D01*
D02*
G37*
%LPC*%
G36*
X33741Y26354D02*
G75*
D01*
G02X33741Y26354I175J0*
G01*
D02*
G37*
G36*
X33551Y26518D02*
X33551Y26518D01*
X33715Y26354D01*
X33551Y26190D01*
G75*
D01*
G02X33551Y26518I365J164*
G01*
D02*
G37*
G36*
X34080Y25989D02*
G75*
D01*
G02X33752Y25989I-164J365*
G01*
X33752Y25989D01*
X33916Y26153D01*
X34080Y25989D01*
D02*
G37*
G36*
X33516Y25354D02*
G75*
D01*
G02X33516Y25354I400J0*
G01*
D02*
G37*
G36*
X33516Y21354D02*
G75*
D01*
G02X33516Y21354I400J0*
G01*
D02*
G37*
%LPD*%
G36*
X46082Y18001D02*
G75*
D01*
G02X46377Y17633I416J31*
G01*
G74*
D01*
G02X46334Y17611I112J166*
G01*
G75*
D01*
G02X46266Y17599I-68J188*
G01*
X46266Y17599D01*
X45975Y17599D01*
G74*
D01*
G02X46001Y17500I175J99*
G01*
X46001Y17500D01*
X46001Y17483D01*
X46083Y17401D01*
X46304Y17401D01*
G75*
D01*
G02X46082Y16999I193J-369*
G01*
X46082Y16999D01*
X46000Y16999D01*
G75*
D01*
G02X45971Y17001I-1J201*
G01*
G74*
D01*
G02X45858Y17058I29J199*
G01*
X45858Y17058D01*
X45801Y17115D01*
X45801Y15883D01*
X45883Y15801D01*
X46150Y15801D01*
G75*
D01*
G02X46691Y16401I347J231*
G01*
X46691Y16401D01*
X46917Y16401D01*
X46999Y16483D01*
X46999Y22517D01*
X46858Y22658D01*
G74*
D01*
G02X46805Y22750I141J142*
G01*
G75*
D01*
G02X46377Y22633I-307J281*
G01*
G74*
D01*
G02X46334Y22611I112J166*
G01*
G75*
D01*
G02X46266Y22599I-68J188*
G01*
X46266Y22599D01*
X39483Y22599D01*
X39401Y22517D01*
X39401Y19800D01*
G75*
D01*
G02X39225Y19601I-201J0*
G01*
X39225Y19601D01*
X39180Y19510D01*
G74*
D01*
G02X39131Y19448I179J91*
G01*
G74*
D01*
G02X39152Y19370I129J77*
G01*
X39152Y19370D01*
X39152Y18830D01*
G75*
D01*
G02X39002Y18679I-150J-1*
G01*
X39002Y18679D01*
X38462Y18679D01*
G75*
D01*
G02X38311Y18830I0J151*
G01*
X38311Y18830D01*
X38311Y19370D01*
G74*
D01*
G02X38318Y19416I151J1*
G01*
G74*
D01*
G02X38201Y19575I83J183*
G01*
X38201Y19575D01*
X38153Y19599D01*
X34883Y19599D01*
X34801Y19517D01*
X34801Y17975D01*
G74*
D01*
G02X34884Y18000I98J175*
G01*
G75*
D01*
G02X34900Y18001I20J-199*
G01*
X34900Y18001D01*
X46082Y18001D01*
D02*
G37*
%LPC*%
G36*
X46893Y20163D02*
G75*
D01*
G02X46893Y20163I-395J-131*
G01*
D02*
G37*
G36*
X46893Y21163D02*
G75*
D01*
G02X46893Y21163I-395J-131*
G01*
D02*
G37*
G36*
X46893Y22163D02*
G75*
D01*
G02X46893Y22163I-395J-131*
G01*
D02*
G37*
G36*
X46893Y19163D02*
G75*
D01*
G02X46893Y19163I-395J-131*
G01*
D02*
G37*
%LPD*%
G36*
X27727Y11001D02*
G75*
D01*
G02X28104Y11001I189J353*
G01*
X28104Y11001D01*
X28200Y11001D01*
G75*
D01*
G02X28255Y10993I-1J-201*
G01*
G74*
D01*
G02X28380Y10890I54J193*
G01*
X28380Y10890D01*
X28399Y10851D01*
X28399Y13599D01*
X28232Y13599D01*
G75*
D01*
G02X27600Y13599I-316J-244*
G01*
X27600Y13599D01*
X27400Y13599D01*
G75*
D01*
G02X27258Y13658I0J201*
G01*
X27258Y13658D01*
X26917Y13999D01*
X23883Y13999D01*
X23801Y13917D01*
X23801Y13700D01*
G75*
D01*
G02X23742Y13558I-201J0*
G01*
X23742Y13558D01*
X23642Y13458D01*
G74*
D01*
G02X23500Y13399I142J141*
G01*
X23500Y13399D01*
X23285Y13399D01*
G75*
D01*
G02X23519Y13001I-184J-376*
G01*
X23519Y13001D01*
X23600Y13001D01*
G75*
D01*
G02X23666Y12990I0J-201*
G01*
G74*
D01*
G02X23742Y12942I67J190*
G01*
X23742Y12942D01*
X23942Y12742D01*
G74*
D01*
G02X24001Y12600I141J142*
G01*
X24001Y12600D01*
X24001Y12283D01*
X24142Y12142D01*
G74*
D01*
G02X24201Y12000I141J142*
G01*
X24201Y12000D01*
X24201Y10883D01*
X24283Y10801D01*
X27317Y10801D01*
X27458Y10942D01*
G74*
D01*
G02X27571Y10999I142J141*
G01*
G75*
D01*
G02X27600Y11001I28J-199*
G01*
X27600Y11001D01*
X27727Y11001D01*
D02*
G37*
%LPC*%
G36*
X27996Y12746D02*
G75*
D01*
G02X27996Y12746I-80J-392*
G01*
D02*
G37*
%LPD*%
G36*
X27701Y15017D02*
G75*
D01*
G03X28206Y15629I220J333*
G01*
G74*
D01*
G03X28242Y15658I107J170*
G01*
X28242Y15658D01*
X28319Y15735D01*
X28490Y15820D01*
G75*
D01*
G03X28601Y16000I-90J180*
G01*
X28601Y16000D01*
X28601Y16117D01*
X28683Y16199D01*
X32917Y16199D01*
X32999Y16117D01*
X32999Y15000D01*
G75*
D01*
G03X33058Y14858I201J0*
G01*
X33058Y14858D01*
X33258Y14658D01*
G74*
D01*
G03X33371Y14601I142J141*
G01*
G75*
D01*
G03X33400Y14599I28J199*
G01*
X33400Y14599D01*
X33600Y14599D01*
G75*
D01*
G03X33727Y14001I314J-246*
G01*
X33727Y14001D01*
X28104Y14001D01*
G75*
D01*
G03X27601Y14601I-192J350*
G01*
X27600Y14601D01*
X27600Y14601D01*
X27485Y14601D01*
X27542Y14658D01*
G75*
D01*
G03X27601Y14800I-141J142*
G01*
X27601Y14800D01*
X27601Y14917D01*
X27701Y15017D01*
D02*
G37*
G36*
X29171Y11999D02*
G74*
D01*
G03X29058Y11942I29J199*
G01*
X29058Y11942D01*
X29001Y11885D01*
X29001Y13317D01*
X29083Y13399D01*
X33117Y13399D01*
X33199Y13317D01*
X33199Y13000D01*
G75*
D01*
G03X33258Y12858I201J0*
G01*
X33258Y12858D01*
X33458Y12658D01*
G74*
D01*
G03X33571Y12601I142J141*
G01*
G74*
D01*
G03X33600Y12599I28J199*
G01*
G75*
D01*
G03X33727Y12001I314J-246*
G01*
X33727Y12001D01*
X29200Y12001D01*
G75*
D01*
G03X29171Y11999I-1J-201*
G01*
D02*
G37*
G36*
X38999Y24776D02*
X38999Y24776D01*
X38999Y24424D01*
G75*
D01*
G03X38999Y23776I-266J-324*
G01*
X38999Y23776D01*
X38999Y23424D01*
G75*
D01*
G03X38327Y23211I-268J-322*
G01*
X38327Y23211D01*
X38201Y23085D01*
X38201Y24717D01*
X38283Y24799D01*
X38400Y24799D01*
G75*
D01*
G03X38436Y24802I1J201*
G01*
G75*
D01*
G03X38999Y24776I296J298*
G01*
D02*
G37*
G36*
X23599Y12200D02*
X23599Y12200D01*
X23599Y12517D01*
X23517Y12599D01*
X23322Y12599D01*
G75*
D01*
G02X23280Y12603I-2J201*
G01*
G74*
D01*
G02X23229Y12622I44J196*
G01*
G75*
D01*
G02X22801Y12727I-129J400*
G01*
X22801Y12727D01*
X22801Y12483D01*
X22883Y12401D01*
X22919Y12401D01*
G75*
D01*
G02X23519Y12001I181J-379*
G01*
X23519Y12001D01*
X23600Y12001D01*
G75*
D01*
G02X23666Y11990I0J-201*
G01*
G74*
D01*
G02X23742Y11942I67J190*
G01*
X23742Y11942D01*
X23799Y11885D01*
X23799Y11917D01*
X23658Y12058D01*
G75*
D01*
G02X23599Y12200I141J142*
G01*
D02*
G37*
G36*
X38999Y25424D02*
G75*
D01*
G03X38327Y25211I-268J-322*
G01*
X38327Y25211D01*
X38317Y25201D01*
X38200Y25201D01*
G75*
D01*
G03X38171Y25199I-1J-201*
G01*
G74*
D01*
G03X38058Y25142I29J199*
G01*
X38058Y25142D01*
X38001Y25085D01*
X38001Y25717D01*
X38083Y25799D01*
X38400Y25799D01*
G75*
D01*
G03X38436Y25802I1J201*
G01*
G75*
D01*
G03X38999Y25776I296J298*
G01*
X38999Y25776D01*
X38999Y25424D01*
D02*
G37*
G36*
X38999Y22424D02*
G75*
D01*
G03X38401Y22359I-267J-323*
G01*
X38401Y22359D01*
X38401Y22717D01*
X38462Y22778D01*
G75*
D01*
G03X39135Y22981I270J322*
G01*
X39135Y22981D01*
X39216Y22900D01*
X39058Y22742D01*
G75*
D01*
G03X38999Y22600I141J-142*
G01*
X38999Y22600D01*
X38999Y22424D01*
D02*
G37*
G36*
X46301Y15399D02*
G75*
D01*
G03X46150Y14801I195J-367*
G01*
X46150Y14801D01*
X45683Y14801D01*
X45601Y14883D01*
X45601Y15515D01*
X45658Y15458D01*
G74*
D01*
G03X45771Y15401I142J141*
G01*
G75*
D01*
G03X45800Y15399I28J199*
G01*
X45800Y15399D01*
X46301Y15399D01*
D02*
G37*
G36*
X28199Y18071D02*
X28199Y18071D01*
X28199Y17636D01*
G75*
D01*
G03X27601Y17600I-283J-281*
G01*
X27601Y17600D01*
X27601Y18107D01*
G75*
D01*
G03X28199Y18071I315J247*
G01*
D02*
G37*
G36*
X28199Y18636D02*
G75*
D01*
G03X27601Y18600I-283J-281*
G01*
X27601Y18600D01*
X27601Y19107D01*
G74*
D01*
G03X27735Y18997I315J247*
G01*
G74*
D01*
G03X27774Y18942I180J87*
G01*
X27774Y18942D01*
X27858Y18858D01*
G74*
D01*
G03X27934Y18810I142J141*
G01*
G75*
D01*
G03X28000Y18799I66J190*
G01*
X28000Y18799D01*
X28117Y18799D01*
X28199Y18717D01*
X28199Y18636D01*
D02*
G37*
G36*
X28000Y20801D02*
G75*
D01*
G03X27934Y20790I0J-201*
G01*
G74*
D01*
G03X27867Y20751I66J190*
G01*
G74*
D01*
G03X27601Y20600I49J397*
G01*
X27601Y20600D01*
X27601Y21107D01*
G75*
D01*
G03X28199Y21071I315J247*
G01*
X28199Y21071D01*
X28199Y20883D01*
X28117Y20801D01*
X28000Y20801D01*
D02*
G37*
G36*
X28000Y21801D02*
G75*
D01*
G03X27934Y21790I0J-201*
G01*
G74*
D01*
G03X27867Y21751I66J190*
G01*
G74*
D01*
G03X27601Y21600I49J397*
G01*
X27601Y21600D01*
X27601Y22107D01*
G75*
D01*
G03X28199Y22071I315J247*
G01*
X28199Y22071D01*
X28199Y21883D01*
X28117Y21801D01*
X28000Y21801D01*
D02*
G37*
G36*
X38999Y20776D02*
X38999Y20776D01*
X38999Y20424D01*
G75*
D01*
G03X38395Y20351I-267J-323*
G01*
G75*
D01*
G03X38401Y20400I-195J49*
G01*
X38401Y20400D01*
X38401Y20841D01*
G75*
D01*
G03X38999Y20776I331J259*
G01*
D02*
G37*
G36*
X38999Y21776D02*
X38999Y21776D01*
X38999Y21424D01*
G75*
D01*
G03X38401Y21359I-267J-323*
G01*
X38401Y21359D01*
X38401Y21841D01*
G75*
D01*
G03X38999Y21776I331J259*
G01*
D02*
G37*
G36*
X28199Y24636D02*
G75*
D01*
G03X27601Y24600I-283J-281*
G01*
X27601Y24600D01*
X27601Y24917D01*
X27701Y25017D01*
G75*
D01*
G03X28199Y25071I216J336*
G01*
X28199Y25071D01*
X28199Y24636D01*
D02*
G37*
G36*
X46001Y14200D02*
G74*
D01*
G03X45942Y14342I201J0*
G01*
X45942Y14342D01*
X45885Y14399D01*
X46301Y14399D01*
G75*
D01*
G03X46150Y13801I195J-367*
G01*
X46150Y13801D01*
X46083Y13801D01*
X46001Y13883D01*
X46001Y14200D01*
D02*
G37*
G36*
X22620Y13690D02*
G74*
D01*
G02X22747Y13794I180J90*
G01*
G75*
D01*
G02X22915Y14399I353J228*
G01*
X22915Y14399D01*
X22683Y14399D01*
X22601Y14317D01*
X22601Y13651D01*
X22620Y13690D01*
D02*
G37*
G36*
X33727Y15001D02*
X33727Y15001D01*
X33483Y15001D01*
X33401Y15083D01*
X33401Y15715D01*
X33458Y15658D01*
G74*
D01*
G03X33571Y15601I142J141*
G01*
G74*
D01*
G03X33600Y15599I28J199*
G01*
G75*
D01*
G03X33727Y15001I314J-246*
G01*
D02*
G37*
G36*
X27727Y16001D02*
G75*
D01*
G02X27600Y16599I189J353*
G01*
G74*
D01*
G02X27571Y16601I1J201*
G01*
G74*
D01*
G02X27458Y16658I29J199*
G01*
X27458Y16658D01*
X27401Y16715D01*
X27401Y16083D01*
X27483Y16001D01*
X27727Y16001D01*
D02*
G37*
G36*
X34104Y12001D02*
G75*
D01*
G03X34206Y12629I-187J353*
G01*
G74*
D01*
G03X34242Y12658I107J170*
G01*
X34242Y12658D01*
X34319Y12735D01*
X34399Y12775D01*
X34399Y12083D01*
X34317Y12001D01*
X34104Y12001D01*
D02*
G37*
G36*
X46845Y15801D02*
G74*
D01*
G03X46913Y15999I347J230*
G01*
X46913Y15999D01*
X47000Y15999D01*
G74*
D01*
G03X47142Y16058I0J201*
G01*
X47142Y16058D01*
X47199Y16115D01*
X47199Y15883D01*
X47117Y15801D01*
X46845Y15801D01*
D02*
G37*
G36*
X27727Y14001D02*
G74*
D01*
G02X27559Y14173I189J353*
G01*
G74*
D01*
G02X27518Y14199I86J181*
G01*
X27518Y14199D01*
X27285Y14199D01*
X27483Y14001D01*
X27727Y14001D01*
D02*
G37*
G36*
X27519Y25403D02*
G74*
D01*
G02X27600Y25599I397J49*
G01*
X27600Y25599D01*
X27483Y25599D01*
X27401Y25517D01*
X27401Y25285D01*
X27519Y25403D01*
D02*
G37*
G36*
X46910Y15380D02*
G74*
D01*
G03X46822Y15293I90J179*
G01*
G74*
D01*
G03X46694Y15399I324J261*
G01*
X46694Y15399D01*
X46949Y15399D01*
X46910Y15380D01*
D02*
G37*
G36*
X46694Y14399D02*
X46694Y14399D01*
X46900Y14399D01*
G75*
D01*
G03X46915Y14400I-6J201*
G01*
X46915Y14400D01*
X46858Y14342D01*
G74*
D01*
G03X46822Y14293I141J142*
G01*
G74*
D01*
G03X46694Y14399I324J261*
G01*
D02*
G37*
G36*
X28772Y22199D02*
X28772Y22199D01*
X28683Y22199D01*
X28601Y22117D01*
X28601Y22085D01*
X28658Y22142D01*
G74*
D01*
G02X28771Y22199I142J141*
G01*
X28772Y22199D01*
D02*
G37*
G36*
X33727Y13001D02*
X33727Y13001D01*
X33683Y13001D01*
X33601Y13083D01*
X33601Y13107D01*
G74*
D01*
G03X33727Y13001I315J247*
G01*
D02*
G37*
G36*
X33601Y16107D02*
G74*
D01*
G03X33727Y16001I315J247*
G01*
X33727Y16001D01*
X33683Y16001D01*
X33601Y16083D01*
X33601Y16107D01*
D02*
G37*
G36*
X27601Y17107D02*
X27601Y17107D01*
X27601Y17083D01*
X27683Y17001D01*
X27727Y17001D01*
G74*
D01*
G02X27601Y17107I189J353*
G01*
D02*
G37*
G36*
X28313Y21398D02*
X28313Y21398D01*
X28399Y21483D01*
X28399Y21515D01*
X28342Y21458D01*
G74*
D01*
G02X28308Y21431I141J142*
G01*
G74*
D01*
G02X28313Y21398I392J76*
G01*
D02*
G37*
G36*
X28166Y16990D02*
G74*
D01*
G03X28104Y17001I66J190*
G01*
G74*
D01*
G03X28199Y17071I187J353*
G01*
X28199Y17071D01*
X28199Y17000D01*
G75*
D01*
G03X28201Y16974I201J2*
G01*
G74*
D01*
G03X28166Y16990I101J174*
G01*
D02*
G37*
G36*
X33555Y13527D02*
G74*
D01*
G03X33542Y13542I157J123*
G01*
X33542Y13542D01*
X33485Y13599D01*
X33600Y13599D01*
G74*
D01*
G03X33555Y13527I314J246*
G01*
D02*
G37*
G36*
X38327Y20211D02*
X38327Y20211D01*
X38317Y20201D01*
X38285Y20201D01*
X38342Y20258D01*
X38343Y20259D01*
G74*
D01*
G03X38327Y20211I390J157*
G01*
D02*
G37*
G36*
X27727Y9001D02*
G74*
D01*
G02X27693Y9022I193J350*
G01*
G74*
D01*
G02X27672Y9012I96J175*
G01*
X27672Y9012D01*
X27683Y9001D01*
X27727Y9001D01*
D02*
G37*
G36*
X23491Y14175D02*
X23491Y14175D01*
X23515Y14199D01*
X23500Y14199D01*
G75*
D01*
G02X23480Y14200I0J201*
G01*
G74*
D01*
G02X23491Y14175I378J181*
G01*
D02*
G37*
G36*
X33585Y16579D02*
G74*
D01*
G03X33575Y16599I185J80*
G01*
X33575Y16599D01*
X33600Y16599D01*
G74*
D01*
G03X33585Y16579I312J249*
G01*
D02*
G37*
G36*
X28313Y8399D02*
X28313Y8398D01*
X28313Y8398D01*
X28315Y8400D01*
G74*
D01*
G02X28313Y8399I90J178*
G01*
D02*
G37*
G36*
X28313Y16398D02*
X28313Y16398D01*
X28315Y16399D01*
X28313Y16399D01*
X28313Y16398D01*
D02*
G37*
G54D11*
X46000Y13399D02*
G75*
D01*
G02X45971Y13401I-1J201*
G01*
G74*
D01*
G02X45858Y13458I29J199*
G01*
X45658Y13658D01*
G75*
D01*
G02X45599Y13800I141J142*
G01*
X45599Y14117D01*
X45517Y14199D01*
X45300Y14199D01*
G75*
D01*
G02X45284Y14200I5J201*
G01*
G74*
D01*
G02X45158Y14258I15J199*
G01*
X45058Y14358D01*
G75*
D01*
G02X44999Y14501I141J142*
G01*
X44999Y16717D01*
X44917Y16799D01*
X35883Y16799D01*
X35801Y16717D01*
X35801Y16100D01*
G75*
D01*
G02X35742Y15958I-201J0*
G01*
X35642Y15858D01*
G74*
D01*
G02X35572Y15812I142J140*
G01*
G75*
D01*
G02X35500Y15799I-71J188*
G01*
X35483Y15799D01*
X35401Y15717D01*
X35401Y15200D01*
G75*
D01*
G02X35342Y15058I-201J0*
G01*
X35201Y14917D01*
X35201Y14400D01*
G75*
D01*
G02X35142Y14258I-201J0*
G01*
X35001Y14117D01*
X35001Y13600D01*
G75*
D01*
G02X34942Y13458I-201J0*
G01*
X34801Y13317D01*
X34801Y12000D01*
G75*
D01*
G02X34742Y11858I-201J0*
G01*
X34542Y11658D01*
G74*
D01*
G02X34466Y11610I142J141*
G01*
G75*
D01*
G02X34400Y11599I-66J190*
G01*
X34232Y11599D01*
G75*
D01*
G02X33600Y11599I-316J-244*
G01*
X29283Y11599D01*
X29201Y11517D01*
X29201Y8800D01*
G75*
D01*
G02X29142Y8658I-201J0*
G01*
X28982Y8498D01*
X28982Y8498D01*
X28601Y8117D01*
X28601Y7800D01*
G75*
D01*
G02X28542Y7658I-201J0*
G01*
X28342Y7458D01*
G74*
D01*
G02X28308Y7431I141J142*
G01*
G75*
D01*
G02X27867Y7751I-392J-76*
G01*
G74*
D01*
G02X27934Y7790I133J151*
G01*
G75*
D01*
G02X28000Y7801I66J-190*
G01*
X28117Y7801D01*
X28199Y7883D01*
X28199Y8071D01*
G75*
D01*
G02X27600Y8599I-283J282*
G01*
G74*
D01*
G02X27571Y8601I1J201*
G01*
G74*
D01*
G02X27458Y8658I29J199*
G01*
X27317Y8799D01*
X24883Y8799D01*
X24801Y8717D01*
X24801Y3083D01*
X24883Y3001D01*
X25000Y3001D01*
G74*
D01*
G02X25142Y2942I0J201*
G01*
X25342Y2742D01*
G74*
D01*
G02X25401Y2600I141J142*
G01*
X25401Y2417D01*
G75*
D01*
G02X25008Y2141I-1J-417*
G01*
G75*
D01*
G02X24999Y2200I191J59*
G01*
X24999Y2517D01*
X24917Y2599D01*
X24800Y2599D01*
G75*
D01*
G02X24658Y2658I0J201*
G01*
X24601Y2715D01*
X24601Y2365D01*
G75*
D01*
G02X24199Y2365I-201J-364*
G01*
X24199Y9099D01*
G75*
D01*
G02X24258Y9242I201J1*
G01*
X24358Y9342D01*
G74*
D01*
G02X24484Y9400I141J141*
G01*
G75*
D01*
G02X24500Y9401I20J-199*
G01*
X27517Y9401D01*
X27519Y9403D01*
G75*
D01*
G02X28175Y9659I397J-49*
G01*
X28199Y9683D01*
X28199Y10071D01*
G75*
D01*
G02X27559Y10173I-283J283*
G01*
G74*
D01*
G02X27518Y10199I86J181*
G01*
X23900Y10199D01*
G75*
D01*
G02X23884Y10200I5J201*
G01*
G74*
D01*
G02X23758Y10258I15J199*
G01*
X23658Y10358D01*
G75*
D01*
G02X23599Y10501I141J142*
G01*
X23599Y11517D01*
X23517Y11599D01*
X23322Y11599D01*
G75*
D01*
G02X23280Y11603I-2J201*
G01*
G74*
D01*
G02X23229Y11622I44J196*
G01*
G75*
D01*
G02X22680Y12039I-129J400*
G01*
G74*
D01*
G02X22658Y12058I119J160*
G01*
X22601Y12115D01*
X22601Y8483D01*
X22683Y8401D01*
X22919Y8401D01*
G75*
D01*
G02X22681Y7999I181J-379*
G01*
X22600Y7999D01*
G75*
D01*
G02X22458Y8058I0J201*
G01*
X22401Y8115D01*
X22401Y8083D01*
X22542Y7942D01*
G74*
D01*
G02X22601Y7800I141J142*
G01*
X22601Y7683D01*
X22683Y7601D01*
X22800Y7601D01*
G74*
D01*
G02X22996Y7443I0J201*
G01*
X23370Y7443D01*
G74*
D01*
G02X23521Y7292I0J151*
G01*
X23521Y6752D01*
G75*
D01*
G02X23370Y6601I-151J0*
G01*
X22830Y6601D01*
G75*
D01*
G02X22679Y6752I0J151*
G01*
X22679Y7158D01*
X22658Y7180D01*
G74*
D01*
G02X22641Y7199I140J143*
G01*
X22600Y7199D01*
G75*
D01*
G02X22458Y7258I0J201*
G01*
X22258Y7458D01*
G75*
D01*
G02X22199Y7600I141J142*
G01*
X22199Y7717D01*
X22058Y7858D01*
G75*
D01*
G02X21999Y8000I141J142*
G01*
X21999Y14699D01*
G75*
D01*
G02X22058Y14842I201J1*
G01*
X22158Y14942D01*
G74*
D01*
G02X22284Y15000I141J141*
G01*
G75*
D01*
G02X22300Y15001I20J-199*
G01*
X23600Y15001D01*
G75*
D01*
G02X23666Y14990I0J-201*
G01*
G74*
D01*
G02X23742Y14942I67J190*
G01*
X23883Y14801D01*
X27117Y14801D01*
X27199Y14883D01*
X27199Y14999D01*
G75*
D01*
G02X27258Y15142I201J1*
G01*
X27519Y15403D01*
G74*
D01*
G02X27600Y15599I397J49*
G01*
X27400Y15599D01*
G75*
D01*
G02X27371Y15601I-1J201*
G01*
G74*
D01*
G02X27258Y15658I29J199*
G01*
X27058Y15858D01*
G75*
D01*
G02X26999Y16000I141J142*
G01*
X26999Y23515D01*
X26942Y23458D01*
G74*
D01*
G02X26866Y23410I142J141*
G01*
G75*
D01*
G02X26800Y23399I-66J190*
G01*
X23395Y23399D01*
G75*
D01*
G02X22805Y23399I-295J-299*
G01*
X13512Y23399D01*
G75*
D01*
G02X13304Y23801I-414J41*
G01*
X22805Y23801D01*
G75*
D01*
G02X23395Y23801I295J299*
G01*
X26717Y23801D01*
X26799Y23883D01*
X26799Y24299D01*
G75*
D01*
G02X26858Y24442I201J1*
G01*
X26935Y24519D01*
X26999Y24647D01*
X26999Y25600D01*
G75*
D01*
G02X27058Y25742I201J0*
G01*
X27258Y25942D01*
G74*
D01*
G02X27371Y25999I142J141*
G01*
G75*
D01*
G02X27400Y26001I28J-199*
G01*
X27727Y26001D01*
G75*
D01*
G02X27867Y26751I188J353*
G01*
X28058Y26942D01*
G74*
D01*
G02X28123Y26986I142J140*
G01*
G75*
D01*
G02X28200Y27001I76J-186*
G01*
X34100Y27001D01*
G75*
D01*
G02X34172Y26988I1J-201*
G01*
G74*
D01*
G02X34242Y26942I73J187*
G01*
X34319Y26865D01*
X34447Y26801D01*
X38900Y26801D01*
G75*
D01*
G02X38972Y26788I1J-201*
G01*
G74*
D01*
G02X39042Y26742I73J187*
G01*
X39119Y26665D01*
X39290Y26580D01*
G74*
D01*
G02X39401Y26400I90J180*
G01*
X39401Y23283D01*
X39483Y23201D01*
X45717Y23201D01*
X45799Y23283D01*
X45799Y23400D01*
G75*
D01*
G02X45910Y23580I201J0*
G01*
X46001Y23625D01*
G74*
D01*
G02X46154Y23796I199J24*
G01*
G75*
D01*
G02X46913Y24001I343J237*
G01*
X47000Y24001D01*
G74*
D01*
G02X47142Y23942I0J201*
G01*
X47199Y23885D01*
X47199Y25517D01*
X47117Y25599D01*
X46730Y25599D01*
G75*
D01*
G02X46618Y25633I0J201*
G01*
G75*
D01*
G02X46913Y26001I-120J398*
G01*
X47200Y26001D01*
G74*
D01*
G02X47342Y25942I0J201*
G01*
X47399Y25885D01*
X47399Y26517D01*
X47317Y26599D01*
X46730Y26599D01*
G75*
D01*
G02X46618Y26633I0J201*
G01*
G75*
D01*
G02X46913Y27001I-120J398*
G01*
X47400Y27001D01*
G74*
D01*
G02X47542Y26942I0J201*
G01*
X47742Y26742D01*
G74*
D01*
G02X47801Y26600I141J142*
G01*
X47801Y23683D01*
X47942Y23542D01*
G74*
D01*
G02X48001Y23400I141J142*
G01*
X48001Y15300D01*
G75*
D01*
G02X47942Y15158I-201J0*
G01*
X47842Y15058D01*
G74*
D01*
G02X47772Y15012I142J140*
G01*
G75*
D01*
G02X47700Y14999I-71J188*
G01*
X47683Y14999D01*
X47401Y14717D01*
X47401Y14400D01*
G75*
D01*
G02X47342Y14258I-201J0*
G01*
X47201Y14117D01*
X47201Y13700D01*
G75*
D01*
G02X47142Y13558I-201J0*
G01*
X47042Y13458D01*
G74*
D01*
G02X46972Y13412I142J140*
G01*
G75*
D01*
G02X46900Y13399I-71J188*
G01*
X46000Y13399D01*
X58294Y17947D02*
G75*
D01*
G02X58294Y17947I408J85*
G01*
X46893Y24901D02*
G75*
D01*
G02X46893Y24901I-395J131*
G01*
X58905Y27396D02*
G75*
D01*
G02X58905Y27396I-203J-364*
G01*
X46893Y27901D02*
G75*
D01*
G02X46893Y27901I-395J131*
G01*
X33543Y8498D02*
G75*
D01*
G02X33543Y8498I373J-144*
G01*
X9098Y7368D02*
G75*
D01*
G02X9098Y7368I222J352*
G01*
X18547Y2390D02*
G75*
D01*
G02X18547Y2390I-147J-390*
G01*
X9098Y10632D02*
G75*
D01*
G02X9098Y10632I222J-352*
G01*
X13349Y17947D02*
G75*
D01*
G02X13349Y17947I-246J371*
G01*
X22680Y11022D02*
G75*
D01*
G02X22680Y11022I420J0*
G01*
X22680Y10022D02*
G75*
D01*
G02X22680Y10022I420J0*
G01*
X22680Y9022D02*
G75*
D01*
G02X22680Y9022I420J0*
G01*
X58286Y28032D02*
G75*
D01*
G02X58286Y28032I416J0*
G01*
X58286Y29032D02*
G75*
D01*
G02X58286Y29032I416J0*
G01*
X22680Y25100D02*
G75*
D01*
G02X22680Y25100I420J0*
G01*
X22680Y26100D02*
G75*
D01*
G02X22680Y26100I420J0*
G01*
X58286Y19032D02*
G75*
D01*
G02X58286Y19032I416J0*
G01*
X58286Y20032D02*
G75*
D01*
G02X58286Y20032I416J0*
G01*
X58286Y21032D02*
G75*
D01*
G02X58286Y21032I416J0*
G01*
X58286Y22032D02*
G75*
D01*
G02X58286Y22032I416J0*
G01*
X58286Y23032D02*
G75*
D01*
G02X58286Y23032I416J0*
G01*
X58286Y24032D02*
G75*
D01*
G02X58286Y24032I416J0*
G01*
X58286Y25032D02*
G75*
D01*
G02X58286Y25032I416J0*
G01*
X58286Y26032D02*
G75*
D01*
G02X58286Y26032I416J0*
G01*
X58286Y14032D02*
G75*
D01*
G02X58286Y14032I416J0*
G01*
X58286Y15032D02*
G75*
D01*
G02X58286Y15032I416J0*
G01*
X58286Y16032D02*
G75*
D01*
G02X58286Y16032I416J0*
G01*
X58286Y17032D02*
G75*
D01*
G02X58286Y17032I416J0*
G01*
X23370Y19521D02*
G74*
D01*
G02X23521Y19370I0J151*
G01*
X23521Y18830D01*
G75*
D01*
G02X23370Y18679I-151J0*
G01*
X22830Y18679D01*
G75*
D01*
G02X22679Y18830I0J151*
G01*
X22679Y19370D01*
G75*
D01*
G02X22830Y19521I151J0*
G01*
X23370Y19521D01*
X22680Y20100D02*
G75*
D01*
G02X22680Y20100I420J0*
G01*
X22680Y21100D02*
G75*
D01*
G02X22680Y21100I420J0*
G01*
X22680Y22100D02*
G75*
D01*
G02X22680Y22100I420J0*
G01*
X46301Y29032D02*
G75*
D01*
G02X46301Y29032I197J0*
G01*
X46350Y28642D02*
G74*
D01*
G02X46108Y28884I148J390*
G01*
X46350Y28884D01*
X46350Y28642D01*
X46887Y28884D02*
G74*
D01*
G02X46645Y28642I389J147*
G01*
X46645Y28884D01*
X46887Y28884D01*
X46108Y29179D02*
G74*
D01*
G02X46350Y29421I389J147*
G01*
X46350Y29179D01*
X46108Y29179D01*
X46645Y29421D02*
G74*
D01*
G02X46887Y29179I146J388*
G01*
X46645Y29179D01*
X46645Y29421D01*
X33516Y10354D02*
G75*
D01*
G02X33516Y10354I400J0*
G01*
X33516Y9354D02*
G75*
D01*
G02X33516Y9354I400J0*
G01*
X38312Y9022D02*
G75*
D01*
G02X38312Y9022I420J0*
G01*
X38312Y10022D02*
G75*
D01*
G02X38312Y10022I420J0*
G01*
X38312Y11022D02*
G75*
D01*
G02X38312Y11022I420J0*
G01*
X38312Y12022D02*
G75*
D01*
G02X38312Y12022I420J0*
G01*
X38312Y13022D02*
G75*
D01*
G02X38312Y13022I420J0*
G01*
X38312Y14022D02*
G75*
D01*
G02X38312Y14022I420J0*
G01*
X2046Y2433D02*
G75*
D01*
G02X2046Y2679I98J123*
G01*
X1798Y2679D01*
X1798Y2816D01*
G75*
D01*
G02X1885Y2903I87J0*
G01*
X2141Y2903D01*
X2141Y2714D01*
X2145Y2714D01*
X2382Y2714D01*
X2387Y2714D01*
X2387Y2903D01*
X2642Y2903D01*
G74*
D01*
G02X2729Y2816I0J87*
G01*
X2729Y2679D01*
X2481Y2679D01*
G75*
D01*
G02X2481Y2433I-98J-123*
G01*
X2729Y2433D01*
X2729Y2296D01*
G75*
D01*
G02X2642Y2209I-87J0*
G01*
X2387Y2209D01*
X2387Y2398D01*
X2382Y2398D01*
X2145Y2398D01*
X2141Y2398D01*
X2141Y2209D01*
X1885Y2209D01*
G75*
D01*
G02X1798Y2296I0J87*
G01*
X1798Y2433D01*
X2046Y2433D01*
X3956Y3614D02*
X3956Y3619D01*
X3956Y3855D01*
G74*
D01*
G02X3956Y3860I158J3*
G01*
X3767Y3860D01*
X3767Y4115D01*
G75*
D01*
G02X3854Y4202I87J0*
G01*
X3991Y4202D01*
X3991Y3955D01*
G75*
D01*
G02X4237Y3955I123J-99*
G01*
X4237Y4202D01*
X4374Y4202D01*
G74*
D01*
G02X4461Y4115I0J87*
G01*
X4461Y3860D01*
X4272Y3860D01*
G74*
D01*
G02X4272Y3855I158J2*
G01*
X4272Y3619D01*
X4272Y3614D01*
X4461Y3614D01*
X4461Y3359D01*
G75*
D01*
G02X4374Y3272I-87J0*
G01*
X4237Y3272D01*
X4237Y3519D01*
G75*
D01*
G02X3991Y3519I-123J99*
G01*
X3991Y3272D01*
X3854Y3272D01*
G75*
D01*
G02X3767Y3359I0J87*
G01*
X3767Y3614D01*
X3956Y3614D01*
X1798Y5178D02*
G75*
D01*
G02X1885Y5265I87J0*
G01*
X2642Y5265D01*
G74*
D01*
G02X2729Y5178I0J87*
G01*
X2729Y4658D01*
G75*
D01*
G02X2642Y4571I-87J0*
G01*
X1885Y4571D01*
G75*
D01*
G02X1798Y4658I0J87*
G01*
X1798Y5178D01*
X33516Y7354D02*
G75*
D01*
G02X33516Y7354I400J0*
G01*
X38312Y8022D02*
G75*
D01*
G02X38312Y8022I420J0*
G01*
X39002Y7443D02*
G74*
D01*
G02X39152Y7292I1J151*
G01*
X39152Y6752D01*
G75*
D01*
G02X39002Y6601I-150J-1*
G01*
X38462Y6601D01*
G75*
D01*
G02X38311Y6752I0J151*
G01*
X38311Y7292D01*
G75*
D01*
G02X38462Y7443I151J0*
G01*
X39002Y7443D01*
X18983Y2000D02*
G75*
D01*
G02X18983Y2000I417J0*
G01*
X19983Y2000D02*
G75*
D01*
G02X19983Y2000I417J0*
G01*
X20983Y2000D02*
G75*
D01*
G02X20983Y2000I417J0*
G01*
X21983Y2000D02*
G75*
D01*
G02X21983Y2000I417J0*
G01*
X22983Y2000D02*
G75*
D01*
G02X22983Y2000I417J0*
G01*
X25983Y2000D02*
G75*
D01*
G02X25983Y2000I417J0*
G01*
X7132Y26584D02*
G75*
D01*
G02X7132Y26584I446J0*
G01*
X7172Y21491D02*
X7354Y21308D01*
X7172Y21125D01*
G75*
D01*
G02X7172Y21491I406J183*
G01*
X7984Y21491D02*
G75*
D01*
G02X7984Y21125I-406J-183*
G01*
X7801Y21308D01*
X7984Y21491D01*
X7401Y21308D02*
G75*
D01*
G02X7401Y21308I177J0*
G01*
X7760Y20902D02*
G75*
D01*
G02X7395Y20902I-182J405*
G01*
X7578Y21085D01*
X7760Y20902D01*
X7132Y22292D02*
G75*
D01*
G02X7132Y22292I446J0*
G01*
X7395Y21714D02*
G75*
D01*
G02X7760Y21714I183J-406*
G01*
X7578Y21531D01*
X7395Y21714D01*
X7760Y25194D02*
G75*
D01*
G02X7395Y25194I-182J405*
G01*
X7578Y25377D01*
X7760Y25194D01*
X7395Y26006D02*
G75*
D01*
G02X7760Y26006I183J-406*
G01*
X7578Y25823D01*
X7395Y26006D01*
X7984Y25783D02*
G75*
D01*
G02X7984Y25417I-406J-183*
G01*
X7801Y25600D01*
X7984Y25783D01*
X7172Y25783D02*
X7354Y25600D01*
X7172Y25417D01*
G75*
D01*
G02X7172Y25783I406J183*
G01*
X7401Y25600D02*
G75*
D01*
G02X7401Y25600I177J0*
G01*
X7132Y15784D02*
G75*
D01*
G02X7132Y15784I446J0*
G01*
X7132Y14800D02*
G75*
D01*
G02X7132Y14800I446J0*
G01*
X11463Y7720D02*
G75*
D01*
G02X11463Y7720I417J0*
G01*
X12680Y25361D02*
G75*
D01*
G02X12680Y25361I417J0*
G01*
X11463Y10280D02*
G75*
D01*
G02X11463Y10280I417J0*
G01*
X12658Y13200D02*
G75*
D01*
G02X12658Y13200I445J0*
G01*
X60649Y33349D02*
X-49Y33349D01*
X-49Y-649D01*
X60649Y-649D01*
X60649Y33349D01*
X28313Y8399D02*
X28313Y8398D01*
X28315Y8400D01*
G74*
D01*
G02X28313Y8399I90J178*
G01*
X27727Y9001D02*
G74*
D01*
G02X27693Y9022I193J350*
G01*
G74*
D01*
G02X27672Y9012I96J175*
G01*
X27683Y9001D01*
X27727Y9001D01*
X27996Y12746D02*
G75*
D01*
G02X27996Y12746I-80J-392*
G01*
X27727Y11001D02*
G75*
D01*
G02X28104Y11001I189J353*
G01*
X28200Y11001D01*
G75*
D01*
G02X28255Y10993I-1J-201*
G01*
G74*
D01*
G02X28380Y10890I54J193*
G01*
X28399Y10851D01*
X28399Y13599D01*
X28232Y13599D01*
G75*
D01*
G02X27600Y13599I-316J-244*
G01*
X27400Y13599D01*
G75*
D01*
G02X27258Y13658I0J201*
G01*
X26917Y13999D01*
X23883Y13999D01*
X23801Y13917D01*
X23801Y13700D01*
G75*
D01*
G02X23742Y13558I-201J0*
G01*
X23642Y13458D01*
G74*
D01*
G02X23500Y13399I142J141*
G01*
X23285Y13399D01*
G75*
D01*
G02X23519Y13001I-184J-376*
G01*
X23600Y13001D01*
G75*
D01*
G02X23666Y12990I0J-201*
G01*
G74*
D01*
G02X23742Y12942I67J190*
G01*
X23942Y12742D01*
G74*
D01*
G02X24001Y12600I141J142*
G01*
X24001Y12283D01*
X24142Y12142D01*
G74*
D01*
G02X24201Y12000I141J142*
G01*
X24201Y10883D01*
X24283Y10801D01*
X27317Y10801D01*
X27458Y10942D01*
G74*
D01*
G02X27571Y10999I142J141*
G01*
G75*
D01*
G02X27600Y11001I28J-199*
G01*
X27727Y11001D01*
X23599Y12200D02*
X23599Y12517D01*
X23517Y12599D01*
X23322Y12599D01*
G75*
D01*
G02X23280Y12603I-2J201*
G01*
G74*
D01*
G02X23229Y12622I44J196*
G01*
G75*
D01*
G02X22801Y12727I-129J400*
G01*
X22801Y12483D01*
X22883Y12401D01*
X22919Y12401D01*
G75*
D01*
G02X23519Y12001I181J-379*
G01*
X23600Y12001D01*
G75*
D01*
G02X23666Y11990I0J-201*
G01*
G74*
D01*
G02X23742Y11942I67J190*
G01*
X23799Y11885D01*
X23799Y11917D01*
X23658Y12058D01*
G75*
D01*
G02X23599Y12200I141J142*
G01*
X29171Y11999D02*
G74*
D01*
G03X29058Y11942I29J199*
G01*
X29001Y11885D01*
X29001Y13317D01*
X29083Y13399D01*
X33117Y13399D01*
X33199Y13317D01*
X33199Y13000D01*
G75*
D01*
G03X33258Y12858I201J0*
G01*
X33458Y12658D01*
G74*
D01*
G03X33571Y12601I142J141*
G01*
G74*
D01*
G03X33600Y12599I28J199*
G01*
G75*
D01*
G03X33727Y12001I314J-246*
G01*
X29200Y12001D01*
G75*
D01*
G03X29171Y11999I-1J-201*
G01*
X34104Y12001D02*
G75*
D01*
G03X34206Y12629I-187J353*
G01*
G74*
D01*
G03X34242Y12658I107J170*
G01*
X34319Y12735D01*
X34399Y12775D01*
X34399Y12083D01*
X34317Y12001D01*
X34104Y12001D01*
X33555Y13527D02*
G74*
D01*
G03X33542Y13542I157J123*
G01*
X33485Y13599D01*
X33600Y13599D01*
G74*
D01*
G03X33555Y13527I314J246*
G01*
X33727Y13001D02*
X33683Y13001D01*
X33601Y13083D01*
X33601Y13107D01*
G74*
D01*
G03X33727Y13001I315J247*
G01*
X22620Y13690D02*
G74*
D01*
G02X22747Y13794I180J90*
G01*
G75*
D01*
G02X22915Y14399I353J228*
G01*
X22683Y14399D01*
X22601Y14317D01*
X22601Y13651D01*
X22620Y13690D01*
X23491Y14175D02*
X23515Y14199D01*
X23500Y14199D01*
G75*
D01*
G02X23480Y14200I0J201*
G01*
G74*
D01*
G02X23491Y14175I378J181*
G01*
X27727Y14001D02*
G74*
D01*
G02X27559Y14173I189J353*
G01*
G74*
D01*
G02X27518Y14199I86J181*
G01*
X27285Y14199D01*
X27483Y14001D01*
X27727Y14001D01*
X27701Y15017D02*
G75*
D01*
G03X28206Y15629I220J333*
G01*
G74*
D01*
G03X28242Y15658I107J170*
G01*
X28319Y15735D01*
X28490Y15820D01*
G75*
D01*
G03X28601Y16000I-90J180*
G01*
X28601Y16117D01*
X28683Y16199D01*
X32917Y16199D01*
X32999Y16117D01*
X32999Y15000D01*
G75*
D01*
G03X33058Y14858I201J0*
G01*
X33258Y14658D01*
G74*
D01*
G03X33371Y14601I142J141*
G01*
G75*
D01*
G03X33400Y14599I28J199*
G01*
X33600Y14599D01*
G75*
D01*
G03X33727Y14001I314J-246*
G01*
X28104Y14001D01*
G75*
D01*
G03X27601Y14601I-192J350*
G01*
X27600Y14601D01*
X27485Y14601D01*
X27542Y14658D01*
G75*
D01*
G03X27601Y14800I-141J142*
G01*
X27601Y14917D01*
X27701Y15017D01*
X46001Y14200D02*
G74*
D01*
G03X45942Y14342I201J0*
G01*
X45885Y14399D01*
X46301Y14399D01*
G75*
D01*
G03X46150Y13801I195J-367*
G01*
X46083Y13801D01*
X46001Y13883D01*
X46001Y14200D01*
X46694Y14399D02*
X46900Y14399D01*
G75*
D01*
G03X46915Y14400I-6J201*
G01*
X46858Y14342D01*
G74*
D01*
G03X46822Y14293I141J142*
G01*
G74*
D01*
G03X46694Y14399I324J261*
G01*
X33727Y15001D02*
X33483Y15001D01*
X33401Y15083D01*
X33401Y15715D01*
X33458Y15658D01*
G74*
D01*
G03X33571Y15601I142J141*
G01*
G74*
D01*
G03X33600Y15599I28J199*
G01*
G75*
D01*
G03X33727Y15001I314J-246*
G01*
X46301Y15399D02*
G75*
D01*
G03X46150Y14801I195J-367*
G01*
X45683Y14801D01*
X45601Y14883D01*
X45601Y15515D01*
X45658Y15458D01*
G74*
D01*
G03X45771Y15401I142J141*
G01*
G75*
D01*
G03X45800Y15399I28J199*
G01*
X46301Y15399D01*
X46893Y20163D02*
G75*
D01*
G02X46893Y20163I-395J-131*
G01*
X46893Y21163D02*
G75*
D01*
G02X46893Y21163I-395J-131*
G01*
X46893Y22163D02*
G75*
D01*
G02X46893Y22163I-395J-131*
G01*
X46893Y19163D02*
G75*
D01*
G02X46893Y19163I-395J-131*
G01*
X46082Y18001D02*
G75*
D01*
G02X46377Y17633I416J31*
G01*
G74*
D01*
G02X46334Y17611I112J166*
G01*
G75*
D01*
G02X46266Y17599I-68J188*
G01*
X45975Y17599D01*
G74*
D01*
G02X46001Y17500I175J99*
G01*
X46001Y17483D01*
X46083Y17401D01*
X46304Y17401D01*
G75*
D01*
G02X46082Y16999I193J-369*
G01*
X46000Y16999D01*
G75*
D01*
G02X45971Y17001I-1J201*
G01*
G74*
D01*
G02X45858Y17058I29J199*
G01*
X45801Y17115D01*
X45801Y15883D01*
X45883Y15801D01*
X46150Y15801D01*
G75*
D01*
G02X46691Y16401I347J231*
G01*
X46917Y16401D01*
X46999Y16483D01*
X46999Y22517D01*
X46858Y22658D01*
G74*
D01*
G02X46805Y22750I141J142*
G01*
G75*
D01*
G02X46377Y22633I-307J281*
G01*
G74*
D01*
G02X46334Y22611I112J166*
G01*
G75*
D01*
G02X46266Y22599I-68J188*
G01*
X39483Y22599D01*
X39401Y22517D01*
X39401Y19800D01*
G75*
D01*
G02X39225Y19601I-201J0*
G01*
X39180Y19510D01*
G74*
D01*
G02X39131Y19448I179J91*
G01*
G74*
D01*
G02X39152Y19370I129J77*
G01*
X39152Y18830D01*
G75*
D01*
G02X39002Y18679I-150J-1*
G01*
X38462Y18679D01*
G75*
D01*
G02X38311Y18830I0J151*
G01*
X38311Y19370D01*
G74*
D01*
G02X38318Y19416I151J1*
G01*
G74*
D01*
G02X38201Y19575I83J183*
G01*
X38153Y19599D01*
X34883Y19599D01*
X34801Y19517D01*
X34801Y17975D01*
G74*
D01*
G02X34884Y18000I98J175*
G01*
G75*
D01*
G02X34900Y18001I20J-199*
G01*
X46082Y18001D01*
X46845Y15801D02*
G74*
D01*
G03X46913Y15999I347J230*
G01*
X47000Y15999D01*
G74*
D01*
G03X47142Y16058I0J201*
G01*
X47199Y16115D01*
X47199Y15883D01*
X47117Y15801D01*
X46845Y15801D01*
X46910Y15380D02*
G74*
D01*
G03X46822Y15293I90J179*
G01*
G74*
D01*
G03X46694Y15399I324J261*
G01*
X46949Y15399D01*
X46910Y15380D01*
X27727Y16001D02*
G75*
D01*
G02X27600Y16599I189J353*
G01*
G74*
D01*
G02X27571Y16601I1J201*
G01*
G74*
D01*
G02X27458Y16658I29J199*
G01*
X27401Y16715D01*
X27401Y16083D01*
X27483Y16001D01*
X27727Y16001D01*
X28313Y16398D02*
X28315Y16399D01*
X28313Y16399D01*
X28313Y16398D01*
X33585Y16579D02*
G74*
D01*
G03X33575Y16599I185J80*
G01*
X33600Y16599D01*
G74*
D01*
G03X33585Y16579I312J249*
G01*
X33601Y16107D02*
G74*
D01*
G03X33727Y16001I315J247*
G01*
X33683Y16001D01*
X33601Y16083D01*
X33601Y16107D01*
X27601Y17107D02*
X27601Y17083D01*
X27683Y17001D01*
X27727Y17001D01*
G74*
D01*
G02X27601Y17107I189J353*
G01*
X33741Y26354D02*
G75*
D01*
G02X33741Y26354I175J0*
G01*
X33551Y26518D02*
X33715Y26354D01*
X33551Y26190D01*
G75*
D01*
G02X33551Y26518I365J164*
G01*
X34080Y25989D02*
G75*
D01*
G02X33752Y25989I-164J365*
G01*
X33916Y26153D01*
X34080Y25989D01*
X33516Y25354D02*
G75*
D01*
G02X33516Y25354I400J0*
G01*
X33516Y21354D02*
G75*
D01*
G02X33516Y21354I400J0*
G01*
X28313Y24403D02*
G75*
D01*
G02X27764Y23984I-397J-49*
G01*
G74*
D01*
G02X27742Y23958I163J116*
G01*
X27665Y23881D01*
X27601Y23753D01*
X27601Y23600D01*
G75*
D01*
G02X27601Y23107I314J-246*
G01*
X27601Y22600D01*
G75*
D01*
G02X28313Y22398I315J-245*
G01*
X28458Y22542D01*
G74*
D01*
G02X28571Y22599I142J141*
G01*
G75*
D01*
G02X28600Y22601I28J-199*
G01*
X29117Y22601D01*
G75*
D01*
G02X29655Y22635I283J-201*
G01*
G75*
D01*
G02X30001Y22253I344J-36*
G01*
X30001Y22100D01*
G75*
D01*
G02X29942Y21958I-201J0*
G01*
X29842Y21858D01*
G74*
D01*
G02X29772Y21812I142J140*
G01*
G75*
D01*
G02X29700Y21799I-71J188*
G01*
X28883Y21799D01*
X28801Y21717D01*
X28801Y21400D01*
G75*
D01*
G02X28742Y21258I-201J0*
G01*
X28601Y21117D01*
X28601Y20800D01*
G75*
D01*
G02X28542Y20658I-201J0*
G01*
X28342Y20458D01*
G74*
D01*
G02X28308Y20431I141J142*
G01*
G75*
D01*
G02X27601Y20107I-391J-81*
G01*
X27601Y19600D01*
G75*
D01*
G02X28279Y19185I321J-237*
G01*
G74*
D01*
G02X28342Y19142I80J185*
G01*
X28542Y18942D01*
G74*
D01*
G02X28601Y18800I141J142*
G01*
X28601Y17083D01*
X28683Y17001D01*
X33727Y17001D01*
G75*
D01*
G02X33867Y17751I188J353*
G01*
G74*
D01*
G02X33934Y17790I133J151*
G01*
G75*
D01*
G02X34000Y17801I66J-190*
G01*
X34117Y17801D01*
X34199Y17883D01*
X34199Y18071D01*
G75*
D01*
G02X34199Y18636I-283J283*
G01*
X34199Y19071D01*
G75*
D01*
G02X34199Y19636I-283J283*
G01*
X34199Y19899D01*
G75*
D01*
G02X34225Y19999I201J1*
G01*
X34101Y19999D01*
G75*
D01*
G02X34313Y20401I-185J355*
G01*
X37917Y20401D01*
X37999Y20483D01*
X37999Y22225D01*
G74*
D01*
G02X37972Y22212I100J174*
G01*
G75*
D01*
G02X37900Y22199I-71J188*
G01*
X34285Y22199D01*
G75*
D01*
G02X34230Y22601I-369J154*
G01*
X34315Y22601D01*
X34117Y22799D01*
X34000Y22799D01*
G75*
D01*
G02X33934Y22810I0J201*
G01*
G74*
D01*
G02X33858Y22858I67J190*
G01*
X33774Y22942D01*
G74*
D01*
G02X33735Y22997I141J142*
G01*
G75*
D01*
G02X34279Y23185I181J357*
G01*
G74*
D01*
G02X34342Y23142I80J185*
G01*
X34683Y22801D01*
X37517Y22801D01*
X37599Y22883D01*
X37599Y25800D01*
G75*
D01*
G02X37658Y25942I201J0*
G01*
X37858Y26142D01*
G74*
D01*
G02X37971Y26199I142J141*
G01*
G75*
D01*
G02X38000Y26201I28J-199*
G01*
X38317Y26201D01*
X38327Y26211D01*
G74*
D01*
G02X38437Y26399I404J110*
G01*
X34400Y26399D01*
G75*
D01*
G02X34364Y26402I-1J201*
G01*
G74*
D01*
G02X34310Y26420I36J198*
G01*
G75*
D01*
G02X34281Y26190I-393J-67*
G01*
X34116Y26354D01*
X34225Y26463D01*
X34110Y26520D01*
G74*
D01*
G02X34058Y26558I91J179*
G01*
X34017Y26599D01*
X33961Y26599D01*
X33916Y26554D01*
X33871Y26599D01*
X28283Y26599D01*
X28253Y26569D01*
G75*
D01*
G02X28104Y26001I-336J-215*
G01*
X28200Y26001D01*
G75*
D01*
G02X28255Y25993I-1J-201*
G01*
G74*
D01*
G02X28380Y25890I54J193*
G01*
X28425Y25799D01*
G74*
D01*
G02X28601Y25600I24J199*
G01*
X28601Y24683D01*
X28683Y24601D01*
X33600Y24601D01*
X33601Y24601D01*
G75*
D01*
G02X33559Y24173I315J-247*
G01*
G74*
D01*
G02X33518Y24199I86J181*
G01*
X28600Y24199D01*
G75*
D01*
G02X28571Y24201I-1J201*
G01*
G74*
D01*
G02X28458Y24258I29J199*
G01*
X28313Y24403D01*
X28166Y16990D02*
G74*
D01*
G03X28104Y17001I66J190*
G01*
G74*
D01*
G03X28199Y17071I187J353*
G01*
X28199Y17000D01*
G75*
D01*
G03X28201Y16974I201J2*
G01*
G74*
D01*
G03X28166Y16990I101J174*
G01*
X28199Y18071D02*
X28199Y17636D01*
G75*
D01*
G03X27601Y17600I-283J-281*
G01*
X27601Y18107D01*
G75*
D01*
G03X28199Y18071I315J247*
G01*
X28199Y18636D02*
G75*
D01*
G03X27601Y18600I-283J-281*
G01*
X27601Y19107D01*
G74*
D01*
G03X27735Y18997I315J247*
G01*
G74*
D01*
G03X27774Y18942I180J87*
G01*
X27858Y18858D01*
G74*
D01*
G03X27934Y18810I142J141*
G01*
G75*
D01*
G03X28000Y18799I66J190*
G01*
X28117Y18799D01*
X28199Y18717D01*
X28199Y18636D01*
X28000Y20801D02*
G75*
D01*
G03X27934Y20790I0J-201*
G01*
G74*
D01*
G03X27867Y20751I66J190*
G01*
G74*
D01*
G03X27601Y20600I49J397*
G01*
X27601Y21107D01*
G75*
D01*
G03X28199Y21071I315J247*
G01*
X28199Y20883D01*
X28117Y20801D01*
X28000Y20801D01*
X38999Y20776D02*
X38999Y20424D01*
G75*
D01*
G03X38395Y20351I-267J-323*
G01*
G75*
D01*
G03X38401Y20400I-195J49*
G01*
X38401Y20841D01*
G75*
D01*
G03X38999Y20776I331J259*
G01*
X38327Y20211D02*
X38317Y20201D01*
X38285Y20201D01*
X38342Y20258D01*
X38343Y20259D01*
G74*
D01*
G03X38327Y20211I390J157*
G01*
X28313Y21398D02*
X28399Y21483D01*
X28399Y21515D01*
X28342Y21458D01*
G74*
D01*
G02X28308Y21431I141J142*
G01*
G74*
D01*
G02X28313Y21398I392J76*
G01*
X38999Y21776D02*
X38999Y21424D01*
G75*
D01*
G03X38401Y21359I-267J-323*
G01*
X38401Y21841D01*
G75*
D01*
G03X38999Y21776I331J259*
G01*
X28000Y21801D02*
G75*
D01*
G03X27934Y21790I0J-201*
G01*
G74*
D01*
G03X27867Y21751I66J190*
G01*
G74*
D01*
G03X27601Y21600I49J397*
G01*
X27601Y22107D01*
G75*
D01*
G03X28199Y22071I315J247*
G01*
X28199Y21883D01*
X28117Y21801D01*
X28000Y21801D01*
X28772Y22199D02*
X28683Y22199D01*
X28601Y22117D01*
X28601Y22085D01*
X28658Y22142D01*
G74*
D01*
G02X28771Y22199I142J141*
G01*
X28772Y22199D01*
X38999Y22424D02*
G75*
D01*
G03X38401Y22359I-267J-323*
G01*
X38401Y22717D01*
X38462Y22778D01*
G75*
D01*
G03X39135Y22981I270J322*
G01*
X39216Y22900D01*
X39058Y22742D01*
G75*
D01*
G03X38999Y22600I141J-142*
G01*
X38999Y22424D01*
X38999Y24776D02*
X38999Y24424D01*
G75*
D01*
G03X38999Y23776I-266J-324*
G01*
X38999Y23424D01*
G75*
D01*
G03X38327Y23211I-268J-322*
G01*
X38201Y23085D01*
X38201Y24717D01*
X38283Y24799D01*
X38400Y24799D01*
G75*
D01*
G03X38436Y24802I1J201*
G01*
G75*
D01*
G03X38999Y24776I296J298*
G01*
X27519Y25403D02*
G74*
D01*
G02X27600Y25599I397J49*
G01*
X27483Y25599D01*
X27401Y25517D01*
X27401Y25285D01*
X27519Y25403D01*
X28199Y24636D02*
G75*
D01*
G03X27601Y24600I-283J-281*
G01*
X27601Y24917D01*
X27701Y25017D01*
G75*
D01*
G03X28199Y25071I216J336*
G01*
X28199Y24636D01*
X38999Y25424D02*
G75*
D01*
G03X38327Y25211I-268J-322*
G01*
X38317Y25201D01*
X38200Y25201D01*
G75*
D01*
G03X38171Y25199I-1J-201*
G01*
G74*
D01*
G03X38058Y25142I29J199*
G01*
X38001Y25085D01*
X38001Y25717D01*
X38083Y25799D01*
X38400Y25799D01*
G75*
D01*
G03X38436Y25802I1J201*
G01*
G75*
D01*
G03X38999Y25776I296J298*
G01*
X38999Y25424D01*
X7578Y25600D02*
X7378Y25400D01*
X7200Y25400D01*
X7000Y25200D01*
X7000Y21600D01*
X7292Y21308D01*
X7578Y21308D01*
X38732Y26100D02*
X38500Y26100D01*
X38400Y26000D01*
X38000Y26000D01*
X37800Y25800D01*
X37800Y22800D01*
X37600Y22600D01*
X34600Y22600D01*
X34200Y23000D01*
X34000Y23000D01*
X33916Y23084D01*
X33916Y23354D01*
X46498Y26032D02*
X46729Y25800D01*
X47200Y25800D01*
X47400Y25600D01*
X47600Y15500D02*
X47500Y15400D01*
X47000Y14700D02*
X46900Y14600D01*
X45600Y14600D01*
X45400Y14800D01*
X34400Y13000D02*
X34200Y12900D01*
X34100Y12800D01*
X33600Y12800D01*
X33400Y13000D01*
X33400Y13400D01*
X33200Y13600D01*
X29000Y13600D01*
X28800Y13400D01*
X28300Y8600D02*
X28000Y8600D01*
X27916Y8516D01*
X27916Y8354D01*
X47400Y25600D02*
X47400Y23300D01*
X47600Y23100D01*
X47600Y15500D01*
X47500Y15400D02*
X47300Y15400D01*
X47200Y15400D01*
X47200Y15300D01*
X47000Y15200D01*
X47000Y14700D01*
X45400Y14800D02*
X45400Y17100D01*
X45300Y17200D01*
X35500Y17200D01*
X35400Y17100D01*
X35400Y16400D01*
X35200Y16200D01*
X35100Y16200D01*
X35000Y16100D01*
X35000Y15500D01*
X34800Y15300D01*
X34800Y14700D01*
X34600Y14500D01*
X34600Y13900D01*
X34400Y13700D01*
X34400Y13000D01*
X28800Y13400D02*
X28800Y9100D01*
X28300Y8600D01*
X27916Y9354D02*
X27754Y9354D01*
X27600Y9200D01*
X24500Y9200D01*
X24400Y9100D01*
X24400Y2000D01*
X27916Y9354D02*
X28154Y9354D01*
X28400Y9600D01*
X28400Y10500D01*
X28400Y10600D01*
X28300Y10600D01*
X28200Y10800D01*
X27600Y10800D01*
X27400Y10600D01*
X24200Y10600D01*
X24000Y10800D01*
X24000Y12000D01*
X23800Y12200D01*
X23800Y12600D01*
X23600Y12800D01*
X23322Y12800D01*
X23100Y13022D01*
X27916Y10354D02*
X27646Y10354D01*
X27600Y10400D01*
X23800Y11600D02*
X23600Y11800D01*
X23322Y11800D01*
X23100Y12022D01*
X27600Y10400D02*
X23900Y10400D01*
X23800Y10500D01*
X23800Y11600D01*
X46498Y18032D02*
X46266Y17800D01*
X33600Y15800D02*
X33400Y16000D01*
X28300Y16600D02*
X28100Y16800D01*
X27600Y16800D01*
X27400Y17000D01*
X27754Y24354D02*
X27916Y24354D01*
X46266Y17800D02*
X34900Y17800D01*
X34800Y17700D01*
X34800Y17300D01*
X34600Y17100D01*
X34600Y16900D01*
X34400Y16700D01*
X34400Y16100D01*
X34100Y15800D01*
X33600Y15800D01*
X33400Y16000D02*
X33400Y16500D01*
X33300Y16600D01*
X28300Y16600D01*
X27400Y17000D02*
X27400Y23800D01*
X27500Y24000D01*
X27600Y24100D01*
X27600Y24200D01*
X27754Y24354D01*
X27916Y15354D02*
X27754Y15354D01*
X27400Y15000D01*
X27400Y14800D01*
X27200Y14600D01*
X23800Y14600D01*
X23600Y14800D01*
X22300Y14800D01*
X22200Y14700D01*
X22200Y8000D01*
X22400Y7800D01*
X22400Y7600D01*
X22600Y7400D01*
X22800Y7400D01*
X22800Y7322D01*
X23100Y7022D01*
X29400Y22400D02*
X28600Y22400D01*
X28400Y22200D01*
X28400Y21800D01*
X28200Y21600D01*
X28000Y21600D01*
X27916Y21516D01*
X27916Y21354D01*
X46498Y23032D02*
X46266Y22800D01*
X39400Y22800D01*
X39200Y22600D01*
X39200Y19900D01*
X39200Y19800D01*
X39100Y19800D01*
X39000Y19600D01*
X38500Y19600D01*
X38400Y19600D01*
X38400Y19700D01*
X38200Y19800D01*
X34800Y19800D01*
X34600Y19600D01*
X34100Y16800D02*
X28600Y16800D01*
X28400Y17000D01*
X28400Y18800D01*
X28200Y19000D01*
X28000Y19000D01*
X27916Y19084D01*
X27916Y19354D01*
X34600Y19600D02*
X34600Y17500D01*
X34400Y17300D01*
X34400Y17100D01*
X34100Y16800D01*
X38732Y23100D02*
X38500Y23100D01*
X38200Y22800D01*
X38200Y20400D01*
X38000Y20200D01*
X34070Y20200D01*
X33916Y20354D01*
X30000Y22600D02*
X29800Y22400D01*
X29800Y22100D01*
X29700Y22000D01*
X28800Y22000D01*
X28600Y21800D01*
X28600Y21400D01*
X28400Y21200D01*
X28400Y20800D01*
X28200Y20600D01*
X28000Y20600D01*
X27916Y20516D01*
X27916Y20354D01*
X46498Y24032D02*
X46729Y23800D01*
X47000Y23800D01*
X47200Y23600D01*
X47400Y15800D02*
X47200Y15600D01*
X45800Y15600D01*
X45600Y15800D01*
X35200Y16900D02*
X35200Y16800D01*
X35100Y16800D01*
X35000Y16600D01*
X34100Y13800D02*
X28600Y13800D01*
X47200Y23600D02*
X47200Y23100D01*
X47400Y22900D01*
X47400Y15800D01*
X45600Y15800D02*
X45600Y17300D01*
X45500Y17400D01*
X35300Y17400D01*
X35200Y17300D01*
X35200Y16900D01*
X35000Y16600D02*
X35000Y16500D01*
X34800Y16300D01*
X34800Y15700D01*
X34600Y15500D01*
X34600Y14900D01*
X34400Y14700D01*
X34400Y14100D01*
X34100Y13800D01*
X38732Y25100D02*
X38500Y25100D01*
X38400Y25000D01*
X38200Y25000D01*
X38000Y24800D01*
X34200Y22400D02*
X34154Y22354D01*
X33916Y22354D01*
X38000Y24800D02*
X38000Y22500D01*
X37900Y22400D01*
X34200Y22400D01*
X38732Y20100D02*
X38500Y20100D01*
X38400Y20000D01*
X34400Y17800D02*
X34200Y17600D01*
X34000Y17600D01*
X33916Y17516D01*
X33916Y17354D01*
X38400Y20000D02*
X34500Y20000D01*
X34400Y19900D01*
X34400Y17800D01*
X46498Y16032D02*
X46666Y16200D01*
X47000Y16200D01*
X47200Y16400D01*
X47200Y22600D01*
X47000Y22800D01*
X47000Y23300D01*
X47000Y23400D01*
X46900Y23400D01*
X46800Y23600D01*
X46300Y23600D01*
X46200Y23600D01*
X46200Y23500D01*
X46000Y23400D01*
X46000Y23200D01*
X45800Y23000D01*
X39400Y23000D01*
X39200Y23200D01*
X39200Y26400D01*
X39000Y26500D01*
X38900Y26600D01*
X34400Y26600D01*
X34200Y26700D01*
X34100Y26800D01*
X28200Y26800D01*
X27916Y26516D01*
X27916Y26354D01*
X33916Y24354D02*
X33646Y24354D01*
X33600Y24400D01*
X28600Y24400D01*
X28400Y24600D01*
X28400Y25500D01*
X28400Y25600D01*
X28300Y25600D01*
X28200Y25800D01*
X27400Y25800D01*
X27200Y25600D01*
X27200Y24600D01*
X27100Y24400D01*
X27000Y24300D01*
X27000Y23800D01*
X26800Y23600D01*
X13258Y23600D01*
X13097Y23439D01*
X27916Y14354D02*
X27646Y14354D01*
X27600Y14400D01*
X22600Y14600D02*
X22400Y14400D01*
X22400Y8400D01*
X22600Y8200D01*
X22922Y8200D01*
X23100Y8022D01*
X27600Y14400D02*
X23500Y14400D01*
X23300Y14600D01*
X22600Y14600D01*
X23100Y12022D02*
X22922Y12200D01*
X22800Y12200D01*
X22600Y12400D01*
X22600Y13300D01*
X22600Y13400D01*
X22700Y13400D01*
X22800Y13600D01*
X23500Y13600D01*
X23600Y13700D01*
X23600Y14000D01*
X23800Y14200D01*
X27000Y14200D01*
X27400Y13800D01*
X28100Y8800D02*
X27600Y8800D01*
X27400Y9000D01*
X24800Y9000D01*
X24600Y8800D01*
X24600Y3000D01*
X24800Y2800D01*
X25000Y2800D01*
X25200Y2600D01*
X25200Y2200D01*
X25400Y2000D01*
X27400Y13800D02*
X28600Y13800D01*
X28600Y9300D01*
X28100Y8800D01*
X46498Y17032D02*
X46329Y17200D01*
X46000Y17200D01*
X33400Y14800D02*
X33200Y15000D01*
X33200Y16200D01*
X33000Y16400D01*
X28600Y16400D01*
X28400Y16200D01*
X28400Y16000D01*
X28200Y15900D01*
X28100Y15800D01*
X27400Y15800D01*
X27200Y16000D01*
X27400Y25000D02*
X27754Y25354D01*
X27916Y25354D01*
X46000Y17200D02*
X45800Y17400D01*
X45800Y17500D01*
X45700Y17600D01*
X35100Y17600D01*
X35000Y17500D01*
X35000Y17100D01*
X34800Y16900D01*
X34800Y16700D01*
X34600Y16500D01*
X34600Y15900D01*
X34400Y15700D01*
X34400Y15100D01*
X34100Y14800D01*
X33400Y14800D01*
X27200Y16000D02*
X27200Y24100D01*
X27400Y24300D01*
X27400Y25000D01*
X46498Y27032D02*
X46729Y26800D01*
X47400Y26800D01*
X47600Y26600D01*
X47600Y23600D01*
X47800Y23400D01*
X47800Y15300D01*
X47700Y15200D01*
X47600Y15200D01*
X47200Y14800D01*
X47200Y14400D01*
X47000Y14200D01*
X47000Y13700D01*
X46900Y13600D01*
X46000Y13600D01*
X45800Y13800D01*
X45800Y14200D01*
X45600Y14400D01*
X45300Y14400D01*
X45200Y14500D01*
X45200Y16800D01*
X45000Y17000D01*
X35800Y17000D01*
X35600Y16800D01*
X35600Y16100D01*
X35500Y16000D01*
X35400Y16000D01*
X35200Y15800D01*
X35200Y15200D01*
X35000Y15000D01*
X35000Y14400D01*
X34800Y14200D01*
X34800Y13600D01*
X34600Y13400D01*
X34600Y12000D01*
X34400Y11800D01*
X29200Y11800D01*
X29000Y11600D01*
X29000Y8800D01*
X28400Y8200D01*
X28400Y7800D01*
X28200Y7600D01*
X28000Y7600D01*
X27916Y7516D01*
X27916Y7354D01*
G54D12*
G36*
X2579Y2359D02*
X2579Y2359D01*
X2579Y2753D01*
X1949Y2753D01*
X1949Y2359D01*
X2579Y2359D01*
D02*
G37*
X2579Y2753D01*
X1949Y2753D01*
X1949Y2359D01*
X2579Y2359D01*
G36*
X2579Y4721D02*
X2579Y4721D01*
X2579Y5115D01*
X1949Y5115D01*
X1949Y4721D01*
X2579Y4721D01*
D02*
G37*
X2579Y5115D01*
X1949Y5115D01*
X1949Y4721D01*
X2579Y4721D01*
G36*
X3917Y3422D02*
X3917Y3422D01*
X4311Y3422D01*
X4311Y4052D01*
X3917Y4052D01*
X3917Y3422D01*
D02*
G37*
X4311Y3422D01*
X4311Y4052D01*
X3917Y4052D01*
X3917Y3422D01*
G54D13*
X-350Y-950D02*
X-350Y2510D01*
X-350Y-950D02*
X5780Y-950D01*
X60950Y-950D02*
X54820Y-950D01*
X60950Y-950D02*
X60950Y2510D01*
X60950Y33650D02*
X60950Y30190D01*
X60950Y33650D02*
X54820Y33650D01*
X-350Y33650D02*
X5780Y33650D01*
X-350Y33650D02*
X-350Y30190D01*
X-2319Y-950D02*
X-6256Y-950D01*
X-4287Y-2919D02*
X-4287Y1019D01*
X-5763Y-950D02*
G75*
D01*
G02X-5763Y-950I1476J0*
G01*
X62919Y-950D02*
X66856Y-950D01*
X64887Y-2919D02*
X64887Y1019D01*
X63411Y-950D02*
G75*
D01*
G02X63411Y-950I1476J0*
G01*
X64395Y-950D02*
G75*
D01*
G02X64395Y-950I492J0*
G01*
X-2319Y33650D02*
X-6256Y33650D01*
X-4287Y31681D02*
X-4287Y35619D01*
X-5763Y33650D02*
G75*
D01*
G02X-5763Y33650I1476J0*
G01*
X-5271Y33650D02*
G75*
D01*
G02X-5271Y33650I984J0*
G01*
X-4779Y33650D02*
G75*
D01*
G02X-4779Y33650I492J0*
G01*
G54D14*
X23100Y26100D03*
X23100Y25100D03*
X23100Y24100D03*
X23100Y23100D03*
X23100Y22100D03*
X23100Y21100D03*
X23100Y20100D03*
X38732Y26100D03*
X38732Y25100D03*
X38732Y24100D03*
X38732Y23100D03*
X38732Y22100D03*
X38732Y21100D03*
X38732Y20100D03*
X23100Y14022D03*
X23100Y13022D03*
X23100Y12022D03*
X23100Y11022D03*
X23100Y10022D03*
X23100Y9022D03*
X23100Y8022D03*
X38732Y14022D03*
X38732Y13022D03*
X38732Y12022D03*
X38732Y11022D03*
X38732Y10022D03*
X38732Y9022D03*
X38732Y8022D03*
G54D15*
X23100Y19100D03*
X38732Y19100D03*
X23100Y7022D03*
X38732Y7022D03*
G54D16*
X33916Y12354D03*
X27916Y12354D03*
X27916Y9354D03*
X27916Y8354D03*
X27916Y7354D03*
X27916Y11354D03*
X27916Y10354D03*
X27916Y18354D03*
X27916Y15354D03*
X27916Y14354D03*
X27916Y13354D03*
X27916Y17354D03*
X27916Y16354D03*
X27916Y21354D03*
X27916Y20354D03*
X27916Y19354D03*
X27916Y24354D03*
X27916Y23354D03*
X27916Y22354D03*
X27916Y25354D03*
X27916Y26354D03*
X33916Y9354D03*
X33916Y8354D03*
X33916Y7354D03*
X33916Y11354D03*
X33916Y10354D03*
X33916Y18354D03*
X33916Y15354D03*
X33916Y14354D03*
X33916Y13354D03*
X33916Y16354D03*
X33916Y17354D03*
X33916Y21354D03*
X33916Y19354D03*
X33916Y20354D03*
X33916Y24354D03*
X33916Y22354D03*
X33916Y23354D03*
X33916Y25354D03*
X33916Y26354D03*
G54D17*
X46498Y29032D03*
X46498Y28032D03*
X46498Y27032D03*
X46498Y26032D03*
X46498Y25032D03*
X46498Y24032D03*
X46498Y23032D03*
X46498Y22032D03*
X46498Y21032D03*
X46498Y20032D03*
X46498Y19032D03*
X46498Y18032D03*
X46498Y17032D03*
X46498Y16032D03*
X46498Y15032D03*
X46498Y14032D03*
X58702Y29032D03*
X58702Y28032D03*
X58702Y27032D03*
X58702Y26032D03*
X58702Y25032D03*
X58702Y24032D03*
X58702Y23032D03*
X58702Y22032D03*
X58702Y21032D03*
X58702Y20032D03*
X58702Y19032D03*
X58702Y18032D03*
X58702Y17032D03*
X58702Y16032D03*
X58702Y15032D03*
X58702Y14032D03*
X13097Y23439D03*
X13097Y25361D03*
X9320Y7720D03*
X11880Y7720D03*
X9320Y10280D03*
X11880Y10280D03*
X18400Y2000D03*
X19400Y2000D03*
X20400Y2000D03*
X21400Y2000D03*
X22400Y2000D03*
X23400Y2000D03*
X24400Y2000D03*
X25400Y2000D03*
X26400Y2000D03*
G54D18*
X13103Y18318D03*
X13103Y13200D03*
X7578Y15784D03*
X7578Y14800D03*
X7578Y22292D03*
X7578Y21308D03*
X7578Y26584D03*
X7578Y25600D03*
G54D19*
X29400Y22400D03*
X30000Y22600D03*

M02*
