G04 Generated by Ultiboard 13.0 *
%FSLAX24Y24*%
%MOIN*%

%ADD10C,0.0001*%
%ADD11C,0.0061*%
%ADD12C,0.0080*%
%ADD13C,0.0039*%
%ADD14C,0.0079*%
%ADD15C,0.0050*%


G04 ColorRGB FFFF00 for the following layer *
%LNSilkscreen Top*%
%LPD*%
G54D10*
G54D11*
X22018Y23861D02*
X22412Y23861D01*
X22412Y23704D01*
X22333Y23626D01*
X22294Y23626D01*
X22215Y23704D01*
X22215Y23861D01*
X22333Y23508D02*
X22412Y23430D01*
X22412Y23351D01*
X22333Y23273D01*
X22294Y23273D01*
X22018Y23508D01*
X22018Y23273D01*
X22057Y23273D01*
X22018Y23155D02*
X22018Y22920D01*
X22018Y22803D02*
X22412Y22803D01*
X22018Y22567D02*
X22412Y22567D01*
X22215Y22803D02*
X22215Y22567D01*
X22018Y22215D02*
X22018Y22450D01*
X22215Y22450D01*
X22412Y22450D01*
X22412Y22215D01*
X22215Y22450D02*
X22215Y22293D01*
X22018Y22097D02*
X22254Y22097D01*
X22412Y22019D01*
X22412Y21940D01*
X22254Y21862D01*
X22018Y21862D01*
X22136Y22097D02*
X22136Y21862D01*
X22018Y21744D02*
X22018Y21587D01*
X22097Y21509D01*
X22333Y21509D01*
X22412Y21587D01*
X22412Y21744D01*
X22412Y21705D02*
X22018Y21705D01*
X22018Y21156D02*
X22018Y21392D01*
X22215Y21392D01*
X22412Y21392D01*
X22412Y21156D01*
X22215Y21392D02*
X22215Y21235D01*
X22018Y21039D02*
X22412Y21039D01*
X22412Y20882D01*
X22333Y20804D01*
X22294Y20804D01*
X22215Y20882D01*
X22215Y21039D01*
X22215Y21000D02*
X22018Y20804D01*
X37709Y24148D02*
X38102Y24148D01*
X38102Y23991D01*
X38024Y23913D01*
X37984Y23913D01*
X37906Y23991D01*
X37906Y24148D01*
X38063Y23756D02*
X38102Y23717D01*
X38102Y23639D01*
X38024Y23560D01*
X37945Y23560D01*
X37906Y23599D01*
X37866Y23560D01*
X37787Y23560D01*
X37709Y23639D01*
X37709Y23717D01*
X37748Y23756D01*
X37906Y23717D02*
X37906Y23599D01*
X37709Y23443D02*
X37709Y23208D01*
X37709Y23090D02*
X38102Y23090D01*
X37709Y22855D02*
X38102Y22855D01*
X37906Y23090D02*
X37906Y22855D01*
X37709Y22502D02*
X37709Y22737D01*
X37906Y22737D01*
X38102Y22737D01*
X38102Y22502D01*
X37906Y22737D02*
X37906Y22580D01*
X37709Y22384D02*
X37945Y22384D01*
X38102Y22306D01*
X38102Y22228D01*
X37945Y22149D01*
X37709Y22149D01*
X37827Y22384D02*
X37827Y22149D01*
X37709Y22032D02*
X37709Y21875D01*
X37787Y21797D01*
X38024Y21797D01*
X38102Y21875D01*
X38102Y22032D01*
X38102Y21992D02*
X37709Y21992D01*
X37709Y21444D02*
X37709Y21679D01*
X37906Y21679D01*
X38102Y21679D01*
X38102Y21444D01*
X37906Y21679D02*
X37906Y21522D01*
X37709Y21326D02*
X38102Y21326D01*
X38102Y21169D01*
X38024Y21091D01*
X37984Y21091D01*
X37906Y21169D01*
X37906Y21326D01*
X37906Y21287D02*
X37709Y21091D01*
X22077Y12070D02*
X22471Y12070D01*
X22471Y11913D01*
X22392Y11835D01*
X22353Y11835D01*
X22274Y11913D01*
X22274Y12070D01*
X22392Y11717D02*
X22471Y11639D01*
X22471Y11561D01*
X22392Y11482D01*
X22156Y11482D01*
X22077Y11561D01*
X22077Y11639D01*
X22156Y11717D01*
X22392Y11717D01*
X22392Y11482D02*
X22156Y11717D01*
X22077Y11365D02*
X22077Y11129D01*
X22077Y11012D02*
X22471Y11012D01*
X22077Y10777D02*
X22471Y10777D01*
X22274Y11012D02*
X22274Y10777D01*
X22077Y10424D02*
X22077Y10659D01*
X22274Y10659D01*
X22471Y10659D01*
X22471Y10424D01*
X22274Y10659D02*
X22274Y10502D01*
X22077Y10306D02*
X22313Y10306D01*
X22471Y10228D01*
X22471Y10150D01*
X22313Y10071D01*
X22077Y10071D01*
X22195Y10306D02*
X22195Y10071D01*
X22077Y9954D02*
X22077Y9797D01*
X22156Y9718D01*
X22392Y9718D01*
X22471Y9797D01*
X22471Y9954D01*
X22471Y9914D02*
X22077Y9914D01*
X22077Y9366D02*
X22077Y9601D01*
X22274Y9601D01*
X22471Y9601D01*
X22471Y9366D01*
X22274Y9601D02*
X22274Y9444D01*
X22077Y9248D02*
X22471Y9248D01*
X22471Y9091D01*
X22392Y9013D01*
X22353Y9013D01*
X22274Y9091D01*
X22274Y9248D01*
X22274Y9209D02*
X22077Y9013D01*
X37709Y12070D02*
X38102Y12070D01*
X38102Y11913D01*
X38024Y11835D01*
X37984Y11835D01*
X37906Y11913D01*
X37906Y12070D01*
X38024Y11678D02*
X38102Y11600D01*
X37709Y11600D01*
X37709Y11717D02*
X37709Y11482D01*
X37709Y11365D02*
X37709Y11129D01*
X37709Y11012D02*
X38102Y11012D01*
X37709Y10777D02*
X38102Y10777D01*
X37906Y11012D02*
X37906Y10777D01*
X37709Y10424D02*
X37709Y10659D01*
X37906Y10659D01*
X38102Y10659D01*
X38102Y10424D01*
X37906Y10659D02*
X37906Y10502D01*
X37709Y10306D02*
X37945Y10306D01*
X38102Y10228D01*
X38102Y10150D01*
X37945Y10071D01*
X37709Y10071D01*
X37827Y10306D02*
X37827Y10071D01*
X37709Y9954D02*
X37709Y9797D01*
X37787Y9718D01*
X38024Y9718D01*
X38102Y9797D01*
X38102Y9954D01*
X38102Y9914D02*
X37709Y9914D01*
X37709Y9366D02*
X37709Y9601D01*
X37906Y9601D01*
X38102Y9601D01*
X38102Y9366D01*
X37906Y9601D02*
X37906Y9444D01*
X37709Y9248D02*
X38102Y9248D01*
X38102Y9091D01*
X38024Y9013D01*
X37984Y9013D01*
X37906Y9091D01*
X37906Y9248D01*
X37906Y9209D02*
X37709Y9013D01*
X8562Y15232D02*
X8641Y15153D01*
X8641Y15075D01*
X8562Y14997D01*
X8326Y14997D01*
X8247Y15075D01*
X8247Y15153D01*
X8326Y15232D01*
X8286Y15389D02*
X8247Y15428D01*
X8247Y15506D01*
X8326Y15585D01*
X8405Y15585D01*
X8444Y15545D01*
X8483Y15585D01*
X8562Y15585D01*
X8641Y15506D01*
X8641Y15428D01*
X8601Y15389D01*
X8444Y15428D02*
X8444Y15545D01*
X8562Y21740D02*
X8641Y21662D01*
X8641Y21583D01*
X8562Y21505D01*
X8326Y21505D01*
X8247Y21583D01*
X8247Y21662D01*
X8326Y21740D01*
X8326Y21897D02*
X8247Y21975D01*
X8641Y21975D01*
X8641Y21857D02*
X8641Y22093D01*
X8562Y26032D02*
X8641Y25953D01*
X8641Y25875D01*
X8562Y25797D01*
X8326Y25797D01*
X8247Y25875D01*
X8247Y25953D01*
X8326Y26032D01*
X8326Y26149D02*
X8247Y26228D01*
X8247Y26306D01*
X8326Y26385D01*
X8365Y26385D01*
X8641Y26149D01*
X8641Y26385D01*
X8601Y26385D01*
G54D12*
X23560Y26540D02*
X22640Y26540D01*
X22640Y18660D01*
X23560Y18660D01*
X23560Y26540D01*
X35081Y6630D02*
X34658Y6630D01*
X34869Y6907D01*
X34658Y7185D01*
X35081Y7185D01*
X34996Y8019D02*
X35081Y7833D01*
X35081Y7648D01*
X34996Y7463D01*
X34743Y7463D01*
X34658Y7648D01*
X34658Y7833D01*
X34743Y8019D01*
X34658Y8296D02*
X34996Y8296D01*
X35081Y8482D01*
X35081Y8667D01*
X34996Y8852D01*
X34658Y8852D01*
X34416Y6604D02*
X34416Y27104D01*
X27416Y6604D02*
X27416Y27104D01*
X31416Y6604D02*
X31414Y6647D01*
X31408Y6691D01*
X31399Y6733D01*
X31386Y6775D01*
X31369Y6815D01*
X31349Y6854D01*
X31325Y6891D01*
X31299Y6925D01*
X31269Y6957D01*
X31237Y6987D01*
X31203Y7013D01*
X31166Y7037D01*
X31127Y7057D01*
X31087Y7074D01*
X31045Y7087D01*
X31003Y7096D01*
X30959Y7102D01*
X30916Y7104D01*
X30872Y7102D01*
X30829Y7096D01*
X30786Y7087D01*
X30745Y7074D01*
X30705Y7057D01*
X30666Y7037D01*
X30629Y7013D01*
X30594Y6987D01*
X30562Y6957D01*
X30533Y6925D01*
X30506Y6891D01*
X30483Y6854D01*
X30463Y6815D01*
X30446Y6775D01*
X30433Y6733D01*
X30423Y6691D01*
X30418Y6647D01*
X30416Y6604D01*
X31416Y6604D02*
X34416Y6604D01*
X30416Y6604D02*
X27416Y6604D01*
X34416Y27104D02*
X27416Y27104D01*
X39192Y26540D02*
X38272Y26540D01*
X38272Y18660D01*
X39192Y18660D01*
X39192Y26540D01*
X23560Y14462D02*
X22640Y14462D01*
X22640Y6582D01*
X23560Y6582D01*
X23560Y14462D01*
X39192Y14462D02*
X38272Y14462D01*
X38272Y6582D01*
X39192Y6582D01*
X39192Y14462D01*
X45513Y32548D02*
X45513Y1052D01*
X59687Y1052D01*
X59687Y32548D01*
X52403Y32548D02*
X52404Y32531D01*
X52406Y32514D01*
X52410Y32497D01*
X52415Y32481D01*
X52422Y32465D01*
X52430Y32450D01*
X52439Y32435D01*
X52449Y32421D01*
X52461Y32409D01*
X52473Y32397D01*
X52487Y32387D01*
X52502Y32378D01*
X52517Y32370D01*
X52533Y32363D01*
X52549Y32358D01*
X52566Y32354D01*
X52583Y32352D01*
X52600Y32351D01*
X52617Y32352D01*
X52634Y32354D01*
X52651Y32358D01*
X52667Y32363D01*
X52683Y32370D01*
X52698Y32378D01*
X52713Y32387D01*
X52727Y32397D01*
X52739Y32409D01*
X52751Y32421D01*
X52761Y32435D01*
X52770Y32450D01*
X52778Y32465D01*
X52785Y32481D01*
X52790Y32497D01*
X52794Y32514D01*
X52796Y32531D01*
X52797Y32548D01*
X59687Y32548D02*
X52797Y32548D01*
X52403Y32548D02*
X45513Y32548D01*
X14323Y15405D02*
X13930Y15405D01*
X13930Y15561D01*
X14008Y15640D01*
X14048Y15640D01*
X14127Y15561D01*
X14127Y15405D01*
X14127Y15444D02*
X14323Y15640D01*
X14166Y15992D02*
X14166Y15757D01*
X13930Y15953D01*
X14323Y15953D01*
X14323Y15914D02*
X14323Y15992D01*
X14081Y22136D02*
X14081Y26664D01*
X12113Y26664D01*
X12113Y22136D01*
X14081Y22136D01*
X9419Y7819D02*
X11781Y7819D01*
X11781Y10181D01*
X9419Y10181D01*
X9419Y8803D02*
X9436Y8804D01*
X9453Y8806D01*
X9470Y8810D01*
X9486Y8815D01*
X9502Y8822D01*
X9517Y8830D01*
X9532Y8839D01*
X9545Y8849D01*
X9558Y8861D01*
X9570Y8873D01*
X9580Y8887D01*
X9589Y8902D01*
X9597Y8917D01*
X9604Y8933D01*
X9609Y8949D01*
X9613Y8966D01*
X9615Y8983D01*
X9616Y9000D01*
X9615Y9017D01*
X9613Y9034D01*
X9609Y9051D01*
X9604Y9067D01*
X9597Y9083D01*
X9589Y9098D01*
X9580Y9113D01*
X9570Y9127D01*
X9558Y9139D01*
X9545Y9151D01*
X9532Y9161D01*
X9517Y9170D01*
X9502Y9178D01*
X9486Y9185D01*
X9470Y9190D01*
X9453Y9194D01*
X9436Y9196D01*
X9419Y9197D01*
X9419Y10181D02*
X9419Y9197D01*
X9419Y8803D02*
X9419Y7819D01*
X17910Y750D02*
X26890Y750D01*
X26890Y3250D01*
X17910Y3250D01*
X17910Y750D01*
X4897Y546D02*
X4503Y546D01*
X4503Y704D01*
X4582Y783D01*
X4621Y783D01*
X4700Y704D01*
X4700Y546D01*
X4818Y901D02*
X4897Y980D01*
X4897Y1058D01*
X4818Y1137D01*
X4582Y1137D01*
X4503Y1058D01*
X4503Y980D01*
X4582Y901D01*
X4818Y901D01*
X4503Y1255D02*
X4897Y1294D01*
X4739Y1373D01*
X4897Y1452D01*
X4503Y1491D01*
X4897Y1846D02*
X4897Y1609D01*
X4700Y1609D01*
X4503Y1609D01*
X4503Y1846D01*
X4700Y1609D02*
X4700Y1767D01*
X4897Y1964D02*
X4503Y1964D01*
X4503Y2121D01*
X4582Y2200D01*
X4621Y2200D01*
X4700Y2121D01*
X4700Y1964D01*
X4700Y2003D02*
X4897Y2200D01*
X4897Y2318D02*
X4897Y2554D01*
X4818Y2672D02*
X4897Y2751D01*
X4897Y2830D01*
X4818Y2909D01*
X4503Y2909D01*
X4897Y3027D02*
X4660Y3027D01*
X4503Y3106D01*
X4503Y3184D01*
X4660Y3263D01*
X4897Y3263D01*
X4779Y3027D02*
X4779Y3263D01*
X4818Y3617D02*
X4897Y3539D01*
X4897Y3460D01*
X4818Y3381D01*
X4582Y3381D01*
X4503Y3460D01*
X4503Y3539D01*
X4582Y3617D01*
X4897Y3735D02*
X4503Y3735D01*
X4700Y3735D02*
X4700Y3775D01*
X4503Y3972D01*
X4700Y3775D02*
X4897Y3972D01*
G54D13*
X12595Y14381D02*
X13599Y14381D01*
X13599Y17137D01*
X12595Y17137D01*
X12595Y14381D01*
X13103Y13751D02*
X13103Y14381D01*
X13103Y17137D02*
X13103Y17806D01*
X7093Y15995D02*
X7093Y14524D01*
G75*
D01*
G03X7342Y14275I249J0*
G01*
X7828Y14275D01*
G75*
D01*
G03X8077Y14524I0J249*
G01*
X8077Y15995D01*
G74*
D01*
G03X7828Y16244I249J0*
G01*
X7342Y16244D01*
G75*
D01*
G03X7093Y15995I0J-249*
G01*
X7093Y22503D02*
X7093Y21032D01*
G75*
D01*
G03X7342Y20783I249J0*
G01*
X7828Y20783D01*
G75*
D01*
G03X8077Y21032I0J249*
G01*
X8077Y22503D01*
G74*
D01*
G03X7828Y22752I249J0*
G01*
X7342Y22752D01*
G75*
D01*
G03X7093Y22503I0J-249*
G01*
X7093Y26795D02*
X7093Y25324D01*
G75*
D01*
G03X7342Y25075I249J0*
G01*
X7828Y25075D01*
G75*
D01*
G03X8077Y25324I0J249*
G01*
X8077Y26795D01*
G74*
D01*
G03X7828Y27044I249J0*
G01*
X7342Y27044D01*
G75*
D01*
G03X7093Y26795I0J-249*
G01*
G54D14*
X492Y-476D02*
X492Y5194D01*
X4035Y-476D02*
X492Y-476D01*
X4035Y5194D02*
X4035Y4209D01*
X492Y5194D02*
X1791Y5194D01*
X2736Y5194D02*
X4035Y5194D01*
X4035Y3265D02*
X4035Y-476D01*
G54D15*
X-350Y-950D02*
X-350Y2510D01*
X-350Y-950D02*
X5780Y-950D01*
X60950Y-950D02*
X54820Y-950D01*
X60950Y-950D02*
X60950Y2510D01*
X60950Y33650D02*
X60950Y30190D01*
X60950Y33650D02*
X54820Y33650D01*
X-350Y33650D02*
X5780Y33650D01*
X-350Y33650D02*
X-350Y30190D01*
X-2319Y-950D02*
X-6256Y-950D01*
X-4287Y-2919D02*
X-4287Y1019D01*
X-5763Y-950D02*
G75*
D01*
G02X-5763Y-950I1476J0*
G01*
X62919Y-950D02*
X66856Y-950D01*
X64887Y-2919D02*
X64887Y1019D01*
X63411Y-950D02*
G75*
D01*
G02X63411Y-950I1476J0*
G01*
X64395Y-950D02*
G75*
D01*
G02X64395Y-950I492J0*
G01*
X-2319Y33650D02*
X-6256Y33650D01*
X-4287Y31681D02*
X-4287Y35619D01*
X-5763Y33650D02*
G75*
D01*
G02X-5763Y33650I1476J0*
G01*
X-5271Y33650D02*
G75*
D01*
G02X-5271Y33650I984J0*
G01*
X-4779Y33650D02*
G75*
D01*
G02X-4779Y33650I492J0*
G01*

M02*
