G04 Generated by Ultiboard 13.0 *
%FSLAX24Y24*%
%MOIN*%

%ADD11C,0.0001*%
%ADD12C,0.0050*%


G04 ColorRGB 00FFFF for the following layer *
%LNBoard Outline*%
%LPD*%
G54D10*
G54D11*
X-200Y-800D02*
X60800Y-800D01*
X60800Y33500D01*
X-200Y33500D01*
X-200Y-800D01*
G54D12*
X15207Y30636D02*
X15100Y30636D01*
X14993Y30743D01*
X14993Y30850D01*
X15047Y30904D01*
X14993Y30957D01*
X14993Y31064D01*
X15100Y31171D01*
X15207Y31171D01*
X15313Y31064D01*
X15313Y30957D01*
X15260Y30904D01*
X15313Y30850D01*
X15313Y30743D01*
X15207Y30636D01*
X15047Y30904D02*
X15260Y30904D01*
X15473Y31064D02*
X15580Y31171D01*
X15687Y31171D01*
X15793Y31064D01*
X15793Y30743D01*
X15687Y30636D01*
X15580Y30636D01*
X15473Y30743D01*
X15473Y31064D01*
X15793Y31064D02*
X15473Y30743D01*
X16273Y31171D02*
X15953Y31171D01*
X15953Y30957D01*
X16167Y30957D01*
X16273Y30850D01*
X16273Y30743D01*
X16167Y30636D01*
X15953Y30636D01*
X16487Y31064D02*
X16593Y31171D01*
X16593Y30636D01*
X16433Y30636D02*
X16753Y30636D01*
X17393Y30636D02*
X17607Y30636D01*
X17713Y30743D01*
X17713Y31064D01*
X17607Y31171D01*
X17393Y31171D01*
X17447Y31171D02*
X17447Y30636D01*
X18193Y30743D02*
X18087Y30636D01*
X17980Y30636D01*
X17873Y30743D01*
X17873Y30904D01*
X17980Y31011D01*
X18087Y31011D01*
X18193Y30904D01*
X18140Y30850D01*
X17873Y30850D01*
X18353Y31011D02*
X18513Y30636D01*
X18673Y31011D01*
X19313Y30636D02*
X19527Y30636D01*
X19633Y30743D01*
X19633Y30796D01*
X19527Y30904D01*
X19633Y31011D01*
X19633Y31064D01*
X19527Y31171D01*
X19367Y31171D01*
X19313Y31171D01*
X19367Y30904D02*
X19527Y30904D01*
X19367Y31171D02*
X19367Y30636D01*
X19793Y30743D02*
X19900Y30636D01*
X20007Y30636D01*
X20113Y30743D01*
X20113Y30904D01*
X20007Y31011D01*
X19900Y31011D01*
X19793Y30904D01*
X19793Y30743D01*
X20327Y31011D02*
X20487Y31011D01*
X20540Y30957D01*
X20540Y30689D01*
X20487Y30636D01*
X20327Y30636D01*
X20273Y30689D01*
X20273Y30796D01*
X20327Y30850D01*
X20540Y30850D01*
X20540Y30689D02*
X20593Y30636D01*
X20753Y30850D02*
X20913Y31011D01*
X20967Y31011D01*
X21073Y30904D01*
X20753Y30636D02*
X20753Y31011D01*
X21553Y30743D02*
X21447Y30636D01*
X21340Y30636D01*
X21233Y30743D01*
X21233Y30850D01*
X21340Y30957D01*
X21447Y30957D01*
X21553Y30850D01*
X21553Y31171D02*
X21553Y30636D01*
X16433Y30314D02*
X16540Y30421D01*
X16647Y30421D01*
X16753Y30314D01*
X16753Y29993D01*
X16647Y29886D01*
X16540Y29886D01*
X16433Y29993D01*
X16433Y30314D01*
X16753Y30314D02*
X16433Y29993D01*
X16913Y30314D02*
X17020Y30421D01*
X17127Y30421D01*
X17233Y30314D01*
X17233Y30261D01*
X16913Y29886D01*
X17233Y29886D01*
X17233Y29939D01*
X17713Y30421D02*
X17393Y29886D01*
X17927Y30314D02*
X18033Y30421D01*
X18033Y29886D01*
X17873Y29886D02*
X18193Y29886D01*
X18513Y29886D02*
X18513Y30154D01*
X18673Y30314D01*
X18673Y30421D01*
X18353Y30421D01*
X18353Y30314D01*
X19153Y30421D02*
X18833Y29886D01*
X19313Y30314D02*
X19420Y30421D01*
X19527Y30421D01*
X19633Y30314D01*
X19633Y30261D01*
X19313Y29886D01*
X19633Y29886D01*
X19633Y29939D01*
X19793Y30314D02*
X19900Y30421D01*
X20007Y30421D01*
X20113Y30314D01*
X20113Y30261D01*
X19793Y29886D01*
X20113Y29886D01*
X20113Y29939D01*
X14753Y29136D02*
X14967Y29136D01*
X15073Y29243D01*
X15073Y29564D01*
X14967Y29671D01*
X14753Y29671D01*
X14807Y29671D02*
X14807Y29136D01*
X15287Y29511D02*
X15447Y29511D01*
X15500Y29457D01*
X15500Y29189D01*
X15447Y29136D01*
X15287Y29136D01*
X15233Y29189D01*
X15233Y29296D01*
X15287Y29350D01*
X15500Y29350D01*
X15500Y29189D02*
X15553Y29136D01*
X15713Y29136D02*
X15713Y29457D01*
X15713Y29511D01*
X15713Y29457D02*
X15767Y29511D01*
X15873Y29511D01*
X15927Y29457D01*
X15927Y29136D01*
X16353Y29136D02*
X16353Y29457D01*
X16353Y29564D02*
X16353Y29618D01*
X16993Y29243D02*
X16887Y29136D01*
X16780Y29136D01*
X16673Y29243D01*
X16673Y29404D01*
X16780Y29511D01*
X16887Y29511D01*
X16993Y29404D01*
X16940Y29350D01*
X16673Y29350D01*
X17207Y29671D02*
X17207Y29243D01*
X17313Y29136D01*
X17687Y29671D02*
X17687Y29243D01*
X17793Y29136D01*
X18433Y29243D02*
X18327Y29136D01*
X18220Y29136D01*
X18113Y29243D01*
X18113Y29404D01*
X18220Y29511D01*
X18327Y29511D01*
X18433Y29404D01*
X18380Y29350D01*
X18113Y29350D01*
X19287Y29404D02*
X19393Y29404D01*
X19393Y29243D01*
X19287Y29136D01*
X19180Y29136D01*
X19073Y29243D01*
X19073Y29564D01*
X19180Y29671D01*
X19393Y29671D01*
X19553Y29350D02*
X19713Y29511D01*
X19767Y29511D01*
X19873Y29404D01*
X19553Y29136D02*
X19553Y29511D01*
X20033Y29511D02*
X20033Y29243D01*
X20140Y29136D01*
X20247Y29136D01*
X20353Y29243D01*
X20353Y29511D01*
X20353Y29243D02*
X20353Y29136D01*
X20513Y29243D02*
X20620Y29136D01*
X20727Y29136D01*
X20833Y29243D01*
X20833Y29350D01*
X20727Y29457D01*
X20620Y29457D01*
X20513Y29350D01*
X20513Y29671D02*
X20513Y29136D01*
X21313Y29243D02*
X21207Y29136D01*
X21100Y29136D01*
X20993Y29243D01*
X20993Y29404D01*
X21100Y29511D01*
X21207Y29511D01*
X21313Y29404D01*
X21260Y29350D01*
X20993Y29350D01*
X21473Y29350D02*
X21633Y29511D01*
X21687Y29511D01*
X21793Y29404D01*
X21473Y29136D02*
X21473Y29511D01*
X-350Y-950D02*
X-350Y2510D01*
X-350Y-950D02*
X5780Y-950D01*
X60950Y-950D02*
X54820Y-950D01*
X60950Y-950D02*
X60950Y2510D01*
X60950Y33650D02*
X60950Y30190D01*
X60950Y33650D02*
X54820Y33650D01*
X-350Y33650D02*
X5780Y33650D01*
X-350Y33650D02*
X-350Y30190D01*
X-2319Y-950D02*
X-6256Y-950D01*
X-4287Y-2919D02*
X-4287Y1019D01*
X-5763Y-950D02*
G75*
D01*
G02X-5763Y-950I1476J0*
G01*
X62919Y-950D02*
X66856Y-950D01*
X64887Y-2919D02*
X64887Y1019D01*
X63411Y-950D02*
G75*
D01*
G02X63411Y-950I1476J0*
G01*
X64395Y-950D02*
G75*
D01*
G02X64395Y-950I492J0*
G01*
X-2319Y33650D02*
X-6256Y33650D01*
X-4287Y31681D02*
X-4287Y35619D01*
X-5763Y33650D02*
G75*
D01*
G02X-5763Y33650I1476J0*
G01*
X-5271Y33650D02*
G75*
D01*
G02X-5271Y33650I984J0*
G01*
X-4779Y33650D02*
G75*
D01*
G02X-4779Y33650I492J0*
G01*

M02*
