M48
INCH,TZ
VER,1
FMAT,2
DETECT,ON
ATC,ON
T1C0.0400
T2C0.0350
T3C0.0394
T4C0.0354
T5C0.0236
T6C0.0315
%
T1
X2.3100Y2.6100
Y2.5100
Y2.4100
Y2.3100
Y2.2100
Y2.1100
Y2.0100
Y1.9100
X3.8732Y2.6100
Y2.5100
Y2.4100
Y2.3100
Y2.2100
Y2.1100
Y2.0100
Y1.9100
X2.3100Y1.4022
Y1.3022
Y1.2022
Y1.1022
Y1.0022
Y0.9022
Y0.8022
Y0.7022
X3.8732Y1.4022
Y1.3022
Y1.2022
Y1.1022
Y1.0022
Y0.9022
Y0.8022
Y0.7022
T2
X3.3916Y1.2354
X2.7916
Y0.9354
Y0.8354
Y0.7354
Y1.1354
Y1.0354
Y1.8354
Y1.5354
Y1.4354
Y1.3354
Y1.7354
Y1.6354
Y2.1354
Y2.0354
Y1.9354
Y2.4354
Y2.3354
Y2.2354
Y2.5354
Y2.6354
X3.3916Y0.9354
Y0.8354
Y0.7354
Y1.1354
Y1.0354
Y1.8354
Y1.5354
Y1.4354
Y1.3354
Y1.6354
Y1.7354
Y2.1354
Y1.9354
Y2.0354
Y2.4354
Y2.2354
Y2.3354
Y2.5354
Y2.6354
T3
X4.6498Y2.9032
Y2.8032
Y2.7032
Y2.6032
Y2.5032
Y2.4032
Y2.3032
Y2.2032
Y2.1032
Y2.0032
Y1.9032
Y1.8032
Y1.7032
Y1.6032
Y1.5032
Y1.4032
X5.8702Y2.9032
Y2.8032
Y2.7032
Y2.6032
Y2.5032
Y2.4032
Y2.3032
Y2.2032
Y2.1032
Y2.0032
Y1.9032
Y1.8032
Y1.7032
Y1.6032
Y1.5032
Y1.4032
X1.3097Y2.3439
Y2.5361
X0.9320Y0.7720
X1.1880
X0.9320Y1.0280
X1.1880
X1.8400Y0.2000
X1.9400
X2.0400
X2.1400
X2.2400
X2.3400
X2.4400
X2.5400
X2.6400
T4
X1.3103Y1.8318
Y1.3200
X0.7578Y1.5784
Y1.4800
Y2.2292
Y2.1308
Y2.6584
Y2.5600
T5
X2.9400Y2.2400
X3.0000Y2.2600
T6
X0.2382Y0.2556G85X0.2145Y0.2556
X0.2382Y0.4918G85X0.2145Y0.4918
X0.4114Y0.3619G85X0.4114Y0.3855
M30
