G04 Generated by Ultiboard 13.0 *
%FSLAX24Y24*%
%MOIN*%

%ADD10C,0.0001*%
%ADD11C,0.0039*%
%ADD12C,0.0004*%
%ADD13C,0.0001*%
%ADD14C,0.0050*%


G04 ColorRGB 000000 for the following layer *
%LNDrill Symbols-Copper Top-Copper Bottom*%
%LPD*%
G54D11*
X23100Y25900D02*
X23100Y26300D01*
X22900Y26100D02*
X23300Y26100D01*
X23100Y24900D02*
X23100Y25300D01*
X22900Y25100D02*
X23300Y25100D01*
X22900Y24100D02*
X23300Y24100D01*
X23100Y23900D02*
X23100Y24300D01*
X23100Y22900D02*
X23100Y23300D01*
X22900Y23100D02*
X23300Y23100D01*
X23100Y21900D02*
X23100Y22300D01*
X22900Y22100D02*
X23300Y22100D01*
X23100Y20900D02*
X23100Y21300D01*
X22900Y21100D02*
X23300Y21100D01*
X22900Y20100D02*
X23300Y20100D01*
X23100Y19900D02*
X23100Y20300D01*
X22900Y19100D02*
X23300Y19100D01*
X23100Y18900D02*
X23100Y19300D01*
X38532Y26100D02*
X38932Y26100D01*
X38732Y25900D02*
X38732Y26300D01*
X38732Y24900D02*
X38732Y25300D01*
X38532Y25100D02*
X38932Y25100D01*
X38532Y24100D02*
X38932Y24100D01*
X38732Y23900D02*
X38732Y24300D01*
X38732Y22900D02*
X38732Y23300D01*
X38532Y23100D02*
X38932Y23100D01*
X38532Y22100D02*
X38932Y22100D01*
X38732Y21900D02*
X38732Y22300D01*
X38532Y21100D02*
X38932Y21100D01*
X38732Y20900D02*
X38732Y21300D01*
X38532Y20100D02*
X38932Y20100D01*
X38732Y19900D02*
X38732Y20300D01*
X38732Y18900D02*
X38732Y19300D01*
X38532Y19100D02*
X38932Y19100D01*
X22900Y14022D02*
X23300Y14022D01*
X23100Y13822D02*
X23100Y14222D01*
X22900Y13022D02*
X23300Y13022D01*
X23100Y12822D02*
X23100Y13222D01*
X23100Y11822D02*
X23100Y12222D01*
X22900Y12022D02*
X23300Y12022D01*
X23100Y10822D02*
X23100Y11222D01*
X22900Y11022D02*
X23300Y11022D01*
X23100Y9822D02*
X23100Y10222D01*
X22900Y10022D02*
X23300Y10022D01*
X22900Y9022D02*
X23300Y9022D01*
X23100Y8822D02*
X23100Y9222D01*
X22900Y8022D02*
X23300Y8022D01*
X23100Y7822D02*
X23100Y8222D01*
X22900Y7022D02*
X23300Y7022D01*
X23100Y6822D02*
X23100Y7222D01*
X38532Y14022D02*
X38932Y14022D01*
X38732Y13822D02*
X38732Y14222D01*
X38732Y12822D02*
X38732Y13222D01*
X38532Y13022D02*
X38932Y13022D01*
X38532Y12022D02*
X38932Y12022D01*
X38732Y11822D02*
X38732Y12222D01*
X38532Y11022D02*
X38932Y11022D01*
X38732Y10822D02*
X38732Y11222D01*
X38732Y9822D02*
X38732Y10222D01*
X38532Y10022D02*
X38932Y10022D01*
X38532Y9022D02*
X38932Y9022D01*
X38732Y8822D02*
X38732Y9222D01*
X38532Y8022D02*
X38932Y8022D01*
X38732Y7822D02*
X38732Y8222D01*
X38732Y6822D02*
X38732Y7222D01*
X38532Y7022D02*
X38932Y7022D01*
X46301Y29032D02*
G75*
D01*
G02X46301Y29032I197J0*
G01*
X46301Y28032D02*
G75*
D01*
G02X46301Y28032I197J0*
G01*
X46301Y27032D02*
G75*
D01*
G02X46301Y27032I197J0*
G01*
X46301Y26032D02*
G75*
D01*
G02X46301Y26032I197J0*
G01*
X46301Y25032D02*
G75*
D01*
G02X46301Y25032I197J0*
G01*
X46301Y24032D02*
G75*
D01*
G02X46301Y24032I197J0*
G01*
X46301Y23032D02*
G75*
D01*
G02X46301Y23032I197J0*
G01*
X46301Y22032D02*
G75*
D01*
G02X46301Y22032I197J0*
G01*
X46301Y21032D02*
G75*
D01*
G02X46301Y21032I197J0*
G01*
X46301Y20032D02*
G75*
D01*
G02X46301Y20032I197J0*
G01*
X46301Y19032D02*
G75*
D01*
G02X46301Y19032I197J0*
G01*
X46301Y18032D02*
G75*
D01*
G02X46301Y18032I197J0*
G01*
X46301Y17032D02*
G75*
D01*
G02X46301Y17032I197J0*
G01*
X46301Y16032D02*
G75*
D01*
G02X46301Y16032I197J0*
G01*
X46301Y15032D02*
G75*
D01*
G02X46301Y15032I197J0*
G01*
X46301Y14032D02*
G75*
D01*
G02X46301Y14032I197J0*
G01*
X58506Y29032D02*
G75*
D01*
G02X58506Y29032I196J0*
G01*
X58506Y28032D02*
G75*
D01*
G02X58506Y28032I196J0*
G01*
X58506Y27032D02*
G75*
D01*
G02X58506Y27032I196J0*
G01*
X58506Y26032D02*
G75*
D01*
G02X58506Y26032I196J0*
G01*
X58506Y25032D02*
G75*
D01*
G02X58506Y25032I196J0*
G01*
X58506Y24032D02*
G75*
D01*
G02X58506Y24032I196J0*
G01*
X58506Y23032D02*
G75*
D01*
G02X58506Y23032I196J0*
G01*
X58506Y22032D02*
G75*
D01*
G02X58506Y22032I196J0*
G01*
X58506Y21032D02*
G75*
D01*
G02X58506Y21032I196J0*
G01*
X58506Y20032D02*
G75*
D01*
G02X58506Y20032I196J0*
G01*
X58506Y19032D02*
G75*
D01*
G02X58506Y19032I196J0*
G01*
X58506Y18032D02*
G75*
D01*
G02X58506Y18032I196J0*
G01*
X58506Y17032D02*
G75*
D01*
G02X58506Y17032I196J0*
G01*
X58506Y16032D02*
G75*
D01*
G02X58506Y16032I196J0*
G01*
X58506Y15032D02*
G75*
D01*
G02X58506Y15032I196J0*
G01*
X58506Y14032D02*
G75*
D01*
G02X58506Y14032I196J0*
G01*
X12900Y23439D02*
G75*
D01*
G02X12900Y23439I197J0*
G01*
X12900Y25361D02*
G75*
D01*
G02X12900Y25361I197J0*
G01*
X9124Y7720D02*
G75*
D01*
G02X9124Y7720I196J0*
G01*
X11683Y7720D02*
G75*
D01*
G02X11683Y7720I197J0*
G01*
X9124Y10280D02*
G75*
D01*
G02X9124Y10280I196J0*
G01*
X11683Y10280D02*
G75*
D01*
G02X11683Y10280I197J0*
G01*
X18203Y2000D02*
G75*
D01*
G02X18203Y2000I197J0*
G01*
X19203Y2000D02*
G75*
D01*
G02X19203Y2000I197J0*
G01*
X20203Y2000D02*
G75*
D01*
G02X20203Y2000I197J0*
G01*
X21203Y2000D02*
G75*
D01*
G02X21203Y2000I197J0*
G01*
X22203Y2000D02*
G75*
D01*
G02X22203Y2000I197J0*
G01*
X23203Y2000D02*
G75*
D01*
G02X23203Y2000I197J0*
G01*
X24203Y2000D02*
G75*
D01*
G02X24203Y2000I197J0*
G01*
X25203Y2000D02*
G75*
D01*
G02X25203Y2000I197J0*
G01*
X26203Y2000D02*
G75*
D01*
G02X26203Y2000I197J0*
G01*
X77676Y20126D02*
X76888Y20126D01*
X77544Y20633D01*
X77544Y19789D01*
X77413Y19789D02*
X77676Y19789D01*
X78069Y20464D02*
X78332Y20633D01*
X78594Y20633D01*
X78857Y20464D01*
X78857Y19958D01*
X78594Y19789D01*
X78332Y19789D01*
X78069Y19958D01*
X78069Y20464D01*
X78857Y20464D02*
X78069Y19958D01*
X79644Y19789D02*
X79644Y19873D01*
X80432Y20464D02*
X80694Y20633D01*
X80957Y20633D01*
X81219Y20464D01*
X81219Y19958D01*
X80957Y19789D01*
X80694Y19789D01*
X80432Y19958D01*
X80432Y20464D01*
X81219Y20464D02*
X80432Y19958D01*
X81613Y20464D02*
X81875Y20633D01*
X82138Y20633D01*
X82400Y20464D01*
X82400Y19958D01*
X82138Y19789D01*
X81875Y19789D01*
X81613Y19958D01*
X81613Y20464D01*
X82400Y20464D02*
X81613Y19958D01*
X82794Y20464D02*
X83056Y20633D01*
X83319Y20633D01*
X83581Y20464D01*
X83581Y19958D01*
X83319Y19789D01*
X83056Y19789D01*
X82794Y19958D01*
X82794Y20464D01*
X83581Y20464D02*
X82794Y19958D01*
X83975Y20464D02*
X84237Y20633D01*
X84500Y20633D01*
X84762Y20464D01*
X84762Y19958D01*
X84500Y19789D01*
X84237Y19789D01*
X83975Y19958D01*
X83975Y20464D01*
X84762Y20464D02*
X83975Y19958D01*
X89264Y20548D02*
X89395Y20633D01*
X89657Y20633D01*
X89920Y20464D01*
X89920Y20295D01*
X89789Y20211D01*
X89920Y20126D01*
X89920Y19958D01*
X89657Y19789D01*
X89395Y19789D01*
X89264Y19873D01*
X89395Y20211D02*
X89789Y20211D01*
X90314Y20464D02*
X90576Y20633D01*
X90838Y20633D01*
X91101Y20464D01*
X91101Y20379D01*
X90314Y19789D01*
X91101Y19789D01*
X91101Y19873D01*
X97243Y19789D02*
X97243Y20633D01*
X97768Y20633D01*
X98030Y20464D01*
X98030Y20379D01*
X97768Y20211D01*
X97243Y20211D01*
X98817Y19789D02*
X98817Y20633D01*
X98424Y20633D02*
X99211Y20633D01*
X99605Y19789D02*
X99605Y20633D01*
X100392Y19789D02*
X100392Y20633D01*
X99605Y20211D02*
X100392Y20211D01*
X104172Y20464D02*
X104434Y20633D01*
X104697Y20633D01*
X104959Y20464D01*
X104959Y19958D01*
X104697Y19789D01*
X104434Y19789D01*
X104172Y19958D01*
X104172Y20464D01*
X104959Y20464D02*
X104172Y19958D01*
X107190Y19789D02*
X107059Y19789D01*
X106796Y19958D01*
X106796Y20464D01*
X107059Y20633D01*
X107190Y20633D01*
X107715Y19789D02*
X107715Y20633D01*
X108240Y20633D01*
X108502Y20464D01*
X108502Y20379D01*
X108240Y20211D01*
X107715Y20211D01*
X107846Y20211D02*
X108502Y19789D01*
X108896Y19958D02*
X109159Y19789D01*
X109421Y19789D01*
X109684Y19958D01*
X109684Y20464D01*
X109421Y20633D01*
X109159Y20633D01*
X108896Y20464D01*
X108896Y19958D01*
X110077Y20633D02*
X110077Y19958D01*
X110340Y19789D01*
X110602Y19789D01*
X110865Y19958D01*
X110865Y20633D01*
X111258Y19789D02*
X111258Y20633D01*
X112046Y19789D01*
X112046Y20633D01*
X112440Y19789D02*
X112964Y19789D01*
X113227Y19958D01*
X113227Y20464D01*
X112964Y20633D01*
X112440Y20633D01*
X112571Y20633D02*
X112571Y19789D01*
X113752Y20633D02*
X113883Y20633D01*
X114146Y20464D01*
X114146Y19958D01*
X113883Y19789D01*
X113752Y19789D01*
X72781Y19926D02*
X72781Y20326D01*
X72581Y20126D02*
X72981Y20126D01*
X77020Y22162D02*
X77151Y22247D01*
X77413Y22247D01*
X77676Y22078D01*
X77676Y21909D01*
X77544Y21825D01*
X77676Y21741D01*
X77676Y21572D01*
X77413Y21403D01*
X77151Y21403D01*
X77020Y21487D01*
X77151Y21825D02*
X77544Y21825D01*
X78069Y21572D02*
X78332Y21403D01*
X78594Y21403D01*
X78857Y21572D01*
X78857Y21909D01*
X78857Y22078D01*
X78594Y22247D01*
X78332Y22247D01*
X78069Y22078D01*
X78069Y21909D01*
X78332Y21741D01*
X78594Y21741D01*
X78857Y21909D01*
X79644Y21403D02*
X79644Y21487D01*
X80563Y22162D02*
X80694Y22247D01*
X80957Y22247D01*
X81219Y22078D01*
X81219Y21909D01*
X81088Y21825D01*
X81219Y21741D01*
X81219Y21572D01*
X80957Y21403D01*
X80694Y21403D01*
X80563Y21487D01*
X80694Y21825D02*
X81088Y21825D01*
X82006Y21403D02*
X82006Y21825D01*
X82400Y22078D01*
X82400Y22247D01*
X81613Y22247D01*
X81613Y22078D01*
X82794Y22078D02*
X83056Y22247D01*
X83319Y22247D01*
X83581Y22078D01*
X83581Y21572D01*
X83319Y21403D01*
X83056Y21403D01*
X82794Y21572D01*
X82794Y22078D01*
X83581Y22078D02*
X82794Y21572D01*
X84106Y22078D02*
X84369Y22247D01*
X84369Y21403D01*
X83975Y21403D02*
X84762Y21403D01*
X89920Y21741D02*
X89132Y21741D01*
X89789Y22247D01*
X89789Y21403D01*
X89657Y21403D02*
X89920Y21403D01*
X90707Y21403D02*
X90707Y21825D01*
X91101Y22078D01*
X91101Y22247D01*
X90314Y22247D01*
X90314Y22078D01*
X97243Y21403D02*
X97243Y22247D01*
X97768Y22247D01*
X98030Y22078D01*
X98030Y21994D01*
X97768Y21825D01*
X97243Y21825D01*
X98817Y21403D02*
X98817Y22247D01*
X98424Y22247D02*
X99211Y22247D01*
X99605Y21403D02*
X99605Y22247D01*
X100392Y21403D02*
X100392Y22247D01*
X99605Y21825D02*
X100392Y21825D01*
X104172Y22078D02*
X104434Y22247D01*
X104697Y22247D01*
X104959Y22078D01*
X104959Y21572D01*
X104697Y21403D01*
X104434Y21403D01*
X104172Y21572D01*
X104172Y22078D01*
X104959Y22078D02*
X104172Y21572D01*
X107190Y21403D02*
X107059Y21403D01*
X106796Y21572D01*
X106796Y22078D01*
X107059Y22247D01*
X107190Y22247D01*
X107715Y21403D02*
X107715Y22247D01*
X108240Y22247D01*
X108502Y22078D01*
X108502Y21994D01*
X108240Y21825D01*
X107715Y21825D01*
X107846Y21825D02*
X108502Y21403D01*
X108896Y21572D02*
X109159Y21403D01*
X109421Y21403D01*
X109684Y21572D01*
X109684Y22078D01*
X109421Y22247D01*
X109159Y22247D01*
X108896Y22078D01*
X108896Y21572D01*
X110077Y22247D02*
X110077Y21572D01*
X110340Y21403D01*
X110602Y21403D01*
X110865Y21572D01*
X110865Y22247D01*
X111258Y21403D02*
X111258Y22247D01*
X112046Y21403D01*
X112046Y22247D01*
X112440Y21403D02*
X112964Y21403D01*
X113227Y21572D01*
X113227Y22078D01*
X112964Y22247D01*
X112440Y22247D01*
X112571Y22247D02*
X112571Y21403D01*
X113752Y22247D02*
X113883Y22247D01*
X114146Y22078D01*
X114146Y21572D01*
X113883Y21403D01*
X113752Y21403D01*
X72584Y21741D02*
G75*
D01*
G02X72584Y21741I197J0*
G01*
X77020Y23777D02*
X77151Y23861D01*
X77413Y23861D01*
X77676Y23692D01*
X77676Y23523D01*
X77544Y23439D01*
X77676Y23355D01*
X77676Y23186D01*
X77413Y23017D01*
X77151Y23017D01*
X77020Y23102D01*
X77151Y23439D02*
X77544Y23439D01*
X78857Y23861D02*
X78069Y23861D01*
X78069Y23523D01*
X78594Y23523D01*
X78857Y23355D01*
X78857Y23186D01*
X78594Y23017D01*
X78069Y23017D01*
X79644Y23017D02*
X79644Y23102D01*
X81219Y23355D02*
X80432Y23355D01*
X81088Y23861D01*
X81088Y23017D01*
X80957Y23017D02*
X81219Y23017D01*
X81744Y23777D02*
X81875Y23861D01*
X82138Y23861D01*
X82400Y23692D01*
X82400Y23523D01*
X82269Y23439D01*
X82400Y23355D01*
X82400Y23186D01*
X82138Y23017D01*
X81875Y23017D01*
X81744Y23102D01*
X81875Y23439D02*
X82269Y23439D01*
X82925Y23777D02*
X83056Y23861D01*
X83319Y23861D01*
X83581Y23692D01*
X83581Y23523D01*
X83450Y23439D01*
X83581Y23355D01*
X83581Y23186D01*
X83319Y23017D01*
X83056Y23017D01*
X82925Y23102D01*
X83056Y23439D02*
X83450Y23439D01*
X84106Y23692D02*
X84369Y23861D01*
X84369Y23017D01*
X83975Y23017D02*
X84762Y23017D01*
X90248Y23017D02*
X89985Y23017D01*
X89723Y23186D01*
X89723Y23355D01*
X89854Y23439D01*
X89723Y23523D01*
X89723Y23692D01*
X89985Y23861D01*
X90248Y23861D01*
X90510Y23692D01*
X90510Y23523D01*
X90379Y23439D01*
X90510Y23355D01*
X90510Y23186D01*
X90248Y23017D01*
X89854Y23439D02*
X90379Y23439D01*
X97243Y23017D02*
X97243Y23861D01*
X97768Y23861D01*
X98030Y23692D01*
X98030Y23608D01*
X97768Y23439D01*
X97243Y23439D01*
X98817Y23017D02*
X98817Y23861D01*
X98424Y23861D02*
X99211Y23861D01*
X99605Y23017D02*
X99605Y23861D01*
X100392Y23017D02*
X100392Y23861D01*
X99605Y23439D02*
X100392Y23439D01*
X104172Y23692D02*
X104434Y23861D01*
X104697Y23861D01*
X104959Y23692D01*
X104959Y23186D01*
X104697Y23017D01*
X104434Y23017D01*
X104172Y23186D01*
X104172Y23692D01*
X104959Y23692D02*
X104172Y23186D01*
X107190Y23017D02*
X107059Y23017D01*
X106796Y23186D01*
X106796Y23692D01*
X107059Y23861D01*
X107190Y23861D01*
X107715Y23017D02*
X107715Y23861D01*
X108240Y23861D01*
X108502Y23692D01*
X108502Y23608D01*
X108240Y23439D01*
X107715Y23439D01*
X107846Y23439D02*
X108502Y23017D01*
X108896Y23186D02*
X109159Y23017D01*
X109421Y23017D01*
X109684Y23186D01*
X109684Y23692D01*
X109421Y23861D01*
X109159Y23861D01*
X108896Y23692D01*
X108896Y23186D01*
X110077Y23861D02*
X110077Y23186D01*
X110340Y23017D01*
X110602Y23017D01*
X110865Y23186D01*
X110865Y23861D01*
X111258Y23017D02*
X111258Y23861D01*
X112046Y23017D01*
X112046Y23861D01*
X112440Y23017D02*
X112964Y23017D01*
X113227Y23186D01*
X113227Y23692D01*
X112964Y23861D01*
X112440Y23861D01*
X112571Y23861D02*
X112571Y23017D01*
X113752Y23861D02*
X113883Y23861D01*
X114146Y23692D01*
X114146Y23186D01*
X113883Y23017D01*
X113752Y23017D01*
X77020Y25391D02*
X77151Y25475D01*
X77413Y25475D01*
X77676Y25306D01*
X77676Y25138D01*
X77544Y25053D01*
X77676Y24969D01*
X77676Y24800D01*
X77413Y24631D01*
X77151Y24631D01*
X77020Y24716D01*
X77151Y25053D02*
X77544Y25053D01*
X78857Y25475D02*
X78069Y25475D01*
X78069Y25138D01*
X78594Y25138D01*
X78857Y24969D01*
X78857Y24800D01*
X78594Y24631D01*
X78069Y24631D01*
X79644Y24631D02*
X79644Y24716D01*
X80432Y25306D02*
X80694Y25475D01*
X80957Y25475D01*
X81219Y25306D01*
X81219Y24800D01*
X80957Y24631D01*
X80694Y24631D01*
X80432Y24800D01*
X80432Y25306D01*
X81219Y25306D02*
X80432Y24800D01*
X81613Y25306D02*
X81875Y25475D01*
X82138Y25475D01*
X82400Y25306D01*
X82400Y24800D01*
X82138Y24631D01*
X81875Y24631D01*
X81613Y24800D01*
X81613Y25306D01*
X82400Y25306D02*
X81613Y24800D01*
X82794Y25306D02*
X83056Y25475D01*
X83319Y25475D01*
X83581Y25306D01*
X83581Y24800D01*
X83319Y24631D01*
X83056Y24631D01*
X82794Y24800D01*
X82794Y25306D01*
X83581Y25306D02*
X82794Y24800D01*
X83975Y25306D02*
X84237Y25475D01*
X84500Y25475D01*
X84762Y25306D01*
X84762Y24800D01*
X84500Y24631D01*
X84237Y24631D01*
X83975Y24800D01*
X83975Y25306D01*
X84762Y25306D02*
X83975Y24800D01*
X89920Y24969D02*
X89132Y24969D01*
X89789Y25475D01*
X89789Y24631D01*
X89657Y24631D02*
X89920Y24631D01*
X90314Y25306D02*
X90576Y25475D01*
X90838Y25475D01*
X91101Y25306D01*
X91101Y24800D01*
X90838Y24631D01*
X90576Y24631D01*
X90314Y24800D01*
X90314Y25306D01*
X91101Y25306D02*
X90314Y24800D01*
X97243Y24631D02*
X97243Y25475D01*
X97768Y25475D01*
X98030Y25306D01*
X98030Y25222D01*
X97768Y25053D01*
X97243Y25053D01*
X98817Y24631D02*
X98817Y25475D01*
X98424Y25475D02*
X99211Y25475D01*
X99605Y24631D02*
X99605Y25475D01*
X100392Y24631D02*
X100392Y25475D01*
X99605Y25053D02*
X100392Y25053D01*
X104172Y25306D02*
X104434Y25475D01*
X104697Y25475D01*
X104959Y25306D01*
X104959Y24800D01*
X104697Y24631D01*
X104434Y24631D01*
X104172Y24800D01*
X104172Y25306D01*
X104959Y25306D02*
X104172Y24800D01*
X107190Y24631D02*
X107059Y24631D01*
X106796Y24800D01*
X106796Y25306D01*
X107059Y25475D01*
X107190Y25475D01*
X107715Y24631D02*
X107715Y25475D01*
X108240Y25475D01*
X108502Y25306D01*
X108502Y25222D01*
X108240Y25053D01*
X107715Y25053D01*
X107846Y25053D02*
X108502Y24631D01*
X108896Y24800D02*
X109159Y24631D01*
X109421Y24631D01*
X109684Y24800D01*
X109684Y25306D01*
X109421Y25475D01*
X109159Y25475D01*
X108896Y25306D01*
X108896Y24800D01*
X110077Y25475D02*
X110077Y24800D01*
X110340Y24631D01*
X110602Y24631D01*
X110865Y24800D01*
X110865Y25475D01*
X111258Y24631D02*
X111258Y25475D01*
X112046Y24631D01*
X112046Y25475D01*
X112440Y24631D02*
X112964Y24631D01*
X113227Y24800D01*
X113227Y25306D01*
X112964Y25475D01*
X112440Y25475D01*
X112571Y25475D02*
X112571Y24631D01*
X113752Y25475D02*
X113883Y25475D01*
X114146Y25306D01*
X114146Y24800D01*
X113883Y24631D01*
X113752Y24631D01*
X77020Y27005D02*
X77151Y27089D01*
X77413Y27089D01*
X77676Y26921D01*
X77676Y26752D01*
X77544Y26667D01*
X77676Y26583D01*
X77676Y26414D01*
X77413Y26246D01*
X77151Y26246D01*
X77020Y26330D01*
X77151Y26667D02*
X77544Y26667D01*
X78201Y26921D02*
X78463Y27089D01*
X78463Y26246D01*
X78069Y26246D02*
X78857Y26246D01*
X79644Y26246D02*
X79644Y26330D01*
X81219Y26583D02*
X80432Y26583D01*
X81088Y27089D01*
X81088Y26246D01*
X80957Y26246D02*
X81219Y26246D01*
X81613Y26414D02*
X81875Y26246D01*
X82138Y26246D01*
X82400Y26414D01*
X82400Y26752D01*
X82400Y26921D01*
X82138Y27089D01*
X81875Y27089D01*
X81613Y26921D01*
X81613Y26752D01*
X81875Y26583D01*
X82138Y26583D01*
X82400Y26752D01*
X83450Y27089D02*
X83056Y27089D01*
X82794Y26921D01*
X82794Y26583D01*
X82794Y26414D01*
X83056Y26246D01*
X83319Y26246D01*
X83581Y26414D01*
X83581Y26583D01*
X83319Y26752D01*
X83056Y26752D01*
X82794Y26583D01*
X84106Y26921D02*
X84369Y27089D01*
X84369Y26246D01*
X83975Y26246D02*
X84762Y26246D01*
X89854Y27005D02*
X89985Y27089D01*
X90248Y27089D01*
X90510Y26921D01*
X90510Y26752D01*
X90379Y26667D01*
X90510Y26583D01*
X90510Y26414D01*
X90248Y26246D01*
X89985Y26246D01*
X89854Y26330D01*
X89985Y26667D02*
X90379Y26667D01*
X97243Y26246D02*
X97243Y27089D01*
X97768Y27089D01*
X98030Y26921D01*
X98030Y26836D01*
X97768Y26667D01*
X97243Y26667D01*
X98817Y26246D02*
X98817Y27089D01*
X98424Y27089D02*
X99211Y27089D01*
X99605Y26246D02*
X99605Y27089D01*
X100392Y26246D02*
X100392Y27089D01*
X99605Y26667D02*
X100392Y26667D01*
X105353Y26921D02*
X105615Y27089D01*
X105878Y27089D01*
X106140Y26921D01*
X106140Y26836D01*
X105353Y26246D01*
X106140Y26246D01*
X106140Y26330D01*
X106665Y27005D02*
X106796Y27089D01*
X107059Y27089D01*
X107321Y26921D01*
X107321Y26752D01*
X107190Y26667D01*
X107321Y26583D01*
X107321Y26414D01*
X107059Y26246D01*
X106796Y26246D01*
X106665Y26330D01*
X106796Y26667D02*
X107190Y26667D01*
X108109Y26246D02*
X108109Y26330D01*
X109552Y27089D02*
X109159Y27089D01*
X108896Y26921D01*
X108896Y26583D01*
X108896Y26414D01*
X109159Y26246D01*
X109421Y26246D01*
X109684Y26414D01*
X109684Y26583D01*
X109421Y26752D01*
X109159Y26752D01*
X108896Y26583D01*
X110077Y26921D02*
X110340Y27089D01*
X110602Y27089D01*
X110865Y26921D01*
X110865Y26836D01*
X110077Y26246D01*
X110865Y26246D01*
X110865Y26330D01*
X111258Y26921D02*
X111521Y27089D01*
X111783Y27089D01*
X112046Y26921D01*
X112046Y26836D01*
X111258Y26246D01*
X112046Y26246D01*
X112046Y26330D01*
X112440Y26921D02*
X112702Y27089D01*
X112964Y27089D01*
X113227Y26921D01*
X113227Y26414D01*
X112964Y26246D01*
X112702Y26246D01*
X112440Y26414D01*
X112440Y26921D01*
X113227Y26921D02*
X112440Y26414D01*
X76888Y28535D02*
X77151Y28703D01*
X77413Y28703D01*
X77676Y28535D01*
X77676Y28450D01*
X76888Y27860D01*
X77676Y27860D01*
X77676Y27944D01*
X78201Y28619D02*
X78332Y28703D01*
X78594Y28703D01*
X78857Y28535D01*
X78857Y28366D01*
X78726Y28282D01*
X78857Y28197D01*
X78857Y28029D01*
X78594Y27860D01*
X78332Y27860D01*
X78201Y27944D01*
X78332Y28282D02*
X78726Y28282D01*
X79644Y27860D02*
X79644Y27944D01*
X81088Y28703D02*
X80694Y28703D01*
X80432Y28535D01*
X80432Y28197D01*
X80432Y28029D01*
X80694Y27860D01*
X80957Y27860D01*
X81219Y28029D01*
X81219Y28197D01*
X80957Y28366D01*
X80694Y28366D01*
X80432Y28197D01*
X81613Y28535D02*
X81875Y28703D01*
X82138Y28703D01*
X82400Y28535D01*
X82400Y28450D01*
X81613Y27860D01*
X82400Y27860D01*
X82400Y27944D01*
X82794Y28535D02*
X83056Y28703D01*
X83319Y28703D01*
X83581Y28535D01*
X83581Y28450D01*
X82794Y27860D01*
X83581Y27860D01*
X83581Y27944D01*
X83975Y28535D02*
X84237Y28703D01*
X84500Y28703D01*
X84762Y28535D01*
X84762Y28029D01*
X84500Y27860D01*
X84237Y27860D01*
X83975Y28029D01*
X83975Y28535D01*
X84762Y28535D02*
X83975Y28029D01*
X89723Y28535D02*
X89985Y28703D01*
X90248Y28703D01*
X90510Y28535D01*
X90510Y28450D01*
X89723Y27860D01*
X90510Y27860D01*
X90510Y27944D01*
X97243Y27860D02*
X97243Y28703D01*
X97768Y28703D01*
X98030Y28535D01*
X98030Y28450D01*
X97768Y28282D01*
X97243Y28282D01*
X98817Y27860D02*
X98817Y28703D01*
X98424Y28703D02*
X99211Y28703D01*
X99605Y27860D02*
X99605Y28703D01*
X100392Y27860D02*
X100392Y28703D01*
X99605Y28282D02*
X100392Y28282D01*
X104172Y28535D02*
X104434Y28703D01*
X104697Y28703D01*
X104959Y28535D01*
X104959Y28029D01*
X104697Y27860D01*
X104434Y27860D01*
X104172Y28029D01*
X104172Y28535D01*
X104959Y28535D02*
X104172Y28029D01*
X107190Y27860D02*
X107059Y27860D01*
X106796Y28029D01*
X106796Y28535D01*
X107059Y28703D01*
X107190Y28703D01*
X107715Y27860D02*
X107715Y28703D01*
X108240Y28703D01*
X108502Y28535D01*
X108502Y28450D01*
X108240Y28282D01*
X107715Y28282D01*
X107846Y28282D02*
X108502Y27860D01*
X108896Y28029D02*
X109159Y27860D01*
X109421Y27860D01*
X109684Y28029D01*
X109684Y28535D01*
X109421Y28703D01*
X109159Y28703D01*
X108896Y28535D01*
X108896Y28029D01*
X110077Y28703D02*
X110077Y28029D01*
X110340Y27860D01*
X110602Y27860D01*
X110865Y28029D01*
X110865Y28703D01*
X111258Y27860D02*
X111258Y28703D01*
X112046Y27860D01*
X112046Y28703D01*
X112440Y27860D02*
X112964Y27860D01*
X113227Y28029D01*
X113227Y28535D01*
X112964Y28703D01*
X112440Y28703D01*
X112571Y28703D02*
X112571Y27860D01*
X113752Y28703D02*
X113883Y28703D01*
X114146Y28535D01*
X114146Y28029D01*
X113883Y27860D01*
X113752Y27860D01*
G54D12*
X33792Y12230D02*
X34040Y12478D01*
X33792Y12478D02*
X34040Y12230D01*
X27792Y12230D02*
X28040Y12478D01*
X27792Y12478D02*
X28040Y12230D01*
X27792Y9230D02*
X28040Y9478D01*
X27792Y9478D02*
X28040Y9230D01*
X27792Y8230D02*
X28040Y8478D01*
X27792Y8478D02*
X28040Y8230D01*
X27792Y7478D02*
X28040Y7230D01*
X27792Y7230D02*
X28040Y7478D01*
X27792Y11230D02*
X28040Y11478D01*
X27792Y11478D02*
X28040Y11230D01*
X27792Y10478D02*
X28040Y10230D01*
X27792Y10230D02*
X28040Y10478D01*
X27792Y18230D02*
X28040Y18478D01*
X27792Y18478D02*
X28040Y18230D01*
X27792Y15230D02*
X28040Y15478D01*
X27792Y15478D02*
X28040Y15230D01*
X27792Y14230D02*
X28040Y14478D01*
X27792Y14478D02*
X28040Y14230D01*
X27792Y13230D02*
X28040Y13478D01*
X27792Y13478D02*
X28040Y13230D01*
X27792Y17478D02*
X28040Y17230D01*
X27792Y17230D02*
X28040Y17478D01*
X27792Y16230D02*
X28040Y16478D01*
X27792Y16478D02*
X28040Y16230D01*
X27792Y21478D02*
X28040Y21230D01*
X27792Y21230D02*
X28040Y21478D01*
X27792Y20478D02*
X28040Y20230D01*
X27792Y20230D02*
X28040Y20478D01*
X27792Y19230D02*
X28040Y19478D01*
X27792Y19478D02*
X28040Y19230D01*
X27792Y24230D02*
X28040Y24478D01*
X27792Y24478D02*
X28040Y24230D01*
X27792Y23230D02*
X28040Y23478D01*
X27792Y23478D02*
X28040Y23230D01*
X27792Y22478D02*
X28040Y22230D01*
X27792Y22230D02*
X28040Y22478D01*
X27792Y25230D02*
X28040Y25478D01*
X27792Y25478D02*
X28040Y25230D01*
X27792Y26230D02*
X28040Y26478D01*
X27792Y26478D02*
X28040Y26230D01*
X33792Y9230D02*
X34040Y9478D01*
X33792Y9478D02*
X34040Y9230D01*
X33792Y8230D02*
X34040Y8478D01*
X33792Y8478D02*
X34040Y8230D01*
X33792Y7478D02*
X34040Y7230D01*
X33792Y7230D02*
X34040Y7478D01*
X33792Y11478D02*
X34040Y11230D01*
X33792Y11230D02*
X34040Y11478D01*
X33792Y10230D02*
X34040Y10478D01*
X33792Y10478D02*
X34040Y10230D01*
X33792Y18230D02*
X34040Y18478D01*
X33792Y18478D02*
X34040Y18230D01*
X33792Y15230D02*
X34040Y15478D01*
X33792Y15478D02*
X34040Y15230D01*
X33792Y14230D02*
X34040Y14478D01*
X33792Y14478D02*
X34040Y14230D01*
X33792Y13478D02*
X34040Y13230D01*
X33792Y13230D02*
X34040Y13478D01*
X33792Y16230D02*
X34040Y16478D01*
X33792Y16478D02*
X34040Y16230D01*
X33792Y17230D02*
X34040Y17478D01*
X33792Y17478D02*
X34040Y17230D01*
X33792Y21478D02*
X34040Y21230D01*
X33792Y21230D02*
X34040Y21478D01*
X33792Y19478D02*
X34040Y19230D01*
X33792Y19230D02*
X34040Y19478D01*
X33792Y20230D02*
X34040Y20478D01*
X33792Y20478D02*
X34040Y20230D01*
X33792Y24230D02*
X34040Y24478D01*
X33792Y24478D02*
X34040Y24230D01*
X33792Y22478D02*
X34040Y22230D01*
X33792Y22230D02*
X34040Y22478D01*
X33792Y23478D02*
X34040Y23230D01*
X33792Y23230D02*
X34040Y23478D01*
X33792Y25478D02*
X34040Y25230D01*
X33792Y25230D02*
X34040Y25478D01*
X33792Y26230D02*
X34040Y26478D01*
X33792Y26478D02*
X34040Y26230D01*
X12926Y18141D02*
X13280Y18141D01*
X13280Y18495D01*
X12926Y18495D01*
X12926Y18141D01*
X12926Y13023D02*
X13280Y13023D01*
X13280Y13377D01*
X12926Y13377D01*
X12926Y13023D01*
X7401Y15607D02*
X7755Y15607D01*
X7755Y15961D01*
X7401Y15961D01*
X7401Y15607D01*
X7401Y14623D02*
X7755Y14623D01*
X7755Y14977D01*
X7401Y14977D01*
X7401Y14623D01*
X7401Y22115D02*
X7755Y22115D01*
X7755Y22469D01*
X7401Y22469D01*
X7401Y22115D01*
X7401Y21131D02*
X7755Y21131D01*
X7755Y21485D01*
X7401Y21485D01*
X7401Y21131D01*
X7401Y26407D02*
X7755Y26407D01*
X7755Y26761D01*
X7401Y26761D01*
X7401Y26407D01*
X7401Y25423D02*
X7755Y25423D01*
X7755Y25777D01*
X7401Y25777D01*
X7401Y25423D01*
X29400Y22233D02*
X29567Y22400D01*
X29400Y22567D01*
X29233Y22400D01*
X29400Y22233D01*
X30000Y22433D02*
X30167Y22600D01*
X30000Y22767D01*
X29833Y22600D01*
X30000Y22433D01*
X2224Y2398D02*
X2539Y2398D01*
X2382Y2667D01*
X2224Y2398D01*
X2382Y2556D02*
X2145Y2556D01*
X2224Y4761D02*
X2539Y4761D01*
X2382Y5029D01*
X2224Y4761D01*
X2382Y4918D02*
X2145Y4918D01*
X3956Y3461D02*
X4271Y3461D01*
X4114Y3730D01*
X3956Y3461D01*
X4114Y3619D02*
X4114Y3855D01*
X72604Y23178D02*
X72958Y23178D01*
X72958Y23532D01*
X72604Y23532D01*
X72604Y23178D01*
X72657Y24845D02*
X72904Y25093D01*
X72657Y25093D02*
X72904Y24845D01*
X72623Y26426D02*
X72938Y26426D01*
X72781Y26694D01*
X72623Y26426D01*
X72781Y28030D02*
X72948Y28197D01*
X72781Y28364D01*
X72614Y28197D01*
X72781Y28030D01*
G04 ColorRGB 00FFFF for the following layer *
%LNBoard Outline*%
%LPD*%
G54D10*
G54D13*
X-200Y-800D02*
X60800Y-800D01*
X60800Y33500D01*
X-200Y33500D01*
X-200Y-800D01*
G54D14*
X15207Y30636D02*
X15100Y30636D01*
X14993Y30743D01*
X14993Y30850D01*
X15047Y30904D01*
X14993Y30957D01*
X14993Y31064D01*
X15100Y31171D01*
X15207Y31171D01*
X15313Y31064D01*
X15313Y30957D01*
X15260Y30904D01*
X15313Y30850D01*
X15313Y30743D01*
X15207Y30636D01*
X15047Y30904D02*
X15260Y30904D01*
X15473Y31064D02*
X15580Y31171D01*
X15687Y31171D01*
X15793Y31064D01*
X15793Y30743D01*
X15687Y30636D01*
X15580Y30636D01*
X15473Y30743D01*
X15473Y31064D01*
X15793Y31064D02*
X15473Y30743D01*
X16273Y31171D02*
X15953Y31171D01*
X15953Y30957D01*
X16167Y30957D01*
X16273Y30850D01*
X16273Y30743D01*
X16167Y30636D01*
X15953Y30636D01*
X16487Y31064D02*
X16593Y31171D01*
X16593Y30636D01*
X16433Y30636D02*
X16753Y30636D01*
X17393Y30636D02*
X17607Y30636D01*
X17713Y30743D01*
X17713Y31064D01*
X17607Y31171D01*
X17393Y31171D01*
X17447Y31171D02*
X17447Y30636D01*
X18193Y30743D02*
X18087Y30636D01*
X17980Y30636D01*
X17873Y30743D01*
X17873Y30904D01*
X17980Y31011D01*
X18087Y31011D01*
X18193Y30904D01*
X18140Y30850D01*
X17873Y30850D01*
X18353Y31011D02*
X18513Y30636D01*
X18673Y31011D01*
X19313Y30636D02*
X19527Y30636D01*
X19633Y30743D01*
X19633Y30796D01*
X19527Y30904D01*
X19633Y31011D01*
X19633Y31064D01*
X19527Y31171D01*
X19367Y31171D01*
X19313Y31171D01*
X19367Y30904D02*
X19527Y30904D01*
X19367Y31171D02*
X19367Y30636D01*
X19793Y30743D02*
X19900Y30636D01*
X20007Y30636D01*
X20113Y30743D01*
X20113Y30904D01*
X20007Y31011D01*
X19900Y31011D01*
X19793Y30904D01*
X19793Y30743D01*
X20327Y31011D02*
X20487Y31011D01*
X20540Y30957D01*
X20540Y30689D01*
X20487Y30636D01*
X20327Y30636D01*
X20273Y30689D01*
X20273Y30796D01*
X20327Y30850D01*
X20540Y30850D01*
X20540Y30689D02*
X20593Y30636D01*
X20753Y30850D02*
X20913Y31011D01*
X20967Y31011D01*
X21073Y30904D01*
X20753Y30636D02*
X20753Y31011D01*
X21553Y30743D02*
X21447Y30636D01*
X21340Y30636D01*
X21233Y30743D01*
X21233Y30850D01*
X21340Y30957D01*
X21447Y30957D01*
X21553Y30850D01*
X21553Y31171D02*
X21553Y30636D01*
X16433Y30314D02*
X16540Y30421D01*
X16647Y30421D01*
X16753Y30314D01*
X16753Y29993D01*
X16647Y29886D01*
X16540Y29886D01*
X16433Y29993D01*
X16433Y30314D01*
X16753Y30314D02*
X16433Y29993D01*
X16913Y30314D02*
X17020Y30421D01*
X17127Y30421D01*
X17233Y30314D01*
X17233Y30261D01*
X16913Y29886D01*
X17233Y29886D01*
X17233Y29939D01*
X17713Y30421D02*
X17393Y29886D01*
X17927Y30314D02*
X18033Y30421D01*
X18033Y29886D01*
X17873Y29886D02*
X18193Y29886D01*
X18513Y29886D02*
X18513Y30154D01*
X18673Y30314D01*
X18673Y30421D01*
X18353Y30421D01*
X18353Y30314D01*
X19153Y30421D02*
X18833Y29886D01*
X19313Y30314D02*
X19420Y30421D01*
X19527Y30421D01*
X19633Y30314D01*
X19633Y30261D01*
X19313Y29886D01*
X19633Y29886D01*
X19633Y29939D01*
X19793Y30314D02*
X19900Y30421D01*
X20007Y30421D01*
X20113Y30314D01*
X20113Y30261D01*
X19793Y29886D01*
X20113Y29886D01*
X20113Y29939D01*
X14753Y29136D02*
X14967Y29136D01*
X15073Y29243D01*
X15073Y29564D01*
X14967Y29671D01*
X14753Y29671D01*
X14807Y29671D02*
X14807Y29136D01*
X15287Y29511D02*
X15447Y29511D01*
X15500Y29457D01*
X15500Y29189D01*
X15447Y29136D01*
X15287Y29136D01*
X15233Y29189D01*
X15233Y29296D01*
X15287Y29350D01*
X15500Y29350D01*
X15500Y29189D02*
X15553Y29136D01*
X15713Y29136D02*
X15713Y29457D01*
X15713Y29511D01*
X15713Y29457D02*
X15767Y29511D01*
X15873Y29511D01*
X15927Y29457D01*
X15927Y29136D01*
X16353Y29136D02*
X16353Y29457D01*
X16353Y29564D02*
X16353Y29618D01*
X16993Y29243D02*
X16887Y29136D01*
X16780Y29136D01*
X16673Y29243D01*
X16673Y29404D01*
X16780Y29511D01*
X16887Y29511D01*
X16993Y29404D01*
X16940Y29350D01*
X16673Y29350D01*
X17207Y29671D02*
X17207Y29243D01*
X17313Y29136D01*
X17687Y29671D02*
X17687Y29243D01*
X17793Y29136D01*
X18433Y29243D02*
X18327Y29136D01*
X18220Y29136D01*
X18113Y29243D01*
X18113Y29404D01*
X18220Y29511D01*
X18327Y29511D01*
X18433Y29404D01*
X18380Y29350D01*
X18113Y29350D01*
X19287Y29404D02*
X19393Y29404D01*
X19393Y29243D01*
X19287Y29136D01*
X19180Y29136D01*
X19073Y29243D01*
X19073Y29564D01*
X19180Y29671D01*
X19393Y29671D01*
X19553Y29350D02*
X19713Y29511D01*
X19767Y29511D01*
X19873Y29404D01*
X19553Y29136D02*
X19553Y29511D01*
X20033Y29511D02*
X20033Y29243D01*
X20140Y29136D01*
X20247Y29136D01*
X20353Y29243D01*
X20353Y29511D01*
X20353Y29243D02*
X20353Y29136D01*
X20513Y29243D02*
X20620Y29136D01*
X20727Y29136D01*
X20833Y29243D01*
X20833Y29350D01*
X20727Y29457D01*
X20620Y29457D01*
X20513Y29350D01*
X20513Y29671D02*
X20513Y29136D01*
X21313Y29243D02*
X21207Y29136D01*
X21100Y29136D01*
X20993Y29243D01*
X20993Y29404D01*
X21100Y29511D01*
X21207Y29511D01*
X21313Y29404D01*
X21260Y29350D01*
X20993Y29350D01*
X21473Y29350D02*
X21633Y29511D01*
X21687Y29511D01*
X21793Y29404D01*
X21473Y29136D02*
X21473Y29511D01*
X-350Y-950D02*
X-350Y2510D01*
X-350Y-950D02*
X5780Y-950D01*
X60950Y-950D02*
X54820Y-950D01*
X60950Y-950D02*
X60950Y2510D01*
X60950Y33650D02*
X60950Y30190D01*
X60950Y33650D02*
X54820Y33650D01*
X-350Y33650D02*
X5780Y33650D01*
X-350Y33650D02*
X-350Y30190D01*
X-2319Y-950D02*
X-6256Y-950D01*
X-4287Y-2919D02*
X-4287Y1019D01*
X-5763Y-950D02*
G75*
D01*
G02X-5763Y-950I1476J0*
G01*
X62919Y-950D02*
X66856Y-950D01*
X64887Y-2919D02*
X64887Y1019D01*
X63411Y-950D02*
G75*
D01*
G02X63411Y-950I1476J0*
G01*
X64395Y-950D02*
G75*
D01*
G02X64395Y-950I492J0*
G01*
X-2319Y33650D02*
X-6256Y33650D01*
X-4287Y31681D02*
X-4287Y35619D01*
X-5763Y33650D02*
G75*
D01*
G02X-5763Y33650I1476J0*
G01*
X-5271Y33650D02*
G75*
D01*
G02X-5271Y33650I984J0*
G01*
X-4779Y33650D02*
G75*
D01*
G02X-4779Y33650I492J0*
G01*
G04 ColorRGB 66FFCC for the following layer *
%LNLegend Description*%
%LPD*%
G54D11*
X69021Y19319D02*
X116068Y19319D01*
X116068Y33847D01*
X69021Y33847D01*
X69021Y19319D01*
X76541Y30619D02*
X76541Y19319D01*
X85241Y30619D02*
X85241Y19319D01*
X95123Y30619D02*
X95123Y19319D01*
X102643Y30619D02*
X102643Y19319D01*
X116068Y30619D02*
X116068Y19319D01*
X69021Y20933D02*
X116068Y20933D01*
X69021Y22548D02*
X116068Y22548D01*
X69021Y24162D02*
X116068Y24162D01*
X69021Y25776D02*
X116068Y25776D01*
X69021Y27390D02*
X116068Y27390D01*
X69021Y29004D02*
X116068Y29004D01*
X69369Y29643D02*
X69631Y29474D01*
X69894Y29474D01*
X70156Y29643D01*
X69369Y30149D01*
X69631Y30318D01*
X69894Y30318D01*
X70156Y30149D01*
X70550Y29221D02*
X70681Y29221D01*
X71337Y30065D01*
X70550Y30065D02*
X70943Y29558D01*
X71731Y29474D02*
X71731Y29980D01*
X71731Y30065D01*
X71731Y29980D02*
X71862Y30065D01*
X71993Y30065D01*
X72125Y29980D01*
X72256Y30065D01*
X72387Y30065D01*
X72518Y29980D01*
X72518Y29474D01*
X72125Y29980D02*
X72125Y29474D01*
X72912Y29643D02*
X73174Y29474D01*
X73437Y29474D01*
X73699Y29643D01*
X73699Y29811D01*
X73437Y29980D01*
X73174Y29980D01*
X72912Y29811D01*
X72912Y30318D02*
X72912Y29474D01*
X74093Y29643D02*
X74356Y29474D01*
X74618Y29474D01*
X74880Y29643D01*
X74880Y29896D01*
X74618Y30065D01*
X74356Y30065D01*
X74093Y29896D01*
X74093Y29643D01*
X75405Y30318D02*
X75405Y29643D01*
X75668Y29474D01*
X78660Y29643D02*
X78922Y29474D01*
X79185Y29474D01*
X79447Y29643D01*
X78660Y30149D01*
X78922Y30318D01*
X79185Y30318D01*
X79447Y30149D01*
X80235Y29474D02*
X80235Y29980D01*
X80235Y30149D02*
X80235Y30233D01*
X81022Y30065D02*
X81810Y30065D01*
X81022Y29474D01*
X81810Y29474D01*
X82991Y29643D02*
X82728Y29474D01*
X82466Y29474D01*
X82203Y29643D01*
X82203Y29896D01*
X82466Y30065D01*
X82728Y30065D01*
X82991Y29896D01*
X82859Y29811D01*
X82203Y29811D01*
X85589Y29643D02*
X85852Y29474D01*
X86114Y29474D01*
X86377Y29643D01*
X86377Y30149D01*
X86114Y30318D01*
X85852Y30318D01*
X85589Y30149D01*
X85589Y29643D01*
X86114Y29643D02*
X86377Y29474D01*
X86770Y30065D02*
X86770Y29643D01*
X87033Y29474D01*
X87295Y29474D01*
X87558Y29643D01*
X87558Y30065D01*
X87558Y29643D02*
X87558Y29474D01*
X88083Y30065D02*
X88476Y30065D01*
X88607Y29980D01*
X88607Y29558D01*
X88476Y29474D01*
X88083Y29474D01*
X87951Y29558D01*
X87951Y29727D01*
X88083Y29811D01*
X88607Y29811D01*
X88607Y29558D02*
X88739Y29474D01*
X89132Y29474D02*
X89132Y29980D01*
X89132Y30065D01*
X89132Y29980D02*
X89264Y30065D01*
X89526Y30065D01*
X89657Y29980D01*
X89657Y29474D01*
X90970Y29558D02*
X90838Y29474D01*
X90707Y29558D01*
X90707Y30318D01*
X90445Y30065D02*
X90970Y30065D01*
X91888Y29474D02*
X91888Y29980D01*
X91888Y30149D02*
X91888Y30233D01*
X93332Y29558D02*
X93201Y29474D01*
X93069Y29558D01*
X93069Y30318D01*
X92807Y30065D02*
X93332Y30065D01*
X93857Y29221D02*
X93988Y29221D01*
X94644Y30065D01*
X93857Y30065D02*
X94251Y29558D01*
X95471Y29474D02*
X95471Y30318D01*
X95996Y30318D01*
X96258Y30149D01*
X96258Y30065D01*
X95996Y29896D01*
X95471Y29896D01*
X96783Y30318D02*
X96783Y29643D01*
X97046Y29474D01*
X97964Y30065D02*
X98358Y30065D01*
X98489Y29980D01*
X98489Y29558D01*
X98358Y29474D01*
X97964Y29474D01*
X97833Y29558D01*
X97833Y29727D01*
X97964Y29811D01*
X98489Y29811D01*
X98489Y29558D02*
X98621Y29474D01*
X99670Y29558D02*
X99539Y29474D01*
X99408Y29558D01*
X99408Y30318D01*
X99146Y30065D02*
X99670Y30065D01*
X100983Y29643D02*
X100720Y29474D01*
X100458Y29474D01*
X100195Y29643D01*
X100195Y29896D01*
X100458Y30065D01*
X100720Y30065D01*
X100983Y29896D01*
X100852Y29811D01*
X100195Y29811D01*
X102164Y29643D02*
X101901Y29474D01*
X101639Y29474D01*
X101377Y29643D01*
X101377Y29811D01*
X101639Y29980D01*
X101901Y29980D01*
X102164Y29811D01*
X102164Y30318D02*
X102164Y29474D01*
X102991Y29643D02*
X103253Y29474D01*
X103516Y29474D01*
X103778Y29643D01*
X102991Y30149D01*
X103253Y30318D01*
X103516Y30318D01*
X103778Y30149D01*
X104303Y30318D02*
X104303Y29643D01*
X104565Y29474D01*
X105353Y29643D02*
X105615Y29474D01*
X105878Y29474D01*
X106140Y29643D01*
X106140Y29896D01*
X105878Y30065D01*
X105615Y30065D01*
X105353Y29896D01*
X105353Y29643D01*
X107190Y29558D02*
X107059Y29474D01*
X106928Y29558D01*
X106928Y30318D01*
X106665Y30065D02*
X107190Y30065D01*
X108896Y30318D02*
X108896Y29474D01*
X109684Y29474D01*
X110865Y29643D02*
X110602Y29474D01*
X110340Y29474D01*
X110077Y29643D01*
X110077Y29896D01*
X110340Y30065D01*
X110602Y30065D01*
X110865Y29896D01*
X110733Y29811D01*
X110077Y29811D01*
X111258Y29474D02*
X111258Y29980D01*
X111258Y30065D01*
X111258Y29980D02*
X111390Y30065D01*
X111652Y30065D01*
X111783Y29980D01*
X111783Y29474D01*
X112440Y29390D02*
X112702Y29221D01*
X112964Y29221D01*
X113227Y29390D01*
X113227Y29643D01*
X113227Y29896D01*
X112964Y30065D01*
X112702Y30065D01*
X112440Y29896D01*
X112440Y29643D01*
X112702Y29474D01*
X112964Y29474D01*
X113227Y29643D01*
X114277Y29558D02*
X114146Y29474D01*
X114014Y29558D01*
X114014Y30318D01*
X113752Y30065D02*
X114277Y30065D01*
X114802Y29896D02*
X115064Y30065D01*
X115327Y30065D01*
X115589Y29896D01*
X115589Y29474D01*
X114802Y30318D02*
X114802Y29474D01*
X69021Y30619D02*
X116068Y30619D01*
X80865Y31088D02*
X80865Y31594D01*
X81127Y31932D01*
X81390Y31932D01*
X81652Y31594D01*
X81652Y31088D01*
X80865Y31341D02*
X81652Y31341D01*
X82177Y31932D02*
X82177Y31257D01*
X82440Y31088D01*
X83358Y31932D02*
X83358Y31257D01*
X83621Y31088D01*
X85589Y31679D02*
X85589Y31257D01*
X85852Y31088D01*
X86114Y31088D01*
X86377Y31257D01*
X86377Y31679D01*
X86377Y31257D02*
X86377Y31088D01*
X86770Y31088D02*
X86770Y31594D01*
X86770Y31679D01*
X86770Y31594D02*
X86901Y31679D01*
X87164Y31679D01*
X87295Y31594D01*
X87295Y31088D01*
X88345Y31088D02*
X88345Y31594D01*
X88345Y31763D02*
X88345Y31847D01*
X89789Y31172D02*
X89657Y31088D01*
X89526Y31172D01*
X89526Y31932D01*
X89264Y31679D02*
X89789Y31679D01*
X90314Y31257D02*
X90576Y31088D01*
X90838Y31088D01*
X91101Y31257D01*
X90314Y31510D01*
X90576Y31679D01*
X90838Y31679D01*
X91101Y31510D01*
X92807Y31679D02*
X93201Y31679D01*
X93332Y31594D01*
X93332Y31172D01*
X93201Y31088D01*
X92807Y31088D01*
X92676Y31172D01*
X92676Y31341D01*
X92807Y31426D01*
X93332Y31426D01*
X93332Y31172D02*
X93463Y31088D01*
X93857Y31426D02*
X94251Y31679D01*
X94382Y31679D01*
X94644Y31510D01*
X93857Y31088D02*
X93857Y31679D01*
X95825Y31257D02*
X95563Y31088D01*
X95300Y31088D01*
X95038Y31257D01*
X95038Y31510D01*
X95300Y31679D01*
X95563Y31679D01*
X95825Y31510D01*
X95694Y31426D01*
X95038Y31426D01*
X97794Y31088D02*
X97794Y31594D01*
X97794Y31763D02*
X97794Y31847D01*
X98581Y31088D02*
X98581Y31594D01*
X98581Y31679D01*
X98581Y31594D02*
X98712Y31679D01*
X98975Y31679D01*
X99106Y31594D01*
X99106Y31088D01*
X100943Y31088D02*
X100943Y31594D01*
X100943Y31679D01*
X100943Y31594D02*
X101075Y31679D01*
X101206Y31679D01*
X101337Y31594D01*
X101468Y31679D01*
X101600Y31679D01*
X101731Y31594D01*
X101731Y31088D01*
X101337Y31594D02*
X101337Y31088D01*
X102518Y31088D02*
X102518Y31594D01*
X102518Y31763D02*
X102518Y31847D01*
X103437Y31932D02*
X103437Y31257D01*
X103699Y31088D01*
X69021Y32233D02*
X116068Y32233D01*
X85589Y32702D02*
X86114Y32702D01*
X86377Y32871D01*
X86377Y33377D01*
X86114Y33546D01*
X85589Y33546D01*
X85720Y33546D02*
X85720Y32702D01*
X86770Y33040D02*
X87164Y33293D01*
X87295Y33293D01*
X87558Y33124D01*
X86770Y32702D02*
X86770Y33293D01*
X88345Y32702D02*
X88345Y33208D01*
X88345Y33377D02*
X88345Y33462D01*
X89264Y33546D02*
X89264Y32871D01*
X89526Y32702D01*
X90445Y33546D02*
X90445Y32871D01*
X90707Y32702D01*
X92676Y33546D02*
X92676Y32702D01*
X93463Y32702D01*
X94644Y32871D02*
X94382Y32702D01*
X94119Y32702D01*
X93857Y32871D01*
X93857Y33124D01*
X94119Y33293D01*
X94382Y33293D01*
X94644Y33124D01*
X94513Y33040D01*
X93857Y33040D01*
X95038Y32618D02*
X95300Y32449D01*
X95563Y32449D01*
X95825Y32618D01*
X95825Y32871D01*
X95825Y33124D01*
X95563Y33293D01*
X95300Y33293D01*
X95038Y33124D01*
X95038Y32871D01*
X95300Y32702D01*
X95563Y32702D01*
X95825Y32871D01*
X97006Y32871D02*
X96744Y32702D01*
X96481Y32702D01*
X96219Y32871D01*
X96219Y33124D01*
X96481Y33293D01*
X96744Y33293D01*
X97006Y33124D01*
X96875Y33040D01*
X96219Y33040D01*
X97400Y32702D02*
X97400Y33208D01*
X97400Y33293D01*
X97400Y33208D02*
X97531Y33293D01*
X97794Y33293D01*
X97925Y33208D01*
X97925Y32702D01*
X99369Y32871D02*
X99106Y32702D01*
X98844Y32702D01*
X98581Y32871D01*
X98581Y33040D01*
X98844Y33208D01*
X99106Y33208D01*
X99369Y33040D01*
X99369Y33546D02*
X99369Y32702D01*

M02*
