G04 Generated by Ultiboard 13.0 *
%FSLAX24Y24*%
%MOIN*%

%ADD10C,0.0001*%
%ADD11C,0.0100*%
%ADD12C,0.0001*%
%ADD13C,0.0050*%
%ADD14C,0.0540*%
%ADD15R,0.0540X0.0540*%
%ADD16C,0.0500*%
%ADD17C,0.0534*%
%ADD18C,0.0591*%
%ADD19R,0.0591X0.0591*%
%ADD20C,0.0394*%


G04 ColorRGB 00FF00 for the following layer *
%LNCopper Top*%
%LPD*%
G54D10*
G36*
X60649Y33349D02*
X60649Y33349D01*
X60649Y-649D01*
X-49Y-649D01*
X-49Y33349D01*
X60649Y33349D01*
D02*
G37*
%LPC*%
G36*
X46893Y23163D02*
G75*
D01*
G03X46893Y23163I-395J-131*
G01*
D02*
G37*
G36*
X46893Y24163D02*
G75*
D01*
G03X46893Y24163I-395J-131*
G01*
D02*
G37*
G36*
X28104Y25001D02*
G75*
D01*
G03X27601Y25600I-191J350*
G01*
X27601Y25600D01*
X27601Y25917D01*
X27701Y26017D01*
G75*
D01*
G03X28232Y26599I219J334*
G01*
X28232Y26599D01*
X33600Y26599D01*
G75*
D01*
G03X34201Y26634I316J-244*
G01*
X34201Y26634D01*
X34201Y28517D01*
X34283Y28599D01*
X46266Y28599D01*
G75*
D01*
G03X46334Y28611I0J201*
G01*
G74*
D01*
G03X46377Y28633I69J188*
G01*
G75*
D01*
G03X46082Y29001I120J398*
G01*
X46082Y29001D01*
X34200Y29001D01*
G75*
D01*
G03X34171Y28999I-1J-201*
G01*
G74*
D01*
G03X34058Y28942I29J199*
G01*
X34058Y28942D01*
X33858Y28742D01*
G75*
D01*
G03X33799Y28600I141J-142*
G01*
X33799Y28600D01*
X33799Y27001D01*
X22800Y27001D01*
G75*
D01*
G03X22771Y26999I-1J-201*
G01*
G74*
D01*
G03X22658Y26942I29J199*
G01*
X22658Y26942D01*
X22458Y26742D01*
G75*
D01*
G03X22399Y26600I141J-142*
G01*
X22399Y26600D01*
X22399Y25083D01*
X22317Y25001D01*
X13883Y25001D01*
X13801Y25083D01*
X13801Y25700D01*
G74*
D01*
G03X13742Y25842I201J0*
G01*
X13742Y25842D01*
X13642Y25942D01*
G74*
D01*
G03X13572Y25988I142J140*
G01*
G75*
D01*
G03X13500Y26001I-71J-188*
G01*
X13500Y26001D01*
X8683Y26001D01*
X8601Y26083D01*
X8601Y26600D01*
G74*
D01*
G03X8400Y26801I201J0*
G01*
X8400Y26801D01*
X8383Y26801D01*
X7942Y27242D01*
X7942Y27242D01*
X7942Y27242D01*
X7842Y27342D01*
G74*
D01*
G03X7772Y27388I142J140*
G01*
G75*
D01*
G03X7700Y27401I-71J-188*
G01*
X7700Y27401D01*
X7200Y27401D01*
G75*
D01*
G03X7171Y27399I-1J-201*
G01*
G74*
D01*
G03X7058Y27342I29J199*
G01*
X7058Y27342D01*
X6858Y27142D01*
G75*
D01*
G03X6799Y27000I141J-142*
G01*
X6799Y27000D01*
X6799Y26200D01*
G75*
D01*
G03X6858Y26058I201J0*
G01*
X6858Y26058D01*
X6999Y25917D01*
X6999Y25800D01*
G75*
D01*
G03X7132Y25611I201J0*
G01*
X7132Y25611D01*
X7132Y25305D01*
G75*
D01*
G03X7282Y25154I150J-1*
G01*
X7282Y25154D01*
X7873Y25154D01*
G75*
D01*
G03X8024Y25305I0J151*
G01*
X8024Y25305D01*
X8024Y25603D01*
G74*
D01*
G03X8058Y25558I175J97*
G01*
X8058Y25558D01*
X8158Y25458D01*
G74*
D01*
G03X8284Y25400I141J141*
G01*
G75*
D01*
G03X8300Y25399I20J199*
G01*
X8300Y25399D01*
X12682Y25399D01*
G75*
D01*
G03X12944Y24973I414J-39*
G01*
G74*
D01*
G03X12955Y24961I153J129*
G01*
X12955Y24961D01*
X12999Y24917D01*
X12999Y24800D01*
G75*
D01*
G03X13058Y24658I201J0*
G01*
X13058Y24658D01*
X13258Y24458D01*
G74*
D01*
G03X13371Y24401I142J141*
G01*
G75*
D01*
G03X13400Y24399I28J199*
G01*
X13400Y24399D01*
X22805Y24399D01*
G75*
D01*
G03X23030Y23686I295J-299*
G01*
X23030Y23686D01*
X23058Y23658D01*
G74*
D01*
G03X23184Y23600I141J141*
G01*
G75*
D01*
G03X23200Y23599I20J199*
G01*
X23200Y23599D01*
X23317Y23599D01*
X23515Y23401D01*
X23400Y23401D01*
G75*
D01*
G03X23393Y23401I-3J-201*
G01*
G75*
D01*
G03X23399Y22805I-293J-301*
G01*
X23399Y22800D01*
X23399Y22800D01*
X23399Y22683D01*
X23317Y22601D01*
X23200Y22601D01*
G75*
D01*
G03X23184Y22600I5J-201*
G01*
G74*
D01*
G03X23058Y22542I15J199*
G01*
X23058Y22542D01*
X23030Y22514D01*
G75*
D01*
G03X23501Y22226I71J-413*
G01*
G74*
D01*
G03X23542Y22258I102J173*
G01*
X23542Y22258D01*
X23742Y22458D01*
G75*
D01*
G03X23801Y22600I-141J142*
G01*
X23801Y22600D01*
X23801Y22717D01*
X23883Y22799D01*
X27117Y22799D01*
X27199Y22717D01*
X27199Y22600D01*
G75*
D01*
G03X27258Y22458I201J0*
G01*
X27258Y22458D01*
X27504Y22212D01*
G74*
D01*
G03X27559Y22173I142J141*
G01*
G74*
D01*
G03X27735Y21997I357J181*
G01*
G74*
D01*
G03X27774Y21942I180J87*
G01*
X27774Y21942D01*
X27858Y21858D01*
G74*
D01*
G03X27934Y21810I142J141*
G01*
G75*
D01*
G03X28000Y21799I66J190*
G01*
X28000Y21799D01*
X28117Y21799D01*
X28258Y21658D01*
G74*
D01*
G03X28371Y21601I142J141*
G01*
G75*
D01*
G03X28400Y21599I28J199*
G01*
X28400Y21599D01*
X33600Y21599D01*
G75*
D01*
G03X34285Y21199I321J-238*
G01*
X34285Y21199D01*
X37500Y21199D01*
G75*
D01*
G03X37572Y21212I1J201*
G01*
G74*
D01*
G03X37599Y21225I73J187*
G01*
X37599Y21225D01*
X37599Y19483D01*
X37517Y19401D01*
X34313Y19401D01*
G75*
D01*
G03X34010Y18965I-396J-48*
G01*
G75*
D01*
G03X33999Y18899I189J-65*
G01*
X33999Y18899D01*
X33999Y18745D01*
G75*
D01*
G03X34199Y18071I-81J-391*
G01*
X34199Y18071D01*
X34199Y17636D01*
G75*
D01*
G03X34199Y17071I-282J-282*
G01*
X34199Y17071D01*
X34199Y16883D01*
X34117Y16801D01*
X34000Y16801D01*
G75*
D01*
G03X33934Y16790I0J-201*
G01*
G74*
D01*
G03X33867Y16751I66J190*
G01*
G75*
D01*
G03X34308Y16431I48J-397*
G01*
G74*
D01*
G03X34342Y16458I107J169*
G01*
X34342Y16458D01*
X34399Y16515D01*
X34399Y15283D01*
X34251Y15135D01*
G75*
D01*
G03X33601Y15601I-330J225*
G01*
X33600Y15601D01*
X33600Y15601D01*
X28683Y15601D01*
X28342Y15942D01*
G74*
D01*
G03X28252Y15994I142J141*
G01*
G75*
D01*
G03X28200Y16001I-52J-193*
G01*
X28200Y16001D01*
X28104Y16001D01*
G75*
D01*
G03X27601Y16600I-191J350*
G01*
X27601Y16600D01*
X27601Y17107D01*
G75*
D01*
G03X27601Y17600I315J247*
G01*
X27601Y17600D01*
X27601Y18107D01*
G75*
D01*
G03X27601Y18600I315J247*
G01*
X27601Y18600D01*
X27601Y18800D01*
G74*
D01*
G03X27542Y18942I201J0*
G01*
X27542Y18942D01*
X27485Y18999D01*
X27600Y18999D01*
G75*
D01*
G03X27612Y18999I6J201*
G01*
G74*
D01*
G03X27693Y19022I13J201*
G01*
G75*
D01*
G03X27601Y19600I222J332*
G01*
X27601Y19600D01*
X27601Y19917D01*
X27701Y20017D01*
G75*
D01*
G03X27519Y20403I214J337*
G01*
X27519Y20403D01*
X27258Y20142D01*
G75*
D01*
G03X27199Y19999I141J-142*
G01*
X27199Y19999D01*
X27199Y19683D01*
X27117Y19601D01*
X24083Y19601D01*
X24001Y19683D01*
X24001Y19800D01*
G74*
D01*
G03X23942Y19942I201J0*
G01*
X23942Y19942D01*
X23742Y20142D01*
G74*
D01*
G03X23666Y20190I142J141*
G01*
G75*
D01*
G03X23600Y20201I-66J-190*
G01*
X23600Y20201D01*
X23508Y20201D01*
G75*
D01*
G03X23393Y19799I-408J-101*
G01*
G75*
D01*
G03X23400Y19799I4J201*
G01*
X23400Y19799D01*
X23517Y19799D01*
X23599Y19717D01*
X23599Y19600D01*
G75*
D01*
G03X23658Y19458I201J0*
G01*
X23658Y19458D01*
X23715Y19401D01*
X23518Y19401D01*
G74*
D01*
G03X23370Y19521I148J31*
G01*
X23370Y19521D01*
X22830Y19521D01*
G75*
D01*
G03X22679Y19370I0J-151*
G01*
X22679Y19370D01*
X22679Y18830D01*
G75*
D01*
G03X22682Y18801I151J1*
G01*
X22682Y18801D01*
X13385Y18801D01*
G75*
D01*
G03X13337Y18795I1J-201*
G01*
G74*
D01*
G03X13243Y18742I48J194*
G01*
X13243Y18742D01*
X13242Y18741D01*
G75*
D01*
G03X13541Y18399I-139J-423*
G01*
X13541Y18399D01*
X23500Y18399D01*
G75*
D01*
G03X23572Y18412I1J201*
G01*
G74*
D01*
G03X23642Y18458I73J187*
G01*
X23642Y18458D01*
X23742Y18558D01*
G75*
D01*
G03X23801Y18700I-141J142*
G01*
X23801Y18700D01*
X23801Y18717D01*
X23883Y18799D01*
X27117Y18799D01*
X27199Y18717D01*
X27199Y16000D01*
G75*
D01*
G03X27258Y15858I201J0*
G01*
X27258Y15858D01*
X27458Y15658D01*
G74*
D01*
G03X27571Y15601I142J141*
G01*
G74*
D01*
G03X27600Y15599I28J199*
G01*
G75*
D01*
G03X27727Y15001I314J-246*
G01*
X27727Y15001D01*
X27600Y15001D01*
G75*
D01*
G03X27571Y14999I-1J-201*
G01*
G74*
D01*
G03X27458Y14942I29J199*
G01*
X27458Y14942D01*
X27258Y14742D01*
G75*
D01*
G03X27199Y14600I141J-142*
G01*
X27199Y14600D01*
X27199Y14283D01*
X27117Y14201D01*
X23883Y14201D01*
X23801Y14283D01*
X23801Y14400D01*
G74*
D01*
G03X23690Y14580I201J0*
G01*
X23690Y14580D01*
X23519Y14665D01*
X23442Y14742D01*
G74*
D01*
G03X23372Y14788I142J140*
G01*
G75*
D01*
G03X23300Y14801I-71J-188*
G01*
X23300Y14801D01*
X22600Y14801D01*
G75*
D01*
G03X22571Y14799I-1J-201*
G01*
G74*
D01*
G03X22458Y14742I29J199*
G01*
X22458Y14742D01*
X22258Y14542D01*
G75*
D01*
G03X22199Y14400I141J-142*
G01*
X22199Y14400D01*
X22199Y13400D01*
G75*
D01*
G03X22258Y13258I201J0*
G01*
X22258Y13258D01*
X22458Y13058D01*
G75*
D01*
G03X22600Y12999I142J141*
G01*
X22600Y12999D01*
X22681Y12999D01*
G75*
D01*
G03X22919Y13401I418J24*
G01*
X22919Y13401D01*
X22683Y13401D01*
X22601Y13483D01*
X22601Y14317D01*
X22683Y14399D01*
X22915Y14399D01*
G75*
D01*
G03X23229Y13622I157J-389*
G01*
G74*
D01*
G03X23280Y13603I95J176*
G01*
G75*
D01*
G03X23322Y13599I40J197*
G01*
X23322Y13599D01*
X27600Y13599D01*
G75*
D01*
G03X28101Y12999I312J-249*
G01*
X28101Y12999D01*
X28317Y12999D01*
X28399Y12917D01*
X28399Y12285D01*
X28342Y12342D01*
G74*
D01*
G03X28316Y12364I142J141*
G01*
G75*
D01*
G03X28101Y11999I-400J-10*
G01*
X28101Y11999D01*
X28117Y11999D01*
X28199Y11917D01*
X28199Y11636D01*
G75*
D01*
G03X27519Y11403I-284J-280*
G01*
X27519Y11403D01*
X27517Y11401D01*
X23281Y11401D01*
G75*
D01*
G03X22681Y11001I-181J-379*
G01*
X22681Y11001D01*
X22400Y11001D01*
G75*
D01*
G03X22371Y10999I-1J-201*
G01*
G74*
D01*
G03X22258Y10942I29J199*
G01*
X22258Y10942D01*
X22058Y10742D01*
G75*
D01*
G03X21999Y10600I141J-142*
G01*
X21999Y10600D01*
X21999Y9483D01*
X21917Y9401D01*
X21700Y9401D01*
G75*
D01*
G03X21684Y9400I5J-201*
G01*
G74*
D01*
G03X21558Y9342I15J199*
G01*
X21558Y9342D01*
X21458Y9242D01*
G75*
D01*
G03X21399Y9099I141J-142*
G01*
X21399Y9099D01*
X21399Y3683D01*
X21317Y3601D01*
X19300Y3601D01*
G75*
D01*
G03X19284Y3600I5J-201*
G01*
G74*
D01*
G03X19158Y3542I15J199*
G01*
X19158Y3542D01*
X19058Y3442D01*
G75*
D01*
G03X18999Y3299I141J-142*
G01*
X18999Y3299D01*
X18999Y3083D01*
X18917Y3001D01*
X18600Y3001D01*
G75*
D01*
G03X18571Y2999I-1J-201*
G01*
G74*
D01*
G03X18458Y2942I29J199*
G01*
X18458Y2942D01*
X18258Y2742D01*
G75*
D01*
G03X18199Y2600I141J-142*
G01*
X18199Y2600D01*
X18199Y2365D01*
G75*
D01*
G03X18601Y2365I201J-364*
G01*
X18601Y2365D01*
X18601Y2517D01*
X18683Y2599D01*
X19000Y2599D01*
G75*
D01*
G03X19066Y2610I0J201*
G01*
G74*
D01*
G03X19142Y2658I67J190*
G01*
X19142Y2658D01*
X19199Y2715D01*
X19199Y2365D01*
G75*
D01*
G03X19601Y2365I201J-364*
G01*
X19601Y2365D01*
X19601Y2917D01*
X19683Y2999D01*
X20315Y2999D01*
X20258Y2942D01*
G75*
D01*
G03X20199Y2800I141J-142*
G01*
X20199Y2800D01*
X20199Y2365D01*
G75*
D01*
G03X20601Y2365I201J-364*
G01*
X20601Y2365D01*
X20601Y2717D01*
X20683Y2799D01*
X21315Y2799D01*
X21258Y2742D01*
G75*
D01*
G03X21199Y2600I141J-142*
G01*
X21199Y2600D01*
X21199Y2365D01*
G75*
D01*
G03X21601Y2365I201J-364*
G01*
X21601Y2365D01*
X21601Y2517D01*
X21683Y2599D01*
X22100Y2599D01*
G75*
D01*
G03X22172Y2612I1J201*
G01*
G74*
D01*
G03X22199Y2625I73J187*
G01*
X22199Y2625D01*
X22199Y2365D01*
G75*
D01*
G03X22601Y2365I201J-364*
G01*
X22601Y2365D01*
X22601Y6317D01*
X22683Y6399D01*
X22800Y6399D01*
G75*
D01*
G03X23001Y6600I0J201*
G01*
X23001Y6600D01*
X23001Y6601D01*
X23370Y6601D01*
G75*
D01*
G03X23521Y6752I0J151*
G01*
X23521Y6752D01*
X23521Y7292D01*
G74*
D01*
G03X23370Y7443I151J0*
G01*
X23370Y7443D01*
X22830Y7443D01*
G75*
D01*
G03X22679Y7292I0J-151*
G01*
X22679Y7292D01*
X22679Y6885D01*
X22658Y6864D01*
G74*
D01*
G03X22615Y6801I141J142*
G01*
X22615Y6801D01*
X22600Y6801D01*
G75*
D01*
G03X22571Y6799I-1J-201*
G01*
G74*
D01*
G03X22458Y6742I29J199*
G01*
X22458Y6742D01*
X22401Y6685D01*
X22401Y7517D01*
X22483Y7599D01*
X22878Y7599D01*
G75*
D01*
G03X22937Y7608I0J201*
G01*
G74*
D01*
G03X22971Y7622I59J191*
G01*
G75*
D01*
G03X22681Y8001I129J400*
G01*
X22681Y8001D01*
X22400Y8001D01*
G75*
D01*
G03X22371Y7999I-1J-201*
G01*
G74*
D01*
G03X22258Y7942I29J199*
G01*
X22258Y7942D01*
X22201Y7885D01*
X22201Y8517D01*
X22283Y8599D01*
X22878Y8599D01*
G75*
D01*
G03X22937Y8608I0J201*
G01*
G74*
D01*
G03X22971Y8622I59J191*
G01*
G75*
D01*
G03X23519Y8999I129J400*
G01*
X23519Y8999D01*
X23600Y8999D01*
G75*
D01*
G03X23666Y9010I0J201*
G01*
G74*
D01*
G03X23742Y9058I67J190*
G01*
X23742Y9058D01*
X23942Y9258D01*
G75*
D01*
G03X24001Y9400I-141J142*
G01*
X24001Y9400D01*
X24001Y9517D01*
X24083Y9599D01*
X27600Y9599D01*
G75*
D01*
G03X28232Y9599I316J-244*
G01*
X28232Y9599D01*
X28400Y9599D01*
G75*
D01*
G03X28466Y9610I0J201*
G01*
G74*
D01*
G03X28542Y9658I67J190*
G01*
X28542Y9658D01*
X28599Y9715D01*
X28599Y8683D01*
X28517Y8601D01*
X28230Y8601D01*
G75*
D01*
G03X27519Y8403I-315J-245*
G01*
X27519Y8403D01*
X27258Y8142D01*
G75*
D01*
G03X27199Y7999I141J-142*
G01*
X27199Y7999D01*
X27199Y7683D01*
X27117Y7601D01*
X26300Y7601D01*
G75*
D01*
G03X26284Y7600I5J-201*
G01*
G74*
D01*
G03X26158Y7542I15J199*
G01*
X26158Y7542D01*
X26058Y7442D01*
G75*
D01*
G03X25999Y7299I141J-142*
G01*
X25999Y7299D01*
X25999Y3083D01*
X25917Y3001D01*
X23600Y3001D01*
G75*
D01*
G03X23571Y2999I-1J-201*
G01*
G74*
D01*
G03X23458Y2942I29J199*
G01*
X23458Y2942D01*
X23258Y2742D01*
G75*
D01*
G03X23199Y2600I141J-142*
G01*
X23199Y2600D01*
X23199Y2365D01*
G75*
D01*
G03X23601Y2365I201J-364*
G01*
X23601Y2365D01*
X23601Y2517D01*
X23683Y2599D01*
X26000Y2599D01*
G75*
D01*
G03X26066Y2610I0J201*
G01*
G74*
D01*
G03X26142Y2658I67J190*
G01*
X26142Y2658D01*
X26342Y2858D01*
G75*
D01*
G03X26401Y3000I-141J142*
G01*
X26401Y3000D01*
X26401Y7199D01*
X27200Y7199D01*
G75*
D01*
G03X27266Y7210I0J201*
G01*
G74*
D01*
G03X27342Y7258I67J190*
G01*
X27342Y7258D01*
X27526Y7441D01*
G75*
D01*
G03X27551Y7190I389J-88*
G01*
X27551Y7190D01*
X27715Y7354D01*
X27572Y7497D01*
G75*
D01*
G03X27601Y7600I-171J104*
G01*
X27601Y7600D01*
X27601Y7917D01*
X27701Y8017D01*
G75*
D01*
G03X28285Y8199I216J336*
G01*
X28285Y8199D01*
X28600Y8199D01*
G74*
D01*
G03X28742Y8258I0J201*
G01*
X28742Y8258D01*
X28942Y8458D01*
G75*
D01*
G03X29001Y8600I-141J142*
G01*
X29001Y8600D01*
X29001Y13300D01*
G74*
D01*
G03X28942Y13442I201J0*
G01*
X28942Y13442D01*
X28842Y13542D01*
G74*
D01*
G03X28772Y13588I142J140*
G01*
G75*
D01*
G03X28700Y13601I-71J-188*
G01*
X28700Y13601D01*
X28667Y13601D01*
X28332Y13852D01*
X28242Y13942D01*
G74*
D01*
G03X28172Y13988I142J140*
G01*
G74*
D01*
G03X28104Y14001I71J188*
G01*
G75*
D01*
G03X28206Y14629I-187J353*
G01*
G74*
D01*
G03X28242Y14658I107J170*
G01*
X28242Y14658D01*
X28332Y14748D01*
X28667Y14999D01*
X33117Y14999D01*
X33458Y14658D01*
G74*
D01*
G03X33550Y14605I142J141*
G01*
G74*
D01*
G03X33600Y14599I49J195*
G01*
G75*
D01*
G03X34101Y13999I312J-249*
G01*
X34101Y13999D01*
X34315Y13999D01*
X34117Y13801D01*
X34000Y13801D01*
G75*
D01*
G03X33934Y13790I0J-201*
G01*
G74*
D01*
G03X33867Y13751I66J190*
G01*
G75*
D01*
G03X34308Y13431I48J-397*
G01*
G74*
D01*
G03X34342Y13458I107J169*
G01*
X34342Y13458D01*
X34683Y13799D01*
X37717Y13799D01*
X37799Y13717D01*
X37799Y13400D01*
G75*
D01*
G03X37858Y13258I201J0*
G01*
X37858Y13258D01*
X38058Y13058D01*
G74*
D01*
G03X38171Y13001I142J141*
G01*
G75*
D01*
G03X38200Y12999I28J199*
G01*
X38200Y12999D01*
X38312Y12999D01*
G75*
D01*
G03X38551Y13401I419J23*
G01*
X38551Y13401D01*
X38283Y13401D01*
X38201Y13483D01*
X38201Y13800D01*
G74*
D01*
G03X38142Y13942I201J0*
G01*
X38142Y13942D01*
X38085Y13999D01*
X38312Y13999D01*
G75*
D01*
G03X38551Y14401I419J23*
G01*
X38551Y14401D01*
X34313Y14401D01*
G74*
D01*
G03X34230Y14601I396J47*
G01*
G74*
D01*
G03X34252Y14606I33J198*
G01*
G74*
D01*
G03X34342Y14658I52J193*
G01*
X34342Y14658D01*
X34742Y15058D01*
G75*
D01*
G03X34801Y15200I-141J142*
G01*
X34801Y15200D01*
X34801Y18317D01*
X34883Y18399D01*
X39100Y18399D01*
G75*
D01*
G03X39172Y18412I1J201*
G01*
G74*
D01*
G03X39242Y18458I73J187*
G01*
X39242Y18458D01*
X39342Y18558D01*
G75*
D01*
G03X39401Y18700I-141J142*
G01*
X39401Y18700D01*
X39401Y19317D01*
X39542Y19458D01*
G75*
D01*
G03X39601Y19600I-141J142*
G01*
X39601Y19600D01*
X39601Y19717D01*
X39683Y19799D01*
X45517Y19799D01*
X45599Y19717D01*
X45599Y18800D01*
G75*
D01*
G03X45658Y18658I201J0*
G01*
X45658Y18658D01*
X45858Y18458D01*
G74*
D01*
G03X45971Y18401I142J141*
G01*
G75*
D01*
G03X46000Y18399I28J199*
G01*
X46000Y18399D01*
X46301Y18399D01*
G75*
D01*
G03X46694Y18399I197J-367*
G01*
X46694Y18399D01*
X46900Y18399D01*
G75*
D01*
G03X46972Y18412I1J201*
G01*
G74*
D01*
G03X47042Y18458I73J187*
G01*
X47042Y18458D01*
X47142Y18558D01*
G75*
D01*
G03X47201Y18700I-141J142*
G01*
X47201Y18700D01*
X47201Y18717D01*
X47283Y18799D01*
X47300Y18799D01*
G75*
D01*
G03X47372Y18812I1J201*
G01*
G74*
D01*
G03X47442Y18858I73J187*
G01*
X47442Y18858D01*
X47542Y18958D01*
G75*
D01*
G03X47601Y19100I-141J142*
G01*
X47601Y19100D01*
X47601Y24600D01*
G74*
D01*
G03X47542Y24742I201J0*
G01*
X47542Y24742D01*
X47342Y24942D01*
G74*
D01*
G03X47200Y25001I142J141*
G01*
X47200Y25001D01*
X46913Y25001D01*
G75*
D01*
G03X46618Y24633I-415J30*
G01*
G75*
D01*
G03X46730Y24599I112J166*
G01*
X46730Y24599D01*
X47117Y24599D01*
X47199Y24517D01*
X47199Y20428D01*
G74*
D01*
G03X47025Y20599I198J28*
G01*
X47025Y20599D01*
X46980Y20690D01*
G74*
D01*
G03X46855Y20793I179J90*
G01*
G74*
D01*
G03X46842Y20797I65J189*
G01*
G75*
D01*
G03X46082Y21001I-345J232*
G01*
X46082Y21001D01*
X46000Y21001D01*
G75*
D01*
G03X45971Y20999I-1J-201*
G01*
G74*
D01*
G03X45858Y20942I29J199*
G01*
X45858Y20942D01*
X45717Y20801D01*
X45685Y20801D01*
X45742Y20858D01*
G75*
D01*
G03X45801Y21000I-141J142*
G01*
X45801Y21000D01*
X45801Y21517D01*
X45883Y21599D01*
X46266Y21599D01*
G75*
D01*
G03X46334Y21611I0J201*
G01*
G74*
D01*
G03X46377Y21633I69J188*
G01*
G75*
D01*
G03X46082Y22001I120J398*
G01*
X46082Y22001D01*
X45800Y22001D01*
G75*
D01*
G03X45771Y21999I-1J-201*
G01*
G74*
D01*
G03X45658Y21942I29J199*
G01*
X45658Y21942D01*
X45458Y21742D01*
G75*
D01*
G03X45399Y21600I141J-142*
G01*
X45399Y21600D01*
X45399Y21083D01*
X45317Y21001D01*
X40083Y21001D01*
X40001Y21083D01*
X40001Y25000D01*
G74*
D01*
G03X39825Y25199I201J0*
G01*
X39825Y25199D01*
X39801Y25247D01*
X39801Y25800D01*
G74*
D01*
G03X39625Y25999I201J0*
G01*
X39625Y25999D01*
X39601Y26047D01*
X39601Y26600D01*
G74*
D01*
G03X39425Y26799I201J0*
G01*
X39425Y26799D01*
X39380Y26890D01*
G74*
D01*
G03X39255Y26993I179J90*
G01*
G75*
D01*
G03X39200Y27001I-56J-192*
G01*
X39200Y27001D01*
X37700Y27001D01*
G75*
D01*
G03X37684Y27000I5J-201*
G01*
G74*
D01*
G03X37558Y26942I15J199*
G01*
X37558Y26942D01*
X37458Y26842D01*
G75*
D01*
G03X37399Y26699I141J-142*
G01*
X37399Y26699D01*
X37399Y25083D01*
X37317Y25001D01*
X34104Y25001D01*
G75*
D01*
G03X33519Y25403I-189J351*
G01*
X33519Y25403D01*
X33117Y25001D01*
X28104Y25001D01*
D02*
G37*
G36*
X58905Y27396D02*
G75*
D01*
G03X58905Y27396I-203J-364*
G01*
D02*
G37*
G36*
X46887Y27179D02*
G74*
D01*
G03X46645Y27421I388J146*
G01*
X46645Y27421D01*
X46645Y27179D01*
X46887Y27179D01*
D02*
G37*
G36*
X46108Y27179D02*
X46108Y27179D01*
X46350Y27179D01*
X46350Y27421D01*
G74*
D01*
G03X46108Y27179I147J389*
G01*
D02*
G37*
G36*
X46893Y26163D02*
G75*
D01*
G03X46893Y26163I-395J-131*
G01*
D02*
G37*
G36*
X58294Y17947D02*
G75*
D01*
G03X58294Y17947I408J85*
G01*
D02*
G37*
G36*
X46893Y15901D02*
G75*
D01*
G03X46893Y15901I-395J131*
G01*
D02*
G37*
G36*
X46893Y14901D02*
G75*
D01*
G03X46893Y14901I-395J131*
G01*
D02*
G37*
G36*
X46893Y13901D02*
G75*
D01*
G03X46893Y13901I-395J131*
G01*
D02*
G37*
G36*
X46893Y16901D02*
G75*
D01*
G03X46893Y16901I-395J131*
G01*
D02*
G37*
G36*
X34101Y8999D02*
X34101Y8999D01*
X38312Y8999D01*
G75*
D01*
G03X38551Y9401I419J23*
G01*
X38551Y9401D01*
X38085Y9401D01*
X38283Y9599D01*
X38510Y9599D01*
G75*
D01*
G03X38568Y9608I-1J201*
G01*
G74*
D01*
G03X38603Y9622I56J192*
G01*
G75*
D01*
G03X38312Y10001I128J400*
G01*
X38312Y10001D01*
X38200Y10001D01*
G75*
D01*
G03X38150Y9995I-1J-201*
G01*
G74*
D01*
G03X38058Y9942I51J194*
G01*
X38058Y9942D01*
X37717Y9601D01*
X34683Y9601D01*
X34601Y9683D01*
X34601Y9800D01*
G74*
D01*
G03X34542Y9942I201J0*
G01*
X34542Y9942D01*
X34342Y10142D01*
G74*
D01*
G03X34279Y10185I142J141*
G01*
G75*
D01*
G03X33735Y9997I-363J169*
G01*
G74*
D01*
G03X33774Y9942I180J87*
G01*
X33774Y9942D01*
X33858Y9858D01*
G74*
D01*
G03X33934Y9810I142J141*
G01*
G75*
D01*
G03X34000Y9799I66J190*
G01*
X34000Y9799D01*
X34117Y9799D01*
X34199Y9717D01*
X34199Y9636D01*
G75*
D01*
G03X34101Y8999I-282J-283*
G01*
D02*
G37*
G36*
X34101Y10999D02*
X34101Y10999D01*
X38312Y10999D01*
G75*
D01*
G03X38551Y11401I419J23*
G01*
X38551Y11401D01*
X38085Y11401D01*
X38283Y11599D01*
X38510Y11599D01*
G75*
D01*
G03X38568Y11608I-1J201*
G01*
G74*
D01*
G03X38603Y11622I56J192*
G01*
G75*
D01*
G03X38312Y12001I128J400*
G01*
X38312Y12001D01*
X38200Y12001D01*
G75*
D01*
G03X38150Y11995I-1J-201*
G01*
G74*
D01*
G03X38058Y11942I51J194*
G01*
X38058Y11942D01*
X37717Y11601D01*
X34683Y11601D01*
X34601Y11683D01*
X34601Y11800D01*
G74*
D01*
G03X34542Y11942I201J0*
G01*
X34542Y11942D01*
X34342Y12142D01*
G74*
D01*
G03X34279Y12185I142J141*
G01*
G75*
D01*
G03X33735Y11997I-363J169*
G01*
G74*
D01*
G03X33774Y11942I180J87*
G01*
X33774Y11942D01*
X33858Y11858D01*
G74*
D01*
G03X33934Y11810I142J141*
G01*
G75*
D01*
G03X34000Y11799I66J190*
G01*
X34000Y11799D01*
X34117Y11799D01*
X34199Y11717D01*
X34199Y11636D01*
G75*
D01*
G03X34101Y10999I-282J-283*
G01*
D02*
G37*
G36*
X34101Y6999D02*
X34101Y6999D01*
X38311Y6999D01*
X38311Y6752D01*
G75*
D01*
G03X38462Y6601I151J0*
G01*
X38462Y6601D01*
X39002Y6601D01*
G75*
D01*
G03X39152Y6752I-1J151*
G01*
X39152Y6752D01*
X39152Y7292D01*
G74*
D01*
G03X39002Y7443I150J1*
G01*
X39002Y7443D01*
X38462Y7443D01*
G75*
D01*
G03X38358Y7401I0J-151*
G01*
X38358Y7401D01*
X38085Y7401D01*
X38283Y7599D01*
X38510Y7599D01*
G75*
D01*
G03X38568Y7608I-1J201*
G01*
G74*
D01*
G03X38603Y7622I56J192*
G01*
G75*
D01*
G03X38312Y8001I128J400*
G01*
X38312Y8001D01*
X38200Y8001D01*
G75*
D01*
G03X38150Y7995I-1J-201*
G01*
G74*
D01*
G03X38058Y7942I51J194*
G01*
X38058Y7942D01*
X37717Y7601D01*
X34683Y7601D01*
X34601Y7683D01*
X34601Y7800D01*
G74*
D01*
G03X34542Y7942I201J0*
G01*
X34542Y7942D01*
X34342Y8142D01*
G74*
D01*
G03X34279Y8185I142J141*
G01*
G75*
D01*
G03X33735Y7997I-363J169*
G01*
G74*
D01*
G03X33774Y7942I180J87*
G01*
X33774Y7942D01*
X33858Y7858D01*
G74*
D01*
G03X33934Y7810I142J141*
G01*
G75*
D01*
G03X34000Y7799I66J190*
G01*
X34000Y7799D01*
X34117Y7799D01*
X34199Y7717D01*
X34199Y7636D01*
G75*
D01*
G03X34101Y6999I-282J-283*
G01*
D02*
G37*
G36*
X27519Y21403D02*
X27519Y21403D01*
X27517Y21401D01*
X23400Y21401D01*
G75*
D01*
G03X23393Y21401I-3J-201*
G01*
G75*
D01*
G03X23508Y20999I-293J-301*
G01*
X23508Y20999D01*
X27600Y20999D01*
G75*
D01*
G03X27612Y20999I6J201*
G01*
G74*
D01*
G03X27693Y21022I13J201*
G01*
G75*
D01*
G03X27519Y21403I222J332*
G01*
D02*
G37*
G36*
X8000Y23401D02*
G75*
D01*
G03X7971Y23399I-1J-201*
G01*
G74*
D01*
G03X7858Y23342I29J199*
G01*
X7858Y23342D01*
X7658Y23142D01*
G75*
D01*
G03X7599Y23000I141J-142*
G01*
X7599Y23000D01*
X7599Y22737D01*
G75*
D01*
G03X7992Y22455I-21J-444*
G01*
G75*
D01*
G03X8001Y22515I-192J59*
G01*
X8001Y22515D01*
X8001Y22917D01*
X8083Y22999D01*
X12858Y22999D01*
G75*
D01*
G03X12868Y22999I5J201*
G01*
G74*
D01*
G03X12979Y23040I11J201*
G01*
G75*
D01*
G03X12682Y23401I117J399*
G01*
X12682Y23401D01*
X8000Y23401D01*
D02*
G37*
G36*
X8400Y12599D02*
X8400Y12599D01*
X9199Y12599D01*
X9199Y10683D01*
X9192Y10676D01*
G75*
D01*
G03X9601Y10588I129J-396*
G01*
G75*
D01*
G03X9601Y10600I-201J6*
G01*
X9601Y10600D01*
X9601Y12599D01*
X12800Y12599D01*
G74*
D01*
G03X12996Y12754I0J201*
G01*
X12996Y12754D01*
X13398Y12754D01*
G75*
D01*
G03X13549Y12905I0J151*
G01*
X13549Y12905D01*
X13549Y13495D01*
G74*
D01*
G03X13398Y13646I151J0*
G01*
X13398Y13646D01*
X12808Y13646D01*
G75*
D01*
G03X12657Y13495I0J-151*
G01*
X12657Y13495D01*
X12657Y13038D01*
G74*
D01*
G03X12628Y13001I142J141*
G01*
X12628Y13001D01*
X8483Y13001D01*
X8401Y13083D01*
X8401Y15400D01*
G74*
D01*
G03X8342Y15542I201J0*
G01*
X8342Y15542D01*
X8142Y15742D01*
G74*
D01*
G03X8066Y15790I142J141*
G01*
G74*
D01*
G03X8023Y15800I67J190*
G01*
G75*
D01*
G03X7801Y15399I-445J-16*
G01*
X7801Y15399D01*
X7917Y15399D01*
X7999Y15317D01*
X7999Y14998D01*
X7801Y14800D01*
X7999Y14602D01*
X7999Y14028D01*
G74*
D01*
G03X7942Y14142I198J28*
G01*
X7942Y14142D01*
X7742Y14342D01*
G74*
D01*
G03X7729Y14354I142J141*
G01*
X7729Y14354D01*
X7800Y14354D01*
X7578Y14576D01*
X7402Y14401D01*
X7324Y14401D01*
X7280Y14490D01*
G74*
D01*
G03X7201Y14574I180J90*
G01*
X7201Y14574D01*
X7201Y14647D01*
X7354Y14800D01*
X7201Y14953D01*
X7201Y15000D01*
G74*
D01*
G03X7142Y15142I201J0*
G01*
X7142Y15142D01*
X7001Y15283D01*
X7001Y20717D01*
X7083Y20799D01*
X7269Y20799D01*
G75*
D01*
G03X7361Y20821I1J201*
G01*
G74*
D01*
G03X7412Y20858I90J178*
G01*
X7412Y20858D01*
X7416Y20862D01*
X7873Y20862D01*
G75*
D01*
G03X8024Y21013I0J151*
G01*
X8024Y21013D01*
X8024Y21603D01*
G74*
D01*
G03X7873Y21754I151J0*
G01*
X7873Y21754D01*
X7282Y21754D01*
G75*
D01*
G03X7132Y21603I1J-151*
G01*
X7132Y21603D01*
X7132Y21201D01*
X7000Y21201D01*
G75*
D01*
G03X6971Y21199I-1J-201*
G01*
G74*
D01*
G03X6858Y21142I29J199*
G01*
X6858Y21142D01*
X6658Y20942D01*
G75*
D01*
G03X6599Y20800I141J-142*
G01*
X6599Y20800D01*
X6599Y15200D01*
G75*
D01*
G03X6658Y15058I201J0*
G01*
X6658Y15058D01*
X6799Y14917D01*
X6799Y14400D01*
G75*
D01*
G03X6975Y14201I201J0*
G01*
X6975Y14201D01*
X7020Y14110D01*
G75*
D01*
G03X7200Y13999I180J90*
G01*
X7200Y13999D01*
X7517Y13999D01*
X7599Y13917D01*
X7599Y8083D01*
X7517Y8001D01*
X2500Y8001D01*
G75*
D01*
G03X2484Y8000I5J-201*
G01*
G74*
D01*
G03X2358Y7942I15J199*
G01*
X2358Y7942D01*
X2258Y7842D01*
G75*
D01*
G03X2199Y7699I141J-142*
G01*
X2199Y7699D01*
X2199Y5883D01*
X2117Y5801D01*
X1800Y5801D01*
G75*
D01*
G03X1771Y5799I-1J-201*
G01*
G74*
D01*
G03X1658Y5742I29J199*
G01*
X1658Y5742D01*
X1458Y5542D01*
G75*
D01*
G03X1399Y5400I141J-142*
G01*
X1399Y5400D01*
X1399Y4600D01*
G75*
D01*
G03X1510Y4420I201J0*
G01*
X1510Y4420D01*
X1681Y4335D01*
X1758Y4258D01*
G75*
D01*
G03X1900Y4199I142J141*
G01*
X1900Y4199D01*
X2317Y4199D01*
X2399Y4117D01*
X2399Y2969D01*
G74*
D01*
G03X2366Y2942I110J168*
G01*
X2366Y2942D01*
X2326Y2903D01*
X1885Y2903D01*
G75*
D01*
G03X1798Y2816I0J-87*
G01*
X1798Y2816D01*
X1798Y2296D01*
G75*
D01*
G03X1885Y2209I87J0*
G01*
X1885Y2209D01*
X2642Y2209D01*
G75*
D01*
G03X2729Y2296I0J87*
G01*
X2729Y2296D01*
X2729Y2646D01*
G75*
D01*
G03X2801Y2800I-128J154*
G01*
X2801Y2800D01*
X2801Y3199D01*
X3800Y3199D01*
G74*
D01*
G03X3955Y3272I0J201*
G01*
X3955Y3272D01*
X4374Y3272D01*
G75*
D01*
G03X4461Y3359I0J87*
G01*
X4461Y3359D01*
X4461Y4115D01*
G74*
D01*
G03X4374Y4202I87J0*
G01*
X4374Y4202D01*
X3854Y4202D01*
G75*
D01*
G03X3767Y4115I0J-87*
G01*
X3767Y4115D01*
X3767Y3674D01*
X3694Y3601D01*
X2801Y3601D01*
X2801Y4200D01*
G74*
D01*
G03X2742Y4342I201J0*
G01*
X2742Y4342D01*
X2542Y4542D01*
G74*
D01*
G03X2505Y4571I141J142*
G01*
X2505Y4571D01*
X2642Y4571D01*
G75*
D01*
G03X2729Y4658I0J87*
G01*
X2729Y4658D01*
X2729Y4795D01*
X2481Y4795D01*
G75*
D01*
G03X2481Y5041I-98J123*
G01*
X2481Y5041D01*
X2729Y5041D01*
X2729Y5178D01*
G74*
D01*
G03X2642Y5265I87J0*
G01*
X2642Y5265D01*
X2387Y5265D01*
X2387Y5076D01*
X2382Y5076D01*
X2382Y5076D01*
X2145Y5076D01*
X2141Y5076D01*
X2141Y5076D01*
X2141Y5265D01*
X1885Y5265D01*
G75*
D01*
G03X1801Y5199I0J-87*
G01*
X1801Y5199D01*
X1801Y5317D01*
X1883Y5399D01*
X2200Y5399D01*
G75*
D01*
G03X2266Y5410I0J201*
G01*
G74*
D01*
G03X2342Y5458I67J190*
G01*
X2342Y5458D01*
X2542Y5658D01*
G75*
D01*
G03X2601Y5800I-141J142*
G01*
X2601Y5800D01*
X2601Y7599D01*
X7600Y7599D01*
G75*
D01*
G03X7666Y7610I0J201*
G01*
G74*
D01*
G03X7742Y7658I67J190*
G01*
X7742Y7658D01*
X7942Y7858D01*
G75*
D01*
G03X8001Y8000I-141J142*
G01*
X8001Y8000D01*
X8001Y12972D01*
G74*
D01*
G03X8058Y12858I198J28*
G01*
X8058Y12858D01*
X8258Y12658D01*
G74*
D01*
G03X8371Y12601I142J141*
G01*
G75*
D01*
G03X8400Y12599I28J199*
G01*
D02*
G37*
G36*
X9173Y8110D02*
G74*
D01*
G03X8931Y7868I147J389*
G01*
X8931Y7868D01*
X9173Y7868D01*
X9173Y8110D01*
D02*
G37*
G36*
X9173Y7331D02*
X9173Y7331D01*
X9173Y7573D01*
X8931Y7573D01*
G74*
D01*
G03X9173Y7331I388J146*
G01*
D02*
G37*
G36*
X27996Y7198D02*
G75*
D01*
G03X27996Y7198I-80J156*
G01*
D02*
G37*
G36*
X27752Y6989D02*
G75*
D01*
G03X28080Y6989I164J365*
G01*
X28080Y6989D01*
X27916Y7153D01*
X27752Y6989D01*
D02*
G37*
G36*
X27752Y7719D02*
X27752Y7719D01*
X27916Y7554D01*
X28080Y7719D01*
G75*
D01*
G03X27752Y7719I-164J-365*
G01*
D02*
G37*
G36*
X7800Y15246D02*
X7800Y15246D01*
X7355Y15246D01*
X7578Y15024D01*
X7800Y15246D01*
D02*
G37*
G36*
X7401Y14800D02*
G75*
D01*
G03X7401Y14800I177J0*
G01*
D02*
G37*
G36*
X46108Y28179D02*
X46108Y28179D01*
X46350Y28179D01*
X46350Y28421D01*
G74*
D01*
G03X46108Y28179I147J389*
G01*
D02*
G37*
G36*
X46301Y28032D02*
G75*
D01*
G03X46301Y28032I197J0*
G01*
D02*
G37*
G36*
X46350Y27642D02*
X46350Y27642D01*
X46350Y27884D01*
X46108Y27884D01*
G74*
D01*
G03X46350Y27642I390J148*
G01*
D02*
G37*
G36*
X46645Y28421D02*
X46645Y28421D01*
X46645Y28179D01*
X46887Y28179D01*
G74*
D01*
G03X46645Y28421I388J146*
G01*
D02*
G37*
G36*
X46887Y27884D02*
X46887Y27884D01*
X46645Y27884D01*
X46645Y27642D01*
G74*
D01*
G03X46887Y27884I147J389*
G01*
D02*
G37*
G36*
X58286Y28032D02*
G75*
D01*
G03X58286Y28032I416J0*
G01*
D02*
G37*
G36*
X58286Y29032D02*
G75*
D01*
G03X58286Y29032I416J0*
G01*
D02*
G37*
G36*
X33516Y20354D02*
G75*
D01*
G03X33516Y20354I400J0*
G01*
D02*
G37*
G36*
X58286Y19032D02*
G75*
D01*
G03X58286Y19032I416J0*
G01*
D02*
G37*
G36*
X58286Y20032D02*
G75*
D01*
G03X58286Y20032I416J0*
G01*
D02*
G37*
G36*
X58286Y21032D02*
G75*
D01*
G03X58286Y21032I416J0*
G01*
D02*
G37*
G36*
X58286Y22032D02*
G75*
D01*
G03X58286Y22032I416J0*
G01*
D02*
G37*
G36*
X58286Y23032D02*
G75*
D01*
G03X58286Y23032I416J0*
G01*
D02*
G37*
G36*
X58286Y24032D02*
G75*
D01*
G03X58286Y24032I416J0*
G01*
D02*
G37*
G36*
X58286Y25032D02*
G75*
D01*
G03X58286Y25032I416J0*
G01*
D02*
G37*
G36*
X58286Y26032D02*
G75*
D01*
G03X58286Y26032I416J0*
G01*
D02*
G37*
G36*
X58286Y14032D02*
G75*
D01*
G03X58286Y14032I416J0*
G01*
D02*
G37*
G36*
X58286Y15032D02*
G75*
D01*
G03X58286Y15032I416J0*
G01*
D02*
G37*
G36*
X58286Y16032D02*
G75*
D01*
G03X58286Y16032I416J0*
G01*
D02*
G37*
G36*
X58286Y17032D02*
G75*
D01*
G03X58286Y17032I416J0*
G01*
D02*
G37*
G36*
X46887Y26884D02*
X46887Y26884D01*
X46645Y26884D01*
X46645Y26642D01*
G74*
D01*
G03X46887Y26884I147J389*
G01*
D02*
G37*
G36*
X46350Y26642D02*
X46350Y26642D01*
X46350Y26884D01*
X46108Y26884D01*
G74*
D01*
G03X46350Y26642I390J148*
G01*
D02*
G37*
G36*
X46301Y27032D02*
G75*
D01*
G03X46301Y27032I197J0*
G01*
D02*
G37*
G36*
X28281Y7518D02*
X28281Y7518D01*
X28116Y7354D01*
X28281Y7190D01*
G75*
D01*
G03X28281Y7518I-365J164*
G01*
D02*
G37*
G36*
X26252Y1610D02*
X26252Y1610D01*
X26252Y1852D01*
X26010Y1852D01*
G74*
D01*
G03X26252Y1610I390J148*
G01*
D02*
G37*
G36*
X26010Y2148D02*
X26010Y2148D01*
X26252Y2148D01*
X26252Y2390D01*
G74*
D01*
G03X26010Y2148I148J390*
G01*
D02*
G37*
G36*
X26548Y2390D02*
X26548Y2390D01*
X26548Y2148D01*
X26790Y2148D01*
G74*
D01*
G03X26548Y2390I390J148*
G01*
D02*
G37*
G36*
X26790Y1852D02*
X26790Y1852D01*
X26548Y1852D01*
X26548Y1610D01*
G74*
D01*
G03X26790Y1852I148J390*
G01*
D02*
G37*
G36*
X26203Y2000D02*
G75*
D01*
G03X26203Y2000I197J0*
G01*
D02*
G37*
G36*
X24983Y2000D02*
G75*
D01*
G03X24983Y2000I417J0*
G01*
D02*
G37*
G36*
X23983Y2000D02*
G75*
D01*
G03X23983Y2000I417J0*
G01*
D02*
G37*
G36*
X11463Y7720D02*
G75*
D01*
G03X11463Y7720I417J0*
G01*
D02*
G37*
G36*
X9124Y7720D02*
G75*
D01*
G03X9124Y7720I196J0*
G01*
D02*
G37*
G36*
X9468Y8110D02*
X9468Y8110D01*
X9468Y7868D01*
X9710Y7868D01*
G74*
D01*
G03X9468Y8110I390J148*
G01*
D02*
G37*
G36*
X9710Y7573D02*
X9710Y7573D01*
X9468Y7573D01*
X9468Y7331D01*
G74*
D01*
G03X9710Y7573I147J389*
G01*
D02*
G37*
G36*
X22680Y12022D02*
G75*
D01*
G03X22680Y12022I420J0*
G01*
D02*
G37*
G36*
X11463Y10280D02*
G75*
D01*
G03X11463Y10280I417J0*
G01*
D02*
G37*
%LPD*%
G36*
X27701Y24017D02*
G75*
D01*
G03X28232Y24599I219J334*
G01*
X28232Y24599D01*
X32915Y24599D01*
X32858Y24542D01*
G75*
D01*
G03X32799Y24400I141J-142*
G01*
X32799Y24400D01*
X32799Y22683D01*
X32717Y22601D01*
X30347Y22601D01*
G75*
D01*
G03X29655Y22635I-347J-3*
G01*
G75*
D01*
G03X29116Y22201I-270J-217*
G01*
X29116Y22201D01*
X28883Y22201D01*
X28601Y22483D01*
X28601Y22800D01*
G74*
D01*
G03X28542Y22942I201J0*
G01*
X28542Y22942D01*
X28342Y23142D01*
G74*
D01*
G03X28279Y23185I142J141*
G01*
G75*
D01*
G03X27601Y23600I-362J169*
G01*
X27601Y23600D01*
X27601Y23917D01*
X27701Y24017D01*
D02*
G37*
G36*
X23599Y9600D02*
G75*
D01*
G02X23658Y9742I201J0*
G01*
X23658Y9742D01*
X23858Y9942D01*
G74*
D01*
G02X23971Y9999I142J141*
G01*
G75*
D01*
G02X24000Y10001I28J-199*
G01*
X24000Y10001D01*
X27727Y10001D01*
G75*
D01*
G02X27600Y10599I189J353*
G01*
X27600Y10599D01*
X27400Y10599D01*
G75*
D01*
G02X27371Y10601I-1J201*
G01*
G74*
D01*
G02X27258Y10658I29J199*
G01*
X27258Y10658D01*
X27117Y10799D01*
X24083Y10799D01*
X24001Y10717D01*
X24001Y10400D01*
G75*
D01*
G02X23942Y10258I-201J0*
G01*
X23942Y10258D01*
X23742Y10058D01*
G74*
D01*
G02X23666Y10010I142J141*
G01*
G75*
D01*
G02X23600Y9999I-66J190*
G01*
X23600Y9999D01*
X23519Y9999D01*
G75*
D01*
G02X22971Y9622I-418J21*
G01*
G74*
D01*
G02X22937Y9608I93J177*
G01*
G75*
D01*
G02X22878Y9599I-59J191*
G01*
X22878Y9599D01*
X22683Y9599D01*
X22601Y9517D01*
X22601Y9100D01*
G75*
D01*
G02X22575Y9001I-201J0*
G01*
X22575Y9001D01*
X22681Y9001D01*
G75*
D01*
G02X23281Y9401I418J22*
G01*
X23281Y9401D01*
X23517Y9401D01*
X23599Y9483D01*
X23599Y9600D01*
D02*
G37*
G36*
X23542Y23942D02*
X23542Y23942D01*
X23883Y23601D01*
X27117Y23601D01*
X27199Y23683D01*
X27199Y23999D01*
G75*
D01*
G02X27258Y24142I201J1*
G01*
X27258Y24142D01*
X27519Y24403D01*
G74*
D01*
G02X27600Y24599I397J49*
G01*
G74*
D01*
G02X27571Y24601I1J201*
G01*
G74*
D01*
G02X27458Y24658I29J199*
G01*
X27458Y24658D01*
X27317Y24799D01*
X23867Y24799D01*
X23532Y24548D01*
X23442Y24458D01*
G74*
D01*
G02X23378Y24415I141J141*
G01*
G75*
D01*
G02X23501Y23974I-278J-315*
G01*
G74*
D01*
G02X23542Y23942I102J173*
G01*
D02*
G37*
G36*
X27199Y25999D02*
G75*
D01*
G02X27258Y26142I201J1*
G01*
X27258Y26142D01*
X27519Y26403D01*
G74*
D01*
G02X27600Y26599I397J49*
G01*
X27600Y26599D01*
X22883Y26599D01*
X22801Y26517D01*
X22801Y26395D01*
G75*
D01*
G02X23501Y25974I300J-294*
G01*
G74*
D01*
G02X23542Y25942I102J173*
G01*
X23542Y25942D01*
X23883Y25601D01*
X27117Y25601D01*
X27199Y25683D01*
X27199Y25999D01*
D02*
G37*
G36*
X36799Y24499D02*
X36799Y24499D01*
X36799Y23483D01*
X36717Y23401D01*
X34683Y23401D01*
X34601Y23483D01*
X34601Y23600D01*
G74*
D01*
G03X34490Y23780I201J0*
G01*
X34490Y23780D01*
X34319Y23865D01*
X34242Y23942D01*
G74*
D01*
G03X34172Y23988I142J140*
G01*
G74*
D01*
G03X34104Y24001I71J188*
G01*
G75*
D01*
G03X34232Y24599I-187J353*
G01*
X34232Y24599D01*
X36825Y24599D01*
G75*
D01*
G03X36799Y24499I175J-99*
G01*
D02*
G37*
G36*
X34104Y22001D02*
G75*
D01*
G03X34206Y22629I-187J353*
G01*
G74*
D01*
G03X34242Y22658I107J170*
G01*
X34242Y22658D01*
X34319Y22735D01*
X34447Y22799D01*
X37100Y22799D01*
G75*
D01*
G03X37172Y22812I1J201*
G01*
G74*
D01*
G03X37199Y22825I73J187*
G01*
X37199Y22825D01*
X37199Y21883D01*
X37117Y21801D01*
X34447Y21801D01*
X34319Y21865D01*
X34242Y21942D01*
G74*
D01*
G03X34172Y21988I142J140*
G01*
G74*
D01*
G03X34104Y22001I71J188*
G01*
D02*
G37*
G36*
X38000Y22201D02*
G75*
D01*
G03X37971Y22199I-1J-201*
G01*
G74*
D01*
G03X37858Y22142I29J199*
G01*
X37858Y22142D01*
X37801Y22085D01*
X37801Y23717D01*
X37883Y23799D01*
X38400Y23799D01*
G75*
D01*
G03X38436Y23802I1J201*
G01*
G75*
D01*
G03X38999Y23776I296J298*
G01*
X38999Y23776D01*
X38999Y23424D01*
G75*
D01*
G03X38999Y22776I-266J-324*
G01*
X38999Y22776D01*
X38999Y22424D01*
G75*
D01*
G03X38327Y22211I-268J-322*
G01*
X38327Y22211D01*
X38317Y22201D01*
X38000Y22201D01*
D02*
G37*
G36*
X38175Y19001D02*
G75*
D01*
G03X38201Y19100I-175J99*
G01*
X38201Y19100D01*
X38201Y20717D01*
X38283Y20799D01*
X38400Y20799D01*
G75*
D01*
G03X38436Y20802I1J201*
G01*
G75*
D01*
G03X38999Y20776I296J298*
G01*
X38999Y20776D01*
X38999Y20424D01*
G75*
D01*
G03X39150Y20065I-266J-323*
G01*
X39150Y20065D01*
X39158Y20058D01*
G74*
D01*
G03X39284Y20000I141J141*
G01*
G75*
D01*
G03X39300Y19999I20J199*
G01*
X39300Y19999D01*
X39315Y19999D01*
X39258Y19942D01*
G75*
D01*
G03X39199Y19800I141J-142*
G01*
X39199Y19800D01*
X39199Y19683D01*
X39058Y19542D01*
G74*
D01*
G03X39036Y19517I139J144*
G01*
G74*
D01*
G03X39002Y19521I34J146*
G01*
X39002Y19521D01*
X38462Y19521D01*
G75*
D01*
G03X38311Y19370I0J-151*
G01*
X38311Y19370D01*
X38311Y19001D01*
X38175Y19001D01*
D02*
G37*
G36*
X22878Y10599D02*
X22878Y10599D01*
X22483Y10599D01*
X22401Y10517D01*
X22401Y9885D01*
X22458Y9942D01*
G74*
D01*
G02X22571Y9999I142J141*
G01*
G75*
D01*
G02X22600Y10001I28J-199*
G01*
X22600Y10001D01*
X22681Y10001D01*
G75*
D01*
G02X23281Y10401I418J22*
G01*
X23281Y10401D01*
X23517Y10401D01*
X23599Y10483D01*
X23599Y10800D01*
G75*
D01*
G02X23658Y10942I201J0*
G01*
X23658Y10942D01*
X23715Y10999D01*
X23519Y10999D01*
G75*
D01*
G02X22971Y10622I-418J21*
G01*
G74*
D01*
G02X22937Y10608I93J177*
G01*
G75*
D01*
G02X22878Y10599I-59J191*
G01*
D02*
G37*
G36*
X46858Y19658D02*
X46858Y19658D01*
X46999Y19517D01*
X46999Y19483D01*
X46917Y19401D01*
X46691Y19401D01*
G75*
D01*
G03X46150Y18801I-197J-367*
G01*
X46150Y18801D01*
X46083Y18801D01*
X46001Y18883D01*
X46001Y19800D01*
G74*
D01*
G03X45942Y19942I201J0*
G01*
X45942Y19942D01*
X45885Y19999D01*
X46082Y19999D01*
G75*
D01*
G03X46805Y19750I416J33*
G01*
G74*
D01*
G03X46858Y19658I194J51*
G01*
D02*
G37*
G36*
X38327Y21211D02*
X38327Y21211D01*
X38317Y21201D01*
X38200Y21201D01*
G75*
D01*
G03X38171Y21199I-1J-201*
G01*
G74*
D01*
G03X38058Y21142I29J199*
G01*
X38058Y21142D01*
X38001Y21085D01*
X38001Y21717D01*
X38083Y21799D01*
X38400Y21799D01*
G75*
D01*
G03X38436Y21802I1J201*
G01*
G75*
D01*
G03X38999Y21776I296J298*
G01*
X38999Y21776D01*
X38999Y21424D01*
G75*
D01*
G03X38327Y21211I-268J-322*
G01*
D02*
G37*
G36*
X38058Y25742D02*
X38058Y25742D01*
X38001Y25685D01*
X38001Y26317D01*
X38083Y26399D01*
X38437Y26399D01*
G75*
D01*
G03X38437Y25801I295J-299*
G01*
X38437Y25801D01*
X38200Y25801D01*
G75*
D01*
G03X38171Y25799I-1J-201*
G01*
G74*
D01*
G03X38058Y25742I29J199*
G01*
D02*
G37*
G36*
X7999Y25978D02*
G74*
D01*
G03X7873Y26046I126J82*
G01*
X7873Y26046D01*
X7396Y26046D01*
G74*
D01*
G03X7342Y26142I195J47*
G01*
X7342Y26142D01*
X7201Y26283D01*
X7201Y26347D01*
G75*
D01*
G03X7801Y26199I377J237*
G01*
X7801Y26199D01*
X7917Y26199D01*
X7999Y26117D01*
X7999Y25978D01*
D02*
G37*
G36*
X23184Y25600D02*
G74*
D01*
G02X23058Y25658I15J199*
G01*
X23058Y25658D01*
X23030Y25686D01*
G74*
D01*
G02X22801Y25805I69J413*
G01*
X22801Y25805D01*
X22801Y25395D01*
G75*
D01*
G02X23393Y25401I299J-295*
G01*
G75*
D01*
G02X23400Y25401I4J-201*
G01*
X23400Y25401D01*
X23515Y25401D01*
X23317Y25599D01*
X23200Y25599D01*
G75*
D01*
G02X23184Y25600I5J201*
G01*
D02*
G37*
G36*
X28199Y22636D02*
G75*
D01*
G03X27640Y22644I-284J-281*
G01*
X27640Y22644D01*
X27601Y22683D01*
X27601Y22800D01*
G74*
D01*
G03X27542Y22942I201J0*
G01*
X27542Y22942D01*
X27485Y22999D01*
X27600Y22999D01*
G75*
D01*
G03X27612Y22999I6J201*
G01*
G74*
D01*
G03X27693Y23022I13J201*
G01*
G74*
D01*
G03X27735Y22997I225J330*
G01*
G74*
D01*
G03X27774Y22942I180J87*
G01*
X27774Y22942D01*
X27858Y22858D01*
G74*
D01*
G03X27934Y22810I142J141*
G01*
G75*
D01*
G03X28000Y22799I66J190*
G01*
X28000Y22799D01*
X28117Y22799D01*
X28199Y22717D01*
X28199Y22636D01*
D02*
G37*
G36*
X33500Y24399D02*
G75*
D01*
G03X33519Y24400I-1J201*
G01*
G75*
D01*
G03X33727Y24001I396J-47*
G01*
X33727Y24001D01*
X33400Y24001D01*
G75*
D01*
G03X33371Y23999I-1J-201*
G01*
G74*
D01*
G03X33258Y23942I29J199*
G01*
X33258Y23942D01*
X33201Y23885D01*
X33201Y24317D01*
X33283Y24399D01*
X33500Y24399D01*
D02*
G37*
G36*
X33600Y23599D02*
G75*
D01*
G03X33727Y23001I314J-246*
G01*
X33727Y23001D01*
X33600Y23001D01*
G75*
D01*
G03X33571Y22999I-1J-201*
G01*
G74*
D01*
G03X33458Y22942I29J199*
G01*
X33458Y22942D01*
X33401Y22885D01*
X33401Y23517D01*
X33483Y23599D01*
X33600Y23599D01*
D02*
G37*
G36*
X28104Y10001D02*
X28104Y10001D01*
X28317Y10001D01*
X28399Y10083D01*
X28399Y10749D01*
X28380Y10710D01*
G74*
D01*
G02X28255Y10607I179J90*
G01*
G74*
D01*
G02X28230Y10601I59J191*
G01*
G75*
D01*
G02X28104Y10001I-313J-248*
G01*
D02*
G37*
G36*
X38437Y24801D02*
X38437Y24801D01*
X38400Y24801D01*
G75*
D01*
G03X38371Y24799I-1J-201*
G01*
G74*
D01*
G03X38258Y24742I29J199*
G01*
X38258Y24742D01*
X38201Y24685D01*
X38201Y25317D01*
X38283Y25399D01*
X38437Y25399D01*
G75*
D01*
G03X38437Y24801I295J-299*
G01*
D02*
G37*
G36*
X2046Y4795D02*
G75*
D01*
G02X2046Y5041I98J123*
G01*
X2046Y5041D01*
X1801Y5041D01*
X1801Y4795D01*
X2046Y4795D01*
D02*
G37*
G36*
X28294Y22222D02*
X28294Y22222D01*
X28515Y22001D01*
X28483Y22001D01*
X28342Y22142D01*
G74*
D01*
G03X28279Y22185I142J141*
G01*
G74*
D01*
G03X28294Y22222I363J169*
G01*
D02*
G37*
G36*
X33727Y15001D02*
G74*
D01*
G02X33559Y15173I189J353*
G01*
G74*
D01*
G02X33518Y15199I86J181*
G01*
X33518Y15199D01*
X33485Y15199D01*
X33683Y15001D01*
X33727Y15001D01*
D02*
G37*
G36*
X2141Y4760D02*
X2141Y4760D01*
X2141Y4601D01*
X2387Y4601D01*
X2387Y4760D01*
X2382Y4760D01*
X2382Y4760D01*
X2145Y4760D01*
X2141Y4760D01*
D02*
G37*
G36*
X7201Y26822D02*
X7201Y26822D01*
X7201Y26917D01*
X7283Y26999D01*
X7416Y26999D01*
G74*
D01*
G03X7201Y26822I161J415*
G01*
D02*
G37*
G36*
X27542Y14058D02*
G74*
D01*
G03X27587Y14126I141J142*
G01*
G74*
D01*
G03X27727Y14001I329J228*
G01*
X27727Y14001D01*
X27485Y14001D01*
X27542Y14058D01*
D02*
G37*
G36*
X28313Y15403D02*
G75*
D01*
G02X28293Y15221I-397J-48*
G01*
X28293Y15221D01*
X28408Y15307D01*
X28313Y15403D01*
D02*
G37*
G36*
X13401Y24972D02*
X13401Y24972D01*
X13401Y24883D01*
X13483Y24801D01*
X13515Y24801D01*
X13458Y24858D01*
G74*
D01*
G02X13401Y24972I141J142*
G01*
D02*
G37*
G36*
X33727Y22001D02*
X33727Y22001D01*
X33575Y22001D01*
G75*
D01*
G03X33601Y22100I-175J99*
G01*
X33601Y22100D01*
X33601Y22107D01*
G74*
D01*
G03X33727Y22001I315J247*
G01*
D02*
G37*
G36*
X27601Y16107D02*
G74*
D01*
G03X27727Y16001I315J247*
G01*
X27727Y16001D01*
X27683Y16001D01*
X27601Y16083D01*
X27601Y16107D01*
D02*
G37*
G36*
X22751Y24867D02*
G74*
D01*
G02X22742Y24858I147J138*
G01*
X22742Y24858D01*
X22685Y24801D01*
X22805Y24801D01*
G74*
D01*
G02X22751Y24867I296J298*
G01*
D02*
G37*
G36*
X34328Y23188D02*
G74*
D01*
G03X34310Y23180I73J187*
G01*
X34310Y23180D01*
X34264Y23157D01*
G74*
D01*
G03X34294Y23222I346J199*
G01*
X34294Y23222D01*
X34328Y23188D01*
D02*
G37*
G36*
X27727Y11001D02*
G74*
D01*
G02X27693Y11022I193J350*
G01*
G74*
D01*
G02X27628Y11001I93J177*
G01*
X27628Y11001D01*
X27727Y11001D01*
D02*
G37*
G36*
X27519Y19403D02*
X27519Y19403D01*
X27517Y19401D01*
X27485Y19401D01*
X27526Y19441D01*
G74*
D01*
G03X27519Y19403I388J91*
G01*
D02*
G37*
G36*
X27519Y23403D02*
G74*
D01*
G02X27526Y23441I396J53*
G01*
X27526Y23441D01*
X27485Y23401D01*
X27517Y23401D01*
X27519Y23403D01*
D02*
G37*
G36*
X27519Y25403D02*
G74*
D01*
G02X27526Y25441I396J53*
G01*
X27526Y25441D01*
X27485Y25401D01*
X27517Y25401D01*
X27519Y25403D01*
D02*
G37*
G36*
X27727Y25001D02*
G74*
D01*
G02X27693Y25022I193J350*
G01*
G74*
D01*
G02X27672Y25012I96J175*
G01*
X27672Y25012D01*
X27683Y25001D01*
X27727Y25001D01*
D02*
G37*
G36*
X33701Y25017D02*
G74*
D01*
G03X33727Y25001I222J332*
G01*
X33727Y25001D01*
X33700Y25001D01*
G75*
D01*
G03X33685Y25000I6J-201*
G01*
X33685Y25000D01*
X33701Y25017D01*
D02*
G37*
G36*
X34104Y15001D02*
X34104Y15001D01*
X34117Y15001D01*
X34135Y15019D01*
G74*
D01*
G02X34104Y15001I216J337*
G01*
D02*
G37*
G36*
X13399Y25028D02*
X13399Y25028D01*
X13399Y25073D01*
G74*
D01*
G02X13390Y25064I299J290*
G01*
G74*
D01*
G02X13399Y25028I189J66*
G01*
D02*
G37*
G36*
X23505Y22989D02*
X23505Y22989D01*
X23515Y22999D01*
X23508Y22999D01*
G74*
D01*
G02X23505Y22989I404J116*
G01*
D02*
G37*
G36*
X34313Y7401D02*
X34313Y7403D01*
X34313Y7403D01*
X34315Y7401D01*
X34313Y7401D01*
D02*
G37*
G36*
X34313Y9401D02*
X34313Y9403D01*
X34313Y9403D01*
X34315Y9401D01*
X34313Y9401D01*
D02*
G37*
G36*
X34313Y11401D02*
X34313Y11401D01*
X34315Y11401D01*
X34313Y11403D01*
X34313Y11401D01*
D02*
G37*
G36*
X46913Y18999D02*
X46913Y18999D01*
X46915Y18999D01*
X46913Y18997D01*
X46913Y18999D01*
D02*
G37*
G36*
X38998Y24775D02*
X38999Y24776D01*
X38999Y24776D01*
X38999Y24775D01*
X38998Y24775D01*
D02*
G37*
G36*
X38998Y25775D02*
X38999Y25776D01*
X38999Y25776D01*
X38999Y25775D01*
X38998Y25775D01*
D02*
G37*
G54D11*
X46893Y23163D02*
G75*
D01*
G03X46893Y23163I-395J-131*
G01*
X46893Y24163D02*
G75*
D01*
G03X46893Y24163I-395J-131*
G01*
X28104Y25001D02*
G75*
D01*
G03X27601Y25600I-191J350*
G01*
X27601Y25917D01*
X27701Y26017D01*
G75*
D01*
G03X28232Y26599I219J334*
G01*
X33600Y26599D01*
G75*
D01*
G03X34201Y26634I316J-244*
G01*
X34201Y28517D01*
X34283Y28599D01*
X46266Y28599D01*
G75*
D01*
G03X46334Y28611I0J201*
G01*
G74*
D01*
G03X46377Y28633I69J188*
G01*
G75*
D01*
G03X46082Y29001I120J398*
G01*
X34200Y29001D01*
G75*
D01*
G03X34171Y28999I-1J-201*
G01*
G74*
D01*
G03X34058Y28942I29J199*
G01*
X33858Y28742D01*
G75*
D01*
G03X33799Y28600I141J-142*
G01*
X33799Y27001D01*
X22800Y27001D01*
G75*
D01*
G03X22771Y26999I-1J-201*
G01*
G74*
D01*
G03X22658Y26942I29J199*
G01*
X22458Y26742D01*
G75*
D01*
G03X22399Y26600I141J-142*
G01*
X22399Y25083D01*
X22317Y25001D01*
X13883Y25001D01*
X13801Y25083D01*
X13801Y25700D01*
G74*
D01*
G03X13742Y25842I201J0*
G01*
X13642Y25942D01*
G74*
D01*
G03X13572Y25988I142J140*
G01*
G75*
D01*
G03X13500Y26001I-71J-188*
G01*
X8683Y26001D01*
X8601Y26083D01*
X8601Y26600D01*
G74*
D01*
G03X8400Y26801I201J0*
G01*
X8383Y26801D01*
X7942Y27242D01*
X7942Y27242D01*
X7842Y27342D01*
G74*
D01*
G03X7772Y27388I142J140*
G01*
G75*
D01*
G03X7700Y27401I-71J-188*
G01*
X7200Y27401D01*
G75*
D01*
G03X7171Y27399I-1J-201*
G01*
G74*
D01*
G03X7058Y27342I29J199*
G01*
X6858Y27142D01*
G75*
D01*
G03X6799Y27000I141J-142*
G01*
X6799Y26200D01*
G75*
D01*
G03X6858Y26058I201J0*
G01*
X6999Y25917D01*
X6999Y25800D01*
G75*
D01*
G03X7132Y25611I201J0*
G01*
X7132Y25305D01*
G75*
D01*
G03X7282Y25154I150J-1*
G01*
X7873Y25154D01*
G75*
D01*
G03X8024Y25305I0J151*
G01*
X8024Y25603D01*
G74*
D01*
G03X8058Y25558I175J97*
G01*
X8158Y25458D01*
G74*
D01*
G03X8284Y25400I141J141*
G01*
G75*
D01*
G03X8300Y25399I20J199*
G01*
X12682Y25399D01*
G75*
D01*
G03X12944Y24973I414J-39*
G01*
G74*
D01*
G03X12955Y24961I153J129*
G01*
X12999Y24917D01*
X12999Y24800D01*
G75*
D01*
G03X13058Y24658I201J0*
G01*
X13258Y24458D01*
G74*
D01*
G03X13371Y24401I142J141*
G01*
G75*
D01*
G03X13400Y24399I28J199*
G01*
X22805Y24399D01*
G75*
D01*
G03X23030Y23686I295J-299*
G01*
X23058Y23658D01*
G74*
D01*
G03X23184Y23600I141J141*
G01*
G75*
D01*
G03X23200Y23599I20J199*
G01*
X23317Y23599D01*
X23515Y23401D01*
X23400Y23401D01*
G75*
D01*
G03X23393Y23401I-3J-201*
G01*
G75*
D01*
G03X23399Y22805I-293J-301*
G01*
X23399Y22800D01*
X23399Y22683D01*
X23317Y22601D01*
X23200Y22601D01*
G75*
D01*
G03X23184Y22600I5J-201*
G01*
G74*
D01*
G03X23058Y22542I15J199*
G01*
X23030Y22514D01*
G75*
D01*
G03X23501Y22226I71J-413*
G01*
G74*
D01*
G03X23542Y22258I102J173*
G01*
X23742Y22458D01*
G75*
D01*
G03X23801Y22600I-141J142*
G01*
X23801Y22717D01*
X23883Y22799D01*
X27117Y22799D01*
X27199Y22717D01*
X27199Y22600D01*
G75*
D01*
G03X27258Y22458I201J0*
G01*
X27504Y22212D01*
G74*
D01*
G03X27559Y22173I142J141*
G01*
G74*
D01*
G03X27735Y21997I357J181*
G01*
G74*
D01*
G03X27774Y21942I180J87*
G01*
X27858Y21858D01*
G74*
D01*
G03X27934Y21810I142J141*
G01*
G75*
D01*
G03X28000Y21799I66J190*
G01*
X28117Y21799D01*
X28258Y21658D01*
G74*
D01*
G03X28371Y21601I142J141*
G01*
G75*
D01*
G03X28400Y21599I28J199*
G01*
X33600Y21599D01*
G75*
D01*
G03X34285Y21199I321J-238*
G01*
X37500Y21199D01*
G75*
D01*
G03X37572Y21212I1J201*
G01*
G74*
D01*
G03X37599Y21225I73J187*
G01*
X37599Y19483D01*
X37517Y19401D01*
X34313Y19401D01*
G75*
D01*
G03X34010Y18965I-396J-48*
G01*
G75*
D01*
G03X33999Y18899I189J-65*
G01*
X33999Y18745D01*
G75*
D01*
G03X34199Y18071I-81J-391*
G01*
X34199Y17636D01*
G75*
D01*
G03X34199Y17071I-282J-282*
G01*
X34199Y16883D01*
X34117Y16801D01*
X34000Y16801D01*
G75*
D01*
G03X33934Y16790I0J-201*
G01*
G74*
D01*
G03X33867Y16751I66J190*
G01*
G75*
D01*
G03X34308Y16431I48J-397*
G01*
G74*
D01*
G03X34342Y16458I107J169*
G01*
X34399Y16515D01*
X34399Y15283D01*
X34251Y15135D01*
G75*
D01*
G03X33601Y15601I-330J225*
G01*
X33600Y15601D01*
X28683Y15601D01*
X28342Y15942D01*
G74*
D01*
G03X28252Y15994I142J141*
G01*
G75*
D01*
G03X28200Y16001I-52J-193*
G01*
X28104Y16001D01*
G75*
D01*
G03X27601Y16600I-191J350*
G01*
X27601Y17107D01*
G75*
D01*
G03X27601Y17600I315J247*
G01*
X27601Y18107D01*
G75*
D01*
G03X27601Y18600I315J247*
G01*
X27601Y18800D01*
G74*
D01*
G03X27542Y18942I201J0*
G01*
X27485Y18999D01*
X27600Y18999D01*
G75*
D01*
G03X27612Y18999I6J201*
G01*
G74*
D01*
G03X27693Y19022I13J201*
G01*
G75*
D01*
G03X27601Y19600I222J332*
G01*
X27601Y19917D01*
X27701Y20017D01*
G75*
D01*
G03X27519Y20403I214J337*
G01*
X27258Y20142D01*
G75*
D01*
G03X27199Y19999I141J-142*
G01*
X27199Y19683D01*
X27117Y19601D01*
X24083Y19601D01*
X24001Y19683D01*
X24001Y19800D01*
G74*
D01*
G03X23942Y19942I201J0*
G01*
X23742Y20142D01*
G74*
D01*
G03X23666Y20190I142J141*
G01*
G75*
D01*
G03X23600Y20201I-66J-190*
G01*
X23508Y20201D01*
G75*
D01*
G03X23393Y19799I-408J-101*
G01*
G75*
D01*
G03X23400Y19799I4J201*
G01*
X23517Y19799D01*
X23599Y19717D01*
X23599Y19600D01*
G75*
D01*
G03X23658Y19458I201J0*
G01*
X23715Y19401D01*
X23518Y19401D01*
G74*
D01*
G03X23370Y19521I148J31*
G01*
X22830Y19521D01*
G75*
D01*
G03X22679Y19370I0J-151*
G01*
X22679Y18830D01*
G75*
D01*
G03X22682Y18801I151J1*
G01*
X13385Y18801D01*
G75*
D01*
G03X13337Y18795I1J-201*
G01*
G74*
D01*
G03X13243Y18742I48J194*
G01*
X13242Y18741D01*
G75*
D01*
G03X13541Y18399I-139J-423*
G01*
X23500Y18399D01*
G75*
D01*
G03X23572Y18412I1J201*
G01*
G74*
D01*
G03X23642Y18458I73J187*
G01*
X23742Y18558D01*
G75*
D01*
G03X23801Y18700I-141J142*
G01*
X23801Y18717D01*
X23883Y18799D01*
X27117Y18799D01*
X27199Y18717D01*
X27199Y16000D01*
G75*
D01*
G03X27258Y15858I201J0*
G01*
X27458Y15658D01*
G74*
D01*
G03X27571Y15601I142J141*
G01*
G74*
D01*
G03X27600Y15599I28J199*
G01*
G75*
D01*
G03X27727Y15001I314J-246*
G01*
X27600Y15001D01*
G75*
D01*
G03X27571Y14999I-1J-201*
G01*
G74*
D01*
G03X27458Y14942I29J199*
G01*
X27258Y14742D01*
G75*
D01*
G03X27199Y14600I141J-142*
G01*
X27199Y14283D01*
X27117Y14201D01*
X23883Y14201D01*
X23801Y14283D01*
X23801Y14400D01*
G74*
D01*
G03X23690Y14580I201J0*
G01*
X23519Y14665D01*
X23442Y14742D01*
G74*
D01*
G03X23372Y14788I142J140*
G01*
G75*
D01*
G03X23300Y14801I-71J-188*
G01*
X22600Y14801D01*
G75*
D01*
G03X22571Y14799I-1J-201*
G01*
G74*
D01*
G03X22458Y14742I29J199*
G01*
X22258Y14542D01*
G75*
D01*
G03X22199Y14400I141J-142*
G01*
X22199Y13400D01*
G75*
D01*
G03X22258Y13258I201J0*
G01*
X22458Y13058D01*
G75*
D01*
G03X22600Y12999I142J141*
G01*
X22681Y12999D01*
G75*
D01*
G03X22919Y13401I418J24*
G01*
X22683Y13401D01*
X22601Y13483D01*
X22601Y14317D01*
X22683Y14399D01*
X22915Y14399D01*
G75*
D01*
G03X23229Y13622I157J-389*
G01*
G74*
D01*
G03X23280Y13603I95J176*
G01*
G75*
D01*
G03X23322Y13599I40J197*
G01*
X27600Y13599D01*
G75*
D01*
G03X28101Y12999I312J-249*
G01*
X28317Y12999D01*
X28399Y12917D01*
X28399Y12285D01*
X28342Y12342D01*
G74*
D01*
G03X28316Y12364I142J141*
G01*
G75*
D01*
G03X28101Y11999I-400J-10*
G01*
X28117Y11999D01*
X28199Y11917D01*
X28199Y11636D01*
G75*
D01*
G03X27519Y11403I-284J-280*
G01*
X27517Y11401D01*
X23281Y11401D01*
G75*
D01*
G03X22681Y11001I-181J-379*
G01*
X22400Y11001D01*
G75*
D01*
G03X22371Y10999I-1J-201*
G01*
G74*
D01*
G03X22258Y10942I29J199*
G01*
X22058Y10742D01*
G75*
D01*
G03X21999Y10600I141J-142*
G01*
X21999Y9483D01*
X21917Y9401D01*
X21700Y9401D01*
G75*
D01*
G03X21684Y9400I5J-201*
G01*
G74*
D01*
G03X21558Y9342I15J199*
G01*
X21458Y9242D01*
G75*
D01*
G03X21399Y9099I141J-142*
G01*
X21399Y3683D01*
X21317Y3601D01*
X19300Y3601D01*
G75*
D01*
G03X19284Y3600I5J-201*
G01*
G74*
D01*
G03X19158Y3542I15J199*
G01*
X19058Y3442D01*
G75*
D01*
G03X18999Y3299I141J-142*
G01*
X18999Y3083D01*
X18917Y3001D01*
X18600Y3001D01*
G75*
D01*
G03X18571Y2999I-1J-201*
G01*
G74*
D01*
G03X18458Y2942I29J199*
G01*
X18258Y2742D01*
G75*
D01*
G03X18199Y2600I141J-142*
G01*
X18199Y2365D01*
G75*
D01*
G03X18601Y2365I201J-364*
G01*
X18601Y2517D01*
X18683Y2599D01*
X19000Y2599D01*
G75*
D01*
G03X19066Y2610I0J201*
G01*
G74*
D01*
G03X19142Y2658I67J190*
G01*
X19199Y2715D01*
X19199Y2365D01*
G75*
D01*
G03X19601Y2365I201J-364*
G01*
X19601Y2917D01*
X19683Y2999D01*
X20315Y2999D01*
X20258Y2942D01*
G75*
D01*
G03X20199Y2800I141J-142*
G01*
X20199Y2365D01*
G75*
D01*
G03X20601Y2365I201J-364*
G01*
X20601Y2717D01*
X20683Y2799D01*
X21315Y2799D01*
X21258Y2742D01*
G75*
D01*
G03X21199Y2600I141J-142*
G01*
X21199Y2365D01*
G75*
D01*
G03X21601Y2365I201J-364*
G01*
X21601Y2517D01*
X21683Y2599D01*
X22100Y2599D01*
G75*
D01*
G03X22172Y2612I1J201*
G01*
G74*
D01*
G03X22199Y2625I73J187*
G01*
X22199Y2365D01*
G75*
D01*
G03X22601Y2365I201J-364*
G01*
X22601Y6317D01*
X22683Y6399D01*
X22800Y6399D01*
G75*
D01*
G03X23001Y6600I0J201*
G01*
X23001Y6601D01*
X23370Y6601D01*
G75*
D01*
G03X23521Y6752I0J151*
G01*
X23521Y7292D01*
G74*
D01*
G03X23370Y7443I151J0*
G01*
X22830Y7443D01*
G75*
D01*
G03X22679Y7292I0J-151*
G01*
X22679Y6885D01*
X22658Y6864D01*
G74*
D01*
G03X22615Y6801I141J142*
G01*
X22600Y6801D01*
G75*
D01*
G03X22571Y6799I-1J-201*
G01*
G74*
D01*
G03X22458Y6742I29J199*
G01*
X22401Y6685D01*
X22401Y7517D01*
X22483Y7599D01*
X22878Y7599D01*
G75*
D01*
G03X22937Y7608I0J201*
G01*
G74*
D01*
G03X22971Y7622I59J191*
G01*
G75*
D01*
G03X22681Y8001I129J400*
G01*
X22400Y8001D01*
G75*
D01*
G03X22371Y7999I-1J-201*
G01*
G74*
D01*
G03X22258Y7942I29J199*
G01*
X22201Y7885D01*
X22201Y8517D01*
X22283Y8599D01*
X22878Y8599D01*
G75*
D01*
G03X22937Y8608I0J201*
G01*
G74*
D01*
G03X22971Y8622I59J191*
G01*
G75*
D01*
G03X23519Y8999I129J400*
G01*
X23600Y8999D01*
G75*
D01*
G03X23666Y9010I0J201*
G01*
G74*
D01*
G03X23742Y9058I67J190*
G01*
X23942Y9258D01*
G75*
D01*
G03X24001Y9400I-141J142*
G01*
X24001Y9517D01*
X24083Y9599D01*
X27600Y9599D01*
G75*
D01*
G03X28232Y9599I316J-244*
G01*
X28400Y9599D01*
G75*
D01*
G03X28466Y9610I0J201*
G01*
G74*
D01*
G03X28542Y9658I67J190*
G01*
X28599Y9715D01*
X28599Y8683D01*
X28517Y8601D01*
X28230Y8601D01*
G75*
D01*
G03X27519Y8403I-315J-245*
G01*
X27258Y8142D01*
G75*
D01*
G03X27199Y7999I141J-142*
G01*
X27199Y7683D01*
X27117Y7601D01*
X26300Y7601D01*
G75*
D01*
G03X26284Y7600I5J-201*
G01*
G74*
D01*
G03X26158Y7542I15J199*
G01*
X26058Y7442D01*
G75*
D01*
G03X25999Y7299I141J-142*
G01*
X25999Y3083D01*
X25917Y3001D01*
X23600Y3001D01*
G75*
D01*
G03X23571Y2999I-1J-201*
G01*
G74*
D01*
G03X23458Y2942I29J199*
G01*
X23258Y2742D01*
G75*
D01*
G03X23199Y2600I141J-142*
G01*
X23199Y2365D01*
G75*
D01*
G03X23601Y2365I201J-364*
G01*
X23601Y2517D01*
X23683Y2599D01*
X26000Y2599D01*
G75*
D01*
G03X26066Y2610I0J201*
G01*
G74*
D01*
G03X26142Y2658I67J190*
G01*
X26342Y2858D01*
G75*
D01*
G03X26401Y3000I-141J142*
G01*
X26401Y7199D01*
X27200Y7199D01*
G75*
D01*
G03X27266Y7210I0J201*
G01*
G74*
D01*
G03X27342Y7258I67J190*
G01*
X27526Y7441D01*
G75*
D01*
G03X27551Y7190I389J-88*
G01*
X27715Y7354D01*
X27572Y7497D01*
G75*
D01*
G03X27601Y7600I-171J104*
G01*
X27601Y7917D01*
X27701Y8017D01*
G75*
D01*
G03X28285Y8199I216J336*
G01*
X28600Y8199D01*
G74*
D01*
G03X28742Y8258I0J201*
G01*
X28942Y8458D01*
G75*
D01*
G03X29001Y8600I-141J142*
G01*
X29001Y13300D01*
G74*
D01*
G03X28942Y13442I201J0*
G01*
X28842Y13542D01*
G74*
D01*
G03X28772Y13588I142J140*
G01*
G75*
D01*
G03X28700Y13601I-71J-188*
G01*
X28667Y13601D01*
X28332Y13852D01*
X28242Y13942D01*
G74*
D01*
G03X28172Y13988I142J140*
G01*
G74*
D01*
G03X28104Y14001I71J188*
G01*
G75*
D01*
G03X28206Y14629I-187J353*
G01*
G74*
D01*
G03X28242Y14658I107J170*
G01*
X28332Y14748D01*
X28667Y14999D01*
X33117Y14999D01*
X33458Y14658D01*
G74*
D01*
G03X33550Y14605I142J141*
G01*
G74*
D01*
G03X33600Y14599I49J195*
G01*
G75*
D01*
G03X34101Y13999I312J-249*
G01*
X34315Y13999D01*
X34117Y13801D01*
X34000Y13801D01*
G75*
D01*
G03X33934Y13790I0J-201*
G01*
G74*
D01*
G03X33867Y13751I66J190*
G01*
G75*
D01*
G03X34308Y13431I48J-397*
G01*
G74*
D01*
G03X34342Y13458I107J169*
G01*
X34683Y13799D01*
X37717Y13799D01*
X37799Y13717D01*
X37799Y13400D01*
G75*
D01*
G03X37858Y13258I201J0*
G01*
X38058Y13058D01*
G74*
D01*
G03X38171Y13001I142J141*
G01*
G75*
D01*
G03X38200Y12999I28J199*
G01*
X38312Y12999D01*
G75*
D01*
G03X38551Y13401I419J23*
G01*
X38283Y13401D01*
X38201Y13483D01*
X38201Y13800D01*
G74*
D01*
G03X38142Y13942I201J0*
G01*
X38085Y13999D01*
X38312Y13999D01*
G75*
D01*
G03X38551Y14401I419J23*
G01*
X34313Y14401D01*
G74*
D01*
G03X34230Y14601I396J47*
G01*
G74*
D01*
G03X34252Y14606I33J198*
G01*
G74*
D01*
G03X34342Y14658I52J193*
G01*
X34742Y15058D01*
G75*
D01*
G03X34801Y15200I-141J142*
G01*
X34801Y18317D01*
X34883Y18399D01*
X39100Y18399D01*
G75*
D01*
G03X39172Y18412I1J201*
G01*
G74*
D01*
G03X39242Y18458I73J187*
G01*
X39342Y18558D01*
G75*
D01*
G03X39401Y18700I-141J142*
G01*
X39401Y19317D01*
X39542Y19458D01*
G75*
D01*
G03X39601Y19600I-141J142*
G01*
X39601Y19717D01*
X39683Y19799D01*
X45517Y19799D01*
X45599Y19717D01*
X45599Y18800D01*
G75*
D01*
G03X45658Y18658I201J0*
G01*
X45858Y18458D01*
G74*
D01*
G03X45971Y18401I142J141*
G01*
G75*
D01*
G03X46000Y18399I28J199*
G01*
X46301Y18399D01*
G75*
D01*
G03X46694Y18399I197J-367*
G01*
X46900Y18399D01*
G75*
D01*
G03X46972Y18412I1J201*
G01*
G74*
D01*
G03X47042Y18458I73J187*
G01*
X47142Y18558D01*
G75*
D01*
G03X47201Y18700I-141J142*
G01*
X47201Y18717D01*
X47283Y18799D01*
X47300Y18799D01*
G75*
D01*
G03X47372Y18812I1J201*
G01*
G74*
D01*
G03X47442Y18858I73J187*
G01*
X47542Y18958D01*
G75*
D01*
G03X47601Y19100I-141J142*
G01*
X47601Y24600D01*
G74*
D01*
G03X47542Y24742I201J0*
G01*
X47342Y24942D01*
G74*
D01*
G03X47200Y25001I142J141*
G01*
X46913Y25001D01*
G75*
D01*
G03X46618Y24633I-415J30*
G01*
G75*
D01*
G03X46730Y24599I112J166*
G01*
X47117Y24599D01*
X47199Y24517D01*
X47199Y20428D01*
G74*
D01*
G03X47025Y20599I198J28*
G01*
X46980Y20690D01*
G74*
D01*
G03X46855Y20793I179J90*
G01*
G74*
D01*
G03X46842Y20797I65J189*
G01*
G75*
D01*
G03X46082Y21001I-345J232*
G01*
X46000Y21001D01*
G75*
D01*
G03X45971Y20999I-1J-201*
G01*
G74*
D01*
G03X45858Y20942I29J199*
G01*
X45717Y20801D01*
X45685Y20801D01*
X45742Y20858D01*
G75*
D01*
G03X45801Y21000I-141J142*
G01*
X45801Y21517D01*
X45883Y21599D01*
X46266Y21599D01*
G75*
D01*
G03X46334Y21611I0J201*
G01*
G74*
D01*
G03X46377Y21633I69J188*
G01*
G75*
D01*
G03X46082Y22001I120J398*
G01*
X45800Y22001D01*
G75*
D01*
G03X45771Y21999I-1J-201*
G01*
G74*
D01*
G03X45658Y21942I29J199*
G01*
X45458Y21742D01*
G75*
D01*
G03X45399Y21600I141J-142*
G01*
X45399Y21083D01*
X45317Y21001D01*
X40083Y21001D01*
X40001Y21083D01*
X40001Y25000D01*
G74*
D01*
G03X39825Y25199I201J0*
G01*
X39801Y25247D01*
X39801Y25800D01*
G74*
D01*
G03X39625Y25999I201J0*
G01*
X39601Y26047D01*
X39601Y26600D01*
G74*
D01*
G03X39425Y26799I201J0*
G01*
X39380Y26890D01*
G74*
D01*
G03X39255Y26993I179J90*
G01*
G75*
D01*
G03X39200Y27001I-56J-192*
G01*
X37700Y27001D01*
G75*
D01*
G03X37684Y27000I5J-201*
G01*
G74*
D01*
G03X37558Y26942I15J199*
G01*
X37458Y26842D01*
G75*
D01*
G03X37399Y26699I141J-142*
G01*
X37399Y25083D01*
X37317Y25001D01*
X34104Y25001D01*
G75*
D01*
G03X33519Y25403I-189J351*
G01*
X33117Y25001D01*
X28104Y25001D01*
X58905Y27396D02*
G75*
D01*
G03X58905Y27396I-203J-364*
G01*
X46887Y27179D02*
G74*
D01*
G03X46645Y27421I388J146*
G01*
X46645Y27179D01*
X46887Y27179D01*
X46108Y27179D02*
X46350Y27179D01*
X46350Y27421D01*
G74*
D01*
G03X46108Y27179I147J389*
G01*
X46893Y26163D02*
G75*
D01*
G03X46893Y26163I-395J-131*
G01*
X58294Y17947D02*
G75*
D01*
G03X58294Y17947I408J85*
G01*
X46893Y15901D02*
G75*
D01*
G03X46893Y15901I-395J131*
G01*
X46893Y14901D02*
G75*
D01*
G03X46893Y14901I-395J131*
G01*
X46893Y13901D02*
G75*
D01*
G03X46893Y13901I-395J131*
G01*
X46893Y16901D02*
G75*
D01*
G03X46893Y16901I-395J131*
G01*
X34101Y8999D02*
X38312Y8999D01*
G75*
D01*
G03X38551Y9401I419J23*
G01*
X38085Y9401D01*
X38283Y9599D01*
X38510Y9599D01*
G75*
D01*
G03X38568Y9608I-1J201*
G01*
G74*
D01*
G03X38603Y9622I56J192*
G01*
G75*
D01*
G03X38312Y10001I128J400*
G01*
X38200Y10001D01*
G75*
D01*
G03X38150Y9995I-1J-201*
G01*
G74*
D01*
G03X38058Y9942I51J194*
G01*
X37717Y9601D01*
X34683Y9601D01*
X34601Y9683D01*
X34601Y9800D01*
G74*
D01*
G03X34542Y9942I201J0*
G01*
X34342Y10142D01*
G74*
D01*
G03X34279Y10185I142J141*
G01*
G75*
D01*
G03X33735Y9997I-363J169*
G01*
G74*
D01*
G03X33774Y9942I180J87*
G01*
X33858Y9858D01*
G74*
D01*
G03X33934Y9810I142J141*
G01*
G75*
D01*
G03X34000Y9799I66J190*
G01*
X34117Y9799D01*
X34199Y9717D01*
X34199Y9636D01*
G75*
D01*
G03X34101Y8999I-282J-283*
G01*
X34101Y10999D02*
X38312Y10999D01*
G75*
D01*
G03X38551Y11401I419J23*
G01*
X38085Y11401D01*
X38283Y11599D01*
X38510Y11599D01*
G75*
D01*
G03X38568Y11608I-1J201*
G01*
G74*
D01*
G03X38603Y11622I56J192*
G01*
G75*
D01*
G03X38312Y12001I128J400*
G01*
X38200Y12001D01*
G75*
D01*
G03X38150Y11995I-1J-201*
G01*
G74*
D01*
G03X38058Y11942I51J194*
G01*
X37717Y11601D01*
X34683Y11601D01*
X34601Y11683D01*
X34601Y11800D01*
G74*
D01*
G03X34542Y11942I201J0*
G01*
X34342Y12142D01*
G74*
D01*
G03X34279Y12185I142J141*
G01*
G75*
D01*
G03X33735Y11997I-363J169*
G01*
G74*
D01*
G03X33774Y11942I180J87*
G01*
X33858Y11858D01*
G74*
D01*
G03X33934Y11810I142J141*
G01*
G75*
D01*
G03X34000Y11799I66J190*
G01*
X34117Y11799D01*
X34199Y11717D01*
X34199Y11636D01*
G75*
D01*
G03X34101Y10999I-282J-283*
G01*
X34101Y6999D02*
X38311Y6999D01*
X38311Y6752D01*
G75*
D01*
G03X38462Y6601I151J0*
G01*
X39002Y6601D01*
G75*
D01*
G03X39152Y6752I-1J151*
G01*
X39152Y7292D01*
G74*
D01*
G03X39002Y7443I150J1*
G01*
X38462Y7443D01*
G75*
D01*
G03X38358Y7401I0J-151*
G01*
X38085Y7401D01*
X38283Y7599D01*
X38510Y7599D01*
G75*
D01*
G03X38568Y7608I-1J201*
G01*
G74*
D01*
G03X38603Y7622I56J192*
G01*
G75*
D01*
G03X38312Y8001I128J400*
G01*
X38200Y8001D01*
G75*
D01*
G03X38150Y7995I-1J-201*
G01*
G74*
D01*
G03X38058Y7942I51J194*
G01*
X37717Y7601D01*
X34683Y7601D01*
X34601Y7683D01*
X34601Y7800D01*
G74*
D01*
G03X34542Y7942I201J0*
G01*
X34342Y8142D01*
G74*
D01*
G03X34279Y8185I142J141*
G01*
G75*
D01*
G03X33735Y7997I-363J169*
G01*
G74*
D01*
G03X33774Y7942I180J87*
G01*
X33858Y7858D01*
G74*
D01*
G03X33934Y7810I142J141*
G01*
G75*
D01*
G03X34000Y7799I66J190*
G01*
X34117Y7799D01*
X34199Y7717D01*
X34199Y7636D01*
G75*
D01*
G03X34101Y6999I-282J-283*
G01*
X27519Y21403D02*
X27517Y21401D01*
X23400Y21401D01*
G75*
D01*
G03X23393Y21401I-3J-201*
G01*
G75*
D01*
G03X23508Y20999I-293J-301*
G01*
X27600Y20999D01*
G75*
D01*
G03X27612Y20999I6J201*
G01*
G74*
D01*
G03X27693Y21022I13J201*
G01*
G75*
D01*
G03X27519Y21403I222J332*
G01*
X8000Y23401D02*
G75*
D01*
G03X7971Y23399I-1J-201*
G01*
G74*
D01*
G03X7858Y23342I29J199*
G01*
X7658Y23142D01*
G75*
D01*
G03X7599Y23000I141J-142*
G01*
X7599Y22737D01*
G75*
D01*
G03X7992Y22455I-21J-444*
G01*
G75*
D01*
G03X8001Y22515I-192J59*
G01*
X8001Y22917D01*
X8083Y22999D01*
X12858Y22999D01*
G75*
D01*
G03X12868Y22999I5J201*
G01*
G74*
D01*
G03X12979Y23040I11J201*
G01*
G75*
D01*
G03X12682Y23401I117J399*
G01*
X8000Y23401D01*
X8400Y12599D02*
X9199Y12599D01*
X9199Y10683D01*
X9192Y10676D01*
G75*
D01*
G03X9601Y10588I129J-396*
G01*
G75*
D01*
G03X9601Y10600I-201J6*
G01*
X9601Y12599D01*
X12800Y12599D01*
G74*
D01*
G03X12996Y12754I0J201*
G01*
X13398Y12754D01*
G75*
D01*
G03X13549Y12905I0J151*
G01*
X13549Y13495D01*
G74*
D01*
G03X13398Y13646I151J0*
G01*
X12808Y13646D01*
G75*
D01*
G03X12657Y13495I0J-151*
G01*
X12657Y13038D01*
G74*
D01*
G03X12628Y13001I142J141*
G01*
X8483Y13001D01*
X8401Y13083D01*
X8401Y15400D01*
G74*
D01*
G03X8342Y15542I201J0*
G01*
X8142Y15742D01*
G74*
D01*
G03X8066Y15790I142J141*
G01*
G74*
D01*
G03X8023Y15800I67J190*
G01*
G75*
D01*
G03X7801Y15399I-445J-16*
G01*
X7917Y15399D01*
X7999Y15317D01*
X7999Y14998D01*
X7801Y14800D01*
X7999Y14602D01*
X7999Y14028D01*
G74*
D01*
G03X7942Y14142I198J28*
G01*
X7742Y14342D01*
G74*
D01*
G03X7729Y14354I142J141*
G01*
X7800Y14354D01*
X7578Y14576D01*
X7402Y14401D01*
X7324Y14401D01*
X7280Y14490D01*
G74*
D01*
G03X7201Y14574I180J90*
G01*
X7201Y14647D01*
X7354Y14800D01*
X7201Y14953D01*
X7201Y15000D01*
G74*
D01*
G03X7142Y15142I201J0*
G01*
X7001Y15283D01*
X7001Y20717D01*
X7083Y20799D01*
X7269Y20799D01*
G75*
D01*
G03X7361Y20821I1J201*
G01*
G74*
D01*
G03X7412Y20858I90J178*
G01*
X7416Y20862D01*
X7873Y20862D01*
G75*
D01*
G03X8024Y21013I0J151*
G01*
X8024Y21603D01*
G74*
D01*
G03X7873Y21754I151J0*
G01*
X7282Y21754D01*
G75*
D01*
G03X7132Y21603I1J-151*
G01*
X7132Y21201D01*
X7000Y21201D01*
G75*
D01*
G03X6971Y21199I-1J-201*
G01*
G74*
D01*
G03X6858Y21142I29J199*
G01*
X6658Y20942D01*
G75*
D01*
G03X6599Y20800I141J-142*
G01*
X6599Y15200D01*
G75*
D01*
G03X6658Y15058I201J0*
G01*
X6799Y14917D01*
X6799Y14400D01*
G75*
D01*
G03X6975Y14201I201J0*
G01*
X7020Y14110D01*
G75*
D01*
G03X7200Y13999I180J90*
G01*
X7517Y13999D01*
X7599Y13917D01*
X7599Y8083D01*
X7517Y8001D01*
X2500Y8001D01*
G75*
D01*
G03X2484Y8000I5J-201*
G01*
G74*
D01*
G03X2358Y7942I15J199*
G01*
X2258Y7842D01*
G75*
D01*
G03X2199Y7699I141J-142*
G01*
X2199Y5883D01*
X2117Y5801D01*
X1800Y5801D01*
G75*
D01*
G03X1771Y5799I-1J-201*
G01*
G74*
D01*
G03X1658Y5742I29J199*
G01*
X1458Y5542D01*
G75*
D01*
G03X1399Y5400I141J-142*
G01*
X1399Y4600D01*
G75*
D01*
G03X1510Y4420I201J0*
G01*
X1681Y4335D01*
X1758Y4258D01*
G75*
D01*
G03X1900Y4199I142J141*
G01*
X2317Y4199D01*
X2399Y4117D01*
X2399Y2969D01*
G74*
D01*
G03X2366Y2942I110J168*
G01*
X2326Y2903D01*
X1885Y2903D01*
G75*
D01*
G03X1798Y2816I0J-87*
G01*
X1798Y2296D01*
G75*
D01*
G03X1885Y2209I87J0*
G01*
X2642Y2209D01*
G75*
D01*
G03X2729Y2296I0J87*
G01*
X2729Y2646D01*
G75*
D01*
G03X2801Y2800I-128J154*
G01*
X2801Y3199D01*
X3800Y3199D01*
G74*
D01*
G03X3955Y3272I0J201*
G01*
X4374Y3272D01*
G75*
D01*
G03X4461Y3359I0J87*
G01*
X4461Y4115D01*
G74*
D01*
G03X4374Y4202I87J0*
G01*
X3854Y4202D01*
G75*
D01*
G03X3767Y4115I0J-87*
G01*
X3767Y3674D01*
X3694Y3601D01*
X2801Y3601D01*
X2801Y4200D01*
G74*
D01*
G03X2742Y4342I201J0*
G01*
X2542Y4542D01*
G74*
D01*
G03X2505Y4571I141J142*
G01*
X2642Y4571D01*
G75*
D01*
G03X2729Y4658I0J87*
G01*
X2729Y4795D01*
X2481Y4795D01*
G75*
D01*
G03X2481Y5041I-98J123*
G01*
X2729Y5041D01*
X2729Y5178D01*
G74*
D01*
G03X2642Y5265I87J0*
G01*
X2387Y5265D01*
X2387Y5076D01*
X2382Y5076D01*
X2145Y5076D01*
X2141Y5076D01*
X2141Y5265D01*
X1885Y5265D01*
G75*
D01*
G03X1801Y5199I0J-87*
G01*
X1801Y5317D01*
X1883Y5399D01*
X2200Y5399D01*
G75*
D01*
G03X2266Y5410I0J201*
G01*
G74*
D01*
G03X2342Y5458I67J190*
G01*
X2542Y5658D01*
G75*
D01*
G03X2601Y5800I-141J142*
G01*
X2601Y7599D01*
X7600Y7599D01*
G75*
D01*
G03X7666Y7610I0J201*
G01*
G74*
D01*
G03X7742Y7658I67J190*
G01*
X7942Y7858D01*
G75*
D01*
G03X8001Y8000I-141J142*
G01*
X8001Y12972D01*
G74*
D01*
G03X8058Y12858I198J28*
G01*
X8258Y12658D01*
G74*
D01*
G03X8371Y12601I142J141*
G01*
G75*
D01*
G03X8400Y12599I28J199*
G01*
X9173Y8110D02*
G74*
D01*
G03X8931Y7868I147J389*
G01*
X9173Y7868D01*
X9173Y8110D01*
X9173Y7331D02*
X9173Y7573D01*
X8931Y7573D01*
G74*
D01*
G03X9173Y7331I388J146*
G01*
X27996Y7198D02*
G75*
D01*
G03X27996Y7198I-80J156*
G01*
X27752Y6989D02*
G75*
D01*
G03X28080Y6989I164J365*
G01*
X27916Y7153D01*
X27752Y6989D01*
X27752Y7719D02*
X27916Y7554D01*
X28080Y7719D01*
G75*
D01*
G03X27752Y7719I-164J-365*
G01*
X7800Y15246D02*
X7355Y15246D01*
X7578Y15024D01*
X7800Y15246D01*
X7401Y14800D02*
G75*
D01*
G03X7401Y14800I177J0*
G01*
X46108Y28179D02*
X46350Y28179D01*
X46350Y28421D01*
G74*
D01*
G03X46108Y28179I147J389*
G01*
X46301Y28032D02*
G75*
D01*
G03X46301Y28032I197J0*
G01*
X46350Y27642D02*
X46350Y27884D01*
X46108Y27884D01*
G74*
D01*
G03X46350Y27642I390J148*
G01*
X46645Y28421D02*
X46645Y28179D01*
X46887Y28179D01*
G74*
D01*
G03X46645Y28421I388J146*
G01*
X46887Y27884D02*
X46645Y27884D01*
X46645Y27642D01*
G74*
D01*
G03X46887Y27884I147J389*
G01*
X58286Y28032D02*
G75*
D01*
G03X58286Y28032I416J0*
G01*
X58286Y29032D02*
G75*
D01*
G03X58286Y29032I416J0*
G01*
X33516Y20354D02*
G75*
D01*
G03X33516Y20354I400J0*
G01*
X58286Y19032D02*
G75*
D01*
G03X58286Y19032I416J0*
G01*
X58286Y20032D02*
G75*
D01*
G03X58286Y20032I416J0*
G01*
X58286Y21032D02*
G75*
D01*
G03X58286Y21032I416J0*
G01*
X58286Y22032D02*
G75*
D01*
G03X58286Y22032I416J0*
G01*
X58286Y23032D02*
G75*
D01*
G03X58286Y23032I416J0*
G01*
X58286Y24032D02*
G75*
D01*
G03X58286Y24032I416J0*
G01*
X58286Y25032D02*
G75*
D01*
G03X58286Y25032I416J0*
G01*
X58286Y26032D02*
G75*
D01*
G03X58286Y26032I416J0*
G01*
X58286Y14032D02*
G75*
D01*
G03X58286Y14032I416J0*
G01*
X58286Y15032D02*
G75*
D01*
G03X58286Y15032I416J0*
G01*
X58286Y16032D02*
G75*
D01*
G03X58286Y16032I416J0*
G01*
X58286Y17032D02*
G75*
D01*
G03X58286Y17032I416J0*
G01*
X46887Y26884D02*
X46645Y26884D01*
X46645Y26642D01*
G74*
D01*
G03X46887Y26884I147J389*
G01*
X46350Y26642D02*
X46350Y26884D01*
X46108Y26884D01*
G74*
D01*
G03X46350Y26642I390J148*
G01*
X46301Y27032D02*
G75*
D01*
G03X46301Y27032I197J0*
G01*
X28281Y7518D02*
X28116Y7354D01*
X28281Y7190D01*
G75*
D01*
G03X28281Y7518I-365J164*
G01*
X26252Y1610D02*
X26252Y1852D01*
X26010Y1852D01*
G74*
D01*
G03X26252Y1610I390J148*
G01*
X26010Y2148D02*
X26252Y2148D01*
X26252Y2390D01*
G74*
D01*
G03X26010Y2148I148J390*
G01*
X26548Y2390D02*
X26548Y2148D01*
X26790Y2148D01*
G74*
D01*
G03X26548Y2390I390J148*
G01*
X26790Y1852D02*
X26548Y1852D01*
X26548Y1610D01*
G74*
D01*
G03X26790Y1852I148J390*
G01*
X26203Y2000D02*
G75*
D01*
G03X26203Y2000I197J0*
G01*
X24983Y2000D02*
G75*
D01*
G03X24983Y2000I417J0*
G01*
X23983Y2000D02*
G75*
D01*
G03X23983Y2000I417J0*
G01*
X11463Y7720D02*
G75*
D01*
G03X11463Y7720I417J0*
G01*
X9124Y7720D02*
G75*
D01*
G03X9124Y7720I196J0*
G01*
X9468Y8110D02*
X9468Y7868D01*
X9710Y7868D01*
G74*
D01*
G03X9468Y8110I390J148*
G01*
X9710Y7573D02*
X9468Y7573D01*
X9468Y7331D01*
G74*
D01*
G03X9710Y7573I147J389*
G01*
X22680Y12022D02*
G75*
D01*
G03X22680Y12022I420J0*
G01*
X11463Y10280D02*
G75*
D01*
G03X11463Y10280I417J0*
G01*
X60649Y33349D02*
X60649Y-649D01*
X-49Y-649D01*
X-49Y33349D01*
X60649Y33349D01*
X2141Y4760D02*
X2141Y4601D01*
X2387Y4601D01*
X2387Y4760D01*
X2382Y4760D01*
X2145Y4760D01*
X2141Y4760D01*
X2046Y4795D02*
G75*
D01*
G02X2046Y5041I98J123*
G01*
X1801Y5041D01*
X1801Y4795D01*
X2046Y4795D01*
X34313Y7401D02*
X34313Y7403D01*
X34315Y7401D01*
X34313Y7401D01*
X23599Y9600D02*
G75*
D01*
G02X23658Y9742I201J0*
G01*
X23858Y9942D01*
G74*
D01*
G02X23971Y9999I142J141*
G01*
G75*
D01*
G02X24000Y10001I28J-199*
G01*
X27727Y10001D01*
G75*
D01*
G02X27600Y10599I189J353*
G01*
X27400Y10599D01*
G75*
D01*
G02X27371Y10601I-1J201*
G01*
G74*
D01*
G02X27258Y10658I29J199*
G01*
X27117Y10799D01*
X24083Y10799D01*
X24001Y10717D01*
X24001Y10400D01*
G75*
D01*
G02X23942Y10258I-201J0*
G01*
X23742Y10058D01*
G74*
D01*
G02X23666Y10010I142J141*
G01*
G75*
D01*
G02X23600Y9999I-66J190*
G01*
X23519Y9999D01*
G75*
D01*
G02X22971Y9622I-418J21*
G01*
G74*
D01*
G02X22937Y9608I93J177*
G01*
G75*
D01*
G02X22878Y9599I-59J191*
G01*
X22683Y9599D01*
X22601Y9517D01*
X22601Y9100D01*
G75*
D01*
G02X22575Y9001I-201J0*
G01*
X22681Y9001D01*
G75*
D01*
G02X23281Y9401I418J22*
G01*
X23517Y9401D01*
X23599Y9483D01*
X23599Y9600D01*
X34313Y9401D02*
X34313Y9403D01*
X34315Y9401D01*
X34313Y9401D01*
X22878Y10599D02*
X22483Y10599D01*
X22401Y10517D01*
X22401Y9885D01*
X22458Y9942D01*
G74*
D01*
G02X22571Y9999I142J141*
G01*
G75*
D01*
G02X22600Y10001I28J-199*
G01*
X22681Y10001D01*
G75*
D01*
G02X23281Y10401I418J22*
G01*
X23517Y10401D01*
X23599Y10483D01*
X23599Y10800D01*
G75*
D01*
G02X23658Y10942I201J0*
G01*
X23715Y10999D01*
X23519Y10999D01*
G75*
D01*
G02X22971Y10622I-418J21*
G01*
G74*
D01*
G02X22937Y10608I93J177*
G01*
G75*
D01*
G02X22878Y10599I-59J191*
G01*
X28104Y10001D02*
X28317Y10001D01*
X28399Y10083D01*
X28399Y10749D01*
X28380Y10710D01*
G74*
D01*
G02X28255Y10607I179J90*
G01*
G74*
D01*
G02X28230Y10601I59J191*
G01*
G75*
D01*
G02X28104Y10001I-313J-248*
G01*
X27727Y11001D02*
G74*
D01*
G02X27693Y11022I193J350*
G01*
G74*
D01*
G02X27628Y11001I93J177*
G01*
X27727Y11001D01*
X34313Y11401D02*
X34315Y11401D01*
X34313Y11403D01*
X34313Y11401D01*
X27542Y14058D02*
G74*
D01*
G03X27587Y14126I141J142*
G01*
G74*
D01*
G03X27727Y14001I329J228*
G01*
X27485Y14001D01*
X27542Y14058D01*
X33727Y15001D02*
G74*
D01*
G02X33559Y15173I189J353*
G01*
G74*
D01*
G02X33518Y15199I86J181*
G01*
X33485Y15199D01*
X33683Y15001D01*
X33727Y15001D01*
X34104Y15001D02*
X34117Y15001D01*
X34135Y15019D01*
G74*
D01*
G02X34104Y15001I216J337*
G01*
X28313Y15403D02*
G75*
D01*
G02X28293Y15221I-397J-48*
G01*
X28408Y15307D01*
X28313Y15403D01*
X27601Y16107D02*
G74*
D01*
G03X27727Y16001I315J247*
G01*
X27683Y16001D01*
X27601Y16083D01*
X27601Y16107D01*
X38175Y19001D02*
G75*
D01*
G03X38201Y19100I-175J99*
G01*
X38201Y20717D01*
X38283Y20799D01*
X38400Y20799D01*
G75*
D01*
G03X38436Y20802I1J201*
G01*
G75*
D01*
G03X38999Y20776I296J298*
G01*
X38999Y20424D01*
G75*
D01*
G03X39150Y20065I-266J-323*
G01*
X39158Y20058D01*
G74*
D01*
G03X39284Y20000I141J141*
G01*
G75*
D01*
G03X39300Y19999I20J199*
G01*
X39315Y19999D01*
X39258Y19942D01*
G75*
D01*
G03X39199Y19800I141J-142*
G01*
X39199Y19683D01*
X39058Y19542D01*
G74*
D01*
G03X39036Y19517I139J144*
G01*
G74*
D01*
G03X39002Y19521I34J146*
G01*
X38462Y19521D01*
G75*
D01*
G03X38311Y19370I0J-151*
G01*
X38311Y19001D01*
X38175Y19001D01*
X46858Y19658D02*
X46999Y19517D01*
X46999Y19483D01*
X46917Y19401D01*
X46691Y19401D01*
G75*
D01*
G03X46150Y18801I-197J-367*
G01*
X46083Y18801D01*
X46001Y18883D01*
X46001Y19800D01*
G74*
D01*
G03X45942Y19942I201J0*
G01*
X45885Y19999D01*
X46082Y19999D01*
G75*
D01*
G03X46805Y19750I416J33*
G01*
G74*
D01*
G03X46858Y19658I194J51*
G01*
X46913Y18999D02*
X46915Y18999D01*
X46913Y18997D01*
X46913Y18999D01*
X27519Y19403D02*
X27517Y19401D01*
X27485Y19401D01*
X27526Y19441D01*
G74*
D01*
G03X27519Y19403I388J91*
G01*
X38327Y21211D02*
X38317Y21201D01*
X38200Y21201D01*
G75*
D01*
G03X38171Y21199I-1J-201*
G01*
G74*
D01*
G03X38058Y21142I29J199*
G01*
X38001Y21085D01*
X38001Y21717D01*
X38083Y21799D01*
X38400Y21799D01*
G75*
D01*
G03X38436Y21802I1J201*
G01*
G75*
D01*
G03X38999Y21776I296J298*
G01*
X38999Y21424D01*
G75*
D01*
G03X38327Y21211I-268J-322*
G01*
X28294Y22222D02*
X28515Y22001D01*
X28483Y22001D01*
X28342Y22142D01*
G74*
D01*
G03X28279Y22185I142J141*
G01*
G74*
D01*
G03X28294Y22222I363J169*
G01*
X33727Y22001D02*
X33575Y22001D01*
G75*
D01*
G03X33601Y22100I-175J99*
G01*
X33601Y22107D01*
G74*
D01*
G03X33727Y22001I315J247*
G01*
X34104Y22001D02*
G75*
D01*
G03X34206Y22629I-187J353*
G01*
G74*
D01*
G03X34242Y22658I107J170*
G01*
X34319Y22735D01*
X34447Y22799D01*
X37100Y22799D01*
G75*
D01*
G03X37172Y22812I1J201*
G01*
G74*
D01*
G03X37199Y22825I73J187*
G01*
X37199Y21883D01*
X37117Y21801D01*
X34447Y21801D01*
X34319Y21865D01*
X34242Y21942D01*
G74*
D01*
G03X34172Y21988I142J140*
G01*
G74*
D01*
G03X34104Y22001I71J188*
G01*
X38000Y22201D02*
G75*
D01*
G03X37971Y22199I-1J-201*
G01*
G74*
D01*
G03X37858Y22142I29J199*
G01*
X37801Y22085D01*
X37801Y23717D01*
X37883Y23799D01*
X38400Y23799D01*
G75*
D01*
G03X38436Y23802I1J201*
G01*
G75*
D01*
G03X38999Y23776I296J298*
G01*
X38999Y23424D01*
G75*
D01*
G03X38999Y22776I-266J-324*
G01*
X38999Y22424D01*
G75*
D01*
G03X38327Y22211I-268J-322*
G01*
X38317Y22201D01*
X38000Y22201D01*
X28199Y22636D02*
G75*
D01*
G03X27640Y22644I-284J-281*
G01*
X27601Y22683D01*
X27601Y22800D01*
G74*
D01*
G03X27542Y22942I201J0*
G01*
X27485Y22999D01*
X27600Y22999D01*
G75*
D01*
G03X27612Y22999I6J201*
G01*
G74*
D01*
G03X27693Y23022I13J201*
G01*
G74*
D01*
G03X27735Y22997I225J330*
G01*
G74*
D01*
G03X27774Y22942I180J87*
G01*
X27858Y22858D01*
G74*
D01*
G03X27934Y22810I142J141*
G01*
G75*
D01*
G03X28000Y22799I66J190*
G01*
X28117Y22799D01*
X28199Y22717D01*
X28199Y22636D01*
X27701Y24017D02*
G75*
D01*
G03X28232Y24599I219J334*
G01*
X32915Y24599D01*
X32858Y24542D01*
G75*
D01*
G03X32799Y24400I141J-142*
G01*
X32799Y22683D01*
X32717Y22601D01*
X30347Y22601D01*
G75*
D01*
G03X29655Y22635I-347J-3*
G01*
G75*
D01*
G03X29116Y22201I-270J-217*
G01*
X28883Y22201D01*
X28601Y22483D01*
X28601Y22800D01*
G74*
D01*
G03X28542Y22942I201J0*
G01*
X28342Y23142D01*
G74*
D01*
G03X28279Y23185I142J141*
G01*
G75*
D01*
G03X27601Y23600I-362J169*
G01*
X27601Y23917D01*
X27701Y24017D01*
X33600Y23599D02*
G75*
D01*
G03X33727Y23001I314J-246*
G01*
X33600Y23001D01*
G75*
D01*
G03X33571Y22999I-1J-201*
G01*
G74*
D01*
G03X33458Y22942I29J199*
G01*
X33401Y22885D01*
X33401Y23517D01*
X33483Y23599D01*
X33600Y23599D01*
X23505Y22989D02*
X23515Y22999D01*
X23508Y22999D01*
G74*
D01*
G02X23505Y22989I404J116*
G01*
X23542Y23942D02*
X23883Y23601D01*
X27117Y23601D01*
X27199Y23683D01*
X27199Y23999D01*
G75*
D01*
G02X27258Y24142I201J1*
G01*
X27519Y24403D01*
G74*
D01*
G02X27600Y24599I397J49*
G01*
G74*
D01*
G02X27571Y24601I1J201*
G01*
G74*
D01*
G02X27458Y24658I29J199*
G01*
X27317Y24799D01*
X23867Y24799D01*
X23532Y24548D01*
X23442Y24458D01*
G74*
D01*
G02X23378Y24415I141J141*
G01*
G75*
D01*
G02X23501Y23974I-278J-315*
G01*
G74*
D01*
G02X23542Y23942I102J173*
G01*
X27519Y23403D02*
G74*
D01*
G02X27526Y23441I396J53*
G01*
X27485Y23401D01*
X27517Y23401D01*
X27519Y23403D01*
X36799Y24499D02*
X36799Y23483D01*
X36717Y23401D01*
X34683Y23401D01*
X34601Y23483D01*
X34601Y23600D01*
G74*
D01*
G03X34490Y23780I201J0*
G01*
X34319Y23865D01*
X34242Y23942D01*
G74*
D01*
G03X34172Y23988I142J140*
G01*
G74*
D01*
G03X34104Y24001I71J188*
G01*
G75*
D01*
G03X34232Y24599I-187J353*
G01*
X36825Y24599D01*
G75*
D01*
G03X36799Y24499I175J-99*
G01*
X34328Y23188D02*
G74*
D01*
G03X34310Y23180I73J187*
G01*
X34264Y23157D01*
G74*
D01*
G03X34294Y23222I346J199*
G01*
X34328Y23188D01*
X33500Y24399D02*
G75*
D01*
G03X33519Y24400I-1J201*
G01*
G75*
D01*
G03X33727Y24001I396J-47*
G01*
X33400Y24001D01*
G75*
D01*
G03X33371Y23999I-1J-201*
G01*
G74*
D01*
G03X33258Y23942I29J199*
G01*
X33201Y23885D01*
X33201Y24317D01*
X33283Y24399D01*
X33500Y24399D01*
X13399Y25028D02*
X13399Y25073D01*
G74*
D01*
G02X13390Y25064I299J290*
G01*
G74*
D01*
G02X13399Y25028I189J66*
G01*
X13401Y24972D02*
X13401Y24883D01*
X13483Y24801D01*
X13515Y24801D01*
X13458Y24858D01*
G74*
D01*
G02X13401Y24972I141J142*
G01*
X22751Y24867D02*
G74*
D01*
G02X22742Y24858I147J138*
G01*
X22685Y24801D01*
X22805Y24801D01*
G74*
D01*
G02X22751Y24867I296J298*
G01*
X27727Y25001D02*
G74*
D01*
G02X27693Y25022I193J350*
G01*
G74*
D01*
G02X27672Y25012I96J175*
G01*
X27683Y25001D01*
X27727Y25001D01*
X33701Y25017D02*
G74*
D01*
G03X33727Y25001I222J332*
G01*
X33700Y25001D01*
G75*
D01*
G03X33685Y25000I6J-201*
G01*
X33701Y25017D01*
X38437Y24801D02*
X38400Y24801D01*
G75*
D01*
G03X38371Y24799I-1J-201*
G01*
G74*
D01*
G03X38258Y24742I29J199*
G01*
X38201Y24685D01*
X38201Y25317D01*
X38283Y25399D01*
X38437Y25399D01*
G75*
D01*
G03X38437Y24801I295J-299*
G01*
X38998Y24775D02*
X38999Y24776D01*
X38999Y24775D01*
X38998Y24775D01*
X7999Y25978D02*
G74*
D01*
G03X7873Y26046I126J82*
G01*
X7396Y26046D01*
G74*
D01*
G03X7342Y26142I195J47*
G01*
X7201Y26283D01*
X7201Y26347D01*
G75*
D01*
G03X7801Y26199I377J237*
G01*
X7917Y26199D01*
X7999Y26117D01*
X7999Y25978D01*
X23184Y25600D02*
G74*
D01*
G02X23058Y25658I15J199*
G01*
X23030Y25686D01*
G74*
D01*
G02X22801Y25805I69J413*
G01*
X22801Y25395D01*
G75*
D01*
G02X23393Y25401I299J-295*
G01*
G75*
D01*
G02X23400Y25401I4J-201*
G01*
X23515Y25401D01*
X23317Y25599D01*
X23200Y25599D01*
G75*
D01*
G02X23184Y25600I5J201*
G01*
X27199Y25999D02*
G75*
D01*
G02X27258Y26142I201J1*
G01*
X27519Y26403D01*
G74*
D01*
G02X27600Y26599I397J49*
G01*
X22883Y26599D01*
X22801Y26517D01*
X22801Y26395D01*
G75*
D01*
G02X23501Y25974I300J-294*
G01*
G74*
D01*
G02X23542Y25942I102J173*
G01*
X23883Y25601D01*
X27117Y25601D01*
X27199Y25683D01*
X27199Y25999D01*
X27519Y25403D02*
G74*
D01*
G02X27526Y25441I396J53*
G01*
X27485Y25401D01*
X27517Y25401D01*
X27519Y25403D01*
X38058Y25742D02*
X38001Y25685D01*
X38001Y26317D01*
X38083Y26399D01*
X38437Y26399D01*
G75*
D01*
G03X38437Y25801I295J-299*
G01*
X38200Y25801D01*
G75*
D01*
G03X38171Y25799I-1J-201*
G01*
G74*
D01*
G03X38058Y25742I29J199*
G01*
X38998Y25775D02*
X38999Y25776D01*
X38999Y25775D01*
X38998Y25775D01*
X7201Y26822D02*
X7201Y26917D01*
X7283Y26999D01*
X7416Y26999D01*
G74*
D01*
G03X7201Y26822I161J415*
G01*
X7578Y21308D02*
X7270Y21000D01*
X7000Y21000D01*
X6800Y20800D01*
X6800Y15200D01*
X7000Y15000D01*
X7000Y14500D01*
X7000Y14400D01*
X7100Y14400D01*
X7200Y14200D01*
X7600Y14200D01*
X7800Y14000D01*
X7800Y8000D01*
X7600Y7800D01*
X2500Y7800D01*
X2400Y7700D01*
X2400Y5800D01*
X2200Y5600D01*
X1800Y5600D01*
X1600Y5400D01*
X1600Y4600D01*
X1800Y4500D01*
X1900Y4400D01*
X2400Y4400D01*
X2600Y4200D01*
X2600Y3400D01*
X33916Y25354D02*
X33754Y25354D01*
X33200Y24800D01*
X27600Y24800D01*
X27400Y25000D01*
X23800Y25000D01*
X23400Y24700D01*
X23300Y24600D01*
X13400Y24600D01*
X13200Y24800D01*
X13200Y25000D01*
X13097Y25103D01*
X13097Y25361D01*
X46498Y20032D02*
X46329Y20200D01*
X37500Y24200D02*
X37400Y24100D01*
X37400Y21800D01*
X37200Y21600D01*
X34400Y21600D01*
X34200Y21700D01*
X34100Y21800D01*
X28400Y21800D01*
X28200Y22000D01*
X28000Y22000D01*
X27916Y22084D01*
X27916Y22354D01*
X46329Y20200D02*
X39300Y20200D01*
X39200Y20300D01*
X39200Y24300D01*
X38900Y24600D01*
X38400Y24600D01*
X38200Y24400D01*
X38200Y24300D01*
X38100Y24200D01*
X37500Y24200D01*
X38732Y9022D02*
X38554Y9200D01*
X34070Y9200D01*
X33916Y9354D01*
X46498Y22032D02*
X46266Y21800D01*
X45800Y21800D01*
X45600Y21600D01*
X45600Y21000D01*
X45400Y20800D01*
X40000Y20800D01*
X39800Y21000D01*
X39800Y24900D01*
X39800Y25000D01*
X39700Y25000D01*
X39600Y25200D01*
X39600Y25700D01*
X39600Y25800D01*
X39500Y25800D01*
X39400Y26000D01*
X39400Y26500D01*
X39400Y26600D01*
X39300Y26600D01*
X39200Y26800D01*
X37700Y26800D01*
X37600Y26700D01*
X37600Y25000D01*
X37400Y24800D01*
X33700Y24800D01*
X33500Y24600D01*
X33200Y24600D01*
X33000Y24400D01*
X33000Y22600D01*
X32800Y22400D01*
X30200Y22400D01*
X30000Y22600D01*
X27916Y8354D02*
X28154Y8354D01*
X28200Y8400D01*
X28600Y8400D01*
X28800Y8600D01*
X28800Y13300D01*
X28700Y13400D01*
X28600Y13400D01*
X28200Y13700D01*
X28100Y13800D01*
X23322Y13800D01*
X23100Y14022D01*
X26400Y2000D02*
X26400Y1600D01*
X26200Y1400D01*
X9600Y1400D01*
X9400Y1600D01*
X9400Y7400D01*
X9320Y7480D01*
X9320Y7720D01*
X4114Y3737D02*
X3800Y3423D01*
X3800Y3400D01*
X2600Y2800D02*
X2508Y2800D01*
X2264Y2556D01*
X3800Y3400D02*
X2600Y3400D01*
X2600Y2800D01*
X13097Y23439D02*
X12858Y23200D01*
X8000Y23200D01*
X7800Y23000D01*
X7800Y22515D01*
X7578Y22292D01*
X13097Y25361D02*
X12858Y25600D01*
X8200Y26200D02*
X8000Y26400D01*
X7762Y26400D01*
X7578Y26584D01*
X12858Y25600D02*
X8300Y25600D01*
X8200Y25700D01*
X8200Y26200D01*
X23100Y8022D02*
X22878Y7800D01*
X22400Y7800D01*
X22200Y7600D01*
X21600Y2800D02*
X21400Y2600D01*
X21400Y2000D01*
X22200Y7600D02*
X22200Y2900D01*
X22100Y2800D01*
X21600Y2800D01*
X38732Y19100D02*
X38432Y18800D01*
X34400Y16800D02*
X34200Y16600D01*
X34000Y16600D01*
X33916Y16516D01*
X33916Y16354D01*
X38432Y18800D02*
X34500Y18800D01*
X34400Y18700D01*
X34400Y16800D01*
X8000Y7600D02*
X8000Y14600D01*
X7578Y14600D01*
X7578Y14800D01*
X38732Y11022D02*
X38554Y11200D01*
X34070Y11200D01*
X33916Y11354D01*
X23100Y10022D02*
X22878Y9800D01*
X22600Y9800D01*
X22400Y9600D01*
X21900Y9000D02*
X21800Y8900D01*
X19600Y3200D02*
X19400Y3000D01*
X19400Y2000D01*
X22400Y9600D02*
X22400Y9100D01*
X22300Y9000D01*
X21900Y9000D01*
X21800Y8900D02*
X21800Y3300D01*
X21700Y3200D01*
X19600Y3200D01*
X46498Y29032D02*
X46266Y28800D01*
X34200Y28800D01*
X34000Y28600D01*
X34000Y26600D01*
X33916Y26516D01*
X33916Y26354D01*
X46498Y19032D02*
X46666Y19200D01*
X47000Y19200D01*
X47200Y19400D01*
X47200Y19600D01*
X47000Y19800D01*
X47000Y20300D01*
X47000Y20400D01*
X46900Y20400D01*
X46800Y20600D01*
X46300Y20600D01*
X46200Y20600D01*
X46200Y20500D01*
X46000Y20400D01*
X38200Y25600D02*
X38000Y25400D01*
X37300Y24400D02*
X37200Y24300D01*
X34400Y23000D02*
X34200Y22900D01*
X34100Y22800D01*
X33600Y22800D01*
X33400Y22600D01*
X28800Y22000D02*
X28400Y22400D01*
X28400Y22800D01*
X28200Y23000D01*
X28000Y23000D01*
X27916Y23084D01*
X27916Y23354D01*
X46000Y20400D02*
X39500Y20400D01*
X39400Y20500D01*
X39400Y24500D01*
X39200Y24700D01*
X39200Y25300D01*
X38900Y25600D01*
X38200Y25600D01*
X38000Y25400D02*
X38000Y24500D01*
X37900Y24400D01*
X37300Y24400D01*
X37200Y24300D02*
X37200Y23100D01*
X37100Y23000D01*
X34400Y23000D01*
X33400Y22600D02*
X33400Y22100D01*
X33300Y22000D01*
X28800Y22000D01*
X38732Y10022D02*
X38510Y9800D01*
X38200Y9800D01*
X37800Y9400D01*
X34600Y9400D01*
X34400Y9600D01*
X34400Y9800D01*
X34200Y10000D01*
X34000Y10000D01*
X33916Y10084D01*
X33916Y10354D01*
X46498Y21032D02*
X46266Y20800D01*
X46000Y20800D01*
X45800Y20600D01*
X38000Y26600D02*
X37800Y26400D01*
X37100Y24600D02*
X37000Y24500D01*
X37000Y23400D01*
X36800Y23200D01*
X34600Y23200D01*
X34400Y23400D01*
X34400Y23600D01*
X34200Y23700D01*
X34100Y23800D01*
X33400Y23800D01*
X33200Y23600D01*
X29600Y22200D02*
X29400Y22400D01*
X45800Y20600D02*
X39700Y20600D01*
X39600Y20700D01*
X39600Y24700D01*
X39400Y24900D01*
X39400Y25500D01*
X39200Y25700D01*
X39200Y26300D01*
X38900Y26600D01*
X38000Y26600D01*
X37800Y26400D02*
X37800Y24700D01*
X37700Y24600D01*
X37100Y24600D01*
X33200Y23600D02*
X33200Y22300D01*
X33100Y22200D01*
X29600Y22200D01*
X46498Y25032D02*
X46729Y24800D01*
X47200Y24800D01*
X47400Y24600D01*
X47400Y19100D01*
X47300Y19000D01*
X47200Y19000D01*
X47000Y18800D01*
X47000Y18700D01*
X46900Y18600D01*
X46000Y18600D01*
X45800Y18800D01*
X45800Y19800D01*
X45600Y20000D01*
X39600Y20000D01*
X39400Y19800D01*
X39400Y19600D01*
X39200Y19400D01*
X39200Y18700D01*
X39100Y18600D01*
X34800Y18600D01*
X34600Y18400D01*
X34600Y15200D01*
X34200Y14800D01*
X33600Y14800D01*
X33200Y15200D01*
X28600Y15200D01*
X28200Y14900D01*
X28100Y14800D01*
X27600Y14800D01*
X27400Y14600D01*
X27400Y14200D01*
X27200Y14000D01*
X23800Y14000D01*
X23600Y14200D01*
X23600Y14400D01*
X23400Y14500D01*
X23300Y14600D01*
X22600Y14600D01*
X22400Y14400D01*
X22400Y13400D01*
X22600Y13200D01*
X22922Y13200D01*
X23100Y13022D01*
X27916Y26354D02*
X27754Y26354D01*
X27400Y26000D01*
X27400Y25600D01*
X27200Y25400D01*
X23800Y25400D01*
X23400Y25800D01*
X23200Y25800D01*
X23100Y25900D01*
X23100Y26100D01*
X27916Y25354D02*
X27754Y25354D01*
X27600Y25200D01*
X23400Y25200D01*
X23300Y25100D01*
X23100Y25100D01*
X38732Y12022D02*
X38510Y11800D01*
X38200Y11800D01*
X37800Y11400D01*
X34600Y11400D01*
X34400Y11600D01*
X34400Y11800D01*
X34200Y12000D01*
X34000Y12000D01*
X33916Y12084D01*
X33916Y12354D01*
X38732Y21100D02*
X38500Y21100D01*
X38400Y21000D01*
X38200Y21000D01*
X38000Y20800D01*
X34300Y19000D02*
X34200Y18900D01*
X34200Y18400D01*
X34154Y18354D01*
X33916Y18354D01*
X38000Y20800D02*
X38000Y19100D01*
X37900Y19000D01*
X34300Y19000D01*
X27916Y20354D02*
X27754Y20354D01*
X27400Y20000D01*
X27400Y19600D01*
X27200Y19400D01*
X24000Y19400D01*
X23800Y19600D01*
X23800Y19800D01*
X23600Y20000D01*
X23400Y20000D01*
X23300Y20100D01*
X23100Y20100D01*
X27916Y19354D02*
X27754Y19354D01*
X27600Y19200D01*
X23100Y19200D01*
X23100Y19100D01*
X27916Y12354D02*
X28070Y12200D01*
X28200Y12200D01*
X28400Y12000D01*
X28400Y11100D01*
X28400Y11000D01*
X28300Y11000D01*
X28200Y10800D01*
X27400Y10800D01*
X27200Y11000D01*
X24000Y11000D01*
X23800Y10800D01*
X23800Y10400D01*
X23600Y10200D01*
X23278Y10200D01*
X23100Y10022D01*
X38732Y7022D02*
X38732Y7200D01*
X34070Y7200D01*
X33916Y7354D01*
X23100Y7022D02*
X22800Y6722D01*
X22800Y6600D01*
X22600Y6600D01*
X22400Y6400D01*
X22400Y2000D01*
X38732Y8022D02*
X38510Y7800D01*
X38200Y7800D01*
X37800Y7400D01*
X34600Y7400D01*
X34400Y7600D01*
X34400Y7800D01*
X34200Y8000D01*
X34000Y8000D01*
X33916Y8084D01*
X33916Y8354D01*
X13103Y13200D02*
X12800Y12897D01*
X12800Y12800D01*
X9400Y10600D02*
X9320Y10520D01*
X9320Y10280D01*
X12800Y12800D02*
X9400Y12800D01*
X9400Y10600D01*
X9320Y7720D02*
X9120Y7720D01*
X9000Y7600D01*
X2800Y7600D01*
X2600Y7400D01*
X2600Y5200D01*
X2545Y5200D01*
X2264Y4918D01*
X27916Y11354D02*
X27754Y11354D01*
X27600Y11200D01*
X23278Y11200D01*
X23100Y11022D01*
X27916Y22354D02*
X27646Y22354D01*
X27400Y22600D01*
X27400Y22800D01*
X27200Y23000D01*
X23800Y23000D01*
X23600Y22800D01*
X23600Y22600D01*
X23400Y22400D01*
X23200Y22400D01*
X23100Y22300D01*
X23100Y22100D01*
X38732Y13022D02*
X38554Y13200D01*
X38200Y13200D01*
X38000Y13400D01*
X38000Y13800D01*
X37800Y14000D01*
X34600Y14000D01*
X34200Y13600D01*
X34000Y13600D01*
X33916Y13516D01*
X33916Y13354D01*
X38732Y24100D02*
X38500Y24100D01*
X38400Y24000D01*
X37800Y24000D01*
X37600Y23800D01*
X34200Y21400D02*
X34154Y21354D01*
X33916Y21354D01*
X37600Y23800D02*
X37600Y21500D01*
X37500Y21400D01*
X34200Y21400D01*
X38732Y22100D02*
X38500Y22100D01*
X38400Y22000D01*
X38000Y22000D01*
X37800Y21800D01*
X37800Y19400D01*
X37600Y19200D01*
X34070Y19200D01*
X33916Y19354D01*
X9400Y12800D02*
X8400Y12800D01*
X8200Y13000D01*
X8200Y15400D01*
X8000Y15600D01*
X7762Y15600D01*
X7578Y15784D01*
X27916Y8354D02*
X27754Y8354D01*
X27400Y8000D01*
X27400Y7600D01*
X27200Y7400D01*
X26300Y7400D01*
X26200Y7300D01*
X26200Y3000D01*
X26000Y2800D01*
X23600Y2800D01*
X23400Y2600D01*
X23400Y2000D01*
X23100Y9022D02*
X22878Y8800D01*
X22200Y8800D01*
X22000Y8600D01*
X20600Y3000D02*
X20400Y2800D01*
X20400Y2000D01*
X22000Y8600D02*
X22000Y3100D01*
X21900Y3000D01*
X20600Y3000D01*
X27916Y13354D02*
X28070Y13200D01*
X28400Y13200D01*
X28600Y13000D01*
X28600Y10000D01*
X28400Y9800D01*
X24000Y9800D01*
X23800Y9600D01*
X23800Y9400D01*
X23600Y9200D01*
X23278Y9200D01*
X23100Y9022D01*
X23100Y11022D02*
X22878Y10800D01*
X22400Y10800D01*
X22200Y10600D01*
X22200Y9400D01*
X22000Y9200D01*
X21700Y9200D01*
X21600Y9100D01*
X21600Y3600D01*
X21400Y3400D01*
X19300Y3400D01*
X19200Y3300D01*
X19200Y3000D01*
X19000Y2800D01*
X18600Y2800D01*
X18400Y2600D01*
X18400Y2000D01*
X27916Y24354D02*
X27754Y24354D01*
X27400Y24000D01*
X27400Y23600D01*
X27200Y23400D01*
X23800Y23400D01*
X23400Y23800D01*
X23200Y23800D01*
X23100Y23900D01*
X23100Y24100D01*
X27916Y23354D02*
X27754Y23354D01*
X27600Y23200D01*
X23400Y23200D01*
X23300Y23100D01*
X23100Y23100D01*
X33916Y15354D02*
X33646Y15354D01*
X33600Y15400D01*
X28600Y15400D01*
X28200Y15800D01*
X27600Y15800D01*
X27400Y16000D01*
X27400Y18800D01*
X27200Y19000D01*
X23800Y19000D01*
X23600Y18800D01*
X23600Y18700D01*
X23500Y18600D01*
X13385Y18600D01*
X13103Y18318D01*
X34000Y26800D02*
X22800Y26800D01*
X22600Y26600D01*
X22600Y25000D01*
X22400Y24800D01*
X13800Y24800D01*
X13600Y25000D01*
X13600Y25700D01*
X13500Y25800D01*
X8600Y25800D01*
X8400Y26000D01*
X8400Y26500D01*
X8400Y26600D01*
X8300Y26600D01*
X7800Y27100D01*
X7700Y27200D01*
X7200Y27200D01*
X7000Y27000D01*
X7000Y26200D01*
X7200Y26000D01*
X7200Y25800D01*
X7578Y25800D01*
X7578Y25600D01*
X38732Y14022D02*
X38554Y14200D01*
X34070Y14200D01*
X33916Y14354D01*
X27916Y7354D02*
X27754Y7354D01*
X27600Y7200D01*
X26600Y7200D01*
X26400Y7000D01*
X26400Y2000D01*
X27916Y21354D02*
X27754Y21354D01*
X27600Y21200D01*
X23400Y21200D01*
X23300Y21100D01*
X23100Y21100D01*
X46498Y28032D02*
X46498Y27898D01*
X46400Y27800D01*
X46400Y27400D01*
X46498Y27302D01*
X46498Y27032D01*
G54D12*
G36*
X2579Y2359D02*
X2579Y2359D01*
X2579Y2753D01*
X1949Y2753D01*
X1949Y2359D01*
X2579Y2359D01*
D02*
G37*
X2579Y2753D01*
X1949Y2753D01*
X1949Y2359D01*
X2579Y2359D01*
G36*
X2579Y4721D02*
X2579Y4721D01*
X2579Y5115D01*
X1949Y5115D01*
X1949Y4721D01*
X2579Y4721D01*
D02*
G37*
X2579Y5115D01*
X1949Y5115D01*
X1949Y4721D01*
X2579Y4721D01*
G36*
X3917Y3422D02*
X3917Y3422D01*
X4311Y3422D01*
X4311Y4052D01*
X3917Y4052D01*
X3917Y3422D01*
D02*
G37*
X4311Y3422D01*
X4311Y4052D01*
X3917Y4052D01*
X3917Y3422D01*
G54D13*
X-350Y-950D02*
X-350Y2510D01*
X-350Y-950D02*
X5780Y-950D01*
X60950Y-950D02*
X54820Y-950D01*
X60950Y-950D02*
X60950Y2510D01*
X60950Y33650D02*
X60950Y30190D01*
X60950Y33650D02*
X54820Y33650D01*
X-350Y33650D02*
X5780Y33650D01*
X-350Y33650D02*
X-350Y30190D01*
X-2319Y-950D02*
X-6256Y-950D01*
X-4287Y-2919D02*
X-4287Y1019D01*
X-5763Y-950D02*
G75*
D01*
G02X-5763Y-950I1476J0*
G01*
X62919Y-950D02*
X66856Y-950D01*
X64887Y-2919D02*
X64887Y1019D01*
X63411Y-950D02*
G75*
D01*
G02X63411Y-950I1476J0*
G01*
X64395Y-950D02*
G75*
D01*
G02X64395Y-950I492J0*
G01*
X-2319Y33650D02*
X-6256Y33650D01*
X-4287Y31681D02*
X-4287Y35619D01*
X-5763Y33650D02*
G75*
D01*
G02X-5763Y33650I1476J0*
G01*
X-5271Y33650D02*
G75*
D01*
G02X-5271Y33650I984J0*
G01*
X-4779Y33650D02*
G75*
D01*
G02X-4779Y33650I492J0*
G01*
G54D14*
X23100Y26100D03*
X23100Y25100D03*
X23100Y24100D03*
X23100Y23100D03*
X23100Y22100D03*
X23100Y21100D03*
X23100Y20100D03*
X38732Y26100D03*
X38732Y25100D03*
X38732Y24100D03*
X38732Y23100D03*
X38732Y22100D03*
X38732Y21100D03*
X38732Y20100D03*
X23100Y14022D03*
X23100Y13022D03*
X23100Y12022D03*
X23100Y11022D03*
X23100Y10022D03*
X23100Y9022D03*
X23100Y8022D03*
X38732Y14022D03*
X38732Y13022D03*
X38732Y12022D03*
X38732Y11022D03*
X38732Y10022D03*
X38732Y9022D03*
X38732Y8022D03*
G54D15*
X23100Y19100D03*
X38732Y19100D03*
X23100Y7022D03*
X38732Y7022D03*
G54D16*
X33916Y12354D03*
X27916Y12354D03*
X27916Y9354D03*
X27916Y8354D03*
X27916Y7354D03*
X27916Y11354D03*
X27916Y10354D03*
X27916Y18354D03*
X27916Y15354D03*
X27916Y14354D03*
X27916Y13354D03*
X27916Y17354D03*
X27916Y16354D03*
X27916Y21354D03*
X27916Y20354D03*
X27916Y19354D03*
X27916Y24354D03*
X27916Y23354D03*
X27916Y22354D03*
X27916Y25354D03*
X27916Y26354D03*
X33916Y9354D03*
X33916Y8354D03*
X33916Y7354D03*
X33916Y11354D03*
X33916Y10354D03*
X33916Y18354D03*
X33916Y15354D03*
X33916Y14354D03*
X33916Y13354D03*
X33916Y16354D03*
X33916Y17354D03*
X33916Y21354D03*
X33916Y19354D03*
X33916Y20354D03*
X33916Y24354D03*
X33916Y22354D03*
X33916Y23354D03*
X33916Y25354D03*
X33916Y26354D03*
G54D17*
X46498Y29032D03*
X46498Y28032D03*
X46498Y27032D03*
X46498Y26032D03*
X46498Y25032D03*
X46498Y24032D03*
X46498Y23032D03*
X46498Y22032D03*
X46498Y21032D03*
X46498Y20032D03*
X46498Y19032D03*
X46498Y18032D03*
X46498Y17032D03*
X46498Y16032D03*
X46498Y15032D03*
X46498Y14032D03*
X58702Y29032D03*
X58702Y28032D03*
X58702Y27032D03*
X58702Y26032D03*
X58702Y25032D03*
X58702Y24032D03*
X58702Y23032D03*
X58702Y22032D03*
X58702Y21032D03*
X58702Y20032D03*
X58702Y19032D03*
X58702Y18032D03*
X58702Y17032D03*
X58702Y16032D03*
X58702Y15032D03*
X58702Y14032D03*
X13097Y23439D03*
X13097Y25361D03*
X9320Y7720D03*
X11880Y7720D03*
X9320Y10280D03*
X11880Y10280D03*
X18400Y2000D03*
X19400Y2000D03*
X20400Y2000D03*
X21400Y2000D03*
X22400Y2000D03*
X23400Y2000D03*
X24400Y2000D03*
X25400Y2000D03*
X26400Y2000D03*
G54D18*
X13103Y18318D03*
X7578Y15784D03*
X7578Y22292D03*
X7578Y26584D03*
G54D19*
X13103Y13200D03*
X7578Y14800D03*
X7578Y21308D03*
X7578Y25600D03*
G54D20*
X29400Y22400D03*
X30000Y22600D03*

M02*
