G04 Generated by Ultiboard 13.0 *
%FSLAX24Y24*%
%MOIN*%

%ADD10C,0.0001*%
%ADD11C,0.0001*%
%ADD12C,0.0050*%
%ADD13C,0.0540*%
%ADD14R,0.0540X0.0540*%
%ADD15C,0.0500*%
%ADD16C,0.0534*%
%ADD17C,0.0591*%
%ADD18C,0.0394*%


G04 ColorRGB 9900CC for the following layer *
%LNSolder Mask Bottom*%
%LPD*%
G54D10*
G54D11*
G36*
X2579Y2359D02*
X2579Y2359D01*
X2579Y2753D01*
X1949Y2753D01*
X1949Y2359D01*
X2579Y2359D01*
D02*
G37*
X2579Y2753D01*
X1949Y2753D01*
X1949Y2359D01*
X2579Y2359D01*
G36*
X2579Y4721D02*
X2579Y4721D01*
X2579Y5115D01*
X1949Y5115D01*
X1949Y4721D01*
X2579Y4721D01*
D02*
G37*
X2579Y5115D01*
X1949Y5115D01*
X1949Y4721D01*
X2579Y4721D01*
G36*
X3917Y3422D02*
X3917Y3422D01*
X4311Y3422D01*
X4311Y4052D01*
X3917Y4052D01*
X3917Y3422D01*
D02*
G37*
X4311Y3422D01*
X4311Y4052D01*
X3917Y4052D01*
X3917Y3422D01*
G54D12*
X-350Y-950D02*
X-350Y2510D01*
X-350Y-950D02*
X5780Y-950D01*
X60950Y-950D02*
X54820Y-950D01*
X60950Y-950D02*
X60950Y2510D01*
X60950Y33650D02*
X60950Y30190D01*
X60950Y33650D02*
X54820Y33650D01*
X-350Y33650D02*
X5780Y33650D01*
X-350Y33650D02*
X-350Y30190D01*
X-2319Y-950D02*
X-6256Y-950D01*
X-4287Y-2919D02*
X-4287Y1019D01*
X-5763Y-950D02*
G75*
D01*
G02X-5763Y-950I1476J0*
G01*
X62919Y-950D02*
X66856Y-950D01*
X64887Y-2919D02*
X64887Y1019D01*
X63411Y-950D02*
G75*
D01*
G02X63411Y-950I1476J0*
G01*
X64395Y-950D02*
G75*
D01*
G02X64395Y-950I492J0*
G01*
X-2319Y33650D02*
X-6256Y33650D01*
X-4287Y31681D02*
X-4287Y35619D01*
X-5763Y33650D02*
G75*
D01*
G02X-5763Y33650I1476J0*
G01*
X-5271Y33650D02*
G75*
D01*
G02X-5271Y33650I984J0*
G01*
X-4779Y33650D02*
G75*
D01*
G02X-4779Y33650I492J0*
G01*
G54D13*
X23100Y26100D03*
X23100Y25100D03*
X23100Y24100D03*
X23100Y23100D03*
X23100Y22100D03*
X23100Y21100D03*
X23100Y20100D03*
X38732Y26100D03*
X38732Y25100D03*
X38732Y24100D03*
X38732Y23100D03*
X38732Y22100D03*
X38732Y21100D03*
X38732Y20100D03*
X23100Y14022D03*
X23100Y13022D03*
X23100Y12022D03*
X23100Y11022D03*
X23100Y10022D03*
X23100Y9022D03*
X23100Y8022D03*
X38732Y14022D03*
X38732Y13022D03*
X38732Y12022D03*
X38732Y11022D03*
X38732Y10022D03*
X38732Y9022D03*
X38732Y8022D03*
G54D14*
X23100Y19100D03*
X38732Y19100D03*
X23100Y7022D03*
X38732Y7022D03*
G54D15*
X33916Y12354D03*
X27916Y12354D03*
X27916Y9354D03*
X27916Y8354D03*
X27916Y7354D03*
X27916Y11354D03*
X27916Y10354D03*
X27916Y18354D03*
X27916Y15354D03*
X27916Y14354D03*
X27916Y13354D03*
X27916Y17354D03*
X27916Y16354D03*
X27916Y21354D03*
X27916Y20354D03*
X27916Y19354D03*
X27916Y24354D03*
X27916Y23354D03*
X27916Y22354D03*
X27916Y25354D03*
X27916Y26354D03*
X33916Y9354D03*
X33916Y8354D03*
X33916Y7354D03*
X33916Y11354D03*
X33916Y10354D03*
X33916Y18354D03*
X33916Y15354D03*
X33916Y14354D03*
X33916Y13354D03*
X33916Y16354D03*
X33916Y17354D03*
X33916Y21354D03*
X33916Y19354D03*
X33916Y20354D03*
X33916Y24354D03*
X33916Y22354D03*
X33916Y23354D03*
X33916Y25354D03*
X33916Y26354D03*
G54D16*
X46498Y29032D03*
X46498Y28032D03*
X46498Y27032D03*
X46498Y26032D03*
X46498Y25032D03*
X46498Y24032D03*
X46498Y23032D03*
X46498Y22032D03*
X46498Y21032D03*
X46498Y20032D03*
X46498Y19032D03*
X46498Y18032D03*
X46498Y17032D03*
X46498Y16032D03*
X46498Y15032D03*
X46498Y14032D03*
X58702Y29032D03*
X58702Y28032D03*
X58702Y27032D03*
X58702Y26032D03*
X58702Y25032D03*
X58702Y24032D03*
X58702Y23032D03*
X58702Y22032D03*
X58702Y21032D03*
X58702Y20032D03*
X58702Y19032D03*
X58702Y18032D03*
X58702Y17032D03*
X58702Y16032D03*
X58702Y15032D03*
X58702Y14032D03*
X13097Y23439D03*
X13097Y25361D03*
X9320Y7720D03*
X11880Y7720D03*
X9320Y10280D03*
X11880Y10280D03*
X18400Y2000D03*
X19400Y2000D03*
X20400Y2000D03*
X21400Y2000D03*
X22400Y2000D03*
X23400Y2000D03*
X24400Y2000D03*
X25400Y2000D03*
X26400Y2000D03*
G54D17*
X13103Y18318D03*
X13103Y13200D03*
X7578Y15784D03*
X7578Y14800D03*
X7578Y22292D03*
X7578Y21308D03*
X7578Y26584D03*
X7578Y25600D03*
G54D18*
X29400Y22400D03*
X30000Y22600D03*

M02*
