G04 Generated by Ultiboard 13.0 *
%FSLAX24Y24*%
%MOIN*%

%ADD10C,0.0001*%
%ADD11C,0.0001*%
%ADD12C,0.0070*%
%ADD13C,0.0080*%
%ADD14C,0.0039*%
%ADD15C,0.0001*%
%ADD16C,0.0050*%


G04 ColorRGB 0000FF for the following layer *
%LN3D-Info Top*%
%LPD*%
G54D10*
G54D11*
X23560Y26540D02*
X22640Y26540D01*
X22640Y18660D01*
X23560Y18660D01*
X23560Y26540D01*
X39192Y26540D02*
X38272Y26540D01*
X38272Y18660D01*
X39192Y18660D01*
X39192Y26540D01*
X23560Y14462D02*
X22640Y14462D01*
X22640Y6582D01*
X23560Y6582D01*
X23560Y14462D01*
X39192Y14462D02*
X38272Y14462D01*
X38272Y6582D01*
X39192Y6582D01*
X39192Y14462D01*
G54D12*
X34416Y6604D02*
X34416Y27104D01*
X27416Y6604D02*
X27416Y27104D01*
X31416Y6604D02*
X31414Y6647D01*
X31408Y6691D01*
X31399Y6733D01*
X31386Y6775D01*
X31369Y6815D01*
X31349Y6854D01*
X31325Y6891D01*
X31299Y6925D01*
X31269Y6957D01*
X31237Y6987D01*
X31203Y7013D01*
X31166Y7037D01*
X31127Y7057D01*
X31087Y7074D01*
X31045Y7087D01*
X31003Y7096D01*
X30959Y7102D01*
X30916Y7104D01*
X30872Y7102D01*
X30829Y7096D01*
X30786Y7087D01*
X30745Y7074D01*
X30705Y7057D01*
X30666Y7037D01*
X30629Y7013D01*
X30594Y6987D01*
X30562Y6957D01*
X30533Y6925D01*
X30506Y6891D01*
X30483Y6854D01*
X30463Y6815D01*
X30446Y6775D01*
X30433Y6733D01*
X30423Y6691D01*
X30418Y6647D01*
X30416Y6604D01*
X31416Y6604D02*
X34416Y6604D01*
X30416Y6604D02*
X27416Y6604D01*
X34416Y27104D02*
X27416Y27104D01*
G54D13*
X45513Y32548D02*
X45513Y1052D01*
X59687Y1052D01*
X59687Y32548D01*
X52403Y32548D02*
X52404Y32531D01*
X52406Y32514D01*
X52410Y32497D01*
X52415Y32481D01*
X52422Y32465D01*
X52430Y32450D01*
X52439Y32435D01*
X52449Y32421D01*
X52461Y32409D01*
X52473Y32397D01*
X52487Y32387D01*
X52502Y32378D01*
X52517Y32370D01*
X52533Y32363D01*
X52549Y32358D01*
X52566Y32354D01*
X52583Y32352D01*
X52600Y32351D01*
X52617Y32352D01*
X52634Y32354D01*
X52651Y32358D01*
X52667Y32363D01*
X52683Y32370D01*
X52698Y32378D01*
X52713Y32387D01*
X52727Y32397D01*
X52739Y32409D01*
X52751Y32421D01*
X52761Y32435D01*
X52770Y32450D01*
X52778Y32465D01*
X52785Y32481D01*
X52790Y32497D01*
X52794Y32514D01*
X52796Y32531D01*
X52797Y32548D01*
X59687Y32548D02*
X52797Y32548D01*
X52403Y32548D02*
X45513Y32548D01*
X14081Y22136D02*
X14081Y26664D01*
X12113Y26664D01*
X12113Y22136D01*
X14081Y22136D01*
X9419Y7819D02*
X11781Y7819D01*
X11781Y10181D01*
X9419Y10181D01*
X9419Y8803D02*
X9436Y8804D01*
X9453Y8806D01*
X9470Y8810D01*
X9486Y8815D01*
X9502Y8822D01*
X9517Y8830D01*
X9532Y8839D01*
X9545Y8849D01*
X9558Y8861D01*
X9570Y8873D01*
X9580Y8887D01*
X9589Y8902D01*
X9597Y8917D01*
X9604Y8933D01*
X9609Y8949D01*
X9613Y8966D01*
X9615Y8983D01*
X9616Y9000D01*
X9615Y9017D01*
X9613Y9034D01*
X9609Y9051D01*
X9604Y9067D01*
X9597Y9083D01*
X9589Y9098D01*
X9580Y9113D01*
X9570Y9127D01*
X9558Y9139D01*
X9545Y9151D01*
X9532Y9161D01*
X9517Y9170D01*
X9502Y9178D01*
X9486Y9185D01*
X9470Y9190D01*
X9453Y9194D01*
X9436Y9196D01*
X9419Y9197D01*
X9419Y10181D02*
X9419Y9197D01*
X9419Y8803D02*
X9419Y7819D01*
X17910Y750D02*
X26890Y750D01*
X26890Y3250D01*
X17910Y3250D01*
X17910Y750D01*
G54D14*
X12611Y14381D02*
X13575Y14381D01*
X13575Y17137D01*
X12611Y17137D01*
X12611Y14381D01*
X7105Y16060D02*
X7105Y14446D01*
G75*
D01*
G03X7263Y14288I158J0*
G01*
X7893Y14288D01*
G75*
D01*
G03X8050Y14446I-1J158*
G01*
X8050Y16060D01*
G74*
D01*
G03X7893Y16217I157J0*
G01*
X7263Y16217D01*
G75*
D01*
G03X7105Y16060I-1J-157*
G01*
X7105Y22568D02*
X7105Y20954D01*
G75*
D01*
G03X7263Y20796I158J0*
G01*
X7893Y20796D01*
G75*
D01*
G03X8050Y20954I-1J158*
G01*
X8050Y22568D01*
G74*
D01*
G03X7893Y22725I157J0*
G01*
X7263Y22725D01*
G75*
D01*
G03X7105Y22568I-1J-157*
G01*
X7105Y26860D02*
X7105Y25246D01*
G75*
D01*
G03X7263Y25088I158J0*
G01*
X7893Y25088D01*
G75*
D01*
G03X8050Y25246I-1J158*
G01*
X8050Y26860D01*
G74*
D01*
G03X7893Y27017I157J0*
G01*
X7263Y27017D01*
G75*
D01*
G03X7105Y26860I-1J-157*
G01*
G54D15*
X1082Y-82D02*
X3445Y-82D01*
X3445Y509D01*
X1082Y509D01*
X1082Y-82D01*
X492Y4800D02*
X4035Y4800D01*
X4035Y-476D01*
X492Y-476D01*
X492Y4800D01*
X492Y509D02*
X4035Y509D01*
X4035Y902D01*
X492Y902D01*
X492Y509D01*
X492Y-82D02*
X4035Y-82D01*
X4035Y509D01*
X492Y509D01*
X492Y-82D01*
X492Y-476D02*
X4035Y-476D01*
X4035Y-82D01*
X492Y-82D01*
X492Y-476D01*
X492Y5194D02*
X1673Y5194D01*
X1673Y4800D01*
X492Y4800D01*
X492Y5194D01*
X2854Y5194D02*
X4035Y5194D01*
X4035Y4800D01*
X2854Y4800D01*
X2854Y5194D01*
X1673Y4800D02*
X2854Y4800D01*
X2854Y4957D01*
X1673Y4957D01*
X1673Y4800D01*
G54D16*
X-350Y-950D02*
X-350Y2510D01*
X-350Y-950D02*
X5780Y-950D01*
X60950Y-950D02*
X54820Y-950D01*
X60950Y-950D02*
X60950Y2510D01*
X60950Y33650D02*
X60950Y30190D01*
X60950Y33650D02*
X54820Y33650D01*
X-350Y33650D02*
X5780Y33650D01*
X-350Y33650D02*
X-350Y30190D01*
X-2319Y-950D02*
X-6256Y-950D01*
X-4287Y-2919D02*
X-4287Y1019D01*
X-5763Y-950D02*
G75*
D01*
G02X-5763Y-950I1476J0*
G01*
X62919Y-950D02*
X66856Y-950D01*
X64887Y-2919D02*
X64887Y1019D01*
X63411Y-950D02*
G75*
D01*
G02X63411Y-950I1476J0*
G01*
X64395Y-950D02*
G75*
D01*
G02X64395Y-950I492J0*
G01*
X-2319Y33650D02*
X-6256Y33650D01*
X-4287Y31681D02*
X-4287Y35619D01*
X-5763Y33650D02*
G75*
D01*
G02X-5763Y33650I1476J0*
G01*
X-5271Y33650D02*
G75*
D01*
G02X-5271Y33650I984J0*
G01*
X-4779Y33650D02*
G75*
D01*
G02X-4779Y33650I492J0*
G01*

M02*
