M48
INCH,TZ
VER,1
FMAT,2
DETECT,ON
ATC,ON
T1C0.0394
T2C0.0236
T3C0.0350
T4C0.0400
T5C0.0354
T6C0.0315
%
T1
X3.4620Y1.5980
Y1.3420
X3.7180Y1.5980
Y1.3420
X0.5700Y1.2861
Y1.0939
X3.0500Y0.3500
X2.9500
X2.8500
X2.7500
X2.6500
X2.5500
X2.4500
X2.3500
X2.2500
X3.4900Y0.1700
X3.6900
X3.5900Y0.3700
X0.4868Y1.9198
X0.5868
X0.6868
X0.7868
X0.8868
X0.9868
X1.0868
X1.1868
X1.2868
X1.3868
X1.4868
X1.5868
X1.6868
X1.7868
X1.8868
X1.9868
X0.4868Y3.1402
X0.5868
X0.6868
X0.7868
X0.8868
X0.9868
X1.0868
X1.1868
X1.2868
X1.3868
X1.4868
X1.5868
X1.6868
X1.7868
X1.8868
X1.9868
T2
X3.2200Y0.9200
X2.1200Y1.8600
X2.3400Y0.5400
X1.8400Y1.1600
X1.4800Y1.8200
X0.5400Y0.6200
X0.7600Y1.0800
X0.6400
X1.0000
X0.8200
X3.6000Y0.8000
X3.7600Y1.1200
X2.2000Y1.1600
X0.8200Y0.9800
X1.9400Y1.1600
Y1.3400
X0.7000Y1.0800
T3
X2.5905Y1.2467
Y0.6467
X2.8905
X2.9905
X3.0905
X2.6905
X2.7905
X1.9905
X2.2905
X2.3905
X2.4905
X2.0905
X2.1905
X1.6905
X1.7905
X1.8905
X1.3905
X1.4905
X1.5905
X1.2905
X1.1905
X2.8905Y1.2467
X2.9905
X3.0905
X2.6905
X2.7905
X1.9905
X2.2905
X2.3905
X2.4905
X2.1905
X2.0905
X1.6905
X1.8905
X1.7905
X1.3905
X1.5905
X1.4905
X1.2905
X1.1905
T4
X1.2905Y1.5067
X1.3905
X1.4905
X1.5905
X1.6905
X1.7905
X1.8905
X1.9905
X2.3105
X2.4105
X2.5105
X2.6105
X2.7105
X2.8105
X2.9105
X3.0105
X0.9105Y0.6267
Y0.7267
Y0.8267
Y0.9267
Y1.0267
Y1.1267
Y1.2267
Y1.3267
X2.9700Y0.0900
X2.8700
X2.7700
X2.6700
X2.5700
X2.4700
X2.3700
X2.2700
X1.9100Y0.3900
X1.8100
X1.7100
X1.6100
X1.5100
X1.4100
X1.3100
X1.2100
T5
X0.3124Y0.6006
X0.1155
X0.3124Y0.7620
X0.1155
X0.3124Y0.9235
X0.1155
X0.3124Y1.0849
X0.1155
X0.3124Y1.2463
X0.1155
X0.3124Y1.4077
X0.1155
X3.8053Y0.7253
X3.2935
X3.8253Y0.9253
X3.3135
X3.8253Y1.1453
X3.3135
T6
X0.3138Y0.2782G85X0.3138Y0.3018
X0.5500Y0.2782G85X0.5500Y0.3018
X0.4201Y0.1050G85X0.4437Y0.1050
M30
