G04 Generated by Ultiboard 13.0 *
%FSLAX24Y24*%
%MOIN*%

%ADD10C,0.0001*%
%ADD11C,0.0039*%
%ADD12C,0.0004*%
%ADD13C,0.0001*%
%ADD14C,0.0050*%


G04 ColorRGB 000000 for the following layer *
%LNDrill Symbols-Copper Top-Copper Bottom*%
%LPD*%
G54D11*
X34424Y15980D02*
X34817Y15980D01*
X34620Y15783D02*
X34620Y16176D01*
X34620Y13224D02*
X34620Y13617D01*
X34424Y13420D02*
X34817Y13420D01*
X37180Y15783D02*
X37180Y16176D01*
X36983Y15980D02*
X37376Y15980D01*
X36983Y13420D02*
X37376Y13420D01*
X37180Y13224D02*
X37180Y13617D01*
X5503Y12861D02*
X5897Y12861D01*
X5700Y12664D02*
X5700Y13057D01*
X5700Y10743D02*
X5700Y11136D01*
X5503Y10939D02*
X5897Y10939D01*
X30500Y3303D02*
X30500Y3697D01*
X30303Y3500D02*
X30697Y3500D01*
X29500Y3303D02*
X29500Y3697D01*
X29303Y3500D02*
X29697Y3500D01*
X28303Y3500D02*
X28697Y3500D01*
X28500Y3303D02*
X28500Y3697D01*
X27303Y3500D02*
X27697Y3500D01*
X27500Y3303D02*
X27500Y3697D01*
X26303Y3500D02*
X26697Y3500D01*
X26500Y3303D02*
X26500Y3697D01*
X25500Y3303D02*
X25500Y3697D01*
X25303Y3500D02*
X25697Y3500D01*
X24303Y3500D02*
X24697Y3500D01*
X24500Y3303D02*
X24500Y3697D01*
X23500Y3303D02*
X23500Y3697D01*
X23303Y3500D02*
X23697Y3500D01*
X22303Y3500D02*
X22697Y3500D01*
X22500Y3303D02*
X22500Y3697D01*
X34703Y1700D02*
X35097Y1700D01*
X34900Y1503D02*
X34900Y1897D01*
X36703Y1700D02*
X37097Y1700D01*
X36900Y1503D02*
X36900Y1897D01*
X35900Y3503D02*
X35900Y3897D01*
X35703Y3700D02*
X36097Y3700D01*
X4868Y19001D02*
X4868Y19394D01*
X4672Y19198D02*
X5065Y19198D01*
X5672Y19198D02*
X6065Y19198D01*
X5868Y19001D02*
X5868Y19394D01*
X6672Y19198D02*
X7065Y19198D01*
X6868Y19001D02*
X6868Y19394D01*
X7672Y19198D02*
X8065Y19198D01*
X7868Y19001D02*
X7868Y19394D01*
X8868Y19001D02*
X8868Y19394D01*
X8672Y19198D02*
X9065Y19198D01*
X9868Y19001D02*
X9868Y19394D01*
X9672Y19198D02*
X10065Y19198D01*
X10672Y19198D02*
X11065Y19198D01*
X10868Y19001D02*
X10868Y19394D01*
X11672Y19198D02*
X12065Y19198D01*
X11868Y19001D02*
X11868Y19394D01*
X12868Y19001D02*
X12868Y19394D01*
X12672Y19198D02*
X13065Y19198D01*
X13868Y19001D02*
X13868Y19394D01*
X13672Y19198D02*
X14065Y19198D01*
X14868Y19001D02*
X14868Y19394D01*
X14672Y19198D02*
X15065Y19198D01*
X15672Y19198D02*
X16065Y19198D01*
X15868Y19001D02*
X15868Y19394D01*
X16868Y19001D02*
X16868Y19394D01*
X16672Y19198D02*
X17065Y19198D01*
X17672Y19198D02*
X18065Y19198D01*
X17868Y19001D02*
X17868Y19394D01*
X18672Y19198D02*
X19065Y19198D01*
X18868Y19001D02*
X18868Y19394D01*
X19868Y19001D02*
X19868Y19394D01*
X19672Y19198D02*
X20065Y19198D01*
X4672Y31402D02*
X5065Y31402D01*
X4868Y31206D02*
X4868Y31599D01*
X5672Y31402D02*
X6065Y31402D01*
X5868Y31206D02*
X5868Y31599D01*
X6672Y31402D02*
X7065Y31402D01*
X6868Y31206D02*
X6868Y31599D01*
X7672Y31402D02*
X8065Y31402D01*
X7868Y31206D02*
X7868Y31599D01*
X8672Y31402D02*
X9065Y31402D01*
X8868Y31206D02*
X8868Y31599D01*
X9672Y31402D02*
X10065Y31402D01*
X9868Y31206D02*
X9868Y31599D01*
X10868Y31206D02*
X10868Y31599D01*
X10672Y31402D02*
X11065Y31402D01*
X11868Y31206D02*
X11868Y31599D01*
X11672Y31402D02*
X12065Y31402D01*
X12868Y31206D02*
X12868Y31599D01*
X12672Y31402D02*
X13065Y31402D01*
X13868Y31206D02*
X13868Y31599D01*
X13672Y31402D02*
X14065Y31402D01*
X14672Y31402D02*
X15065Y31402D01*
X14868Y31206D02*
X14868Y31599D01*
X15868Y31206D02*
X15868Y31599D01*
X15672Y31402D02*
X16065Y31402D01*
X16672Y31402D02*
X17065Y31402D01*
X16868Y31206D02*
X16868Y31599D01*
X17672Y31402D02*
X18065Y31402D01*
X17868Y31206D02*
X17868Y31599D01*
X18672Y31402D02*
X19065Y31402D01*
X18868Y31206D02*
X18868Y31599D01*
X19868Y31206D02*
X19868Y31599D01*
X19672Y31402D02*
X20065Y31402D01*
X12705Y14867D02*
X13105Y14867D01*
X13105Y15267D01*
X12705Y15267D01*
X12705Y14867D01*
X13705Y14867D02*
X14105Y14867D01*
X14105Y15267D01*
X13705Y15267D01*
X13705Y14867D01*
X14705Y14867D02*
X15105Y14867D01*
X15105Y15267D01*
X14705Y15267D01*
X14705Y14867D01*
X15705Y14867D02*
X16105Y14867D01*
X16105Y15267D01*
X15705Y15267D01*
X15705Y14867D01*
X16705Y14867D02*
X17105Y14867D01*
X17105Y15267D01*
X16705Y15267D01*
X16705Y14867D01*
X17705Y14867D02*
X18105Y14867D01*
X18105Y15267D01*
X17705Y15267D01*
X17705Y14867D01*
X18705Y14867D02*
X19105Y14867D01*
X19105Y15267D01*
X18705Y15267D01*
X18705Y14867D01*
X19705Y14867D02*
X20105Y14867D01*
X20105Y15267D01*
X19705Y15267D01*
X19705Y14867D01*
X22905Y14867D02*
X23305Y14867D01*
X23305Y15267D01*
X22905Y15267D01*
X22905Y14867D01*
X23905Y14867D02*
X24305Y14867D01*
X24305Y15267D01*
X23905Y15267D01*
X23905Y14867D01*
X24905Y14867D02*
X25305Y14867D01*
X25305Y15267D01*
X24905Y15267D01*
X24905Y14867D01*
X25905Y14867D02*
X26305Y14867D01*
X26305Y15267D01*
X25905Y15267D01*
X25905Y14867D01*
X26905Y14867D02*
X27305Y14867D01*
X27305Y15267D01*
X26905Y15267D01*
X26905Y14867D01*
X27905Y14867D02*
X28305Y14867D01*
X28305Y15267D01*
X27905Y15267D01*
X27905Y14867D01*
X28905Y14867D02*
X29305Y14867D01*
X29305Y15267D01*
X28905Y15267D01*
X28905Y14867D01*
X29905Y14867D02*
X30305Y14867D01*
X30305Y15267D01*
X29905Y15267D01*
X29905Y14867D01*
X8905Y6067D02*
X9305Y6067D01*
X9305Y6467D01*
X8905Y6467D01*
X8905Y6067D01*
X8905Y7067D02*
X9305Y7067D01*
X9305Y7467D01*
X8905Y7467D01*
X8905Y7067D01*
X8905Y8067D02*
X9305Y8067D01*
X9305Y8467D01*
X8905Y8467D01*
X8905Y8067D01*
X8905Y9067D02*
X9305Y9067D01*
X9305Y9467D01*
X8905Y9467D01*
X8905Y9067D01*
X8905Y10067D02*
X9305Y10067D01*
X9305Y10467D01*
X8905Y10467D01*
X8905Y10067D01*
X8905Y11067D02*
X9305Y11067D01*
X9305Y11467D01*
X8905Y11467D01*
X8905Y11067D01*
X8905Y12067D02*
X9305Y12067D01*
X9305Y12467D01*
X8905Y12467D01*
X8905Y12067D01*
X8905Y13067D02*
X9305Y13067D01*
X9305Y13467D01*
X8905Y13467D01*
X8905Y13067D01*
X29500Y700D02*
X29900Y700D01*
X29900Y1100D01*
X29500Y1100D01*
X29500Y700D01*
X28500Y700D02*
X28900Y700D01*
X28900Y1100D01*
X28500Y1100D01*
X28500Y700D01*
X27500Y700D02*
X27900Y700D01*
X27900Y1100D01*
X27500Y1100D01*
X27500Y700D01*
X26500Y700D02*
X26900Y700D01*
X26900Y1100D01*
X26500Y1100D01*
X26500Y700D01*
X25500Y700D02*
X25900Y700D01*
X25900Y1100D01*
X25500Y1100D01*
X25500Y700D01*
X24500Y700D02*
X24900Y700D01*
X24900Y1100D01*
X24500Y1100D01*
X24500Y700D01*
X23500Y700D02*
X23900Y700D01*
X23900Y1100D01*
X23500Y1100D01*
X23500Y700D01*
X22500Y700D02*
X22900Y700D01*
X22900Y1100D01*
X22500Y1100D01*
X22500Y700D01*
X18900Y3700D02*
X19300Y3700D01*
X19300Y4100D01*
X18900Y4100D01*
X18900Y3700D01*
X17900Y3700D02*
X18300Y3700D01*
X18300Y4100D01*
X17900Y4100D01*
X17900Y3700D01*
X16900Y3700D02*
X17300Y3700D01*
X17300Y4100D01*
X16900Y4100D01*
X16900Y3700D01*
X15900Y3700D02*
X16300Y3700D01*
X16300Y4100D01*
X15900Y4100D01*
X15900Y3700D01*
X14900Y3700D02*
X15300Y3700D01*
X15300Y4100D01*
X14900Y4100D01*
X14900Y3700D01*
X13900Y3700D02*
X14300Y3700D01*
X14300Y4100D01*
X13900Y4100D01*
X13900Y3700D01*
X12900Y3700D02*
X13300Y3700D01*
X13300Y4100D01*
X12900Y4100D01*
X12900Y3700D01*
X11900Y3700D02*
X12300Y3700D01*
X12300Y4100D01*
X11900Y4100D01*
X11900Y3700D01*
X56246Y20091D02*
X55458Y20091D01*
X56115Y20597D01*
X56115Y19753D01*
X55983Y19753D02*
X56246Y19753D01*
X56640Y20428D02*
X56902Y20597D01*
X57164Y20597D01*
X57427Y20428D01*
X57427Y19922D01*
X57164Y19753D01*
X56902Y19753D01*
X56640Y19922D01*
X56640Y20428D01*
X57427Y20428D02*
X56640Y19922D01*
X58214Y19753D02*
X58214Y19838D01*
X59002Y20428D02*
X59264Y20597D01*
X59527Y20597D01*
X59789Y20428D01*
X59789Y19922D01*
X59527Y19753D01*
X59264Y19753D01*
X59002Y19922D01*
X59002Y20428D01*
X59789Y20428D02*
X59002Y19922D01*
X60183Y20428D02*
X60445Y20597D01*
X60708Y20597D01*
X60970Y20428D01*
X60970Y19922D01*
X60708Y19753D01*
X60445Y19753D01*
X60183Y19922D01*
X60183Y20428D01*
X60970Y20428D02*
X60183Y19922D01*
X61364Y20428D02*
X61626Y20597D01*
X61889Y20597D01*
X62151Y20428D01*
X62151Y19922D01*
X61889Y19753D01*
X61626Y19753D01*
X61364Y19922D01*
X61364Y20428D01*
X62151Y20428D02*
X61364Y19922D01*
X62545Y20428D02*
X62807Y20597D01*
X63070Y20597D01*
X63332Y20428D01*
X63332Y19922D01*
X63070Y19753D01*
X62807Y19753D01*
X62545Y19922D01*
X62545Y20428D01*
X63332Y20428D02*
X62545Y19922D01*
X68490Y20091D02*
X67702Y20091D01*
X68359Y20597D01*
X68359Y19753D01*
X68227Y19753D02*
X68490Y19753D01*
X68884Y20428D02*
X69146Y20597D01*
X69409Y20597D01*
X69671Y20428D01*
X69671Y19922D01*
X69409Y19753D01*
X69146Y19753D01*
X68884Y19922D01*
X68884Y20428D01*
X69671Y20428D02*
X68884Y19922D01*
X75813Y19753D02*
X75813Y20597D01*
X76338Y20597D01*
X76600Y20428D01*
X76600Y20344D01*
X76338Y20175D01*
X75813Y20175D01*
X77388Y19753D02*
X77388Y20597D01*
X76994Y20597D02*
X77781Y20597D01*
X78175Y19753D02*
X78175Y20597D01*
X78962Y19753D02*
X78962Y20597D01*
X78175Y20175D02*
X78962Y20175D01*
X82742Y20428D02*
X83004Y20597D01*
X83267Y20597D01*
X83529Y20428D01*
X83529Y19922D01*
X83267Y19753D01*
X83004Y19753D01*
X82742Y19922D01*
X82742Y20428D01*
X83529Y20428D02*
X82742Y19922D01*
X85760Y19753D02*
X85629Y19753D01*
X85367Y19922D01*
X85367Y20428D01*
X85629Y20597D01*
X85760Y20597D01*
X86285Y19753D02*
X86285Y20597D01*
X86810Y20597D01*
X87073Y20428D01*
X87073Y20344D01*
X86810Y20175D01*
X86285Y20175D01*
X86416Y20175D02*
X87073Y19753D01*
X87466Y19922D02*
X87729Y19753D01*
X87991Y19753D01*
X88254Y19922D01*
X88254Y20428D01*
X87991Y20597D01*
X87729Y20597D01*
X87466Y20428D01*
X87466Y19922D01*
X88647Y20597D02*
X88647Y19922D01*
X88910Y19753D01*
X89172Y19753D01*
X89435Y19922D01*
X89435Y20597D01*
X89828Y19753D02*
X89828Y20597D01*
X90616Y19753D01*
X90616Y20597D01*
X91010Y19753D02*
X91535Y19753D01*
X91797Y19922D01*
X91797Y20428D01*
X91535Y20597D01*
X91010Y20597D01*
X91141Y20597D02*
X91141Y19753D01*
X92322Y20597D02*
X92453Y20597D01*
X92716Y20428D01*
X92716Y19922D01*
X92453Y19753D01*
X92322Y19753D01*
X51151Y19891D02*
X51551Y19891D01*
X51551Y20291D01*
X51151Y20291D01*
X51151Y19891D01*
X55590Y22127D02*
X55721Y22211D01*
X55983Y22211D01*
X56246Y22043D01*
X56246Y21874D01*
X56115Y21789D01*
X56246Y21705D01*
X56246Y21536D01*
X55983Y21368D01*
X55721Y21368D01*
X55590Y21452D01*
X55721Y21789D02*
X56115Y21789D01*
X56640Y21536D02*
X56902Y21368D01*
X57164Y21368D01*
X57427Y21536D01*
X57427Y21874D01*
X57427Y22043D01*
X57164Y22211D01*
X56902Y22211D01*
X56640Y22043D01*
X56640Y21874D01*
X56902Y21705D01*
X57164Y21705D01*
X57427Y21874D01*
X58214Y21368D02*
X58214Y21452D01*
X59133Y22127D02*
X59264Y22211D01*
X59527Y22211D01*
X59789Y22043D01*
X59789Y21874D01*
X59658Y21789D01*
X59789Y21705D01*
X59789Y21536D01*
X59527Y21368D01*
X59264Y21368D01*
X59133Y21452D01*
X59264Y21789D02*
X59658Y21789D01*
X60577Y21368D02*
X60577Y21789D01*
X60970Y22043D01*
X60970Y22211D01*
X60183Y22211D01*
X60183Y22043D01*
X61364Y22043D02*
X61626Y22211D01*
X61889Y22211D01*
X62151Y22043D01*
X62151Y21536D01*
X61889Y21368D01*
X61626Y21368D01*
X61364Y21536D01*
X61364Y22043D01*
X62151Y22043D02*
X61364Y21536D01*
X62676Y22043D02*
X62939Y22211D01*
X62939Y21368D01*
X62545Y21368D02*
X63332Y21368D01*
X68490Y22211D02*
X67702Y22211D01*
X67702Y21874D01*
X68227Y21874D01*
X68490Y21705D01*
X68490Y21536D01*
X68227Y21368D01*
X67702Y21368D01*
X68884Y22043D02*
X69146Y22211D01*
X69409Y22211D01*
X69671Y22043D01*
X69671Y21536D01*
X69409Y21368D01*
X69146Y21368D01*
X68884Y21536D01*
X68884Y22043D01*
X69671Y22043D02*
X68884Y21536D01*
X75813Y21368D02*
X75813Y22211D01*
X76338Y22211D01*
X76600Y22043D01*
X76600Y21958D01*
X76338Y21789D01*
X75813Y21789D01*
X77388Y21368D02*
X77388Y22211D01*
X76994Y22211D02*
X77781Y22211D01*
X78175Y21368D02*
X78175Y22211D01*
X78962Y21368D02*
X78962Y22211D01*
X78175Y21789D02*
X78962Y21789D01*
X82742Y22043D02*
X83004Y22211D01*
X83267Y22211D01*
X83529Y22043D01*
X83529Y21536D01*
X83267Y21368D01*
X83004Y21368D01*
X82742Y21536D01*
X82742Y22043D01*
X83529Y22043D02*
X82742Y21536D01*
X85760Y21368D02*
X85629Y21368D01*
X85367Y21536D01*
X85367Y22043D01*
X85629Y22211D01*
X85760Y22211D01*
X86285Y21368D02*
X86285Y22211D01*
X86810Y22211D01*
X87073Y22043D01*
X87073Y21958D01*
X86810Y21789D01*
X86285Y21789D01*
X86416Y21789D02*
X87073Y21368D01*
X87466Y21536D02*
X87729Y21368D01*
X87991Y21368D01*
X88254Y21536D01*
X88254Y22043D01*
X87991Y22211D01*
X87729Y22211D01*
X87466Y22043D01*
X87466Y21536D01*
X88647Y22211D02*
X88647Y21536D01*
X88910Y21368D01*
X89172Y21368D01*
X89435Y21536D01*
X89435Y22211D01*
X89828Y21368D02*
X89828Y22211D01*
X90616Y21368D01*
X90616Y22211D01*
X91010Y21368D02*
X91535Y21368D01*
X91797Y21536D01*
X91797Y22043D01*
X91535Y22211D01*
X91010Y22211D01*
X91141Y22211D02*
X91141Y21368D01*
X92322Y22211D02*
X92453Y22211D01*
X92716Y22043D01*
X92716Y21536D01*
X92453Y21368D01*
X92322Y21368D01*
X51351Y21508D02*
X51351Y21902D01*
X51154Y21705D02*
X51548Y21705D01*
X55590Y23741D02*
X55721Y23825D01*
X55983Y23825D01*
X56246Y23657D01*
X56246Y23488D01*
X56115Y23404D01*
X56246Y23319D01*
X56246Y23151D01*
X55983Y22982D01*
X55721Y22982D01*
X55590Y23066D01*
X55721Y23404D02*
X56115Y23404D01*
X57427Y23825D02*
X56640Y23825D01*
X56640Y23488D01*
X57164Y23488D01*
X57427Y23319D01*
X57427Y23151D01*
X57164Y22982D01*
X56640Y22982D01*
X58214Y22982D02*
X58214Y23066D01*
X59789Y23319D02*
X59002Y23319D01*
X59658Y23825D01*
X59658Y22982D01*
X59527Y22982D02*
X59789Y22982D01*
X60314Y23741D02*
X60445Y23825D01*
X60708Y23825D01*
X60970Y23657D01*
X60970Y23488D01*
X60839Y23404D01*
X60970Y23319D01*
X60970Y23151D01*
X60708Y22982D01*
X60445Y22982D01*
X60314Y23066D01*
X60445Y23404D02*
X60839Y23404D01*
X61495Y23741D02*
X61626Y23825D01*
X61889Y23825D01*
X62151Y23657D01*
X62151Y23488D01*
X62020Y23404D01*
X62151Y23319D01*
X62151Y23151D01*
X61889Y22982D01*
X61626Y22982D01*
X61495Y23066D01*
X61626Y23404D02*
X62020Y23404D01*
X62676Y23657D02*
X62939Y23825D01*
X62939Y22982D01*
X62545Y22982D02*
X63332Y22982D01*
X67834Y23657D02*
X68096Y23825D01*
X68096Y22982D01*
X67702Y22982D02*
X68490Y22982D01*
X69409Y22982D02*
X69146Y22982D01*
X68884Y23151D01*
X68884Y23319D01*
X69015Y23404D01*
X68884Y23488D01*
X68884Y23657D01*
X69146Y23825D01*
X69409Y23825D01*
X69671Y23657D01*
X69671Y23488D01*
X69540Y23404D01*
X69671Y23319D01*
X69671Y23151D01*
X69409Y22982D01*
X69015Y23404D02*
X69540Y23404D01*
X75813Y22982D02*
X75813Y23825D01*
X76338Y23825D01*
X76600Y23657D01*
X76600Y23572D01*
X76338Y23404D01*
X75813Y23404D01*
X77388Y22982D02*
X77388Y23825D01*
X76994Y23825D02*
X77781Y23825D01*
X78175Y22982D02*
X78175Y23825D01*
X78962Y22982D02*
X78962Y23825D01*
X78175Y23404D02*
X78962Y23404D01*
X82742Y23657D02*
X83004Y23825D01*
X83267Y23825D01*
X83529Y23657D01*
X83529Y23151D01*
X83267Y22982D01*
X83004Y22982D01*
X82742Y23151D01*
X82742Y23657D01*
X83529Y23657D02*
X82742Y23151D01*
X85760Y22982D02*
X85629Y22982D01*
X85367Y23151D01*
X85367Y23657D01*
X85629Y23825D01*
X85760Y23825D01*
X86285Y22982D02*
X86285Y23825D01*
X86810Y23825D01*
X87073Y23657D01*
X87073Y23572D01*
X86810Y23404D01*
X86285Y23404D01*
X86416Y23404D02*
X87073Y22982D01*
X87466Y23151D02*
X87729Y22982D01*
X87991Y22982D01*
X88254Y23151D01*
X88254Y23657D01*
X87991Y23825D01*
X87729Y23825D01*
X87466Y23657D01*
X87466Y23151D01*
X88647Y23825D02*
X88647Y23151D01*
X88910Y22982D01*
X89172Y22982D01*
X89435Y23151D01*
X89435Y23825D01*
X89828Y22982D02*
X89828Y23825D01*
X90616Y22982D01*
X90616Y23825D01*
X91010Y22982D02*
X91535Y22982D01*
X91797Y23151D01*
X91797Y23657D01*
X91535Y23825D01*
X91010Y23825D01*
X91141Y23825D02*
X91141Y22982D01*
X92322Y23825D02*
X92453Y23825D01*
X92716Y23657D01*
X92716Y23151D01*
X92453Y22982D01*
X92322Y22982D01*
X55590Y25355D02*
X55721Y25440D01*
X55983Y25440D01*
X56246Y25271D01*
X56246Y25102D01*
X56115Y25018D01*
X56246Y24933D01*
X56246Y24765D01*
X55983Y24596D01*
X55721Y24596D01*
X55590Y24680D01*
X55721Y25018D02*
X56115Y25018D01*
X57427Y25440D02*
X56640Y25440D01*
X56640Y25102D01*
X57164Y25102D01*
X57427Y24933D01*
X57427Y24765D01*
X57164Y24596D01*
X56640Y24596D01*
X58214Y24596D02*
X58214Y24680D01*
X59002Y25271D02*
X59264Y25440D01*
X59527Y25440D01*
X59789Y25271D01*
X59789Y24765D01*
X59527Y24596D01*
X59264Y24596D01*
X59002Y24765D01*
X59002Y25271D01*
X59789Y25271D02*
X59002Y24765D01*
X60183Y25271D02*
X60445Y25440D01*
X60708Y25440D01*
X60970Y25271D01*
X60970Y24765D01*
X60708Y24596D01*
X60445Y24596D01*
X60183Y24765D01*
X60183Y25271D01*
X60970Y25271D02*
X60183Y24765D01*
X61364Y25271D02*
X61626Y25440D01*
X61889Y25440D01*
X62151Y25271D01*
X62151Y24765D01*
X61889Y24596D01*
X61626Y24596D01*
X61364Y24765D01*
X61364Y25271D01*
X62151Y25271D02*
X61364Y24765D01*
X62545Y25271D02*
X62807Y25440D01*
X63070Y25440D01*
X63332Y25271D01*
X63332Y24765D01*
X63070Y24596D01*
X62807Y24596D01*
X62545Y24765D01*
X62545Y25271D01*
X63332Y25271D02*
X62545Y24765D01*
X68490Y24933D02*
X67702Y24933D01*
X68359Y25440D01*
X68359Y24596D01*
X68227Y24596D02*
X68490Y24596D01*
X68884Y25271D02*
X69146Y25440D01*
X69409Y25440D01*
X69671Y25271D01*
X69671Y24765D01*
X69409Y24596D01*
X69146Y24596D01*
X68884Y24765D01*
X68884Y25271D01*
X69671Y25271D02*
X68884Y24765D01*
X75813Y24596D02*
X75813Y25440D01*
X76338Y25440D01*
X76600Y25271D01*
X76600Y25187D01*
X76338Y25018D01*
X75813Y25018D01*
X77388Y24596D02*
X77388Y25440D01*
X76994Y25440D02*
X77781Y25440D01*
X78175Y24596D02*
X78175Y25440D01*
X78962Y24596D02*
X78962Y25440D01*
X78175Y25018D02*
X78962Y25018D01*
X82742Y25271D02*
X83004Y25440D01*
X83267Y25440D01*
X83529Y25271D01*
X83529Y24765D01*
X83267Y24596D01*
X83004Y24596D01*
X82742Y24765D01*
X82742Y25271D01*
X83529Y25271D02*
X82742Y24765D01*
X85760Y24596D02*
X85629Y24596D01*
X85367Y24765D01*
X85367Y25271D01*
X85629Y25440D01*
X85760Y25440D01*
X86285Y24596D02*
X86285Y25440D01*
X86810Y25440D01*
X87073Y25271D01*
X87073Y25187D01*
X86810Y25018D01*
X86285Y25018D01*
X86416Y25018D02*
X87073Y24596D01*
X87466Y24765D02*
X87729Y24596D01*
X87991Y24596D01*
X88254Y24765D01*
X88254Y25271D01*
X87991Y25440D01*
X87729Y25440D01*
X87466Y25271D01*
X87466Y24765D01*
X88647Y25440D02*
X88647Y24765D01*
X88910Y24596D01*
X89172Y24596D01*
X89435Y24765D01*
X89435Y25440D01*
X89828Y24596D02*
X89828Y25440D01*
X90616Y24596D01*
X90616Y25440D01*
X91010Y24596D02*
X91535Y24596D01*
X91797Y24765D01*
X91797Y25271D01*
X91535Y25440D01*
X91010Y25440D01*
X91141Y25440D02*
X91141Y24596D01*
X92322Y25440D02*
X92453Y25440D01*
X92716Y25271D01*
X92716Y24765D01*
X92453Y24596D01*
X92322Y24596D01*
X55590Y26969D02*
X55721Y27054D01*
X55983Y27054D01*
X56246Y26885D01*
X56246Y26716D01*
X56115Y26632D01*
X56246Y26548D01*
X56246Y26379D01*
X55983Y26210D01*
X55721Y26210D01*
X55590Y26295D01*
X55721Y26632D02*
X56115Y26632D01*
X56771Y26885D02*
X57033Y27054D01*
X57033Y26210D01*
X56640Y26210D02*
X57427Y26210D01*
X58214Y26210D02*
X58214Y26295D01*
X59789Y26548D02*
X59002Y26548D01*
X59658Y27054D01*
X59658Y26210D01*
X59527Y26210D02*
X59789Y26210D01*
X60183Y26379D02*
X60445Y26210D01*
X60708Y26210D01*
X60970Y26379D01*
X60970Y26716D01*
X60970Y26885D01*
X60708Y27054D01*
X60445Y27054D01*
X60183Y26885D01*
X60183Y26716D01*
X60445Y26548D01*
X60708Y26548D01*
X60970Y26716D01*
X62020Y27054D02*
X61626Y27054D01*
X61364Y26885D01*
X61364Y26548D01*
X61364Y26379D01*
X61626Y26210D01*
X61889Y26210D01*
X62151Y26379D01*
X62151Y26548D01*
X61889Y26716D01*
X61626Y26716D01*
X61364Y26548D01*
X62676Y26885D02*
X62939Y27054D01*
X62939Y26210D01*
X62545Y26210D02*
X63332Y26210D01*
X68424Y26969D02*
X68556Y27054D01*
X68818Y27054D01*
X69080Y26885D01*
X69080Y26716D01*
X68949Y26632D01*
X69080Y26548D01*
X69080Y26379D01*
X68818Y26210D01*
X68556Y26210D01*
X68424Y26295D01*
X68556Y26632D02*
X68949Y26632D01*
X75813Y26210D02*
X75813Y27054D01*
X76338Y27054D01*
X76600Y26885D01*
X76600Y26801D01*
X76338Y26632D01*
X75813Y26632D01*
X77388Y26210D02*
X77388Y27054D01*
X76994Y27054D02*
X77781Y27054D01*
X78175Y26210D02*
X78175Y27054D01*
X78962Y26210D02*
X78962Y27054D01*
X78175Y26632D02*
X78962Y26632D01*
X83923Y26885D02*
X84185Y27054D01*
X84448Y27054D01*
X84710Y26885D01*
X84710Y26801D01*
X83923Y26210D01*
X84710Y26210D01*
X84710Y26295D01*
X85235Y26969D02*
X85367Y27054D01*
X85629Y27054D01*
X85891Y26885D01*
X85891Y26716D01*
X85760Y26632D01*
X85891Y26548D01*
X85891Y26379D01*
X85629Y26210D01*
X85367Y26210D01*
X85235Y26295D01*
X85367Y26632D02*
X85760Y26632D01*
X86679Y26210D02*
X86679Y26295D01*
X88122Y27054D02*
X87729Y27054D01*
X87466Y26885D01*
X87466Y26548D01*
X87466Y26379D01*
X87729Y26210D01*
X87991Y26210D01*
X88254Y26379D01*
X88254Y26548D01*
X87991Y26716D01*
X87729Y26716D01*
X87466Y26548D01*
X88647Y26885D02*
X88910Y27054D01*
X89172Y27054D01*
X89435Y26885D01*
X89435Y26801D01*
X88647Y26210D01*
X89435Y26210D01*
X89435Y26295D01*
X89828Y26885D02*
X90091Y27054D01*
X90353Y27054D01*
X90616Y26885D01*
X90616Y26801D01*
X89828Y26210D01*
X90616Y26210D01*
X90616Y26295D01*
X91010Y26885D02*
X91272Y27054D01*
X91535Y27054D01*
X91797Y26885D01*
X91797Y26379D01*
X91535Y26210D01*
X91272Y26210D01*
X91010Y26379D01*
X91010Y26885D01*
X91797Y26885D02*
X91010Y26379D01*
X55458Y28499D02*
X55721Y28668D01*
X55983Y28668D01*
X56246Y28499D01*
X56246Y28415D01*
X55458Y27824D01*
X56246Y27824D01*
X56246Y27909D01*
X56771Y28584D02*
X56902Y28668D01*
X57164Y28668D01*
X57427Y28499D01*
X57427Y28331D01*
X57296Y28246D01*
X57427Y28162D01*
X57427Y27993D01*
X57164Y27824D01*
X56902Y27824D01*
X56771Y27909D01*
X56902Y28246D02*
X57296Y28246D01*
X58214Y27824D02*
X58214Y27909D01*
X59658Y28668D02*
X59264Y28668D01*
X59002Y28499D01*
X59002Y28162D01*
X59002Y27993D01*
X59264Y27824D01*
X59527Y27824D01*
X59789Y27993D01*
X59789Y28162D01*
X59527Y28331D01*
X59264Y28331D01*
X59002Y28162D01*
X60183Y28499D02*
X60445Y28668D01*
X60708Y28668D01*
X60970Y28499D01*
X60970Y28415D01*
X60183Y27824D01*
X60970Y27824D01*
X60970Y27909D01*
X61364Y28499D02*
X61626Y28668D01*
X61889Y28668D01*
X62151Y28499D01*
X62151Y28415D01*
X61364Y27824D01*
X62151Y27824D01*
X62151Y27909D01*
X62545Y28499D02*
X62807Y28668D01*
X63070Y28668D01*
X63332Y28499D01*
X63332Y27993D01*
X63070Y27824D01*
X62807Y27824D01*
X62545Y27993D01*
X62545Y28499D01*
X63332Y28499D02*
X62545Y27993D01*
X67834Y28499D02*
X68096Y28668D01*
X68096Y27824D01*
X67702Y27824D02*
X68490Y27824D01*
X69277Y27824D02*
X69277Y28246D01*
X69671Y28499D01*
X69671Y28668D01*
X68884Y28668D01*
X68884Y28499D01*
X75813Y27824D02*
X75813Y28668D01*
X76338Y28668D01*
X76600Y28499D01*
X76600Y28415D01*
X76338Y28246D01*
X75813Y28246D01*
X77388Y27824D02*
X77388Y28668D01*
X76994Y28668D02*
X77781Y28668D01*
X78175Y27824D02*
X78175Y28668D01*
X78962Y27824D02*
X78962Y28668D01*
X78175Y28246D02*
X78962Y28246D01*
X82742Y28499D02*
X83004Y28668D01*
X83267Y28668D01*
X83529Y28499D01*
X83529Y27993D01*
X83267Y27824D01*
X83004Y27824D01*
X82742Y27993D01*
X82742Y28499D01*
X83529Y28499D02*
X82742Y27993D01*
X85760Y27824D02*
X85629Y27824D01*
X85367Y27993D01*
X85367Y28499D01*
X85629Y28668D01*
X85760Y28668D01*
X86285Y27824D02*
X86285Y28668D01*
X86810Y28668D01*
X87073Y28499D01*
X87073Y28415D01*
X86810Y28246D01*
X86285Y28246D01*
X86416Y28246D02*
X87073Y27824D01*
X87466Y27993D02*
X87729Y27824D01*
X87991Y27824D01*
X88254Y27993D01*
X88254Y28499D01*
X87991Y28668D01*
X87729Y28668D01*
X87466Y28499D01*
X87466Y27993D01*
X88647Y28668D02*
X88647Y27993D01*
X88910Y27824D01*
X89172Y27824D01*
X89435Y27993D01*
X89435Y28668D01*
X89828Y27824D02*
X89828Y28668D01*
X90616Y27824D01*
X90616Y28668D01*
X91010Y27824D02*
X91535Y27824D01*
X91797Y27993D01*
X91797Y28499D01*
X91535Y28668D01*
X91010Y28668D01*
X91141Y28668D02*
X91141Y27824D01*
X92322Y28668D02*
X92453Y28668D01*
X92716Y28499D01*
X92716Y27993D01*
X92453Y27824D01*
X92322Y27824D01*
G54D12*
X32116Y9284D02*
X32284Y9116D01*
X32116Y9116D02*
X32284Y9284D01*
X21116Y18684D02*
X21284Y18516D01*
X21116Y18516D02*
X21284Y18684D01*
X23316Y5484D02*
X23484Y5316D01*
X23316Y5316D02*
X23484Y5484D01*
X18316Y11684D02*
X18484Y11516D01*
X18316Y11516D02*
X18484Y11684D01*
X14716Y18284D02*
X14884Y18116D01*
X14716Y18116D02*
X14884Y18284D01*
X5316Y6284D02*
X5484Y6116D01*
X5316Y6116D02*
X5484Y6284D01*
X7516Y10884D02*
X7684Y10716D01*
X7516Y10716D02*
X7684Y10884D01*
X6316Y10716D02*
X6484Y10884D01*
X6316Y10884D02*
X6484Y10716D01*
X9916Y10884D02*
X10084Y10716D01*
X9916Y10716D02*
X10084Y10884D01*
X8116Y10884D02*
X8284Y10716D01*
X8116Y10716D02*
X8284Y10884D01*
X35916Y7916D02*
X36084Y8084D01*
X35916Y8084D02*
X36084Y7916D01*
X37516Y11284D02*
X37684Y11116D01*
X37516Y11116D02*
X37684Y11284D01*
X21916Y11684D02*
X22084Y11516D01*
X21916Y11516D02*
X22084Y11684D01*
X8116Y9884D02*
X8284Y9716D01*
X8116Y9716D02*
X8284Y9884D01*
X19316Y11684D02*
X19484Y11516D01*
X19316Y11516D02*
X19484Y11684D01*
X19316Y13316D02*
X19484Y13484D01*
X19316Y13484D02*
X19484Y13316D01*
X6916Y10884D02*
X7084Y10716D01*
X6916Y10716D02*
X7084Y10884D01*
X25730Y12467D02*
G75*
D01*
G02X25730Y12467I175J0*
G01*
X25730Y6467D02*
G75*
D01*
G02X25730Y6467I175J0*
G01*
X28730Y6467D02*
G75*
D01*
G02X28730Y6467I175J0*
G01*
X29730Y6467D02*
G75*
D01*
G02X29730Y6467I175J0*
G01*
X30730Y6467D02*
G75*
D01*
G02X30730Y6467I175J0*
G01*
X26730Y6467D02*
G75*
D01*
G02X26730Y6467I175J0*
G01*
X27730Y6467D02*
G75*
D01*
G02X27730Y6467I175J0*
G01*
X19730Y6467D02*
G75*
D01*
G02X19730Y6467I175J0*
G01*
X22730Y6467D02*
G75*
D01*
G02X22730Y6467I175J0*
G01*
X23730Y6467D02*
G75*
D01*
G02X23730Y6467I175J0*
G01*
X24730Y6467D02*
G75*
D01*
G02X24730Y6467I175J0*
G01*
X20730Y6467D02*
G75*
D01*
G02X20730Y6467I175J0*
G01*
X21730Y6467D02*
G75*
D01*
G02X21730Y6467I175J0*
G01*
X16730Y6467D02*
G75*
D01*
G02X16730Y6467I175J0*
G01*
X17730Y6467D02*
G75*
D01*
G02X17730Y6467I175J0*
G01*
X18730Y6467D02*
G75*
D01*
G02X18730Y6467I175J0*
G01*
X13730Y6467D02*
G75*
D01*
G02X13730Y6467I175J0*
G01*
X14730Y6467D02*
G75*
D01*
G02X14730Y6467I175J0*
G01*
X15730Y6467D02*
G75*
D01*
G02X15730Y6467I175J0*
G01*
X12730Y6467D02*
G75*
D01*
G02X12730Y6467I175J0*
G01*
X11730Y6467D02*
G75*
D01*
G02X11730Y6467I175J0*
G01*
X28730Y12467D02*
G75*
D01*
G02X28730Y12467I175J0*
G01*
X29730Y12467D02*
G75*
D01*
G02X29730Y12467I175J0*
G01*
X30730Y12467D02*
G75*
D01*
G02X30730Y12467I175J0*
G01*
X26730Y12467D02*
G75*
D01*
G02X26730Y12467I175J0*
G01*
X27730Y12467D02*
G75*
D01*
G02X27730Y12467I175J0*
G01*
X19730Y12467D02*
G75*
D01*
G02X19730Y12467I175J0*
G01*
X22730Y12467D02*
G75*
D01*
G02X22730Y12467I175J0*
G01*
X23730Y12467D02*
G75*
D01*
G02X23730Y12467I175J0*
G01*
X24730Y12467D02*
G75*
D01*
G02X24730Y12467I175J0*
G01*
X21730Y12467D02*
G75*
D01*
G02X21730Y12467I175J0*
G01*
X20730Y12467D02*
G75*
D01*
G02X20730Y12467I175J0*
G01*
X16730Y12467D02*
G75*
D01*
G02X16730Y12467I175J0*
G01*
X18730Y12467D02*
G75*
D01*
G02X18730Y12467I175J0*
G01*
X17730Y12467D02*
G75*
D01*
G02X17730Y12467I175J0*
G01*
X13730Y12467D02*
G75*
D01*
G02X13730Y12467I175J0*
G01*
X15730Y12467D02*
G75*
D01*
G02X15730Y12467I175J0*
G01*
X14730Y12467D02*
G75*
D01*
G02X14730Y12467I175J0*
G01*
X12730Y12467D02*
G75*
D01*
G02X12730Y12467I175J0*
G01*
X11730Y12467D02*
G75*
D01*
G02X11730Y12467I175J0*
G01*
X3124Y5756D02*
X3374Y6006D01*
X3124Y6257D01*
X2873Y6006D01*
X3124Y5756D01*
X1155Y5756D02*
X1406Y6006D01*
X1155Y6257D01*
X905Y6006D01*
X1155Y5756D01*
X2980Y2624D02*
X3295Y2624D01*
X3138Y2893D01*
X2980Y2624D01*
X3138Y2782D02*
X3138Y3018D01*
X5343Y2624D02*
X5657Y2624D01*
X5500Y2893D01*
X5343Y2624D01*
X5500Y2782D02*
X5500Y3018D01*
X4043Y892D02*
X4358Y892D01*
X4201Y1161D01*
X4043Y892D01*
X4201Y1050D02*
X4437Y1050D01*
X3124Y7370D02*
X3374Y7620D01*
X3124Y7871D01*
X2873Y7620D01*
X3124Y7370D01*
X1155Y7370D02*
X1406Y7620D01*
X1155Y7871D01*
X905Y7620D01*
X1155Y7370D01*
X3124Y8984D02*
X3374Y9235D01*
X3124Y9485D01*
X2873Y9235D01*
X3124Y8984D01*
X1155Y8984D02*
X1406Y9235D01*
X1155Y9485D01*
X905Y9235D01*
X1155Y8984D01*
X3124Y10598D02*
X3374Y10849D01*
X3124Y11099D01*
X2873Y10849D01*
X3124Y10598D01*
X1155Y10598D02*
X1406Y10849D01*
X1155Y11099D01*
X905Y10849D01*
X1155Y10598D01*
X3124Y12212D02*
X3374Y12463D01*
X3124Y12714D01*
X2873Y12463D01*
X3124Y12212D01*
X1155Y12212D02*
X1406Y12463D01*
X1155Y12714D01*
X905Y12463D01*
X1155Y12212D01*
X3124Y13827D02*
X3374Y14077D01*
X3124Y14328D01*
X2873Y14077D01*
X3124Y13827D01*
X1155Y13827D02*
X1406Y14077D01*
X1155Y14328D01*
X905Y14077D01*
X1155Y13827D01*
X38053Y7003D02*
X38304Y7253D01*
X38053Y7504D01*
X37803Y7253D01*
X38053Y7003D01*
X32935Y7003D02*
X33186Y7253D01*
X32935Y7504D01*
X32684Y7253D01*
X32935Y7003D01*
X38253Y9003D02*
X38504Y9253D01*
X38253Y9504D01*
X38003Y9253D01*
X38253Y9003D01*
X33135Y9003D02*
X33386Y9253D01*
X33135Y9504D01*
X32884Y9253D01*
X33135Y9003D01*
X38253Y11203D02*
X38504Y11453D01*
X38253Y11704D01*
X38003Y11453D01*
X38253Y11203D01*
X33135Y11203D02*
X33386Y11453D01*
X33135Y11704D01*
X32884Y11453D01*
X33135Y11203D01*
X51351Y23069D02*
X51601Y23319D01*
X51351Y23570D01*
X51100Y23319D01*
X51351Y23069D01*
X51176Y24933D02*
G75*
D01*
G02X51176Y24933I175J0*
G01*
X51193Y26390D02*
X51508Y26390D01*
X51351Y26659D01*
X51193Y26390D01*
X51267Y28078D02*
X51434Y28245D01*
X51267Y28245D02*
X51434Y28078D01*
G04 ColorRGB 00FFFF for the following layer *
%LNBoard Outline*%
%LPD*%
G54D10*
G54D13*
X0Y0D02*
X39370Y0D01*
X39370Y33465D01*
X0Y33465D01*
X0Y0D01*
G54D14*
X-150Y-150D02*
X-150Y3226D01*
X-150Y-150D02*
X3817Y-150D01*
X39520Y-150D02*
X35553Y-150D01*
X39520Y-150D02*
X39520Y3226D01*
X39520Y33615D02*
X39520Y30238D01*
X39520Y33615D02*
X35553Y33615D01*
X-150Y33615D02*
X3817Y33615D01*
X-150Y33615D02*
X-150Y30238D01*
X-2119Y-150D02*
X-6056Y-150D01*
X-4087Y-2119D02*
X-4087Y1819D01*
X-5563Y-150D02*
G75*
D01*
G02X-5563Y-150I1476J0*
G01*
X41489Y-150D02*
X45426Y-150D01*
X43457Y-2119D02*
X43457Y1819D01*
X41981Y-150D02*
G75*
D01*
G02X41981Y-150I1476J0*
G01*
X42965Y-150D02*
G75*
D01*
G02X42965Y-150I492J0*
G01*
X-2119Y33615D02*
X-6056Y33615D01*
X-4087Y31646D02*
X-4087Y35583D01*
X-5563Y33615D02*
G75*
D01*
G02X-5563Y33615I1476J0*
G01*
X-5071Y33615D02*
G75*
D01*
G02X-5071Y33615I984J0*
G01*
X-4579Y33615D02*
G75*
D01*
G02X-4579Y33615I492J0*
G01*
G04 ColorRGB 66FFCC for the following layer *
%LNLegend Description*%
%LPD*%
G54D11*
X47591Y19284D02*
X94638Y19284D01*
X94638Y33811D01*
X47591Y33811D01*
X47591Y19284D01*
X55111Y30583D02*
X55111Y19284D01*
X63811Y30583D02*
X63811Y19284D01*
X73693Y30583D02*
X73693Y19284D01*
X81213Y30583D02*
X81213Y19284D01*
X94638Y30583D02*
X94638Y19284D01*
X47591Y20898D02*
X94638Y20898D01*
X47591Y22512D02*
X94638Y22512D01*
X47591Y24126D02*
X94638Y24126D01*
X47591Y25741D02*
X94638Y25741D01*
X47591Y27355D02*
X94638Y27355D01*
X47591Y28969D02*
X94638Y28969D01*
X47939Y29607D02*
X48201Y29439D01*
X48464Y29439D01*
X48726Y29607D01*
X47939Y30113D01*
X48201Y30282D01*
X48464Y30282D01*
X48726Y30113D01*
X49120Y29185D02*
X49251Y29185D01*
X49907Y30029D01*
X49120Y30029D02*
X49514Y29523D01*
X50301Y29439D02*
X50301Y29945D01*
X50301Y30029D01*
X50301Y29945D02*
X50432Y30029D01*
X50563Y30029D01*
X50695Y29945D01*
X50826Y30029D01*
X50957Y30029D01*
X51088Y29945D01*
X51088Y29439D01*
X50695Y29945D02*
X50695Y29439D01*
X51482Y29607D02*
X51744Y29439D01*
X52007Y29439D01*
X52269Y29607D01*
X52269Y29776D01*
X52007Y29945D01*
X51744Y29945D01*
X51482Y29776D01*
X51482Y30282D02*
X51482Y29439D01*
X52663Y29607D02*
X52926Y29439D01*
X53188Y29439D01*
X53451Y29607D01*
X53451Y29860D01*
X53188Y30029D01*
X52926Y30029D01*
X52663Y29860D01*
X52663Y29607D01*
X53975Y30282D02*
X53975Y29607D01*
X54238Y29439D01*
X57230Y29607D02*
X57493Y29439D01*
X57755Y29439D01*
X58017Y29607D01*
X57230Y30113D01*
X57493Y30282D01*
X57755Y30282D01*
X58017Y30113D01*
X58805Y29439D02*
X58805Y29945D01*
X58805Y30113D02*
X58805Y30198D01*
X59592Y30029D02*
X60380Y30029D01*
X59592Y29439D01*
X60380Y29439D01*
X61561Y29607D02*
X61298Y29439D01*
X61036Y29439D01*
X60773Y29607D01*
X60773Y29860D01*
X61036Y30029D01*
X61298Y30029D01*
X61561Y29860D01*
X61430Y29776D01*
X60773Y29776D01*
X64159Y29607D02*
X64422Y29439D01*
X64684Y29439D01*
X64947Y29607D01*
X64947Y30113D01*
X64684Y30282D01*
X64422Y30282D01*
X64159Y30113D01*
X64159Y29607D01*
X64684Y29607D02*
X64947Y29439D01*
X65340Y30029D02*
X65340Y29607D01*
X65603Y29439D01*
X65865Y29439D01*
X66128Y29607D01*
X66128Y30029D01*
X66128Y29607D02*
X66128Y29439D01*
X66653Y30029D02*
X67046Y30029D01*
X67178Y29945D01*
X67178Y29523D01*
X67046Y29439D01*
X66653Y29439D01*
X66521Y29523D01*
X66521Y29692D01*
X66653Y29776D01*
X67178Y29776D01*
X67178Y29523D02*
X67309Y29439D01*
X67702Y29439D02*
X67702Y29945D01*
X67702Y30029D01*
X67702Y29945D02*
X67834Y30029D01*
X68096Y30029D01*
X68227Y29945D01*
X68227Y29439D01*
X69540Y29523D02*
X69409Y29439D01*
X69277Y29523D01*
X69277Y30282D01*
X69015Y30029D02*
X69540Y30029D01*
X70458Y29439D02*
X70458Y29945D01*
X70458Y30113D02*
X70458Y30198D01*
X71902Y29523D02*
X71771Y29439D01*
X71640Y29523D01*
X71640Y30282D01*
X71377Y30029D02*
X71902Y30029D01*
X72427Y29185D02*
X72558Y29185D01*
X73214Y30029D01*
X72427Y30029D02*
X72821Y29523D01*
X74041Y29439D02*
X74041Y30282D01*
X74566Y30282D01*
X74828Y30113D01*
X74828Y30029D01*
X74566Y29860D01*
X74041Y29860D01*
X75353Y30282D02*
X75353Y29607D01*
X75616Y29439D01*
X76535Y30029D02*
X76928Y30029D01*
X77059Y29945D01*
X77059Y29523D01*
X76928Y29439D01*
X76535Y29439D01*
X76403Y29523D01*
X76403Y29692D01*
X76535Y29776D01*
X77059Y29776D01*
X77059Y29523D02*
X77191Y29439D01*
X78241Y29523D02*
X78109Y29439D01*
X77978Y29523D01*
X77978Y30282D01*
X77716Y30029D02*
X78241Y30029D01*
X79553Y29607D02*
X79290Y29439D01*
X79028Y29439D01*
X78765Y29607D01*
X78765Y29860D01*
X79028Y30029D01*
X79290Y30029D01*
X79553Y29860D01*
X79422Y29776D01*
X78765Y29776D01*
X80734Y29607D02*
X80472Y29439D01*
X80209Y29439D01*
X79947Y29607D01*
X79947Y29776D01*
X80209Y29945D01*
X80472Y29945D01*
X80734Y29776D01*
X80734Y30282D02*
X80734Y29439D01*
X81561Y29607D02*
X81823Y29439D01*
X82086Y29439D01*
X82348Y29607D01*
X81561Y30113D01*
X81823Y30282D01*
X82086Y30282D01*
X82348Y30113D01*
X82873Y30282D02*
X82873Y29607D01*
X83136Y29439D01*
X83923Y29607D02*
X84185Y29439D01*
X84448Y29439D01*
X84710Y29607D01*
X84710Y29860D01*
X84448Y30029D01*
X84185Y30029D01*
X83923Y29860D01*
X83923Y29607D01*
X85760Y29523D02*
X85629Y29439D01*
X85498Y29523D01*
X85498Y30282D01*
X85235Y30029D02*
X85760Y30029D01*
X87466Y30282D02*
X87466Y29439D01*
X88254Y29439D01*
X89435Y29607D02*
X89172Y29439D01*
X88910Y29439D01*
X88647Y29607D01*
X88647Y29860D01*
X88910Y30029D01*
X89172Y30029D01*
X89435Y29860D01*
X89304Y29776D01*
X88647Y29776D01*
X89828Y29439D02*
X89828Y29945D01*
X89828Y30029D01*
X89828Y29945D02*
X89960Y30029D01*
X90222Y30029D01*
X90353Y29945D01*
X90353Y29439D01*
X91010Y29354D02*
X91272Y29185D01*
X91535Y29185D01*
X91797Y29354D01*
X91797Y29607D01*
X91797Y29860D01*
X91535Y30029D01*
X91272Y30029D01*
X91010Y29860D01*
X91010Y29607D01*
X91272Y29439D01*
X91535Y29439D01*
X91797Y29607D01*
X92847Y29523D02*
X92716Y29439D01*
X92584Y29523D01*
X92584Y30282D01*
X92322Y30029D02*
X92847Y30029D01*
X93372Y29860D02*
X93634Y30029D01*
X93897Y30029D01*
X94159Y29860D01*
X94159Y29439D01*
X93372Y30282D02*
X93372Y29439D01*
X47591Y30583D02*
X94638Y30583D01*
X59435Y31053D02*
X59435Y31559D01*
X59697Y31896D01*
X59960Y31896D01*
X60222Y31559D01*
X60222Y31053D01*
X59435Y31306D02*
X60222Y31306D01*
X60747Y31896D02*
X60747Y31221D01*
X61010Y31053D01*
X61928Y31896D02*
X61928Y31221D01*
X62191Y31053D01*
X64159Y31643D02*
X64159Y31221D01*
X64422Y31053D01*
X64684Y31053D01*
X64947Y31221D01*
X64947Y31643D01*
X64947Y31221D02*
X64947Y31053D01*
X65340Y31053D02*
X65340Y31559D01*
X65340Y31643D01*
X65340Y31559D02*
X65472Y31643D01*
X65734Y31643D01*
X65865Y31559D01*
X65865Y31053D01*
X66915Y31053D02*
X66915Y31559D01*
X66915Y31728D02*
X66915Y31812D01*
X68359Y31137D02*
X68227Y31053D01*
X68096Y31137D01*
X68096Y31896D01*
X67834Y31643D02*
X68359Y31643D01*
X68884Y31221D02*
X69146Y31053D01*
X69409Y31053D01*
X69671Y31221D01*
X68884Y31475D01*
X69146Y31643D01*
X69409Y31643D01*
X69671Y31475D01*
X71377Y31643D02*
X71771Y31643D01*
X71902Y31559D01*
X71902Y31137D01*
X71771Y31053D01*
X71377Y31053D01*
X71246Y31137D01*
X71246Y31306D01*
X71377Y31390D01*
X71902Y31390D01*
X71902Y31137D02*
X72033Y31053D01*
X72427Y31390D02*
X72821Y31643D01*
X72952Y31643D01*
X73214Y31475D01*
X72427Y31053D02*
X72427Y31643D01*
X74395Y31221D02*
X74133Y31053D01*
X73870Y31053D01*
X73608Y31221D01*
X73608Y31475D01*
X73870Y31643D01*
X74133Y31643D01*
X74395Y31475D01*
X74264Y31390D01*
X73608Y31390D01*
X76364Y31053D02*
X76364Y31559D01*
X76364Y31728D02*
X76364Y31812D01*
X77151Y31053D02*
X77151Y31559D01*
X77151Y31643D01*
X77151Y31559D02*
X77283Y31643D01*
X77545Y31643D01*
X77676Y31559D01*
X77676Y31053D01*
X79514Y31053D02*
X79514Y31559D01*
X79514Y31643D01*
X79514Y31559D02*
X79645Y31643D01*
X79776Y31643D01*
X79907Y31559D01*
X80038Y31643D01*
X80170Y31643D01*
X80301Y31559D01*
X80301Y31053D01*
X79907Y31559D02*
X79907Y31053D01*
X81088Y31053D02*
X81088Y31559D01*
X81088Y31728D02*
X81088Y31812D01*
X82007Y31896D02*
X82007Y31221D01*
X82269Y31053D01*
X47591Y32197D02*
X94638Y32197D01*
X64159Y32667D02*
X64684Y32667D01*
X64947Y32836D01*
X64947Y33342D01*
X64684Y33511D01*
X64159Y33511D01*
X64290Y33511D02*
X64290Y32667D01*
X65340Y33004D02*
X65734Y33257D01*
X65865Y33257D01*
X66128Y33089D01*
X65340Y32667D02*
X65340Y33257D01*
X66915Y32667D02*
X66915Y33173D01*
X66915Y33342D02*
X66915Y33426D01*
X67834Y33511D02*
X67834Y32836D01*
X68096Y32667D01*
X69015Y33511D02*
X69015Y32836D01*
X69277Y32667D01*
X71246Y33511D02*
X71246Y32667D01*
X72033Y32667D01*
X73214Y32836D02*
X72952Y32667D01*
X72689Y32667D01*
X72427Y32836D01*
X72427Y33089D01*
X72689Y33257D01*
X72952Y33257D01*
X73214Y33089D01*
X73083Y33004D01*
X72427Y33004D01*
X73608Y32583D02*
X73870Y32414D01*
X74133Y32414D01*
X74395Y32583D01*
X74395Y32836D01*
X74395Y33089D01*
X74133Y33257D01*
X73870Y33257D01*
X73608Y33089D01*
X73608Y32836D01*
X73870Y32667D01*
X74133Y32667D01*
X74395Y32836D01*
X75577Y32836D02*
X75314Y32667D01*
X75052Y32667D01*
X74789Y32836D01*
X74789Y33089D01*
X75052Y33257D01*
X75314Y33257D01*
X75577Y33089D01*
X75445Y33004D01*
X74789Y33004D01*
X75970Y32667D02*
X75970Y33173D01*
X75970Y33257D01*
X75970Y33173D02*
X76101Y33257D01*
X76364Y33257D01*
X76495Y33173D01*
X76495Y32667D01*
X77939Y32836D02*
X77676Y32667D01*
X77414Y32667D01*
X77151Y32836D01*
X77151Y33004D01*
X77414Y33173D01*
X77676Y33173D01*
X77939Y33004D01*
X77939Y33511D02*
X77939Y32667D01*

M02*
