G04 Generated by Ultiboard 13.0 *
%FSLAX24Y24*%
%MOIN*%

%ADD10C,0.0001*%
%ADD11C,0.0100*%
%ADD12C,0.0001*%
%ADD13C,0.0050*%
%ADD14C,0.0534*%
%ADD15C,0.0394*%
%ADD16C,0.0500*%
%ADD17C,0.0540*%
%ADD18R,0.0540X0.0540*%
%ADD19C,0.0591*%
%ADD20R,0.0591X0.0591*%


G04 ColorRGB 00FF00 for the following layer *
%LNCopper Top*%
%LPD*%
G54D10*
G36*
X151Y151D02*
X151Y151D01*
X151Y33314D01*
X39219Y33314D01*
X39219Y151D01*
X151Y151D01*
D02*
G37*
%LPC*%
G36*
X990Y9298D02*
G75*
D01*
G03X990Y9298I165J-63*
G01*
D02*
G37*
G36*
X399Y10400D02*
X399Y10400D01*
X399Y8800D01*
G75*
D01*
G03X458Y8658I201J0*
G01*
X458Y8658D01*
X599Y8517D01*
X599Y7976D01*
G75*
D01*
G03X658Y7833I201J-1*
G01*
X658Y7833D01*
X709Y7782D01*
X709Y7325D01*
G75*
D01*
G03X799Y7187I151J0*
G01*
X799Y7187D01*
X799Y6439D01*
G74*
D01*
G03X709Y6302I59J137*
G01*
X709Y6302D01*
X709Y5711D01*
G75*
D01*
G03X860Y5560I151J0*
G01*
X860Y5560D01*
X1199Y5560D01*
X1199Y3400D01*
G75*
D01*
G03X1258Y3258I201J0*
G01*
X1258Y3258D01*
X1458Y3058D01*
G74*
D01*
G03X1571Y3001I142J141*
G01*
G75*
D01*
G03X1600Y2999I28J199*
G01*
X1600Y2999D01*
X2755Y2999D01*
X2791Y2963D01*
X2791Y2522D01*
G75*
D01*
G03X2877Y2435I86J-1*
G01*
X2877Y2435D01*
X3199Y2435D01*
X3199Y1600D01*
G75*
D01*
G03X3258Y1458I201J0*
G01*
X3258Y1458D01*
X3458Y1258D01*
G74*
D01*
G03X3571Y1201I142J141*
G01*
G75*
D01*
G03X3600Y1199I28J199*
G01*
X3600Y1199D01*
X3854Y1199D01*
X3854Y789D01*
G75*
D01*
G03X3940Y703I86J0*
G01*
X3940Y703D01*
X4697Y703D01*
G75*
D01*
G03X4784Y789I1J86*
G01*
X4784Y789D01*
X4784Y1310D01*
G74*
D01*
G03X4697Y1397I87J0*
G01*
X4697Y1397D01*
X4256Y1397D01*
X4191Y1461D01*
G74*
D01*
G03X4000Y1601I191J60*
G01*
X4000Y1601D01*
X3683Y1601D01*
X3601Y1683D01*
X3601Y2900D01*
G74*
D01*
G03X3485Y3082I201J0*
G01*
X3485Y3082D01*
X3485Y3278D01*
G74*
D01*
G03X3398Y3365I87J0*
G01*
X3398Y3365D01*
X2952Y3365D01*
G74*
D01*
G03X2897Y3392I115J164*
G01*
G75*
D01*
G03X2838Y3401I-59J-191*
G01*
X2838Y3401D01*
X1683Y3401D01*
X1601Y3483D01*
X1601Y5704D01*
G75*
D01*
G03X1601Y5711I-151J4*
G01*
X1601Y5711D01*
X1601Y6302D01*
G74*
D01*
G03X1450Y6452I151J1*
G01*
X1450Y6452D01*
X1201Y6452D01*
X1201Y7174D01*
X1450Y7174D01*
G75*
D01*
G03X1601Y7325I0J151*
G01*
X1601Y7325D01*
X1601Y7916D01*
G74*
D01*
G03X1450Y8066I151J1*
G01*
X1450Y8066D01*
X1001Y8066D01*
X1001Y8600D01*
G74*
D01*
G03X942Y8742I201J0*
G01*
X942Y8742D01*
X801Y8883D01*
X801Y9104D01*
X931Y9235D01*
X868Y9298D01*
X868Y9298D01*
X801Y9365D01*
X801Y10317D01*
X883Y10399D01*
X1155Y10399D01*
G74*
D01*
G03X1194Y10403I1J201*
G01*
X1194Y10403D01*
X1450Y10403D01*
G75*
D01*
G03X1601Y10554I0J151*
G01*
X1601Y10554D01*
X1601Y11144D01*
G74*
D01*
G03X1450Y11295I151J0*
G01*
X1450Y11295D01*
X1201Y11295D01*
X1201Y12017D01*
X1450Y12017D01*
G75*
D01*
G03X1601Y12168I0J151*
G01*
X1601Y12168D01*
X1601Y12758D01*
G74*
D01*
G03X1450Y12909I151J0*
G01*
X1450Y12909D01*
X1201Y12909D01*
X1201Y13631D01*
X1450Y13631D01*
G75*
D01*
G03X1601Y13782I0J151*
G01*
X1601Y13782D01*
X1601Y14199D01*
G75*
D01*
G03X1801Y14400I-1J201*
G01*
X1801Y14400D01*
X1801Y14517D01*
X1883Y14599D01*
X2800Y14599D01*
G75*
D01*
G03X2866Y14610I0J201*
G01*
G74*
D01*
G03X2942Y14658I67J190*
G01*
X2942Y14658D01*
X3142Y14858D01*
G75*
D01*
G03X3201Y15000I-141J142*
G01*
X3201Y15000D01*
X3201Y18599D01*
X4800Y18599D01*
G75*
D01*
G03X4870Y18612I-1J201*
G01*
G74*
D01*
G03X4942Y18658I69J188*
G01*
X4942Y18658D01*
X5010Y18726D01*
G74*
D01*
G03X5066Y18830I140J143*
G01*
G75*
D01*
G03X4501Y19001I-197J367*
G01*
X4501Y19001D01*
X3100Y19001D01*
G75*
D01*
G03X3084Y19000I5J-201*
G01*
G74*
D01*
G03X2958Y18942I15J199*
G01*
X2958Y18942D01*
X2858Y18842D01*
G75*
D01*
G03X2799Y18699I141J-142*
G01*
X2799Y18699D01*
X2799Y15083D01*
X2717Y15001D01*
X1800Y15001D01*
G75*
D01*
G03X1771Y14999I-1J-201*
G01*
G74*
D01*
G03X1658Y14942I29J199*
G01*
X1658Y14942D01*
X1458Y14742D01*
G75*
D01*
G03X1399Y14600I141J-142*
G01*
X1399Y14600D01*
X1399Y14585D01*
G74*
D01*
G03X1336Y14542I80J185*
G01*
X1336Y14542D01*
X1317Y14523D01*
X860Y14523D01*
G75*
D01*
G03X709Y14372I0J-151*
G01*
X709Y14372D01*
X709Y13782D01*
G75*
D01*
G03X799Y13644I151J0*
G01*
X799Y13644D01*
X799Y12896D01*
G74*
D01*
G03X709Y12758I60J137*
G01*
X709Y12758D01*
X709Y12168D01*
G75*
D01*
G03X799Y12030I151J0*
G01*
X799Y12030D01*
X799Y11282D01*
G74*
D01*
G03X709Y11144I60J137*
G01*
X709Y11144D01*
X709Y10779D01*
G74*
D01*
G03X658Y10742I90J178*
G01*
X658Y10742D01*
X458Y10542D01*
G75*
D01*
G03X399Y10400I141J-142*
G01*
D02*
G37*
G36*
X1379Y9235D02*
X1379Y9235D01*
X1601Y9012D01*
X1601Y9457D01*
X1442Y9298D01*
X1379Y9235D01*
D02*
G37*
G36*
X18682Y6799D02*
G75*
D01*
G03X18799Y6082I221J-332*
G01*
X18799Y6082D01*
X18799Y4201D01*
G75*
D01*
G03X18799Y4193I201J-4*
G01*
G75*
D01*
G03X19201Y4308I301J-293*
G01*
X19201Y4308D01*
X19201Y5599D01*
X22517Y5599D01*
X22658Y5458D01*
G75*
D01*
G03X22800Y5399I142J141*
G01*
X22800Y5399D01*
X23053Y5399D01*
G75*
D01*
G03X23599Y5116I347J1*
G01*
X23599Y5116D01*
X23599Y3905D01*
G75*
D01*
G03X23399Y3096I-100J-405*
G01*
X23399Y3096D01*
X23399Y1883D01*
X23317Y1801D01*
X23200Y1801D01*
G75*
D01*
G03X23171Y1799I-1J-201*
G01*
G74*
D01*
G03X23058Y1742I29J199*
G01*
X23058Y1742D01*
X22858Y1542D01*
G75*
D01*
G03X22799Y1400I141J-142*
G01*
X22799Y1400D01*
X22799Y1321D01*
X22430Y1321D01*
G75*
D01*
G03X22279Y1170I0J-151*
G01*
X22279Y1170D01*
X22279Y630D01*
G75*
D01*
G03X22430Y479I151J0*
G01*
X22430Y479D01*
X22970Y479D01*
G75*
D01*
G03X23121Y630I0J151*
G01*
X23121Y630D01*
X23121Y1037D01*
X23142Y1058D01*
G75*
D01*
G03X23201Y1200I-141J142*
G01*
X23201Y1200D01*
X23201Y1317D01*
X23283Y1399D01*
X23400Y1399D01*
G75*
D01*
G03X23466Y1410I0J201*
G01*
G74*
D01*
G03X23542Y1458I67J190*
G01*
X23542Y1458D01*
X23599Y1515D01*
X23599Y1308D01*
G75*
D01*
G03X24001Y1193I101J-408*
G01*
G75*
D01*
G03X24001Y1200I-201J4*
G01*
X24001Y1200D01*
X24001Y2717D01*
X24342Y3058D01*
G74*
D01*
G03X24376Y3102I140J143*
G01*
G75*
D01*
G03X24376Y3898I121J398*
G01*
G74*
D01*
G03X24342Y3942I175J100*
G01*
X24342Y3942D01*
X24201Y4083D01*
X24201Y6198D01*
G75*
D01*
G03X24128Y6799I-295J269*
G01*
X24128Y6799D01*
X24682Y6799D01*
G75*
D01*
G03X24799Y6082I221J-332*
G01*
X24799Y6082D01*
X24799Y4000D01*
G75*
D01*
G03X24858Y3858I201J0*
G01*
X24858Y3858D01*
X24999Y3717D01*
X24999Y3601D01*
G75*
D01*
G03X25026Y3500I201J0*
G01*
G75*
D01*
G03X24999Y3399I173J-100*
G01*
X24999Y3399D01*
X24999Y3283D01*
X24658Y2942D01*
G75*
D01*
G03X24599Y2800I141J-142*
G01*
X24599Y2800D01*
X24599Y1308D01*
G75*
D01*
G03X25001Y1193I101J-408*
G01*
G75*
D01*
G03X25001Y1200I-201J4*
G01*
X25001Y1200D01*
X25001Y2717D01*
X25342Y3058D01*
G74*
D01*
G03X25376Y3102I140J143*
G01*
G75*
D01*
G03X25376Y3898I121J398*
G01*
G74*
D01*
G03X25342Y3942I175J100*
G01*
X25342Y3942D01*
X25201Y4083D01*
X25201Y6198D01*
G75*
D01*
G03X25128Y6799I-295J269*
G01*
X25128Y6799D01*
X25682Y6799D01*
G75*
D01*
G03X25799Y6082I221J-332*
G01*
X25799Y6082D01*
X25799Y4000D01*
G75*
D01*
G03X25858Y3858I201J0*
G01*
X25858Y3858D01*
X25999Y3717D01*
X25999Y3601D01*
G75*
D01*
G03X26026Y3500I201J0*
G01*
G75*
D01*
G03X25999Y3399I173J-100*
G01*
X25999Y3399D01*
X25999Y3283D01*
X25658Y2942D01*
G75*
D01*
G03X25599Y2800I141J-142*
G01*
X25599Y2800D01*
X25599Y1308D01*
G75*
D01*
G03X26001Y1193I101J-408*
G01*
G75*
D01*
G03X26001Y1200I-201J4*
G01*
X26001Y1200D01*
X26001Y2717D01*
X26342Y3058D01*
G74*
D01*
G03X26376Y3102I140J143*
G01*
G75*
D01*
G03X26376Y3898I121J398*
G01*
G74*
D01*
G03X26342Y3942I175J100*
G01*
X26342Y3942D01*
X26201Y4083D01*
X26201Y6198D01*
G75*
D01*
G03X26128Y6799I-295J269*
G01*
X26128Y6799D01*
X26682Y6799D01*
G75*
D01*
G03X26799Y6082I221J-332*
G01*
X26799Y6082D01*
X26799Y4000D01*
G75*
D01*
G03X26858Y3858I201J0*
G01*
X26858Y3858D01*
X26999Y3717D01*
X26999Y3601D01*
G75*
D01*
G03X27026Y3500I201J0*
G01*
G75*
D01*
G03X26999Y3399I173J-100*
G01*
X26999Y3399D01*
X26999Y3283D01*
X26658Y2942D01*
G75*
D01*
G03X26599Y2800I141J-142*
G01*
X26599Y2800D01*
X26599Y1308D01*
G75*
D01*
G03X27001Y1193I101J-408*
G01*
G75*
D01*
G03X27001Y1200I-201J4*
G01*
X27001Y1200D01*
X27001Y2717D01*
X27342Y3058D01*
G74*
D01*
G03X27376Y3102I140J143*
G01*
G75*
D01*
G03X27376Y3898I121J398*
G01*
G74*
D01*
G03X27342Y3942I175J100*
G01*
X27342Y3942D01*
X27201Y4083D01*
X27201Y6198D01*
G75*
D01*
G03X27128Y6799I-295J269*
G01*
X27128Y6799D01*
X27517Y6799D01*
X27595Y6720D01*
G75*
D01*
G03X27799Y6082I310J-252*
G01*
X27799Y6082D01*
X27799Y4000D01*
G75*
D01*
G03X27858Y3858I201J0*
G01*
X27858Y3858D01*
X27999Y3717D01*
X27999Y3601D01*
G75*
D01*
G03X28026Y3500I201J0*
G01*
G75*
D01*
G03X27999Y3399I173J-100*
G01*
X27999Y3399D01*
X27999Y3283D01*
X27658Y2942D01*
G75*
D01*
G03X27599Y2800I141J-142*
G01*
X27599Y2800D01*
X27599Y1308D01*
G75*
D01*
G03X28001Y1193I101J-408*
G01*
G75*
D01*
G03X28001Y1200I-201J4*
G01*
X28001Y1200D01*
X28001Y2717D01*
X28196Y2912D01*
X28196Y2912D01*
X28342Y3058D01*
G74*
D01*
G03X28376Y3102I140J143*
G01*
G75*
D01*
G03X28376Y3898I121J398*
G01*
G74*
D01*
G03X28342Y3942I175J100*
G01*
X28342Y3942D01*
X28201Y4083D01*
X28201Y6198D01*
G75*
D01*
G03X28041Y6843I-294J269*
G01*
X28041Y6843D01*
X27742Y7142D01*
G74*
D01*
G03X27641Y7197I142J141*
G01*
G75*
D01*
G03X27600Y7201I-40J-197*
G01*
X27600Y7201D01*
X22683Y7201D01*
X22601Y7283D01*
X22601Y12207D01*
G75*
D01*
G03X22601Y12727I304J260*
G01*
X22601Y12727D01*
X22601Y13000D01*
G74*
D01*
G03X22542Y13142I201J0*
G01*
X22542Y13142D01*
X22342Y13342D01*
G74*
D01*
G03X22266Y13390I142J141*
G01*
G75*
D01*
G03X22200Y13401I-66J-190*
G01*
X22200Y13401D01*
X20683Y13401D01*
X20601Y13483D01*
X20601Y15425D01*
G74*
D01*
G03X20684Y15400I98J175*
G01*
G75*
D01*
G03X20700Y15399I20J199*
G01*
X20700Y15399D01*
X22848Y15399D01*
G75*
D01*
G03X22999Y14661I255J-332*
G01*
X22999Y14661D01*
X22999Y13200D01*
G75*
D01*
G03X23058Y13058I201J0*
G01*
X23058Y13058D01*
X23399Y12717D01*
X23399Y12601D01*
G75*
D01*
G03X23458Y12458I201J-1*
G01*
X23458Y12458D01*
X23510Y12406D01*
G75*
D01*
G03X23794Y12852I394J62*
G01*
G74*
D01*
G03X23742Y12942I193J52*
G01*
X23742Y12942D01*
X23401Y13283D01*
X23401Y14769D01*
G75*
D01*
G03X23362Y15399I-296J298*
G01*
X23362Y15399D01*
X23848Y15399D01*
G75*
D01*
G03X23999Y14661I255J-332*
G01*
X23999Y14661D01*
X23999Y13200D01*
G75*
D01*
G03X24058Y13058I201J0*
G01*
X24058Y13058D01*
X24399Y12717D01*
X24399Y12601D01*
G75*
D01*
G03X24458Y12458I201J-1*
G01*
X24458Y12458D01*
X24510Y12406D01*
G75*
D01*
G03X24794Y12852I394J62*
G01*
G74*
D01*
G03X24742Y12942I193J52*
G01*
X24742Y12942D01*
X24401Y13283D01*
X24401Y14769D01*
G75*
D01*
G03X24362Y15399I-296J298*
G01*
X24362Y15399D01*
X24848Y15399D01*
G75*
D01*
G03X24999Y14661I255J-332*
G01*
X24999Y14661D01*
X24999Y13200D01*
G75*
D01*
G03X25058Y13058I201J0*
G01*
X25058Y13058D01*
X25399Y12717D01*
X25399Y12601D01*
G75*
D01*
G03X25458Y12458I201J-1*
G01*
X25458Y12458D01*
X25510Y12406D01*
G75*
D01*
G03X25794Y12852I394J62*
G01*
G74*
D01*
G03X25742Y12942I193J52*
G01*
X25742Y12942D01*
X25401Y13283D01*
X25401Y14769D01*
G75*
D01*
G03X25362Y15399I-296J298*
G01*
X25362Y15399D01*
X25848Y15399D01*
G75*
D01*
G03X25999Y14661I255J-332*
G01*
X25999Y14661D01*
X25999Y13200D01*
G75*
D01*
G03X26058Y13058I201J0*
G01*
X26058Y13058D01*
X26399Y12717D01*
X26399Y12601D01*
G75*
D01*
G03X26458Y12458I201J-1*
G01*
X26458Y12458D01*
X26510Y12406D01*
G75*
D01*
G03X26794Y12852I394J62*
G01*
G74*
D01*
G03X26742Y12942I193J52*
G01*
X26742Y12942D01*
X26401Y13283D01*
X26401Y14769D01*
G75*
D01*
G03X26362Y15399I-296J298*
G01*
X26362Y15399D01*
X26848Y15399D01*
G75*
D01*
G03X26999Y14661I255J-332*
G01*
X26999Y14661D01*
X26999Y13200D01*
G75*
D01*
G03X27058Y13058I201J0*
G01*
X27058Y13058D01*
X27399Y12717D01*
X27399Y12601D01*
G75*
D01*
G03X27458Y12458I201J-1*
G01*
X27458Y12458D01*
X27510Y12406D01*
G75*
D01*
G03X27794Y12852I394J62*
G01*
G74*
D01*
G03X27742Y12942I193J52*
G01*
X27742Y12942D01*
X27401Y13283D01*
X27401Y14769D01*
G75*
D01*
G03X27362Y15399I-296J298*
G01*
X27362Y15399D01*
X27848Y15399D01*
G75*
D01*
G03X27999Y14661I255J-332*
G01*
X27999Y14661D01*
X27999Y13101D01*
G75*
D01*
G03X28058Y12958I201J-1*
G01*
X28058Y12958D01*
X28158Y12858D01*
G74*
D01*
G03X28284Y12800I141J141*
G01*
G75*
D01*
G03X28300Y12799I20J199*
G01*
X28300Y12799D01*
X28317Y12799D01*
X28399Y12717D01*
X28399Y12601D01*
G75*
D01*
G03X28458Y12458I201J-1*
G01*
X28458Y12458D01*
X28510Y12406D01*
G75*
D01*
G03X29199Y12196I395J59*
G01*
X29199Y12196D01*
X29199Y7083D01*
X29058Y6942D01*
G74*
D01*
G03X29006Y6854I140J142*
G01*
G75*
D01*
G03X28799Y6082I-104J-386*
G01*
X28799Y6082D01*
X28799Y4000D01*
G75*
D01*
G03X28858Y3858I201J0*
G01*
X28858Y3858D01*
X28999Y3717D01*
X28999Y3601D01*
G75*
D01*
G03X29026Y3500I201J0*
G01*
G75*
D01*
G03X28999Y3399I173J-100*
G01*
X28999Y3399D01*
X28999Y3283D01*
X28658Y2942D01*
G75*
D01*
G03X28599Y2800I141J-142*
G01*
X28599Y2800D01*
X28599Y1308D01*
G75*
D01*
G03X29001Y1193I101J-408*
G01*
G75*
D01*
G03X29001Y1200I-201J4*
G01*
X29001Y1200D01*
X29001Y2717D01*
X29342Y3058D01*
G74*
D01*
G03X29376Y3102I140J143*
G01*
G75*
D01*
G03X29376Y3898I121J398*
G01*
G74*
D01*
G03X29342Y3942I175J100*
G01*
X29342Y3942D01*
X29201Y4083D01*
X29201Y6198D01*
G74*
D01*
G03X29302Y6418I295J269*
G01*
X29302Y6418D01*
X29342Y6458D01*
G74*
D01*
G03X29400Y6580I141J142*
G01*
G74*
D01*
G03X29458Y6458I199J20*
G01*
X29458Y6458D01*
X29510Y6406D01*
G74*
D01*
G03X29799Y6082I394J61*
G01*
X29799Y6082D01*
X29799Y4000D01*
G75*
D01*
G03X29858Y3858I201J0*
G01*
X29858Y3858D01*
X29999Y3717D01*
X29999Y3601D01*
G75*
D01*
G03X30026Y3500I201J0*
G01*
G75*
D01*
G03X29999Y3399I173J-100*
G01*
X29999Y3399D01*
X29999Y3283D01*
X29658Y2942D01*
G75*
D01*
G03X29599Y2800I141J-142*
G01*
X29599Y2800D01*
X29599Y1308D01*
G75*
D01*
G03X30001Y1193I101J-408*
G01*
G75*
D01*
G03X30001Y1200I-201J4*
G01*
X30001Y1200D01*
X30001Y2717D01*
X30342Y3058D01*
G74*
D01*
G03X30376Y3102I140J143*
G01*
G75*
D01*
G03X30376Y3898I121J398*
G01*
G74*
D01*
G03X30342Y3942I175J100*
G01*
X30342Y3942D01*
X30201Y4083D01*
X30201Y6198D01*
G75*
D01*
G03X29801Y6853I-293J271*
G01*
X29801Y6853D01*
X29801Y11717D01*
X29883Y11799D01*
X31200Y11799D01*
G74*
D01*
G03X31342Y11858I0J201*
G01*
X31342Y11858D01*
X31412Y11928D01*
G74*
D01*
G03X31458Y11858I187J73*
G01*
X31458Y11858D01*
X31658Y11658D01*
G74*
D01*
G03X31771Y11601I142J141*
G01*
G75*
D01*
G03X31800Y11599I28J199*
G01*
X31800Y11599D01*
X32117Y11599D01*
X32199Y11517D01*
X32199Y9547D01*
G75*
D01*
G03X32542Y9258I1J-347*
G01*
G75*
D01*
G03X32601Y9400I-141J142*
G01*
X32601Y9400D01*
X32601Y11600D01*
G74*
D01*
G03X32542Y11742I201J0*
G01*
X32542Y11742D01*
X32342Y11942D01*
G74*
D01*
G03X32266Y11990I142J141*
G01*
G75*
D01*
G03X32200Y12001I-66J-190*
G01*
X32200Y12001D01*
X31883Y12001D01*
X31801Y12083D01*
X31801Y13000D01*
G74*
D01*
G03X31625Y13199I201J0*
G01*
X31625Y13199D01*
X31580Y13290D01*
G74*
D01*
G03X31455Y13393I179J90*
G01*
G75*
D01*
G03X31400Y13401I-56J-192*
G01*
X31400Y13401D01*
X31283Y13401D01*
X31001Y13683D01*
X31001Y15700D01*
G74*
D01*
G03X30942Y15842I201J0*
G01*
X30942Y15842D01*
X30842Y15942D01*
G74*
D01*
G03X30772Y15988I142J140*
G01*
G74*
D01*
G03X30728Y15999I70J188*
G01*
X30728Y15999D01*
X34000Y15999D01*
G75*
D01*
G03X34052Y16006I-1J201*
G01*
G74*
D01*
G03X34142Y16058I52J193*
G01*
X34142Y16058D01*
X34245Y16161D01*
G74*
D01*
G03X34231Y16127I377J175*
G01*
X34231Y16127D01*
X34473Y16127D01*
X34473Y16369D01*
G74*
D01*
G03X34439Y16355I141J390*
G01*
X34439Y16355D01*
X34483Y16399D01*
X37217Y16399D01*
X37222Y16394D01*
G75*
D01*
G03X36825Y16199I-43J-414*
G01*
G75*
D01*
G03X36800Y16201I-28J-198*
G01*
X36800Y16201D01*
X35400Y16201D01*
G75*
D01*
G03X35343Y16193I-1J-201*
G01*
G74*
D01*
G03X35271Y16154I58J193*
G01*
X35271Y16154D01*
X34884Y15832D01*
X34768Y15832D01*
X34768Y15735D01*
X34671Y15654D01*
G74*
D01*
G03X34658Y15642I129J153*
G01*
X34658Y15642D01*
X34617Y15601D01*
X34473Y15601D01*
X34473Y15832D01*
X34231Y15832D01*
G74*
D01*
G03X34446Y15601I389J147*
G01*
X34446Y15601D01*
X33600Y15601D01*
G75*
D01*
G03X33571Y15599I-1J-201*
G01*
G74*
D01*
G03X33458Y15542I29J199*
G01*
X33458Y15542D01*
X33258Y15342D01*
G75*
D01*
G03X33199Y15200I141J-142*
G01*
X33199Y15200D01*
X33199Y11899D01*
X32840Y11899D01*
G75*
D01*
G03X32689Y11748I0J-151*
G01*
X32689Y11748D01*
X32689Y11158D01*
G75*
D01*
G03X32840Y11007I151J0*
G01*
X32840Y11007D01*
X33430Y11007D01*
G75*
D01*
G03X33581Y11158I0J151*
G01*
X33581Y11158D01*
X33581Y11631D01*
G75*
D01*
G03X33601Y11718I-180J87*
G01*
X33601Y11718D01*
X33601Y15117D01*
X33683Y15199D01*
X34700Y15199D01*
G75*
D01*
G03X34772Y15212I1J201*
G01*
G74*
D01*
G03X34842Y15258I73J187*
G01*
X34842Y15258D01*
X34936Y15351D01*
X35473Y15799D01*
X36732Y15799D01*
G74*
D01*
G03X36766Y15786I88J180*
G01*
G74*
D01*
G03X36814Y15779I53J194*
G01*
G75*
D01*
G03X37593Y16030I365J202*
G01*
G74*
D01*
G03X37599Y16026I114J164*
G01*
X37599Y16026D01*
X37599Y11547D01*
G75*
D01*
G03X37941Y11136I1J-347*
G01*
G75*
D01*
G03X38001Y11820I310J317*
G01*
X38001Y11820D01*
X38001Y16200D01*
G74*
D01*
G03X37800Y16401I201J0*
G01*
X37800Y16401D01*
X37783Y16401D01*
X37645Y16540D01*
X37542Y16642D01*
X37542Y16642D01*
X37542Y16642D01*
X37442Y16742D01*
G74*
D01*
G03X37372Y16788I142J140*
G01*
G75*
D01*
G03X37300Y16801I-71J-188*
G01*
X37300Y16801D01*
X34400Y16801D01*
G75*
D01*
G03X34350Y16795I-1J-201*
G01*
G74*
D01*
G03X34258Y16742I51J194*
G01*
X34258Y16742D01*
X33917Y16401D01*
X21483Y16401D01*
X21401Y16483D01*
X21401Y17917D01*
X21483Y17999D01*
X21500Y17999D01*
G74*
D01*
G03X21642Y18058I0J201*
G01*
X21642Y18058D01*
X21742Y18158D01*
G75*
D01*
G03X21801Y18300I-141J142*
G01*
X21801Y18300D01*
X21801Y18900D01*
G74*
D01*
G03X21742Y19042I201J0*
G01*
X21742Y19042D01*
X21642Y19142D01*
G74*
D01*
G03X21572Y19188I142J140*
G01*
G75*
D01*
G03X21500Y19201I-71J-188*
G01*
X21500Y19201D01*
X21283Y19201D01*
X21201Y19283D01*
X21201Y20300D01*
G74*
D01*
G03X21142Y20442I201J0*
G01*
X21142Y20442D01*
X21042Y20542D01*
G74*
D01*
G03X20972Y20588I142J140*
G01*
G75*
D01*
G03X20900Y20601I-71J-188*
G01*
X20900Y20601D01*
X8100Y20601D01*
G75*
D01*
G03X8084Y20600I5J-201*
G01*
G74*
D01*
G03X7958Y20542I15J199*
G01*
X7958Y20542D01*
X7858Y20442D01*
G75*
D01*
G03X7799Y20299I141J-142*
G01*
X7799Y20299D01*
X7799Y20083D01*
X7717Y20001D01*
X6400Y20001D01*
G75*
D01*
G03X6371Y19999I-1J-201*
G01*
G74*
D01*
G03X6258Y19942I29J199*
G01*
X6258Y19942D01*
X6058Y19742D01*
G75*
D01*
G03X5999Y19600I141J-142*
G01*
X5999Y19600D01*
X5999Y19593D01*
G75*
D01*
G03X6285Y19218I-130J-395*
G01*
G75*
D01*
G03X6401Y19400I-84J182*
G01*
X6401Y19400D01*
X6401Y19517D01*
X6483Y19599D01*
X7756Y19599D01*
G75*
D01*
G03X8285Y19218I113J-400*
G01*
G75*
D01*
G03X8401Y19400I-84J182*
G01*
X8401Y19400D01*
X8401Y19917D01*
X8483Y19999D01*
X9115Y19999D01*
X9058Y19942D01*
G75*
D01*
G03X8999Y19800I141J-142*
G01*
X8999Y19800D01*
X8999Y19593D01*
G75*
D01*
G03X9285Y19218I-130J-395*
G01*
G75*
D01*
G03X9401Y19400I-84J182*
G01*
X9401Y19400D01*
X9401Y19717D01*
X9483Y19799D01*
X10115Y19799D01*
X10058Y19742D01*
G75*
D01*
G03X9999Y19600I141J-142*
G01*
X9999Y19600D01*
X9999Y19593D01*
G75*
D01*
G03X10285Y19218I-130J-395*
G01*
G75*
D01*
G03X10401Y19400I-84J182*
G01*
X10401Y19400D01*
X10401Y19517D01*
X10483Y19599D01*
X10756Y19599D01*
G75*
D01*
G03X10981Y19599I113J-400*
G01*
X10981Y19599D01*
X11756Y19599D01*
G75*
D01*
G03X11981Y19599I113J-400*
G01*
X11981Y19599D01*
X12756Y19599D01*
G75*
D01*
G03X12740Y18801I109J-401*
G01*
X12740Y18801D01*
X12200Y18801D01*
G75*
D01*
G03X12171Y18799I-1J-201*
G01*
G74*
D01*
G03X12058Y18742I29J199*
G01*
X12058Y18742D01*
X11858Y18542D01*
G75*
D01*
G03X11799Y18400I141J-142*
G01*
X11799Y18400D01*
X11799Y12883D01*
X11763Y12847D01*
G74*
D01*
G03X11754Y12838I137J146*
G01*
G75*
D01*
G03X11606Y12201I150J-371*
G01*
X11606Y12201D01*
X9800Y12201D01*
G75*
D01*
G03X9750Y12195I-1J-201*
G01*
G74*
D01*
G03X9658Y12142I51J194*
G01*
X9658Y12142D01*
X9317Y11801D01*
X9200Y11801D01*
G75*
D01*
G03X9129Y11788I0J-201*
G01*
G74*
D01*
G03X9058Y11742I71J187*
G01*
X9058Y11742D01*
X8986Y11670D01*
G74*
D01*
G03X8707Y11401I119J403*
G01*
X8707Y11401D01*
X5800Y11401D01*
G75*
D01*
G03X5784Y11400I5J-201*
G01*
G74*
D01*
G03X5672Y11355I15J199*
G01*
G74*
D01*
G03X5288Y11001I27J415*
G01*
X5288Y11001D01*
X3800Y11001D01*
G75*
D01*
G03X3771Y10999I-1J-201*
G01*
G74*
D01*
G03X3658Y10942I29J199*
G01*
X3658Y10942D01*
X3569Y10853D01*
G74*
D01*
G03X3530Y11032I445J3*
G01*
X3530Y11032D01*
X3347Y10849D01*
X3456Y10740D01*
G75*
D01*
G03X3399Y10600I143J-140*
G01*
X3399Y10600D01*
X3399Y9585D01*
G75*
D01*
G03X3256Y8809I-274J-351*
G01*
X3256Y8809D01*
X3039Y8521D01*
G75*
D01*
G03X2999Y8400I161J-120*
G01*
X2999Y8400D01*
X2999Y8083D01*
X2982Y8066D01*
G74*
D01*
G03X2955Y8032I142J141*
G01*
G75*
D01*
G03X3399Y7971I170J-411*
G01*
G75*
D01*
G03X3401Y8000I-199J28*
G01*
X3401Y8000D01*
X3401Y8333D01*
X3600Y8599D01*
G75*
D01*
G03X3801Y8800I0J201*
G01*
X3801Y8800D01*
X3801Y10517D01*
X3883Y10599D01*
X5400Y10599D01*
G75*
D01*
G03X5425Y10601I-3J201*
G01*
G74*
D01*
G03X5450Y10605I19J199*
G01*
G75*
D01*
G03X6060Y10730I249J334*
G01*
G74*
D01*
G03X6399Y10453I340J70*
G01*
X6399Y10453D01*
X6399Y10400D01*
G75*
D01*
G03X6458Y10258I201J0*
G01*
X6458Y10258D01*
X6658Y10058D01*
G74*
D01*
G03X6771Y10001I142J141*
G01*
G75*
D01*
G03X6800Y9999I28J199*
G01*
X6800Y9999D01*
X6917Y9999D01*
X6999Y9917D01*
X6999Y7083D01*
X6917Y7001D01*
X4900Y7001D01*
G75*
D01*
G03X4758Y6942I0J-201*
G01*
X4758Y6942D01*
X4658Y6842D01*
G75*
D01*
G03X4599Y6700I141J-142*
G01*
X4599Y6700D01*
X4599Y2301D01*
G75*
D01*
G03X4658Y2158I201J-1*
G01*
X4658Y2158D01*
X4758Y2058D01*
G74*
D01*
G03X4884Y2000I141J141*
G01*
G75*
D01*
G03X4900Y1999I20J199*
G01*
X4900Y1999D01*
X6100Y1999D01*
G75*
D01*
G03X6172Y2012I1J201*
G01*
G74*
D01*
G03X6242Y2058I73J187*
G01*
X6242Y2058D01*
X6342Y2158D01*
G75*
D01*
G03X6401Y2300I-141J142*
G01*
X6401Y2300D01*
X6401Y2717D01*
X6483Y2799D01*
X14800Y2799D01*
G75*
D01*
G03X14866Y2810I0J201*
G01*
G74*
D01*
G03X14942Y2858I67J190*
G01*
X14942Y2858D01*
X15142Y3058D01*
G75*
D01*
G03X15201Y3200I-141J142*
G01*
X15201Y3200D01*
X15201Y3492D01*
G75*
D01*
G03X15201Y4308I-100J408*
G01*
X15201Y4308D01*
X15201Y6198D01*
G75*
D01*
G03X15128Y6799I-295J269*
G01*
X15128Y6799D01*
X15682Y6799D01*
G75*
D01*
G03X15799Y6082I221J-332*
G01*
X15799Y6082D01*
X15799Y4201D01*
G75*
D01*
G03X15799Y4193I201J-4*
G01*
G75*
D01*
G03X16201Y4308I301J-293*
G01*
X16201Y4308D01*
X16201Y6198D01*
G75*
D01*
G03X16128Y6799I-295J269*
G01*
X16128Y6799D01*
X16682Y6799D01*
G75*
D01*
G03X16799Y6082I221J-332*
G01*
X16799Y6082D01*
X16799Y4201D01*
G75*
D01*
G03X16799Y4193I201J-4*
G01*
G75*
D01*
G03X17201Y4308I301J-293*
G01*
X17201Y4308D01*
X17201Y6198D01*
G75*
D01*
G03X17128Y6799I-295J269*
G01*
X17128Y6799D01*
X17682Y6799D01*
G75*
D01*
G03X17799Y6082I221J-332*
G01*
X17799Y6082D01*
X17799Y4201D01*
G75*
D01*
G03X17799Y4193I201J-4*
G01*
G75*
D01*
G03X18201Y4308I301J-293*
G01*
X18201Y4308D01*
X18201Y6198D01*
G75*
D01*
G03X18128Y6799I-295J269*
G01*
X18128Y6799D01*
X18682Y6799D01*
D02*
G37*
G36*
X9375Y13688D02*
X9375Y13688D01*
X8835Y13688D01*
G75*
D01*
G03X8684Y13537I0J-151*
G01*
X8684Y13537D01*
X8684Y12997D01*
G75*
D01*
G03X8835Y12846I151J0*
G01*
X8835Y12846D01*
X9375Y12846D01*
G75*
D01*
G03X9526Y12997I0J151*
G01*
X9526Y12997D01*
X9526Y13537D01*
G74*
D01*
G03X9375Y13688I151J0*
G01*
D02*
G37*
G36*
X8691Y12199D02*
G75*
D01*
G03X8844Y12596I413J69*
G01*
G75*
D01*
G03X8800Y12601I-44J-195*
G01*
X8800Y12601D01*
X6083Y12601D01*
X6050Y12634D01*
G75*
D01*
G03X5671Y12445I-350J227*
G01*
X5671Y12445D01*
X5858Y12258D01*
G74*
D01*
G03X5959Y12203I142J141*
G01*
G75*
D01*
G03X6000Y12199I40J197*
G01*
X6000Y12199D01*
X8691Y12199D01*
D02*
G37*
G36*
X37645Y7076D02*
G75*
D01*
G03X37645Y7076I408J177*
G01*
D02*
G37*
G36*
X33581Y8958D02*
X33581Y8958D01*
X33581Y9548D01*
G74*
D01*
G03X33430Y9699I151J0*
G01*
X33430Y9699D01*
X32840Y9699D01*
G75*
D01*
G03X32689Y9548I0J-151*
G01*
X32689Y9548D01*
X32689Y8958D01*
G75*
D01*
G03X32840Y8807I151J0*
G01*
X32840Y8807D01*
X33430Y8807D01*
G75*
D01*
G03X33581Y8958I0J151*
G01*
D02*
G37*
G36*
X38425Y9298D02*
G75*
D01*
G03X38425Y9298I-172J-45*
G01*
D02*
G37*
G36*
X38659Y9436D02*
X38659Y9436D01*
X38521Y9298D01*
X38521Y9298D01*
X38476Y9253D01*
X38659Y9070D01*
G75*
D01*
G03X38659Y9436I-406J183*
G01*
D02*
G37*
G36*
X37847Y9436D02*
G75*
D01*
G03X37847Y9070I406J-183*
G01*
X37847Y9070D01*
X38030Y9253D01*
X37985Y9298D01*
X37985Y9298D01*
X37847Y9436D01*
D02*
G37*
G36*
X18747Y31004D02*
G75*
D01*
G03X18747Y31004I121J398*
G01*
D02*
G37*
G36*
X38436Y8847D02*
X38436Y8847D01*
X38253Y9030D01*
X38070Y8847D01*
G75*
D01*
G03X38436Y8847I183J406*
G01*
D02*
G37*
G36*
X38070Y9659D02*
X38070Y9659D01*
X38253Y9476D01*
X38436Y9659D01*
G75*
D01*
G03X38070Y9659I-183J-406*
G01*
D02*
G37*
G36*
X4452Y31402D02*
G75*
D01*
G03X4452Y31402I416J0*
G01*
D02*
G37*
G36*
X5452Y31402D02*
G75*
D01*
G03X5452Y31402I416J0*
G01*
D02*
G37*
G36*
X6452Y31402D02*
G75*
D01*
G03X6452Y31402I416J0*
G01*
D02*
G37*
G36*
X7452Y31402D02*
G75*
D01*
G03X7452Y31402I416J0*
G01*
D02*
G37*
G36*
X8452Y31402D02*
G75*
D01*
G03X8452Y31402I416J0*
G01*
D02*
G37*
G36*
X9452Y31402D02*
G75*
D01*
G03X9452Y31402I416J0*
G01*
D02*
G37*
G36*
X10452Y31402D02*
G75*
D01*
G03X10452Y31402I416J0*
G01*
D02*
G37*
G36*
X11452Y31402D02*
G75*
D01*
G03X11452Y31402I416J0*
G01*
D02*
G37*
G36*
X12452Y31402D02*
G75*
D01*
G03X12452Y31402I416J0*
G01*
D02*
G37*
G36*
X13452Y31402D02*
G75*
D01*
G03X13452Y31402I416J0*
G01*
D02*
G37*
G36*
X14452Y31402D02*
G75*
D01*
G03X14452Y31402I416J0*
G01*
D02*
G37*
G36*
X15452Y31402D02*
G75*
D01*
G03X15452Y31402I416J0*
G01*
D02*
G37*
G36*
X16452Y31402D02*
G75*
D01*
G03X16452Y31402I416J0*
G01*
D02*
G37*
G36*
X17452Y31402D02*
G75*
D01*
G03X17452Y31402I416J0*
G01*
D02*
G37*
G36*
X19452Y31402D02*
G75*
D01*
G03X19452Y31402I416J0*
G01*
D02*
G37*
G36*
X34768Y16369D02*
X34768Y16369D01*
X34768Y16127D01*
X35010Y16127D01*
G74*
D01*
G03X34768Y16369I389J147*
G01*
D02*
G37*
G36*
X34424Y15980D02*
G75*
D01*
G03X34424Y15980I196J0*
G01*
D02*
G37*
G36*
X36763Y13420D02*
G75*
D01*
G03X36763Y13420I417J0*
G01*
D02*
G37*
G36*
X34204Y13420D02*
G75*
D01*
G03X34204Y13420I416J0*
G01*
D02*
G37*
G36*
X22110Y3648D02*
X22110Y3648D01*
X22352Y3648D01*
X22352Y3890D01*
G74*
D01*
G03X22110Y3648I148J390*
G01*
D02*
G37*
G36*
X22890Y3352D02*
X22890Y3352D01*
X22648Y3352D01*
X22648Y3110D01*
G74*
D01*
G03X22890Y3352I148J390*
G01*
D02*
G37*
G36*
X22352Y3110D02*
X22352Y3110D01*
X22352Y3352D01*
X22110Y3352D01*
G74*
D01*
G03X22352Y3110I390J148*
G01*
D02*
G37*
G36*
X22648Y3890D02*
X22648Y3890D01*
X22648Y3648D01*
X22890Y3648D01*
G74*
D01*
G03X22648Y3890I390J148*
G01*
D02*
G37*
G36*
X22303Y3500D02*
G75*
D01*
G03X22303Y3500I197J0*
G01*
D02*
G37*
G36*
X2941Y14483D02*
X2941Y14483D01*
X3124Y14300D01*
X3306Y14483D01*
G75*
D01*
G03X2941Y14483I-182J-405*
G01*
D02*
G37*
G36*
X3530Y14260D02*
X3530Y14260D01*
X3347Y14077D01*
X3530Y13894D01*
G75*
D01*
G03X3530Y14260I-406J183*
G01*
D02*
G37*
G36*
X2946Y14077D02*
G75*
D01*
G03X2946Y14077I178J0*
G01*
D02*
G37*
G36*
X3306Y13671D02*
X3306Y13671D01*
X3124Y13854D01*
X2941Y13671D01*
G75*
D01*
G03X3306Y13671I183J406*
G01*
D02*
G37*
G36*
X2718Y14260D02*
G75*
D01*
G03X2718Y13894I406J-183*
G01*
X2718Y13894D01*
X2900Y14077D01*
X2718Y14260D01*
D02*
G37*
G36*
X2941Y12869D02*
X2941Y12869D01*
X3124Y12686D01*
X3306Y12869D01*
G75*
D01*
G03X2941Y12869I-182J-405*
G01*
D02*
G37*
G36*
X3530Y12646D02*
X3530Y12646D01*
X3347Y12463D01*
X3530Y12280D01*
G75*
D01*
G03X3530Y12646I-406J183*
G01*
D02*
G37*
G36*
X2946Y12463D02*
G75*
D01*
G03X2946Y12463I178J0*
G01*
D02*
G37*
G36*
X3306Y12057D02*
X3306Y12057D01*
X3124Y12240D01*
X2941Y12057D01*
G75*
D01*
G03X3306Y12057I183J406*
G01*
D02*
G37*
G36*
X2718Y12646D02*
G75*
D01*
G03X2718Y12280I406J-183*
G01*
X2718Y12280D01*
X2900Y12463D01*
X2718Y12646D01*
D02*
G37*
G36*
X2941Y11255D02*
X2941Y11255D01*
X3124Y11072D01*
X3306Y11255D01*
G75*
D01*
G03X2941Y11255I-182J-405*
G01*
D02*
G37*
G36*
X2946Y10849D02*
G75*
D01*
G03X2946Y10849I178J0*
G01*
D02*
G37*
G36*
X3306Y10443D02*
X3306Y10443D01*
X3124Y10626D01*
X2941Y10443D01*
G75*
D01*
G03X3306Y10443I183J406*
G01*
D02*
G37*
G36*
X2718Y11032D02*
G75*
D01*
G03X2718Y10666I406J-183*
G01*
X2718Y10666D01*
X2900Y10849D01*
X2718Y11032D01*
D02*
G37*
G36*
X1377Y9681D02*
X1377Y9681D01*
X933Y9681D01*
X1155Y9458D01*
X1377Y9681D01*
D02*
G37*
G36*
X2678Y6006D02*
G75*
D01*
G03X2678Y6006I446J0*
G01*
D02*
G37*
G36*
X933Y8789D02*
X933Y8789D01*
X1377Y8789D01*
X1155Y9011D01*
X933Y8789D01*
D02*
G37*
G36*
X36201Y7717D02*
G75*
D01*
G03X35799Y7717I-201J283*
G01*
X35799Y7717D01*
X35799Y4104D01*
G75*
D01*
G03X36201Y3989I102J-403*
G01*
G75*
D01*
G03X36201Y4000I-201J6*
G01*
X36201Y4000D01*
X36201Y7717D01*
D02*
G37*
G36*
X33157Y7699D02*
X33157Y7699D01*
X32713Y7699D01*
X32935Y7477D01*
X33157Y7699D01*
D02*
G37*
G36*
X33381Y7031D02*
X33381Y7031D01*
X33381Y7475D01*
X33159Y7253D01*
X33381Y7031D01*
D02*
G37*
G36*
X32758Y7253D02*
G75*
D01*
G03X32758Y7253I177J0*
G01*
D02*
G37*
G36*
X32713Y6807D02*
X32713Y6807D01*
X33157Y6807D01*
X32935Y7029D01*
X32713Y6807D01*
D02*
G37*
G36*
X32489Y7475D02*
X32489Y7475D01*
X32489Y7031D01*
X32711Y7253D01*
X32489Y7475D01*
D02*
G37*
G36*
X31270Y6631D02*
X31270Y6631D01*
X31106Y6467D01*
X31270Y6303D01*
G75*
D01*
G03X31270Y6631I-365J164*
G01*
D02*
G37*
G36*
X30741Y6832D02*
X30741Y6832D01*
X30905Y6668D01*
X31069Y6832D01*
G75*
D01*
G03X30741Y6832I-164J-365*
G01*
D02*
G37*
G36*
X30540Y6631D02*
G75*
D01*
G03X30540Y6303I365J-164*
G01*
X30540Y6303D01*
X30704Y6467D01*
X30540Y6631D01*
D02*
G37*
G36*
X31069Y6102D02*
X31069Y6102D01*
X30905Y6267D01*
X30741Y6102D01*
G75*
D01*
G03X31069Y6102I164J365*
G01*
D02*
G37*
G36*
X30730Y6467D02*
G75*
D01*
G03X30730Y6467I175J0*
G01*
D02*
G37*
G36*
X34510Y1848D02*
X34510Y1848D01*
X34752Y1848D01*
X34752Y2090D01*
G74*
D01*
G03X34510Y1848I148J390*
G01*
D02*
G37*
G36*
X35290Y1552D02*
X35290Y1552D01*
X35048Y1552D01*
X35048Y1310D01*
G74*
D01*
G03X35290Y1552I148J390*
G01*
D02*
G37*
G36*
X34752Y1310D02*
X34752Y1310D01*
X34752Y1552D01*
X34510Y1552D01*
G74*
D01*
G03X34752Y1310I390J148*
G01*
D02*
G37*
G36*
X34703Y1700D02*
G75*
D01*
G03X34703Y1700I197J0*
G01*
D02*
G37*
G36*
X35048Y2090D02*
X35048Y2090D01*
X35048Y1848D01*
X35290Y1848D01*
G74*
D01*
G03X35048Y2090I390J148*
G01*
D02*
G37*
G36*
X36483Y1700D02*
G75*
D01*
G03X36483Y1700I417J0*
G01*
D02*
G37*
G36*
X6479Y19345D02*
X6479Y19345D01*
X6721Y19345D01*
X6721Y19587D01*
G74*
D01*
G03X6479Y19345I146J388*
G01*
D02*
G37*
G36*
X7258Y19050D02*
X7258Y19050D01*
X7016Y19050D01*
X7016Y18808D01*
G74*
D01*
G03X7258Y19050I148J390*
G01*
D02*
G37*
G36*
X6721Y18808D02*
X6721Y18808D01*
X6721Y19050D01*
X6479Y19050D01*
G74*
D01*
G03X6721Y18808I389J147*
G01*
D02*
G37*
G36*
X7016Y19587D02*
X7016Y19587D01*
X7016Y19345D01*
X7258Y19345D01*
G74*
D01*
G03X7016Y19587I389J147*
G01*
D02*
G37*
G36*
X6672Y19198D02*
G75*
D01*
G03X6672Y19198I196J0*
G01*
D02*
G37*
%LPD*%
G36*
X21999Y11253D02*
X21999Y11253D01*
X21999Y7683D01*
X21917Y7601D01*
X10283Y7601D01*
X10201Y7683D01*
X10201Y8400D01*
G74*
D01*
G03X10025Y8599I201J0*
G01*
X10025Y8599D01*
X10001Y8647D01*
X10001Y9200D01*
G74*
D01*
G03X9825Y9399I201J0*
G01*
X9825Y9399D01*
X9801Y9447D01*
X9801Y9600D01*
G74*
D01*
G03X9690Y9780I201J0*
G01*
X9690Y9780D01*
X9519Y9865D01*
X9442Y9942D01*
G74*
D01*
G03X9404Y9972I142J141*
G01*
G75*
D01*
G03X9362Y10599I-299J295*
G01*
X9362Y10599D01*
X9717Y10599D01*
G75*
D01*
G03X9717Y11001I283J201*
G01*
X9717Y11001D01*
X9430Y11001D01*
G75*
D01*
G03X9495Y11423I-324J266*
G01*
G74*
D01*
G03X9542Y11458I95J176*
G01*
X9542Y11458D01*
X9883Y11799D01*
X12400Y11799D01*
G75*
D01*
G03X12466Y11810I0J201*
G01*
G74*
D01*
G03X12542Y11858I67J190*
G01*
X12542Y11858D01*
X12742Y12058D01*
G74*
D01*
G03X12769Y12091I140J142*
G01*
G75*
D01*
G03X12535Y12618I135J375*
G01*
G74*
D01*
G03X12525Y12609I129J153*
G01*
X12525Y12609D01*
X12458Y12542D01*
G75*
D01*
G03X12399Y12400I141J-142*
G01*
X12399Y12400D01*
X12399Y12283D01*
X12317Y12201D01*
X12204Y12201D01*
G75*
D01*
G03X12193Y12745I-299J266*
G01*
G75*
D01*
G03X12201Y12800I-192J56*
G01*
X12201Y12800D01*
X12201Y18317D01*
X12283Y18399D01*
X14516Y18399D01*
G75*
D01*
G03X15147Y18199I285J-196*
G01*
X15147Y18199D01*
X17117Y18199D01*
X17199Y18117D01*
X17199Y15367D01*
G75*
D01*
G03X17199Y14767I-294J-300*
G01*
X17199Y14767D01*
X17199Y14400D01*
G75*
D01*
G03X17258Y14258I201J0*
G01*
X17258Y14258D01*
X17458Y14058D01*
G74*
D01*
G03X17571Y14001I142J141*
G01*
G75*
D01*
G03X17600Y13999I28J199*
G01*
X17600Y13999D01*
X18117Y13999D01*
X18199Y13917D01*
X18199Y12738D01*
G75*
D01*
G03X17794Y12852I-294J-269*
G01*
G74*
D01*
G03X17742Y12942I193J52*
G01*
X17742Y12942D01*
X17542Y13142D01*
G74*
D01*
G03X17466Y13190I142J141*
G01*
G75*
D01*
G03X17400Y13201I-66J-190*
G01*
X17400Y13201D01*
X17083Y13201D01*
X16942Y13342D01*
G74*
D01*
G03X16866Y13390I142J141*
G01*
G75*
D01*
G03X16800Y13401I-66J-190*
G01*
X16800Y13401D01*
X16283Y13401D01*
X16201Y13483D01*
X16201Y14769D01*
G75*
D01*
G03X15799Y14661I-296J298*
G01*
X15799Y14661D01*
X15799Y13400D01*
G75*
D01*
G03X15801Y13374I201J2*
G01*
G74*
D01*
G03X15766Y13390I101J174*
G01*
G75*
D01*
G03X15700Y13401I-66J-190*
G01*
X15700Y13401D01*
X15283Y13401D01*
X15201Y13483D01*
X15201Y14769D01*
G75*
D01*
G03X14799Y14661I-296J298*
G01*
X14799Y14661D01*
X14799Y13400D01*
G75*
D01*
G03X14801Y13374I201J2*
G01*
G74*
D01*
G03X14766Y13390I101J174*
G01*
G75*
D01*
G03X14700Y13401I-66J-190*
G01*
X14700Y13401D01*
X14283Y13401D01*
X14201Y13483D01*
X14201Y14769D01*
G75*
D01*
G03X13799Y14661I-296J298*
G01*
X13799Y14661D01*
X13799Y13400D01*
G75*
D01*
G03X13858Y13258I201J0*
G01*
X13858Y13258D01*
X13915Y13201D01*
X13283Y13201D01*
X13201Y13283D01*
X13201Y14769D01*
G75*
D01*
G03X12799Y14661I-296J298*
G01*
X12799Y14661D01*
X12799Y13200D01*
G75*
D01*
G03X12858Y13058I201J0*
G01*
X12858Y13058D01*
X13058Y12858D01*
G74*
D01*
G03X13171Y12801I142J141*
G01*
G75*
D01*
G03X13200Y12799I28J199*
G01*
X13200Y12799D01*
X13682Y12799D01*
G75*
D01*
G03X14128Y12799I223J-331*
G01*
X14128Y12799D01*
X14317Y12799D01*
X14399Y12717D01*
X14399Y12601D01*
G75*
D01*
G03X14458Y12458I201J-1*
G01*
X14458Y12458D01*
X14510Y12406D01*
G75*
D01*
G03X15128Y12799I394J63*
G01*
X15128Y12799D01*
X15317Y12799D01*
X15399Y12717D01*
X15399Y12601D01*
G75*
D01*
G03X15458Y12458I201J-1*
G01*
X15458Y12458D01*
X15510Y12406D01*
G75*
D01*
G03X16128Y12799I394J63*
G01*
X16128Y12799D01*
X16317Y12799D01*
X16399Y12717D01*
X16399Y12601D01*
G75*
D01*
G03X16458Y12458I201J-1*
G01*
X16458Y12458D01*
X16510Y12406D01*
G75*
D01*
G03X17128Y12799I394J63*
G01*
X17128Y12799D01*
X17317Y12799D01*
X17399Y12717D01*
X17399Y12601D01*
G75*
D01*
G03X17458Y12458I201J-1*
G01*
X17458Y12458D01*
X17510Y12406D01*
G75*
D01*
G03X18199Y12196I395J59*
G01*
X18199Y12196D01*
X18199Y11883D01*
G75*
D01*
G03X18601Y11883I201J-283*
G01*
X18601Y11883D01*
X18601Y12207D01*
G75*
D01*
G03X19199Y12196I304J260*
G01*
X19199Y12196D01*
X19199Y11883D01*
G75*
D01*
G03X19601Y11883I201J-283*
G01*
X19601Y11883D01*
X19601Y12207D01*
G75*
D01*
G03X20193Y12745I299J265*
G01*
G75*
D01*
G03X20201Y12800I-192J56*
G01*
X20201Y12800D01*
X20201Y12825D01*
G74*
D01*
G03X20284Y12800I98J175*
G01*
G75*
D01*
G03X20300Y12799I20J199*
G01*
X20300Y12799D01*
X20682Y12799D01*
G75*
D01*
G03X21128Y12799I223J-331*
G01*
X21128Y12799D01*
X21317Y12799D01*
X21399Y12717D01*
X21399Y12601D01*
G75*
D01*
G03X21458Y12458I201J-1*
G01*
X21458Y12458D01*
X21510Y12406D01*
G75*
D01*
G03X22199Y12196I395J59*
G01*
X22199Y12196D01*
X22199Y11884D01*
G75*
D01*
G03X21999Y11253I-196J-285*
G01*
D02*
G37*
G36*
X9200Y8799D02*
X9200Y8799D01*
X9317Y8799D01*
X9399Y8717D01*
X9399Y8567D01*
G75*
D01*
G03X9067Y7849I-294J-300*
G01*
G74*
D01*
G03X9129Y7812I132J151*
G01*
G75*
D01*
G03X9200Y7799I71J187*
G01*
X9200Y7799D01*
X9317Y7799D01*
X9399Y7717D01*
X9399Y7567D01*
G74*
D01*
G03X9254Y7660I294J300*
G01*
X9254Y7660D01*
X9254Y7416D01*
X9399Y7416D01*
X9399Y7118D01*
X9254Y7118D01*
X9254Y6875D01*
G74*
D01*
G03X9427Y6998I148J392*
G01*
G74*
D01*
G03X9458Y6958I172J102*
G01*
X9458Y6958D01*
X9558Y6858D01*
G74*
D01*
G03X9684Y6800I141J141*
G01*
G75*
D01*
G03X9700Y6799I20J199*
G01*
X9700Y6799D01*
X11682Y6799D01*
G75*
D01*
G03X11599Y6209I221J-332*
G01*
X11599Y6200D01*
X11599Y6200D01*
X11599Y4200D01*
G75*
D01*
G03X11658Y4058I201J0*
G01*
X11658Y4058D01*
X11679Y4037D01*
X11679Y3630D01*
G75*
D01*
G03X11830Y3479I151J0*
G01*
X11830Y3479D01*
X12370Y3479D01*
G75*
D01*
G03X12521Y3630I0J151*
G01*
X12521Y3630D01*
X12521Y4170D01*
G74*
D01*
G03X12370Y4321I151J0*
G01*
X12370Y4321D01*
X12001Y4321D01*
X12001Y6079D01*
G75*
D01*
G03X12128Y6799I-94J388*
G01*
X12128Y6799D01*
X12682Y6799D01*
G75*
D01*
G03X12799Y6082I221J-332*
G01*
X12799Y6082D01*
X12799Y4201D01*
G75*
D01*
G03X12799Y4193I201J-4*
G01*
G75*
D01*
G03X13201Y4308I301J-293*
G01*
X13201Y4308D01*
X13201Y6198D01*
G75*
D01*
G03X13128Y6799I-295J269*
G01*
X13128Y6799D01*
X13682Y6799D01*
G75*
D01*
G03X13799Y6082I221J-332*
G01*
X13799Y6082D01*
X13799Y4201D01*
G75*
D01*
G03X13799Y4193I201J-4*
G01*
G75*
D01*
G03X13799Y3607I301J-293*
G01*
G75*
D01*
G03X13799Y3599I201J-4*
G01*
X13799Y3599D01*
X13799Y3483D01*
X13717Y3401D01*
X6100Y3401D01*
G75*
D01*
G03X6084Y3400I5J-201*
G01*
G74*
D01*
G03X5958Y3342I15J199*
G01*
X5958Y3342D01*
X5858Y3242D01*
G74*
D01*
G03X5847Y3230I142J141*
G01*
X5847Y3230D01*
X5847Y3278D01*
G74*
D01*
G03X5760Y3365I87J0*
G01*
X5760Y3365D01*
X5623Y3365D01*
X5623Y3118D01*
G75*
D01*
G03X5377Y3118I-123J-99*
G01*
X5377Y3118D01*
X5377Y3365D01*
X5240Y3365D01*
G75*
D01*
G03X5201Y3356I0J-87*
G01*
X5201Y3356D01*
X5201Y5916D01*
G75*
D01*
G03X5747Y6199I200J282*
G01*
X5747Y6199D01*
X7500Y6199D01*
G74*
D01*
G03X7642Y6258I0J201*
G01*
X7642Y6258D01*
X7742Y6358D01*
G75*
D01*
G03X7801Y6500I-141J142*
G01*
X7801Y6500D01*
X7801Y10517D01*
G74*
D01*
G03X7900Y10626I202J282*
G01*
G75*
D01*
G03X8483Y10599I300J172*
G01*
X8483Y10599D01*
X8848Y10599D01*
G75*
D01*
G03X8780Y10001I256J-332*
G01*
X8780Y10001D01*
X8483Y10001D01*
G75*
D01*
G03X8483Y9599I-283J-201*
G01*
X8483Y9599D01*
X8848Y9599D01*
G75*
D01*
G03X9067Y8849I255J-333*
G01*
G74*
D01*
G03X9129Y8812I132J151*
G01*
G75*
D01*
G03X9200Y8799I71J187*
G01*
D02*
G37*
%LPC*%
G36*
X9298Y7319D02*
G75*
D01*
G03X9298Y7319I-193J-52*
G01*
D02*
G37*
G36*
X9298Y6319D02*
G75*
D01*
G03X9298Y6319I-193J-52*
G01*
D02*
G37*
G36*
X9254Y6660D02*
X9254Y6660D01*
X9254Y6416D01*
X9498Y6416D01*
G74*
D01*
G03X9254Y6660I393J149*
G01*
D02*
G37*
G36*
X9254Y5875D02*
G74*
D01*
G03X9498Y6118I148J392*
G01*
X9498Y6118D01*
X9254Y6118D01*
X9254Y5875D01*
D02*
G37*
G36*
X8712Y7416D02*
X8712Y7416D01*
X8956Y7416D01*
X8956Y7660D01*
G74*
D01*
G03X8712Y7416I149J393*
G01*
D02*
G37*
G36*
X8956Y6875D02*
X8956Y6875D01*
X8956Y7118D01*
X8712Y7118D01*
G74*
D01*
G03X8956Y6875I392J150*
G01*
D02*
G37*
G36*
X8712Y6416D02*
X8712Y6416D01*
X8956Y6416D01*
X8956Y6660D01*
G74*
D01*
G03X8712Y6416I149J393*
G01*
D02*
G37*
G36*
X8956Y5875D02*
X8956Y5875D01*
X8956Y6118D01*
X8712Y6118D01*
G74*
D01*
G03X8956Y5875I392J150*
G01*
D02*
G37*
%LPD*%
G36*
X20199Y15486D02*
G74*
D01*
G03X20175Y15488I24J148*
G01*
X20175Y15488D01*
X19635Y15488D01*
G75*
D01*
G03X19484Y15337I0J-151*
G01*
X19484Y15337D01*
X19484Y14797D01*
G75*
D01*
G03X19635Y14646I151J0*
G01*
X19635Y14646D01*
X19999Y14646D01*
X19999Y14485D01*
X19942Y14542D01*
G74*
D01*
G03X19866Y14590I142J141*
G01*
G75*
D01*
G03X19800Y14601I-66J-190*
G01*
X19800Y14601D01*
X18283Y14601D01*
X18201Y14683D01*
X18201Y14769D01*
G75*
D01*
G03X17601Y15357I-300J294*
G01*
X17601Y15357D01*
X17601Y18200D01*
G74*
D01*
G03X17542Y18342I201J0*
G01*
X17542Y18342D01*
X17485Y18399D01*
X19400Y18399D01*
G75*
D01*
G03X19466Y18410I0J201*
G01*
G74*
D01*
G03X19542Y18458I67J190*
G01*
X19542Y18458D01*
X19742Y18658D01*
G74*
D01*
G03X19801Y18786I140J142*
G01*
G75*
D01*
G03X20199Y18944I67J412*
G01*
X20199Y18944D01*
X20199Y15486D01*
D02*
G37*
%LPC*%
G36*
X18747Y14678D02*
G75*
D01*
G03X18747Y14678I158J389*
G01*
D02*
G37*
%LPD*%
G36*
X29200Y13401D02*
X29200Y13401D01*
X28683Y13401D01*
X28601Y13483D01*
X28601Y14117D01*
X28742Y14258D01*
G75*
D01*
G03X28801Y14400I-141J142*
G01*
X28801Y14400D01*
X28801Y14777D01*
G74*
D01*
G03X28999Y14661I303J291*
G01*
X28999Y14661D01*
X28999Y14600D01*
G75*
D01*
G03X29058Y14458I201J0*
G01*
X29058Y14458D01*
X29258Y14258D01*
G74*
D01*
G03X29371Y14201I142J141*
G01*
G75*
D01*
G03X29400Y14199I28J199*
G01*
X29400Y14199D01*
X29917Y14199D01*
X29999Y14117D01*
X29999Y12856D01*
G75*
D01*
G03X29601Y12727I-94J-389*
G01*
X29601Y12727D01*
X29601Y13000D01*
G74*
D01*
G03X29542Y13142I201J0*
G01*
X29542Y13142D01*
X29342Y13342D01*
G74*
D01*
G03X29266Y13390I142J141*
G01*
G75*
D01*
G03X29200Y13401I-66J-190*
G01*
D02*
G37*
G36*
X14799Y3599D02*
X14799Y3599D01*
X14799Y3283D01*
X14717Y3201D01*
X14085Y3201D01*
X14142Y3258D01*
G75*
D01*
G03X14201Y3400I-141J142*
G01*
X14201Y3400D01*
X14201Y3492D01*
G75*
D01*
G03X14201Y4308I-100J408*
G01*
X14201Y4308D01*
X14201Y6198D01*
G75*
D01*
G03X14128Y6799I-295J269*
G01*
X14128Y6799D01*
X14682Y6799D01*
G75*
D01*
G03X14799Y6082I221J-332*
G01*
X14799Y6082D01*
X14799Y4201D01*
G75*
D01*
G03X14799Y4193I201J-4*
G01*
G75*
D01*
G03X14799Y3607I301J-293*
G01*
G75*
D01*
G03X14799Y3599I201J-4*
G01*
D02*
G37*
G36*
X22799Y6082D02*
X22799Y6082D01*
X22799Y6000D01*
G75*
D01*
G03X22858Y5858I201J0*
G01*
X22858Y5858D01*
X22915Y5801D01*
X22883Y5801D01*
X22742Y5942D01*
G74*
D01*
G03X22600Y6001I142J141*
G01*
X22600Y6001D01*
X21485Y6001D01*
X21542Y6058D01*
G75*
D01*
G03X21601Y6200I-141J142*
G01*
X21601Y6200D01*
X21601Y6207D01*
G75*
D01*
G03X21601Y6727I304J260*
G01*
X21601Y6727D01*
X21601Y7000D01*
G74*
D01*
G03X21542Y7142I201J0*
G01*
X21542Y7142D01*
X21485Y7199D01*
X22000Y7199D01*
G75*
D01*
G03X22066Y7210I0J201*
G01*
G74*
D01*
G03X22142Y7258I67J190*
G01*
X22142Y7258D01*
X22199Y7315D01*
X22199Y7200D01*
G75*
D01*
G03X22258Y7058I201J0*
G01*
X22258Y7058D01*
X22458Y6858D01*
G74*
D01*
G03X22571Y6801I142J141*
G01*
G75*
D01*
G03X22600Y6799I28J199*
G01*
X22600Y6799D01*
X22682Y6799D01*
G75*
D01*
G03X22799Y6082I221J-332*
G01*
D02*
G37*
G36*
X18542Y14142D02*
X18542Y14142D01*
X18485Y14199D01*
X19717Y14199D01*
X19799Y14117D01*
X19799Y12883D01*
X19763Y12847D01*
G74*
D01*
G03X19754Y12838I137J146*
G01*
G74*
D01*
G03X19601Y12727I152J370*
G01*
X19601Y12727D01*
X19601Y13117D01*
G75*
D01*
G03X19199Y13117I-201J283*
G01*
X19199Y13117D01*
X19199Y12738D01*
G75*
D01*
G03X18601Y12727I-294J-270*
G01*
X18601Y12727D01*
X18601Y14000D01*
G74*
D01*
G03X18542Y14142I201J0*
G01*
D02*
G37*
G36*
X29401Y14769D02*
G75*
D01*
G03X28801Y15357I-300J294*
G01*
X28801Y15357D01*
X28801Y15400D01*
G74*
D01*
G03X28690Y15580I201J0*
G01*
X28690Y15580D01*
X28651Y15599D01*
X29517Y15599D01*
X29658Y15458D01*
G74*
D01*
G03X29709Y15421I141J141*
G01*
G74*
D01*
G03X29684Y15337I126J83*
G01*
X29684Y15337D01*
X29684Y14797D01*
G75*
D01*
G03X29835Y14646I151J0*
G01*
X29835Y14646D01*
X30199Y14646D01*
X30199Y14485D01*
X30142Y14542D01*
G74*
D01*
G03X30066Y14590I142J141*
G01*
G75*
D01*
G03X30000Y14601I-66J-190*
G01*
X30000Y14601D01*
X29483Y14601D01*
X29401Y14683D01*
X29401Y14769D01*
D02*
G37*
G36*
X19201Y6198D02*
G75*
D01*
G03X19128Y6799I-295J269*
G01*
X19128Y6799D01*
X19682Y6799D01*
G75*
D01*
G03X20033Y6088I216J-336*
G01*
G74*
D01*
G03X20058Y6058I166J113*
G01*
X20058Y6058D01*
X20115Y6001D01*
X19201Y6001D01*
X19201Y6198D01*
D02*
G37*
G36*
X18756Y19599D02*
G75*
D01*
G03X18740Y18801I109J-401*
G01*
X18740Y18801D01*
X17997Y18801D01*
G75*
D01*
G03X17981Y19599I-129J397*
G01*
X17981Y19599D01*
X18756Y19599D01*
D02*
G37*
G36*
X16997Y18801D02*
G75*
D01*
G03X16981Y19599I-129J397*
G01*
X16981Y19599D01*
X17756Y19599D01*
G75*
D01*
G03X17740Y18801I109J-401*
G01*
X17740Y18801D01*
X16997Y18801D01*
D02*
G37*
G36*
X15997Y18801D02*
G75*
D01*
G03X15981Y19599I-129J397*
G01*
X15981Y19599D01*
X16756Y19599D01*
G75*
D01*
G03X16740Y18801I109J-401*
G01*
X16740Y18801D01*
X15997Y18801D01*
D02*
G37*
G36*
X14997Y18801D02*
G75*
D01*
G03X14981Y19599I-129J397*
G01*
X14981Y19599D01*
X15756Y19599D01*
G75*
D01*
G03X15740Y18801I109J-401*
G01*
X15740Y18801D01*
X14997Y18801D01*
D02*
G37*
G36*
X13997Y18801D02*
G75*
D01*
G03X13981Y19599I-129J397*
G01*
X13981Y19599D01*
X14756Y19599D01*
G75*
D01*
G03X14740Y18801I109J-401*
G01*
X14740Y18801D01*
X13997Y18801D01*
D02*
G37*
G36*
X12997Y18801D02*
G75*
D01*
G03X12981Y19599I-129J397*
G01*
X12981Y19599D01*
X13756Y19599D01*
G75*
D01*
G03X13740Y18801I109J-401*
G01*
X13740Y18801D01*
X12997Y18801D01*
D02*
G37*
G36*
X19399Y19000D02*
G74*
D01*
G02X19456Y19140I201J0*
G01*
G75*
D01*
G02X19756Y19599I412J58*
G01*
X19756Y19599D01*
X18981Y19599D01*
G75*
D01*
G02X18997Y18801I-109J-401*
G01*
X18997Y18801D01*
X19317Y18801D01*
X19399Y18883D01*
X19399Y19000D01*
D02*
G37*
G36*
X23700Y6001D02*
X23700Y6001D01*
X23283Y6001D01*
X23201Y6083D01*
X23201Y6198D01*
G75*
D01*
G03X23128Y6799I-295J269*
G01*
X23128Y6799D01*
X23682Y6799D01*
G75*
D01*
G03X23799Y6082I221J-332*
G01*
X23799Y6082D01*
X23799Y5975D01*
G74*
D01*
G03X23772Y5988I100J174*
G01*
G75*
D01*
G03X23700Y6001I-71J-188*
G01*
D02*
G37*
G36*
X20606Y6201D02*
X20606Y6201D01*
X20483Y6201D01*
X20401Y6283D01*
X20401Y6400D01*
G74*
D01*
G03X20342Y6542I201J0*
G01*
X20342Y6542D01*
X20281Y6603D01*
G74*
D01*
G03X20128Y6799I375J135*
G01*
X20128Y6799D01*
X20517Y6799D01*
X20595Y6720D01*
G75*
D01*
G03X20606Y6201I310J-253*
G01*
D02*
G37*
G36*
X30606Y12201D02*
X30606Y12201D01*
X30204Y12201D01*
G74*
D01*
G03X30302Y12418I299J266*
G01*
X30302Y12418D01*
X30342Y12458D01*
G74*
D01*
G03X30400Y12580I141J142*
G01*
G74*
D01*
G03X30458Y12458I199J20*
G01*
X30458Y12458D01*
X30510Y12406D01*
G74*
D01*
G03X30606Y12201I394J60*
G01*
D02*
G37*
G36*
X22199Y12738D02*
G75*
D01*
G03X21794Y12852I-294J-269*
G01*
G74*
D01*
G03X21742Y12942I193J52*
G01*
X21742Y12942D01*
X21685Y12999D01*
X22117Y12999D01*
X22199Y12917D01*
X22199Y12738D01*
D02*
G37*
G36*
X29199Y12738D02*
G75*
D01*
G03X28794Y12852I-294J-269*
G01*
G74*
D01*
G03X28742Y12942I193J52*
G01*
X28742Y12942D01*
X28685Y12999D01*
X29117Y12999D01*
X29199Y12917D01*
X29199Y12738D01*
D02*
G37*
G36*
X17601Y14777D02*
G74*
D01*
G03X17799Y14661I303J291*
G01*
X17799Y14661D01*
X17799Y14600D01*
G75*
D01*
G03X17858Y14458I201J0*
G01*
X17858Y14458D01*
X17915Y14401D01*
X17683Y14401D01*
X17601Y14483D01*
X17601Y14777D01*
D02*
G37*
G36*
X23999Y3399D02*
X23999Y3399D01*
X23999Y3283D01*
X23801Y3085D01*
X23801Y3200D01*
G74*
D01*
G03X23801Y3211I201J6*
G01*
G74*
D01*
G03X23910Y3426I302J288*
G01*
X23910Y3426D01*
X23942Y3458D01*
G74*
D01*
G03X24000Y3580I141J142*
G01*
G74*
D01*
G03X24026Y3500I199J20*
G01*
G75*
D01*
G03X23999Y3399I173J-100*
G01*
D02*
G37*
G36*
X21199Y6738D02*
G74*
D01*
G03X21041Y6843I294J270*
G01*
X21041Y6843D01*
X20885Y6999D01*
X21117Y6999D01*
X21199Y6917D01*
X21199Y6738D01*
D02*
G37*
G36*
X5342Y2777D02*
G75*
D01*
G02X5342Y2782I158J3*
G01*
X5342Y2782D01*
X5342Y3018D01*
G74*
D01*
G02X5342Y3023I158J3*
G01*
X5342Y3023D01*
X5201Y3023D01*
X5201Y2777D01*
X5342Y2777D01*
D02*
G37*
G36*
X5658Y3023D02*
G74*
D01*
G02X5658Y3018I158J2*
G01*
X5658Y3018D01*
X5658Y2782D01*
G75*
D01*
G02X5658Y2777I-158J-2*
G01*
X5658Y2777D01*
X5799Y2777D01*
X5799Y3023D01*
X5658Y3023D01*
D02*
G37*
G36*
X19981Y19599D02*
G74*
D01*
G02X20199Y19452I112J401*
G01*
X20199Y19452D01*
X20199Y19517D01*
X20117Y19599D01*
X19981Y19599D01*
D02*
G37*
G36*
X7005Y10453D02*
G74*
D01*
G03X7026Y10399I195J45*
G01*
G75*
D01*
G03X7000Y10401I-28J-198*
G01*
X7000Y10401D01*
X6883Y10401D01*
X6801Y10483D01*
X6801Y10516D01*
G75*
D01*
G03X7005Y10453I199J283*
G01*
D02*
G37*
G36*
X16742Y12942D02*
X16742Y12942D01*
X16685Y12999D01*
X16717Y12999D01*
X16852Y12864D01*
G74*
D01*
G03X16794Y12852I52J397*
G01*
G74*
D01*
G03X16742Y12942I193J52*
G01*
D02*
G37*
G36*
X5623Y2682D02*
G75*
D01*
G02X5377Y2682I-123J99*
G01*
X5377Y2682D01*
X5377Y2601D01*
X5623Y2601D01*
X5623Y2682D01*
D02*
G37*
G36*
X7877Y19614D02*
G74*
D01*
G02X7999Y19593I9J416*
G01*
X7999Y19593D01*
X7999Y19715D01*
X7942Y19658D01*
G74*
D01*
G02X7877Y19614I142J140*
G01*
D02*
G37*
G36*
X29658Y12142D02*
X29658Y12142D01*
X29601Y12085D01*
X29601Y12207D01*
G74*
D01*
G03X29664Y12148I303J261*
G01*
G74*
D01*
G03X29658Y12142I138J144*
G01*
D02*
G37*
G36*
X7300Y10974D02*
G74*
D01*
G03X7284Y10999I299J174*
G01*
X7284Y10999D01*
X7316Y10999D01*
G74*
D01*
G03X7300Y10974I283J199*
G01*
D02*
G37*
G36*
X7884Y10999D02*
X7884Y10999D01*
X7916Y10999D01*
G74*
D01*
G03X7900Y10974I283J199*
G01*
G74*
D01*
G03X7884Y10999I299J174*
G01*
D02*
G37*
G36*
X6700Y10974D02*
G74*
D01*
G03X6684Y10999I299J174*
G01*
X6684Y10999D01*
X6716Y10999D01*
G74*
D01*
G03X6700Y10974I283J199*
G01*
D02*
G37*
G36*
X21020Y18896D02*
X21020Y18896D01*
X21001Y18915D01*
X21001Y18884D01*
G74*
D01*
G02X21020Y18896I194J286*
G01*
D02*
G37*
G36*
X6113Y10995D02*
X6113Y10999D01*
X6113Y10999D01*
X6116Y10999D01*
X6113Y10995D01*
D02*
G37*
G54D11*
X990Y9298D02*
G75*
D01*
G03X990Y9298I165J-63*
G01*
X399Y10400D02*
X399Y8800D01*
G75*
D01*
G03X458Y8658I201J0*
G01*
X599Y8517D01*
X599Y7976D01*
G75*
D01*
G03X658Y7833I201J-1*
G01*
X709Y7782D01*
X709Y7325D01*
G75*
D01*
G03X799Y7187I151J0*
G01*
X799Y6439D01*
G74*
D01*
G03X709Y6302I59J137*
G01*
X709Y5711D01*
G75*
D01*
G03X860Y5560I151J0*
G01*
X1199Y5560D01*
X1199Y3400D01*
G75*
D01*
G03X1258Y3258I201J0*
G01*
X1458Y3058D01*
G74*
D01*
G03X1571Y3001I142J141*
G01*
G75*
D01*
G03X1600Y2999I28J199*
G01*
X2755Y2999D01*
X2791Y2963D01*
X2791Y2522D01*
G75*
D01*
G03X2877Y2435I86J-1*
G01*
X3199Y2435D01*
X3199Y1600D01*
G75*
D01*
G03X3258Y1458I201J0*
G01*
X3458Y1258D01*
G74*
D01*
G03X3571Y1201I142J141*
G01*
G75*
D01*
G03X3600Y1199I28J199*
G01*
X3854Y1199D01*
X3854Y789D01*
G75*
D01*
G03X3940Y703I86J0*
G01*
X4697Y703D01*
G75*
D01*
G03X4784Y789I1J86*
G01*
X4784Y1310D01*
G74*
D01*
G03X4697Y1397I87J0*
G01*
X4256Y1397D01*
X4191Y1461D01*
G74*
D01*
G03X4000Y1601I191J60*
G01*
X3683Y1601D01*
X3601Y1683D01*
X3601Y2900D01*
G74*
D01*
G03X3485Y3082I201J0*
G01*
X3485Y3278D01*
G74*
D01*
G03X3398Y3365I87J0*
G01*
X2952Y3365D01*
G74*
D01*
G03X2897Y3392I115J164*
G01*
G75*
D01*
G03X2838Y3401I-59J-191*
G01*
X1683Y3401D01*
X1601Y3483D01*
X1601Y5704D01*
G75*
D01*
G03X1601Y5711I-151J4*
G01*
X1601Y6302D01*
G74*
D01*
G03X1450Y6452I151J1*
G01*
X1201Y6452D01*
X1201Y7174D01*
X1450Y7174D01*
G75*
D01*
G03X1601Y7325I0J151*
G01*
X1601Y7916D01*
G74*
D01*
G03X1450Y8066I151J1*
G01*
X1001Y8066D01*
X1001Y8600D01*
G74*
D01*
G03X942Y8742I201J0*
G01*
X801Y8883D01*
X801Y9104D01*
X931Y9235D01*
X868Y9298D01*
X868Y9298D01*
X801Y9365D01*
X801Y10317D01*
X883Y10399D01*
X1155Y10399D01*
G74*
D01*
G03X1194Y10403I1J201*
G01*
X1450Y10403D01*
G75*
D01*
G03X1601Y10554I0J151*
G01*
X1601Y11144D01*
G74*
D01*
G03X1450Y11295I151J0*
G01*
X1201Y11295D01*
X1201Y12017D01*
X1450Y12017D01*
G75*
D01*
G03X1601Y12168I0J151*
G01*
X1601Y12758D01*
G74*
D01*
G03X1450Y12909I151J0*
G01*
X1201Y12909D01*
X1201Y13631D01*
X1450Y13631D01*
G75*
D01*
G03X1601Y13782I0J151*
G01*
X1601Y14199D01*
G75*
D01*
G03X1801Y14400I-1J201*
G01*
X1801Y14517D01*
X1883Y14599D01*
X2800Y14599D01*
G75*
D01*
G03X2866Y14610I0J201*
G01*
G74*
D01*
G03X2942Y14658I67J190*
G01*
X3142Y14858D01*
G75*
D01*
G03X3201Y15000I-141J142*
G01*
X3201Y18599D01*
X4800Y18599D01*
G75*
D01*
G03X4870Y18612I-1J201*
G01*
G74*
D01*
G03X4942Y18658I69J188*
G01*
X5010Y18726D01*
G74*
D01*
G03X5066Y18830I140J143*
G01*
G75*
D01*
G03X4501Y19001I-197J367*
G01*
X3100Y19001D01*
G75*
D01*
G03X3084Y19000I5J-201*
G01*
G74*
D01*
G03X2958Y18942I15J199*
G01*
X2858Y18842D01*
G75*
D01*
G03X2799Y18699I141J-142*
G01*
X2799Y15083D01*
X2717Y15001D01*
X1800Y15001D01*
G75*
D01*
G03X1771Y14999I-1J-201*
G01*
G74*
D01*
G03X1658Y14942I29J199*
G01*
X1458Y14742D01*
G75*
D01*
G03X1399Y14600I141J-142*
G01*
X1399Y14585D01*
G74*
D01*
G03X1336Y14542I80J185*
G01*
X1317Y14523D01*
X860Y14523D01*
G75*
D01*
G03X709Y14372I0J-151*
G01*
X709Y13782D01*
G75*
D01*
G03X799Y13644I151J0*
G01*
X799Y12896D01*
G74*
D01*
G03X709Y12758I60J137*
G01*
X709Y12168D01*
G75*
D01*
G03X799Y12030I151J0*
G01*
X799Y11282D01*
G74*
D01*
G03X709Y11144I60J137*
G01*
X709Y10779D01*
G74*
D01*
G03X658Y10742I90J178*
G01*
X458Y10542D01*
G75*
D01*
G03X399Y10400I141J-142*
G01*
X1379Y9235D02*
X1601Y9012D01*
X1601Y9457D01*
X1442Y9298D01*
X1379Y9235D01*
X18682Y6799D02*
G75*
D01*
G03X18799Y6082I221J-332*
G01*
X18799Y4201D01*
G75*
D01*
G03X18799Y4193I201J-4*
G01*
G75*
D01*
G03X19201Y4308I301J-293*
G01*
X19201Y5599D01*
X22517Y5599D01*
X22658Y5458D01*
G75*
D01*
G03X22800Y5399I142J141*
G01*
X23053Y5399D01*
G75*
D01*
G03X23599Y5116I347J1*
G01*
X23599Y3905D01*
G75*
D01*
G03X23399Y3096I-100J-405*
G01*
X23399Y1883D01*
X23317Y1801D01*
X23200Y1801D01*
G75*
D01*
G03X23171Y1799I-1J-201*
G01*
G74*
D01*
G03X23058Y1742I29J199*
G01*
X22858Y1542D01*
G75*
D01*
G03X22799Y1400I141J-142*
G01*
X22799Y1321D01*
X22430Y1321D01*
G75*
D01*
G03X22279Y1170I0J-151*
G01*
X22279Y630D01*
G75*
D01*
G03X22430Y479I151J0*
G01*
X22970Y479D01*
G75*
D01*
G03X23121Y630I0J151*
G01*
X23121Y1037D01*
X23142Y1058D01*
G75*
D01*
G03X23201Y1200I-141J142*
G01*
X23201Y1317D01*
X23283Y1399D01*
X23400Y1399D01*
G75*
D01*
G03X23466Y1410I0J201*
G01*
G74*
D01*
G03X23542Y1458I67J190*
G01*
X23599Y1515D01*
X23599Y1308D01*
G75*
D01*
G03X24001Y1193I101J-408*
G01*
G75*
D01*
G03X24001Y1200I-201J4*
G01*
X24001Y2717D01*
X24342Y3058D01*
G74*
D01*
G03X24376Y3102I140J143*
G01*
G75*
D01*
G03X24376Y3898I121J398*
G01*
G74*
D01*
G03X24342Y3942I175J100*
G01*
X24201Y4083D01*
X24201Y6198D01*
G75*
D01*
G03X24128Y6799I-295J269*
G01*
X24682Y6799D01*
G75*
D01*
G03X24799Y6082I221J-332*
G01*
X24799Y4000D01*
G75*
D01*
G03X24858Y3858I201J0*
G01*
X24999Y3717D01*
X24999Y3601D01*
G75*
D01*
G03X25026Y3500I201J0*
G01*
G75*
D01*
G03X24999Y3399I173J-100*
G01*
X24999Y3283D01*
X24658Y2942D01*
G75*
D01*
G03X24599Y2800I141J-142*
G01*
X24599Y1308D01*
G75*
D01*
G03X25001Y1193I101J-408*
G01*
G75*
D01*
G03X25001Y1200I-201J4*
G01*
X25001Y2717D01*
X25342Y3058D01*
G74*
D01*
G03X25376Y3102I140J143*
G01*
G75*
D01*
G03X25376Y3898I121J398*
G01*
G74*
D01*
G03X25342Y3942I175J100*
G01*
X25201Y4083D01*
X25201Y6198D01*
G75*
D01*
G03X25128Y6799I-295J269*
G01*
X25682Y6799D01*
G75*
D01*
G03X25799Y6082I221J-332*
G01*
X25799Y4000D01*
G75*
D01*
G03X25858Y3858I201J0*
G01*
X25999Y3717D01*
X25999Y3601D01*
G75*
D01*
G03X26026Y3500I201J0*
G01*
G75*
D01*
G03X25999Y3399I173J-100*
G01*
X25999Y3283D01*
X25658Y2942D01*
G75*
D01*
G03X25599Y2800I141J-142*
G01*
X25599Y1308D01*
G75*
D01*
G03X26001Y1193I101J-408*
G01*
G75*
D01*
G03X26001Y1200I-201J4*
G01*
X26001Y2717D01*
X26342Y3058D01*
G74*
D01*
G03X26376Y3102I140J143*
G01*
G75*
D01*
G03X26376Y3898I121J398*
G01*
G74*
D01*
G03X26342Y3942I175J100*
G01*
X26201Y4083D01*
X26201Y6198D01*
G75*
D01*
G03X26128Y6799I-295J269*
G01*
X26682Y6799D01*
G75*
D01*
G03X26799Y6082I221J-332*
G01*
X26799Y4000D01*
G75*
D01*
G03X26858Y3858I201J0*
G01*
X26999Y3717D01*
X26999Y3601D01*
G75*
D01*
G03X27026Y3500I201J0*
G01*
G75*
D01*
G03X26999Y3399I173J-100*
G01*
X26999Y3283D01*
X26658Y2942D01*
G75*
D01*
G03X26599Y2800I141J-142*
G01*
X26599Y1308D01*
G75*
D01*
G03X27001Y1193I101J-408*
G01*
G75*
D01*
G03X27001Y1200I-201J4*
G01*
X27001Y2717D01*
X27342Y3058D01*
G74*
D01*
G03X27376Y3102I140J143*
G01*
G75*
D01*
G03X27376Y3898I121J398*
G01*
G74*
D01*
G03X27342Y3942I175J100*
G01*
X27201Y4083D01*
X27201Y6198D01*
G75*
D01*
G03X27128Y6799I-295J269*
G01*
X27517Y6799D01*
X27595Y6720D01*
G75*
D01*
G03X27799Y6082I310J-252*
G01*
X27799Y4000D01*
G75*
D01*
G03X27858Y3858I201J0*
G01*
X27999Y3717D01*
X27999Y3601D01*
G75*
D01*
G03X28026Y3500I201J0*
G01*
G75*
D01*
G03X27999Y3399I173J-100*
G01*
X27999Y3283D01*
X27658Y2942D01*
G75*
D01*
G03X27599Y2800I141J-142*
G01*
X27599Y1308D01*
G75*
D01*
G03X28001Y1193I101J-408*
G01*
G75*
D01*
G03X28001Y1200I-201J4*
G01*
X28001Y2717D01*
X28196Y2912D01*
X28196Y2912D01*
X28342Y3058D01*
G74*
D01*
G03X28376Y3102I140J143*
G01*
G75*
D01*
G03X28376Y3898I121J398*
G01*
G74*
D01*
G03X28342Y3942I175J100*
G01*
X28201Y4083D01*
X28201Y6198D01*
G75*
D01*
G03X28041Y6843I-294J269*
G01*
X27742Y7142D01*
G74*
D01*
G03X27641Y7197I142J141*
G01*
G75*
D01*
G03X27600Y7201I-40J-197*
G01*
X22683Y7201D01*
X22601Y7283D01*
X22601Y12207D01*
G75*
D01*
G03X22601Y12727I304J260*
G01*
X22601Y13000D01*
G74*
D01*
G03X22542Y13142I201J0*
G01*
X22342Y13342D01*
G74*
D01*
G03X22266Y13390I142J141*
G01*
G75*
D01*
G03X22200Y13401I-66J-190*
G01*
X20683Y13401D01*
X20601Y13483D01*
X20601Y15425D01*
G74*
D01*
G03X20684Y15400I98J175*
G01*
G75*
D01*
G03X20700Y15399I20J199*
G01*
X22848Y15399D01*
G75*
D01*
G03X22999Y14661I255J-332*
G01*
X22999Y13200D01*
G75*
D01*
G03X23058Y13058I201J0*
G01*
X23399Y12717D01*
X23399Y12601D01*
G75*
D01*
G03X23458Y12458I201J-1*
G01*
X23510Y12406D01*
G75*
D01*
G03X23794Y12852I394J62*
G01*
G74*
D01*
G03X23742Y12942I193J52*
G01*
X23401Y13283D01*
X23401Y14769D01*
G75*
D01*
G03X23362Y15399I-296J298*
G01*
X23848Y15399D01*
G75*
D01*
G03X23999Y14661I255J-332*
G01*
X23999Y13200D01*
G75*
D01*
G03X24058Y13058I201J0*
G01*
X24399Y12717D01*
X24399Y12601D01*
G75*
D01*
G03X24458Y12458I201J-1*
G01*
X24510Y12406D01*
G75*
D01*
G03X24794Y12852I394J62*
G01*
G74*
D01*
G03X24742Y12942I193J52*
G01*
X24401Y13283D01*
X24401Y14769D01*
G75*
D01*
G03X24362Y15399I-296J298*
G01*
X24848Y15399D01*
G75*
D01*
G03X24999Y14661I255J-332*
G01*
X24999Y13200D01*
G75*
D01*
G03X25058Y13058I201J0*
G01*
X25399Y12717D01*
X25399Y12601D01*
G75*
D01*
G03X25458Y12458I201J-1*
G01*
X25510Y12406D01*
G75*
D01*
G03X25794Y12852I394J62*
G01*
G74*
D01*
G03X25742Y12942I193J52*
G01*
X25401Y13283D01*
X25401Y14769D01*
G75*
D01*
G03X25362Y15399I-296J298*
G01*
X25848Y15399D01*
G75*
D01*
G03X25999Y14661I255J-332*
G01*
X25999Y13200D01*
G75*
D01*
G03X26058Y13058I201J0*
G01*
X26399Y12717D01*
X26399Y12601D01*
G75*
D01*
G03X26458Y12458I201J-1*
G01*
X26510Y12406D01*
G75*
D01*
G03X26794Y12852I394J62*
G01*
G74*
D01*
G03X26742Y12942I193J52*
G01*
X26401Y13283D01*
X26401Y14769D01*
G75*
D01*
G03X26362Y15399I-296J298*
G01*
X26848Y15399D01*
G75*
D01*
G03X26999Y14661I255J-332*
G01*
X26999Y13200D01*
G75*
D01*
G03X27058Y13058I201J0*
G01*
X27399Y12717D01*
X27399Y12601D01*
G75*
D01*
G03X27458Y12458I201J-1*
G01*
X27510Y12406D01*
G75*
D01*
G03X27794Y12852I394J62*
G01*
G74*
D01*
G03X27742Y12942I193J52*
G01*
X27401Y13283D01*
X27401Y14769D01*
G75*
D01*
G03X27362Y15399I-296J298*
G01*
X27848Y15399D01*
G75*
D01*
G03X27999Y14661I255J-332*
G01*
X27999Y13101D01*
G75*
D01*
G03X28058Y12958I201J-1*
G01*
X28158Y12858D01*
G74*
D01*
G03X28284Y12800I141J141*
G01*
G75*
D01*
G03X28300Y12799I20J199*
G01*
X28317Y12799D01*
X28399Y12717D01*
X28399Y12601D01*
G75*
D01*
G03X28458Y12458I201J-1*
G01*
X28510Y12406D01*
G75*
D01*
G03X29199Y12196I395J59*
G01*
X29199Y7083D01*
X29058Y6942D01*
G74*
D01*
G03X29006Y6854I140J142*
G01*
G75*
D01*
G03X28799Y6082I-104J-386*
G01*
X28799Y4000D01*
G75*
D01*
G03X28858Y3858I201J0*
G01*
X28999Y3717D01*
X28999Y3601D01*
G75*
D01*
G03X29026Y3500I201J0*
G01*
G75*
D01*
G03X28999Y3399I173J-100*
G01*
X28999Y3283D01*
X28658Y2942D01*
G75*
D01*
G03X28599Y2800I141J-142*
G01*
X28599Y1308D01*
G75*
D01*
G03X29001Y1193I101J-408*
G01*
G75*
D01*
G03X29001Y1200I-201J4*
G01*
X29001Y2717D01*
X29342Y3058D01*
G74*
D01*
G03X29376Y3102I140J143*
G01*
G75*
D01*
G03X29376Y3898I121J398*
G01*
G74*
D01*
G03X29342Y3942I175J100*
G01*
X29201Y4083D01*
X29201Y6198D01*
G74*
D01*
G03X29302Y6418I295J269*
G01*
X29342Y6458D01*
G74*
D01*
G03X29400Y6580I141J142*
G01*
G74*
D01*
G03X29458Y6458I199J20*
G01*
X29510Y6406D01*
G74*
D01*
G03X29799Y6082I394J61*
G01*
X29799Y4000D01*
G75*
D01*
G03X29858Y3858I201J0*
G01*
X29999Y3717D01*
X29999Y3601D01*
G75*
D01*
G03X30026Y3500I201J0*
G01*
G75*
D01*
G03X29999Y3399I173J-100*
G01*
X29999Y3283D01*
X29658Y2942D01*
G75*
D01*
G03X29599Y2800I141J-142*
G01*
X29599Y1308D01*
G75*
D01*
G03X30001Y1193I101J-408*
G01*
G75*
D01*
G03X30001Y1200I-201J4*
G01*
X30001Y2717D01*
X30342Y3058D01*
G74*
D01*
G03X30376Y3102I140J143*
G01*
G75*
D01*
G03X30376Y3898I121J398*
G01*
G74*
D01*
G03X30342Y3942I175J100*
G01*
X30201Y4083D01*
X30201Y6198D01*
G75*
D01*
G03X29801Y6853I-293J271*
G01*
X29801Y11717D01*
X29883Y11799D01*
X31200Y11799D01*
G74*
D01*
G03X31342Y11858I0J201*
G01*
X31412Y11928D01*
G74*
D01*
G03X31458Y11858I187J73*
G01*
X31658Y11658D01*
G74*
D01*
G03X31771Y11601I142J141*
G01*
G75*
D01*
G03X31800Y11599I28J199*
G01*
X32117Y11599D01*
X32199Y11517D01*
X32199Y9547D01*
G75*
D01*
G03X32542Y9258I1J-347*
G01*
G75*
D01*
G03X32601Y9400I-141J142*
G01*
X32601Y11600D01*
G74*
D01*
G03X32542Y11742I201J0*
G01*
X32342Y11942D01*
G74*
D01*
G03X32266Y11990I142J141*
G01*
G75*
D01*
G03X32200Y12001I-66J-190*
G01*
X31883Y12001D01*
X31801Y12083D01*
X31801Y13000D01*
G74*
D01*
G03X31625Y13199I201J0*
G01*
X31580Y13290D01*
G74*
D01*
G03X31455Y13393I179J90*
G01*
G75*
D01*
G03X31400Y13401I-56J-192*
G01*
X31283Y13401D01*
X31001Y13683D01*
X31001Y15700D01*
G74*
D01*
G03X30942Y15842I201J0*
G01*
X30842Y15942D01*
G74*
D01*
G03X30772Y15988I142J140*
G01*
G74*
D01*
G03X30728Y15999I70J188*
G01*
X34000Y15999D01*
G75*
D01*
G03X34052Y16006I-1J201*
G01*
G74*
D01*
G03X34142Y16058I52J193*
G01*
X34245Y16161D01*
G74*
D01*
G03X34231Y16127I377J175*
G01*
X34473Y16127D01*
X34473Y16369D01*
G74*
D01*
G03X34439Y16355I141J390*
G01*
X34483Y16399D01*
X37217Y16399D01*
X37222Y16394D01*
G75*
D01*
G03X36825Y16199I-43J-414*
G01*
G75*
D01*
G03X36800Y16201I-28J-198*
G01*
X35400Y16201D01*
G75*
D01*
G03X35343Y16193I-1J-201*
G01*
G74*
D01*
G03X35271Y16154I58J193*
G01*
X34884Y15832D01*
X34768Y15832D01*
X34768Y15735D01*
X34671Y15654D01*
G74*
D01*
G03X34658Y15642I129J153*
G01*
X34617Y15601D01*
X34473Y15601D01*
X34473Y15832D01*
X34231Y15832D01*
G74*
D01*
G03X34446Y15601I389J147*
G01*
X33600Y15601D01*
G75*
D01*
G03X33571Y15599I-1J-201*
G01*
G74*
D01*
G03X33458Y15542I29J199*
G01*
X33258Y15342D01*
G75*
D01*
G03X33199Y15200I141J-142*
G01*
X33199Y11899D01*
X32840Y11899D01*
G75*
D01*
G03X32689Y11748I0J-151*
G01*
X32689Y11158D01*
G75*
D01*
G03X32840Y11007I151J0*
G01*
X33430Y11007D01*
G75*
D01*
G03X33581Y11158I0J151*
G01*
X33581Y11631D01*
G75*
D01*
G03X33601Y11718I-180J87*
G01*
X33601Y15117D01*
X33683Y15199D01*
X34700Y15199D01*
G75*
D01*
G03X34772Y15212I1J201*
G01*
G74*
D01*
G03X34842Y15258I73J187*
G01*
X34936Y15351D01*
X35473Y15799D01*
X36732Y15799D01*
G74*
D01*
G03X36766Y15786I88J180*
G01*
G74*
D01*
G03X36814Y15779I53J194*
G01*
G75*
D01*
G03X37593Y16030I365J202*
G01*
G74*
D01*
G03X37599Y16026I114J164*
G01*
X37599Y11547D01*
G75*
D01*
G03X37941Y11136I1J-347*
G01*
G75*
D01*
G03X38001Y11820I310J317*
G01*
X38001Y16200D01*
G74*
D01*
G03X37800Y16401I201J0*
G01*
X37783Y16401D01*
X37645Y16540D01*
X37542Y16642D01*
X37542Y16642D01*
X37442Y16742D01*
G74*
D01*
G03X37372Y16788I142J140*
G01*
G75*
D01*
G03X37300Y16801I-71J-188*
G01*
X34400Y16801D01*
G75*
D01*
G03X34350Y16795I-1J-201*
G01*
G74*
D01*
G03X34258Y16742I51J194*
G01*
X33917Y16401D01*
X21483Y16401D01*
X21401Y16483D01*
X21401Y17917D01*
X21483Y17999D01*
X21500Y17999D01*
G74*
D01*
G03X21642Y18058I0J201*
G01*
X21742Y18158D01*
G75*
D01*
G03X21801Y18300I-141J142*
G01*
X21801Y18900D01*
G74*
D01*
G03X21742Y19042I201J0*
G01*
X21642Y19142D01*
G74*
D01*
G03X21572Y19188I142J140*
G01*
G75*
D01*
G03X21500Y19201I-71J-188*
G01*
X21283Y19201D01*
X21201Y19283D01*
X21201Y20300D01*
G74*
D01*
G03X21142Y20442I201J0*
G01*
X21042Y20542D01*
G74*
D01*
G03X20972Y20588I142J140*
G01*
G75*
D01*
G03X20900Y20601I-71J-188*
G01*
X8100Y20601D01*
G75*
D01*
G03X8084Y20600I5J-201*
G01*
G74*
D01*
G03X7958Y20542I15J199*
G01*
X7858Y20442D01*
G75*
D01*
G03X7799Y20299I141J-142*
G01*
X7799Y20083D01*
X7717Y20001D01*
X6400Y20001D01*
G75*
D01*
G03X6371Y19999I-1J-201*
G01*
G74*
D01*
G03X6258Y19942I29J199*
G01*
X6058Y19742D01*
G75*
D01*
G03X5999Y19600I141J-142*
G01*
X5999Y19593D01*
G75*
D01*
G03X6285Y19218I-130J-395*
G01*
G75*
D01*
G03X6401Y19400I-84J182*
G01*
X6401Y19517D01*
X6483Y19599D01*
X7756Y19599D01*
G75*
D01*
G03X8285Y19218I113J-400*
G01*
G75*
D01*
G03X8401Y19400I-84J182*
G01*
X8401Y19917D01*
X8483Y19999D01*
X9115Y19999D01*
X9058Y19942D01*
G75*
D01*
G03X8999Y19800I141J-142*
G01*
X8999Y19593D01*
G75*
D01*
G03X9285Y19218I-130J-395*
G01*
G75*
D01*
G03X9401Y19400I-84J182*
G01*
X9401Y19717D01*
X9483Y19799D01*
X10115Y19799D01*
X10058Y19742D01*
G75*
D01*
G03X9999Y19600I141J-142*
G01*
X9999Y19593D01*
G75*
D01*
G03X10285Y19218I-130J-395*
G01*
G75*
D01*
G03X10401Y19400I-84J182*
G01*
X10401Y19517D01*
X10483Y19599D01*
X10756Y19599D01*
G75*
D01*
G03X10981Y19599I113J-400*
G01*
X11756Y19599D01*
G75*
D01*
G03X11981Y19599I113J-400*
G01*
X12756Y19599D01*
G75*
D01*
G03X12740Y18801I109J-401*
G01*
X12200Y18801D01*
G75*
D01*
G03X12171Y18799I-1J-201*
G01*
G74*
D01*
G03X12058Y18742I29J199*
G01*
X11858Y18542D01*
G75*
D01*
G03X11799Y18400I141J-142*
G01*
X11799Y12883D01*
X11763Y12847D01*
G74*
D01*
G03X11754Y12838I137J146*
G01*
G75*
D01*
G03X11606Y12201I150J-371*
G01*
X9800Y12201D01*
G75*
D01*
G03X9750Y12195I-1J-201*
G01*
G74*
D01*
G03X9658Y12142I51J194*
G01*
X9317Y11801D01*
X9200Y11801D01*
G75*
D01*
G03X9129Y11788I0J-201*
G01*
G74*
D01*
G03X9058Y11742I71J187*
G01*
X8986Y11670D01*
G74*
D01*
G03X8707Y11401I119J403*
G01*
X5800Y11401D01*
G75*
D01*
G03X5784Y11400I5J-201*
G01*
G74*
D01*
G03X5672Y11355I15J199*
G01*
G74*
D01*
G03X5288Y11001I27J415*
G01*
X3800Y11001D01*
G75*
D01*
G03X3771Y10999I-1J-201*
G01*
G74*
D01*
G03X3658Y10942I29J199*
G01*
X3569Y10853D01*
G74*
D01*
G03X3530Y11032I445J3*
G01*
X3347Y10849D01*
X3456Y10740D01*
G75*
D01*
G03X3399Y10600I143J-140*
G01*
X3399Y9585D01*
G75*
D01*
G03X3256Y8809I-274J-351*
G01*
X3039Y8521D01*
G75*
D01*
G03X2999Y8400I161J-120*
G01*
X2999Y8083D01*
X2982Y8066D01*
G74*
D01*
G03X2955Y8032I142J141*
G01*
G75*
D01*
G03X3399Y7971I170J-411*
G01*
G75*
D01*
G03X3401Y8000I-199J28*
G01*
X3401Y8333D01*
X3600Y8599D01*
G75*
D01*
G03X3801Y8800I0J201*
G01*
X3801Y10517D01*
X3883Y10599D01*
X5400Y10599D01*
G75*
D01*
G03X5425Y10601I-3J201*
G01*
G74*
D01*
G03X5450Y10605I19J199*
G01*
G75*
D01*
G03X6060Y10730I249J334*
G01*
G74*
D01*
G03X6399Y10453I340J70*
G01*
X6399Y10400D01*
G75*
D01*
G03X6458Y10258I201J0*
G01*
X6658Y10058D01*
G74*
D01*
G03X6771Y10001I142J141*
G01*
G75*
D01*
G03X6800Y9999I28J199*
G01*
X6917Y9999D01*
X6999Y9917D01*
X6999Y7083D01*
X6917Y7001D01*
X4900Y7001D01*
G75*
D01*
G03X4758Y6942I0J-201*
G01*
X4658Y6842D01*
G75*
D01*
G03X4599Y6700I141J-142*
G01*
X4599Y2301D01*
G75*
D01*
G03X4658Y2158I201J-1*
G01*
X4758Y2058D01*
G74*
D01*
G03X4884Y2000I141J141*
G01*
G75*
D01*
G03X4900Y1999I20J199*
G01*
X6100Y1999D01*
G75*
D01*
G03X6172Y2012I1J201*
G01*
G74*
D01*
G03X6242Y2058I73J187*
G01*
X6342Y2158D01*
G75*
D01*
G03X6401Y2300I-141J142*
G01*
X6401Y2717D01*
X6483Y2799D01*
X14800Y2799D01*
G75*
D01*
G03X14866Y2810I0J201*
G01*
G74*
D01*
G03X14942Y2858I67J190*
G01*
X15142Y3058D01*
G75*
D01*
G03X15201Y3200I-141J142*
G01*
X15201Y3492D01*
G75*
D01*
G03X15201Y4308I-100J408*
G01*
X15201Y6198D01*
G75*
D01*
G03X15128Y6799I-295J269*
G01*
X15682Y6799D01*
G75*
D01*
G03X15799Y6082I221J-332*
G01*
X15799Y4201D01*
G75*
D01*
G03X15799Y4193I201J-4*
G01*
G75*
D01*
G03X16201Y4308I301J-293*
G01*
X16201Y6198D01*
G75*
D01*
G03X16128Y6799I-295J269*
G01*
X16682Y6799D01*
G75*
D01*
G03X16799Y6082I221J-332*
G01*
X16799Y4201D01*
G75*
D01*
G03X16799Y4193I201J-4*
G01*
G75*
D01*
G03X17201Y4308I301J-293*
G01*
X17201Y6198D01*
G75*
D01*
G03X17128Y6799I-295J269*
G01*
X17682Y6799D01*
G75*
D01*
G03X17799Y6082I221J-332*
G01*
X17799Y4201D01*
G75*
D01*
G03X17799Y4193I201J-4*
G01*
G75*
D01*
G03X18201Y4308I301J-293*
G01*
X18201Y6198D01*
G75*
D01*
G03X18128Y6799I-295J269*
G01*
X18682Y6799D01*
X9375Y13688D02*
X8835Y13688D01*
G75*
D01*
G03X8684Y13537I0J-151*
G01*
X8684Y12997D01*
G75*
D01*
G03X8835Y12846I151J0*
G01*
X9375Y12846D01*
G75*
D01*
G03X9526Y12997I0J151*
G01*
X9526Y13537D01*
G74*
D01*
G03X9375Y13688I151J0*
G01*
X8691Y12199D02*
G75*
D01*
G03X8844Y12596I413J69*
G01*
G75*
D01*
G03X8800Y12601I-44J-195*
G01*
X6083Y12601D01*
X6050Y12634D01*
G75*
D01*
G03X5671Y12445I-350J227*
G01*
X5858Y12258D01*
G74*
D01*
G03X5959Y12203I142J141*
G01*
G75*
D01*
G03X6000Y12199I40J197*
G01*
X8691Y12199D01*
X37645Y7076D02*
G75*
D01*
G03X37645Y7076I408J177*
G01*
X33581Y8958D02*
X33581Y9548D01*
G74*
D01*
G03X33430Y9699I151J0*
G01*
X32840Y9699D01*
G75*
D01*
G03X32689Y9548I0J-151*
G01*
X32689Y8958D01*
G75*
D01*
G03X32840Y8807I151J0*
G01*
X33430Y8807D01*
G75*
D01*
G03X33581Y8958I0J151*
G01*
X38425Y9298D02*
G75*
D01*
G03X38425Y9298I-172J-45*
G01*
X38659Y9436D02*
X38521Y9298D01*
X38521Y9298D01*
X38476Y9253D01*
X38659Y9070D01*
G75*
D01*
G03X38659Y9436I-406J183*
G01*
X37847Y9436D02*
G75*
D01*
G03X37847Y9070I406J-183*
G01*
X38030Y9253D01*
X37985Y9298D01*
X37985Y9298D01*
X37847Y9436D01*
X18747Y31004D02*
G75*
D01*
G03X18747Y31004I121J398*
G01*
X38436Y8847D02*
X38253Y9030D01*
X38070Y8847D01*
G75*
D01*
G03X38436Y8847I183J406*
G01*
X38070Y9659D02*
X38253Y9476D01*
X38436Y9659D01*
G75*
D01*
G03X38070Y9659I-183J-406*
G01*
X4452Y31402D02*
G75*
D01*
G03X4452Y31402I416J0*
G01*
X5452Y31402D02*
G75*
D01*
G03X5452Y31402I416J0*
G01*
X6452Y31402D02*
G75*
D01*
G03X6452Y31402I416J0*
G01*
X7452Y31402D02*
G75*
D01*
G03X7452Y31402I416J0*
G01*
X8452Y31402D02*
G75*
D01*
G03X8452Y31402I416J0*
G01*
X9452Y31402D02*
G75*
D01*
G03X9452Y31402I416J0*
G01*
X10452Y31402D02*
G75*
D01*
G03X10452Y31402I416J0*
G01*
X11452Y31402D02*
G75*
D01*
G03X11452Y31402I416J0*
G01*
X12452Y31402D02*
G75*
D01*
G03X12452Y31402I416J0*
G01*
X13452Y31402D02*
G75*
D01*
G03X13452Y31402I416J0*
G01*
X14452Y31402D02*
G75*
D01*
G03X14452Y31402I416J0*
G01*
X15452Y31402D02*
G75*
D01*
G03X15452Y31402I416J0*
G01*
X16452Y31402D02*
G75*
D01*
G03X16452Y31402I416J0*
G01*
X17452Y31402D02*
G75*
D01*
G03X17452Y31402I416J0*
G01*
X19452Y31402D02*
G75*
D01*
G03X19452Y31402I416J0*
G01*
X34768Y16369D02*
X34768Y16127D01*
X35010Y16127D01*
G74*
D01*
G03X34768Y16369I389J147*
G01*
X34424Y15980D02*
G75*
D01*
G03X34424Y15980I196J0*
G01*
X36763Y13420D02*
G75*
D01*
G03X36763Y13420I417J0*
G01*
X34204Y13420D02*
G75*
D01*
G03X34204Y13420I416J0*
G01*
X22110Y3648D02*
X22352Y3648D01*
X22352Y3890D01*
G74*
D01*
G03X22110Y3648I148J390*
G01*
X22890Y3352D02*
X22648Y3352D01*
X22648Y3110D01*
G74*
D01*
G03X22890Y3352I148J390*
G01*
X22352Y3110D02*
X22352Y3352D01*
X22110Y3352D01*
G74*
D01*
G03X22352Y3110I390J148*
G01*
X22648Y3890D02*
X22648Y3648D01*
X22890Y3648D01*
G74*
D01*
G03X22648Y3890I390J148*
G01*
X22303Y3500D02*
G75*
D01*
G03X22303Y3500I197J0*
G01*
X2941Y14483D02*
X3124Y14300D01*
X3306Y14483D01*
G75*
D01*
G03X2941Y14483I-182J-405*
G01*
X3530Y14260D02*
X3347Y14077D01*
X3530Y13894D01*
G75*
D01*
G03X3530Y14260I-406J183*
G01*
X2946Y14077D02*
G75*
D01*
G03X2946Y14077I178J0*
G01*
X3306Y13671D02*
X3124Y13854D01*
X2941Y13671D01*
G75*
D01*
G03X3306Y13671I183J406*
G01*
X2718Y14260D02*
G75*
D01*
G03X2718Y13894I406J-183*
G01*
X2900Y14077D01*
X2718Y14260D01*
X2941Y12869D02*
X3124Y12686D01*
X3306Y12869D01*
G75*
D01*
G03X2941Y12869I-182J-405*
G01*
X3530Y12646D02*
X3347Y12463D01*
X3530Y12280D01*
G75*
D01*
G03X3530Y12646I-406J183*
G01*
X2946Y12463D02*
G75*
D01*
G03X2946Y12463I178J0*
G01*
X3306Y12057D02*
X3124Y12240D01*
X2941Y12057D01*
G75*
D01*
G03X3306Y12057I183J406*
G01*
X2718Y12646D02*
G75*
D01*
G03X2718Y12280I406J-183*
G01*
X2900Y12463D01*
X2718Y12646D01*
X2941Y11255D02*
X3124Y11072D01*
X3306Y11255D01*
G75*
D01*
G03X2941Y11255I-182J-405*
G01*
X2946Y10849D02*
G75*
D01*
G03X2946Y10849I178J0*
G01*
X3306Y10443D02*
X3124Y10626D01*
X2941Y10443D01*
G75*
D01*
G03X3306Y10443I183J406*
G01*
X2718Y11032D02*
G75*
D01*
G03X2718Y10666I406J-183*
G01*
X2900Y10849D01*
X2718Y11032D01*
X1377Y9681D02*
X933Y9681D01*
X1155Y9458D01*
X1377Y9681D01*
X2678Y6006D02*
G75*
D01*
G03X2678Y6006I446J0*
G01*
X933Y8789D02*
X1377Y8789D01*
X1155Y9011D01*
X933Y8789D01*
X36201Y7717D02*
G75*
D01*
G03X35799Y7717I-201J283*
G01*
X35799Y4104D01*
G75*
D01*
G03X36201Y3989I102J-403*
G01*
G75*
D01*
G03X36201Y4000I-201J6*
G01*
X36201Y7717D01*
X33157Y7699D02*
X32713Y7699D01*
X32935Y7477D01*
X33157Y7699D01*
X33381Y7031D02*
X33381Y7475D01*
X33159Y7253D01*
X33381Y7031D01*
X32758Y7253D02*
G75*
D01*
G03X32758Y7253I177J0*
G01*
X32713Y6807D02*
X33157Y6807D01*
X32935Y7029D01*
X32713Y6807D01*
X32489Y7475D02*
X32489Y7031D01*
X32711Y7253D01*
X32489Y7475D01*
X31270Y6631D02*
X31106Y6467D01*
X31270Y6303D01*
G75*
D01*
G03X31270Y6631I-365J164*
G01*
X30741Y6832D02*
X30905Y6668D01*
X31069Y6832D01*
G75*
D01*
G03X30741Y6832I-164J-365*
G01*
X30540Y6631D02*
G75*
D01*
G03X30540Y6303I365J-164*
G01*
X30704Y6467D01*
X30540Y6631D01*
X31069Y6102D02*
X30905Y6267D01*
X30741Y6102D01*
G75*
D01*
G03X31069Y6102I164J365*
G01*
X30730Y6467D02*
G75*
D01*
G03X30730Y6467I175J0*
G01*
X34510Y1848D02*
X34752Y1848D01*
X34752Y2090D01*
G74*
D01*
G03X34510Y1848I148J390*
G01*
X35290Y1552D02*
X35048Y1552D01*
X35048Y1310D01*
G74*
D01*
G03X35290Y1552I148J390*
G01*
X34752Y1310D02*
X34752Y1552D01*
X34510Y1552D01*
G74*
D01*
G03X34752Y1310I390J148*
G01*
X34703Y1700D02*
G75*
D01*
G03X34703Y1700I197J0*
G01*
X35048Y2090D02*
X35048Y1848D01*
X35290Y1848D01*
G74*
D01*
G03X35048Y2090I390J148*
G01*
X36483Y1700D02*
G75*
D01*
G03X36483Y1700I417J0*
G01*
X6479Y19345D02*
X6721Y19345D01*
X6721Y19587D01*
G74*
D01*
G03X6479Y19345I146J388*
G01*
X7258Y19050D02*
X7016Y19050D01*
X7016Y18808D01*
G74*
D01*
G03X7258Y19050I148J390*
G01*
X6721Y18808D02*
X6721Y19050D01*
X6479Y19050D01*
G74*
D01*
G03X6721Y18808I389J147*
G01*
X7016Y19587D02*
X7016Y19345D01*
X7258Y19345D01*
G74*
D01*
G03X7016Y19587I389J147*
G01*
X6672Y19198D02*
G75*
D01*
G03X6672Y19198I196J0*
G01*
X151Y151D02*
X151Y33314D01*
X39219Y33314D01*
X39219Y151D01*
X151Y151D01*
X5623Y2682D02*
G75*
D01*
G02X5377Y2682I-123J99*
G01*
X5377Y2601D01*
X5623Y2601D01*
X5623Y2682D01*
X5658Y3023D02*
G74*
D01*
G02X5658Y3018I158J2*
G01*
X5658Y2782D01*
G75*
D01*
G02X5658Y2777I-158J-2*
G01*
X5799Y2777D01*
X5799Y3023D01*
X5658Y3023D01*
X5342Y2777D02*
G75*
D01*
G02X5342Y2782I158J3*
G01*
X5342Y3018D01*
G74*
D01*
G02X5342Y3023I158J3*
G01*
X5201Y3023D01*
X5201Y2777D01*
X5342Y2777D01*
X9298Y7319D02*
G75*
D01*
G03X9298Y7319I-193J-52*
G01*
X9298Y6319D02*
G75*
D01*
G03X9298Y6319I-193J-52*
G01*
X9254Y6660D02*
X9254Y6416D01*
X9498Y6416D01*
G74*
D01*
G03X9254Y6660I393J149*
G01*
X9254Y5875D02*
G74*
D01*
G03X9498Y6118I148J392*
G01*
X9254Y6118D01*
X9254Y5875D01*
X8712Y7416D02*
X8956Y7416D01*
X8956Y7660D01*
G74*
D01*
G03X8712Y7416I149J393*
G01*
X8956Y6875D02*
X8956Y7118D01*
X8712Y7118D01*
G74*
D01*
G03X8956Y6875I392J150*
G01*
X8712Y6416D02*
X8956Y6416D01*
X8956Y6660D01*
G74*
D01*
G03X8712Y6416I149J393*
G01*
X8956Y5875D02*
X8956Y6118D01*
X8712Y6118D01*
G74*
D01*
G03X8956Y5875I392J150*
G01*
X9200Y8799D02*
X9317Y8799D01*
X9399Y8717D01*
X9399Y8567D01*
G75*
D01*
G03X9067Y7849I-294J-300*
G01*
G74*
D01*
G03X9129Y7812I132J151*
G01*
G75*
D01*
G03X9200Y7799I71J187*
G01*
X9317Y7799D01*
X9399Y7717D01*
X9399Y7567D01*
G74*
D01*
G03X9254Y7660I294J300*
G01*
X9254Y7416D01*
X9399Y7416D01*
X9399Y7118D01*
X9254Y7118D01*
X9254Y6875D01*
G74*
D01*
G03X9427Y6998I148J392*
G01*
G74*
D01*
G03X9458Y6958I172J102*
G01*
X9558Y6858D01*
G74*
D01*
G03X9684Y6800I141J141*
G01*
G75*
D01*
G03X9700Y6799I20J199*
G01*
X11682Y6799D01*
G75*
D01*
G03X11599Y6209I221J-332*
G01*
X11599Y6200D01*
X11599Y4200D01*
G75*
D01*
G03X11658Y4058I201J0*
G01*
X11679Y4037D01*
X11679Y3630D01*
G75*
D01*
G03X11830Y3479I151J0*
G01*
X12370Y3479D01*
G75*
D01*
G03X12521Y3630I0J151*
G01*
X12521Y4170D01*
G74*
D01*
G03X12370Y4321I151J0*
G01*
X12001Y4321D01*
X12001Y6079D01*
G75*
D01*
G03X12128Y6799I-94J388*
G01*
X12682Y6799D01*
G75*
D01*
G03X12799Y6082I221J-332*
G01*
X12799Y4201D01*
G75*
D01*
G03X12799Y4193I201J-4*
G01*
G75*
D01*
G03X13201Y4308I301J-293*
G01*
X13201Y6198D01*
G75*
D01*
G03X13128Y6799I-295J269*
G01*
X13682Y6799D01*
G75*
D01*
G03X13799Y6082I221J-332*
G01*
X13799Y4201D01*
G75*
D01*
G03X13799Y4193I201J-4*
G01*
G75*
D01*
G03X13799Y3607I301J-293*
G01*
G75*
D01*
G03X13799Y3599I201J-4*
G01*
X13799Y3483D01*
X13717Y3401D01*
X6100Y3401D01*
G75*
D01*
G03X6084Y3400I5J-201*
G01*
G74*
D01*
G03X5958Y3342I15J199*
G01*
X5858Y3242D01*
G74*
D01*
G03X5847Y3230I142J141*
G01*
X5847Y3278D01*
G74*
D01*
G03X5760Y3365I87J0*
G01*
X5623Y3365D01*
X5623Y3118D01*
G75*
D01*
G03X5377Y3118I-123J-99*
G01*
X5377Y3365D01*
X5240Y3365D01*
G75*
D01*
G03X5201Y3356I0J-87*
G01*
X5201Y5916D01*
G75*
D01*
G03X5747Y6199I200J282*
G01*
X7500Y6199D01*
G74*
D01*
G03X7642Y6258I0J201*
G01*
X7742Y6358D01*
G75*
D01*
G03X7801Y6500I-141J142*
G01*
X7801Y10517D01*
G74*
D01*
G03X7900Y10626I202J282*
G01*
G75*
D01*
G03X8483Y10599I300J172*
G01*
X8848Y10599D01*
G75*
D01*
G03X8780Y10001I256J-332*
G01*
X8483Y10001D01*
G75*
D01*
G03X8483Y9599I-283J-201*
G01*
X8848Y9599D01*
G75*
D01*
G03X9067Y8849I255J-333*
G01*
G74*
D01*
G03X9129Y8812I132J151*
G01*
G75*
D01*
G03X9200Y8799I71J187*
G01*
X14799Y3599D02*
X14799Y3283D01*
X14717Y3201D01*
X14085Y3201D01*
X14142Y3258D01*
G75*
D01*
G03X14201Y3400I-141J142*
G01*
X14201Y3492D01*
G75*
D01*
G03X14201Y4308I-100J408*
G01*
X14201Y6198D01*
G75*
D01*
G03X14128Y6799I-295J269*
G01*
X14682Y6799D01*
G75*
D01*
G03X14799Y6082I221J-332*
G01*
X14799Y4201D01*
G75*
D01*
G03X14799Y4193I201J-4*
G01*
G75*
D01*
G03X14799Y3607I301J-293*
G01*
G75*
D01*
G03X14799Y3599I201J-4*
G01*
X23999Y3399D02*
X23999Y3283D01*
X23801Y3085D01*
X23801Y3200D01*
G74*
D01*
G03X23801Y3211I201J6*
G01*
G74*
D01*
G03X23910Y3426I302J288*
G01*
X23942Y3458D01*
G74*
D01*
G03X24000Y3580I141J142*
G01*
G74*
D01*
G03X24026Y3500I199J20*
G01*
G75*
D01*
G03X23999Y3399I173J-100*
G01*
X19201Y6198D02*
G75*
D01*
G03X19128Y6799I-295J269*
G01*
X19682Y6799D01*
G75*
D01*
G03X20033Y6088I216J-336*
G01*
G74*
D01*
G03X20058Y6058I166J113*
G01*
X20115Y6001D01*
X19201Y6001D01*
X19201Y6198D01*
X20606Y6201D02*
X20483Y6201D01*
X20401Y6283D01*
X20401Y6400D01*
G74*
D01*
G03X20342Y6542I201J0*
G01*
X20281Y6603D01*
G74*
D01*
G03X20128Y6799I375J135*
G01*
X20517Y6799D01*
X20595Y6720D01*
G75*
D01*
G03X20606Y6201I310J-253*
G01*
X22799Y6082D02*
X22799Y6000D01*
G75*
D01*
G03X22858Y5858I201J0*
G01*
X22915Y5801D01*
X22883Y5801D01*
X22742Y5942D01*
G74*
D01*
G03X22600Y6001I142J141*
G01*
X21485Y6001D01*
X21542Y6058D01*
G75*
D01*
G03X21601Y6200I-141J142*
G01*
X21601Y6207D01*
G75*
D01*
G03X21601Y6727I304J260*
G01*
X21601Y7000D01*
G74*
D01*
G03X21542Y7142I201J0*
G01*
X21485Y7199D01*
X22000Y7199D01*
G75*
D01*
G03X22066Y7210I0J201*
G01*
G74*
D01*
G03X22142Y7258I67J190*
G01*
X22199Y7315D01*
X22199Y7200D01*
G75*
D01*
G03X22258Y7058I201J0*
G01*
X22458Y6858D01*
G74*
D01*
G03X22571Y6801I142J141*
G01*
G75*
D01*
G03X22600Y6799I28J199*
G01*
X22682Y6799D01*
G75*
D01*
G03X22799Y6082I221J-332*
G01*
X23700Y6001D02*
X23283Y6001D01*
X23201Y6083D01*
X23201Y6198D01*
G75*
D01*
G03X23128Y6799I-295J269*
G01*
X23682Y6799D01*
G75*
D01*
G03X23799Y6082I221J-332*
G01*
X23799Y5975D01*
G74*
D01*
G03X23772Y5988I100J174*
G01*
G75*
D01*
G03X23700Y6001I-71J-188*
G01*
X21199Y6738D02*
G74*
D01*
G03X21041Y6843I294J270*
G01*
X20885Y6999D01*
X21117Y6999D01*
X21199Y6917D01*
X21199Y6738D01*
X21999Y11253D02*
X21999Y7683D01*
X21917Y7601D01*
X10283Y7601D01*
X10201Y7683D01*
X10201Y8400D01*
G74*
D01*
G03X10025Y8599I201J0*
G01*
X10001Y8647D01*
X10001Y9200D01*
G74*
D01*
G03X9825Y9399I201J0*
G01*
X9801Y9447D01*
X9801Y9600D01*
G74*
D01*
G03X9690Y9780I201J0*
G01*
X9519Y9865D01*
X9442Y9942D01*
G74*
D01*
G03X9404Y9972I142J141*
G01*
G75*
D01*
G03X9362Y10599I-299J295*
G01*
X9717Y10599D01*
G75*
D01*
G03X9717Y11001I283J201*
G01*
X9430Y11001D01*
G75*
D01*
G03X9495Y11423I-324J266*
G01*
G74*
D01*
G03X9542Y11458I95J176*
G01*
X9883Y11799D01*
X12400Y11799D01*
G75*
D01*
G03X12466Y11810I0J201*
G01*
G74*
D01*
G03X12542Y11858I67J190*
G01*
X12742Y12058D01*
G74*
D01*
G03X12769Y12091I140J142*
G01*
G75*
D01*
G03X12535Y12618I135J375*
G01*
G74*
D01*
G03X12525Y12609I129J153*
G01*
X12458Y12542D01*
G75*
D01*
G03X12399Y12400I141J-142*
G01*
X12399Y12283D01*
X12317Y12201D01*
X12204Y12201D01*
G75*
D01*
G03X12193Y12745I-299J266*
G01*
G75*
D01*
G03X12201Y12800I-192J56*
G01*
X12201Y18317D01*
X12283Y18399D01*
X14516Y18399D01*
G75*
D01*
G03X15147Y18199I285J-196*
G01*
X17117Y18199D01*
X17199Y18117D01*
X17199Y15367D01*
G75*
D01*
G03X17199Y14767I-294J-300*
G01*
X17199Y14400D01*
G75*
D01*
G03X17258Y14258I201J0*
G01*
X17458Y14058D01*
G74*
D01*
G03X17571Y14001I142J141*
G01*
G75*
D01*
G03X17600Y13999I28J199*
G01*
X18117Y13999D01*
X18199Y13917D01*
X18199Y12738D01*
G75*
D01*
G03X17794Y12852I-294J-269*
G01*
G74*
D01*
G03X17742Y12942I193J52*
G01*
X17542Y13142D01*
G74*
D01*
G03X17466Y13190I142J141*
G01*
G75*
D01*
G03X17400Y13201I-66J-190*
G01*
X17083Y13201D01*
X16942Y13342D01*
G74*
D01*
G03X16866Y13390I142J141*
G01*
G75*
D01*
G03X16800Y13401I-66J-190*
G01*
X16283Y13401D01*
X16201Y13483D01*
X16201Y14769D01*
G75*
D01*
G03X15799Y14661I-296J298*
G01*
X15799Y13400D01*
G75*
D01*
G03X15801Y13374I201J2*
G01*
G74*
D01*
G03X15766Y13390I101J174*
G01*
G75*
D01*
G03X15700Y13401I-66J-190*
G01*
X15283Y13401D01*
X15201Y13483D01*
X15201Y14769D01*
G75*
D01*
G03X14799Y14661I-296J298*
G01*
X14799Y13400D01*
G75*
D01*
G03X14801Y13374I201J2*
G01*
G74*
D01*
G03X14766Y13390I101J174*
G01*
G75*
D01*
G03X14700Y13401I-66J-190*
G01*
X14283Y13401D01*
X14201Y13483D01*
X14201Y14769D01*
G75*
D01*
G03X13799Y14661I-296J298*
G01*
X13799Y13400D01*
G75*
D01*
G03X13858Y13258I201J0*
G01*
X13915Y13201D01*
X13283Y13201D01*
X13201Y13283D01*
X13201Y14769D01*
G75*
D01*
G03X12799Y14661I-296J298*
G01*
X12799Y13200D01*
G75*
D01*
G03X12858Y13058I201J0*
G01*
X13058Y12858D01*
G74*
D01*
G03X13171Y12801I142J141*
G01*
G75*
D01*
G03X13200Y12799I28J199*
G01*
X13682Y12799D01*
G75*
D01*
G03X14128Y12799I223J-331*
G01*
X14317Y12799D01*
X14399Y12717D01*
X14399Y12601D01*
G75*
D01*
G03X14458Y12458I201J-1*
G01*
X14510Y12406D01*
G75*
D01*
G03X15128Y12799I394J63*
G01*
X15317Y12799D01*
X15399Y12717D01*
X15399Y12601D01*
G75*
D01*
G03X15458Y12458I201J-1*
G01*
X15510Y12406D01*
G75*
D01*
G03X16128Y12799I394J63*
G01*
X16317Y12799D01*
X16399Y12717D01*
X16399Y12601D01*
G75*
D01*
G03X16458Y12458I201J-1*
G01*
X16510Y12406D01*
G75*
D01*
G03X17128Y12799I394J63*
G01*
X17317Y12799D01*
X17399Y12717D01*
X17399Y12601D01*
G75*
D01*
G03X17458Y12458I201J-1*
G01*
X17510Y12406D01*
G75*
D01*
G03X18199Y12196I395J59*
G01*
X18199Y11883D01*
G75*
D01*
G03X18601Y11883I201J-283*
G01*
X18601Y12207D01*
G75*
D01*
G03X19199Y12196I304J260*
G01*
X19199Y11883D01*
G75*
D01*
G03X19601Y11883I201J-283*
G01*
X19601Y12207D01*
G75*
D01*
G03X20193Y12745I299J265*
G01*
G75*
D01*
G03X20201Y12800I-192J56*
G01*
X20201Y12825D01*
G74*
D01*
G03X20284Y12800I98J175*
G01*
G75*
D01*
G03X20300Y12799I20J199*
G01*
X20682Y12799D01*
G75*
D01*
G03X21128Y12799I223J-331*
G01*
X21317Y12799D01*
X21399Y12717D01*
X21399Y12601D01*
G75*
D01*
G03X21458Y12458I201J-1*
G01*
X21510Y12406D01*
G75*
D01*
G03X22199Y12196I395J59*
G01*
X22199Y11884D01*
G75*
D01*
G03X21999Y11253I-196J-285*
G01*
X6113Y10995D02*
X6113Y10999D01*
X6116Y10999D01*
X6113Y10995D01*
X6700Y10974D02*
G74*
D01*
G03X6684Y10999I299J174*
G01*
X6716Y10999D01*
G74*
D01*
G03X6700Y10974I283J199*
G01*
X7005Y10453D02*
G74*
D01*
G03X7026Y10399I195J45*
G01*
G75*
D01*
G03X7000Y10401I-28J-198*
G01*
X6883Y10401D01*
X6801Y10483D01*
X6801Y10516D01*
G75*
D01*
G03X7005Y10453I199J283*
G01*
X7884Y10999D02*
X7916Y10999D01*
G74*
D01*
G03X7900Y10974I283J199*
G01*
G74*
D01*
G03X7884Y10999I299J174*
G01*
X7300Y10974D02*
G74*
D01*
G03X7284Y10999I299J174*
G01*
X7316Y10999D01*
G74*
D01*
G03X7300Y10974I283J199*
G01*
X18542Y14142D02*
X18485Y14199D01*
X19717Y14199D01*
X19799Y14117D01*
X19799Y12883D01*
X19763Y12847D01*
G74*
D01*
G03X19754Y12838I137J146*
G01*
G74*
D01*
G03X19601Y12727I152J370*
G01*
X19601Y13117D01*
G75*
D01*
G03X19199Y13117I-201J283*
G01*
X19199Y12738D01*
G75*
D01*
G03X18601Y12727I-294J-270*
G01*
X18601Y14000D01*
G74*
D01*
G03X18542Y14142I201J0*
G01*
X22199Y12738D02*
G75*
D01*
G03X21794Y12852I-294J-269*
G01*
G74*
D01*
G03X21742Y12942I193J52*
G01*
X21685Y12999D01*
X22117Y12999D01*
X22199Y12917D01*
X22199Y12738D01*
X29199Y12738D02*
G75*
D01*
G03X28794Y12852I-294J-269*
G01*
G74*
D01*
G03X28742Y12942I193J52*
G01*
X28685Y12999D01*
X29117Y12999D01*
X29199Y12917D01*
X29199Y12738D01*
X29200Y13401D02*
X28683Y13401D01*
X28601Y13483D01*
X28601Y14117D01*
X28742Y14258D01*
G75*
D01*
G03X28801Y14400I-141J142*
G01*
X28801Y14777D01*
G74*
D01*
G03X28999Y14661I303J291*
G01*
X28999Y14600D01*
G75*
D01*
G03X29058Y14458I201J0*
G01*
X29258Y14258D01*
G74*
D01*
G03X29371Y14201I142J141*
G01*
G75*
D01*
G03X29400Y14199I28J199*
G01*
X29917Y14199D01*
X29999Y14117D01*
X29999Y12856D01*
G75*
D01*
G03X29601Y12727I-94J-389*
G01*
X29601Y13000D01*
G74*
D01*
G03X29542Y13142I201J0*
G01*
X29342Y13342D01*
G74*
D01*
G03X29266Y13390I142J141*
G01*
G75*
D01*
G03X29200Y13401I-66J-190*
G01*
X29658Y12142D02*
X29601Y12085D01*
X29601Y12207D01*
G74*
D01*
G03X29664Y12148I303J261*
G01*
G74*
D01*
G03X29658Y12142I138J144*
G01*
X30606Y12201D02*
X30204Y12201D01*
G74*
D01*
G03X30302Y12418I299J266*
G01*
X30342Y12458D01*
G74*
D01*
G03X30400Y12580I141J142*
G01*
G74*
D01*
G03X30458Y12458I199J20*
G01*
X30510Y12406D01*
G74*
D01*
G03X30606Y12201I394J60*
G01*
X16742Y12942D02*
X16685Y12999D01*
X16717Y12999D01*
X16852Y12864D01*
G74*
D01*
G03X16794Y12852I52J397*
G01*
G74*
D01*
G03X16742Y12942I193J52*
G01*
X18747Y14678D02*
G75*
D01*
G03X18747Y14678I158J389*
G01*
X20199Y15486D02*
G74*
D01*
G03X20175Y15488I24J148*
G01*
X19635Y15488D01*
G75*
D01*
G03X19484Y15337I0J-151*
G01*
X19484Y14797D01*
G75*
D01*
G03X19635Y14646I151J0*
G01*
X19999Y14646D01*
X19999Y14485D01*
X19942Y14542D01*
G74*
D01*
G03X19866Y14590I142J141*
G01*
G75*
D01*
G03X19800Y14601I-66J-190*
G01*
X18283Y14601D01*
X18201Y14683D01*
X18201Y14769D01*
G75*
D01*
G03X17601Y15357I-300J294*
G01*
X17601Y18200D01*
G74*
D01*
G03X17542Y18342I201J0*
G01*
X17485Y18399D01*
X19400Y18399D01*
G75*
D01*
G03X19466Y18410I0J201*
G01*
G74*
D01*
G03X19542Y18458I67J190*
G01*
X19742Y18658D01*
G74*
D01*
G03X19801Y18786I140J142*
G01*
G75*
D01*
G03X20199Y18944I67J412*
G01*
X20199Y15486D01*
X17601Y14777D02*
G74*
D01*
G03X17799Y14661I303J291*
G01*
X17799Y14600D01*
G75*
D01*
G03X17858Y14458I201J0*
G01*
X17915Y14401D01*
X17683Y14401D01*
X17601Y14483D01*
X17601Y14777D01*
X29401Y14769D02*
G75*
D01*
G03X28801Y15357I-300J294*
G01*
X28801Y15400D01*
G74*
D01*
G03X28690Y15580I201J0*
G01*
X28651Y15599D01*
X29517Y15599D01*
X29658Y15458D01*
G74*
D01*
G03X29709Y15421I141J141*
G01*
G74*
D01*
G03X29684Y15337I126J83*
G01*
X29684Y14797D01*
G75*
D01*
G03X29835Y14646I151J0*
G01*
X30199Y14646D01*
X30199Y14485D01*
X30142Y14542D01*
G74*
D01*
G03X30066Y14590I142J141*
G01*
G75*
D01*
G03X30000Y14601I-66J-190*
G01*
X29483Y14601D01*
X29401Y14683D01*
X29401Y14769D01*
X12997Y18801D02*
G75*
D01*
G03X12981Y19599I-129J397*
G01*
X13756Y19599D01*
G75*
D01*
G03X13740Y18801I109J-401*
G01*
X12997Y18801D01*
X13997Y18801D02*
G75*
D01*
G03X13981Y19599I-129J397*
G01*
X14756Y19599D01*
G75*
D01*
G03X14740Y18801I109J-401*
G01*
X13997Y18801D01*
X14997Y18801D02*
G75*
D01*
G03X14981Y19599I-129J397*
G01*
X15756Y19599D01*
G75*
D01*
G03X15740Y18801I109J-401*
G01*
X14997Y18801D01*
X15997Y18801D02*
G75*
D01*
G03X15981Y19599I-129J397*
G01*
X16756Y19599D01*
G75*
D01*
G03X16740Y18801I109J-401*
G01*
X15997Y18801D01*
X16997Y18801D02*
G75*
D01*
G03X16981Y19599I-129J397*
G01*
X17756Y19599D01*
G75*
D01*
G03X17740Y18801I109J-401*
G01*
X16997Y18801D01*
X18756Y19599D02*
G75*
D01*
G03X18740Y18801I109J-401*
G01*
X17997Y18801D01*
G75*
D01*
G03X17981Y19599I-129J397*
G01*
X18756Y19599D01*
X19399Y19000D02*
G74*
D01*
G02X19456Y19140I201J0*
G01*
G75*
D01*
G02X19756Y19599I412J58*
G01*
X18981Y19599D01*
G75*
D01*
G02X18997Y18801I-109J-401*
G01*
X19317Y18801D01*
X19399Y18883D01*
X19399Y19000D01*
X21020Y18896D02*
X21001Y18915D01*
X21001Y18884D01*
G74*
D01*
G02X21020Y18896I194J286*
G01*
X7877Y19614D02*
G74*
D01*
G02X7999Y19593I9J416*
G01*
X7999Y19715D01*
X7942Y19658D01*
G74*
D01*
G02X7877Y19614I142J140*
G01*
X19981Y19599D02*
G74*
D01*
G02X20199Y19452I112J401*
G01*
X20199Y19517D01*
X20117Y19599D01*
X19981Y19599D01*
X13100Y3900D02*
X13100Y4100D01*
X13000Y4200D01*
X13000Y6200D01*
X12905Y6295D01*
X12905Y6467D01*
X37180Y15980D02*
X36820Y15980D01*
X36800Y16000D01*
X35400Y16000D01*
X34800Y15500D01*
X34700Y15400D01*
X33600Y15400D01*
X33400Y15200D01*
X33400Y11718D01*
X33135Y11453D01*
X30500Y3500D02*
X30300Y3500D01*
X30200Y3400D01*
X30200Y3200D01*
X29800Y2800D01*
X29800Y1200D01*
X29700Y1100D01*
X29700Y900D01*
X4319Y1050D02*
X4000Y1369D01*
X4000Y1400D01*
X3600Y1400D01*
X3400Y1600D01*
X3400Y2900D01*
X3138Y2900D01*
X5400Y6200D02*
X5600Y6400D01*
X7500Y6400D01*
X7600Y6500D01*
X7600Y10800D01*
X29905Y6467D02*
X29733Y6467D01*
X29600Y6600D01*
X29600Y11800D01*
X29800Y12000D01*
X31200Y12000D01*
X31400Y12200D01*
X31400Y12700D01*
X30600Y15500D02*
X30500Y15600D01*
X29800Y15600D01*
X29600Y15800D01*
X20800Y20100D02*
X20700Y20200D01*
X8400Y20200D01*
X8200Y20000D01*
X8200Y19400D01*
X8071Y19400D01*
X7868Y19198D01*
X31400Y12700D02*
X31100Y13000D01*
X30900Y13000D01*
X30600Y13300D01*
X30600Y15500D01*
X29600Y15800D02*
X20900Y15800D01*
X20800Y15900D01*
X20800Y20100D01*
X26500Y3500D02*
X26300Y3500D01*
X26200Y3400D01*
X26200Y3200D01*
X25800Y2800D01*
X25800Y1200D01*
X25700Y1100D01*
X25700Y900D01*
X17905Y12467D02*
X17733Y12467D01*
X17600Y12600D01*
X17600Y12800D01*
X17400Y13000D01*
X17000Y13000D01*
X16800Y13200D01*
X16200Y13200D01*
X16000Y13400D01*
X16000Y14800D01*
X15905Y14895D01*
X15905Y15067D01*
X27500Y3500D02*
X27300Y3500D01*
X27200Y3400D01*
X27200Y3200D01*
X26800Y2800D01*
X26800Y1200D01*
X26700Y1100D01*
X26700Y900D01*
X29905Y12467D02*
X30067Y12467D01*
X30200Y12600D01*
X30200Y14200D01*
X30000Y14400D01*
X29400Y14400D01*
X29200Y14600D01*
X29200Y14800D01*
X29105Y14895D01*
X29105Y15067D01*
X38253Y9253D02*
X38000Y9000D01*
X33800Y9000D01*
X33600Y8800D01*
X33600Y8700D01*
X33500Y8600D01*
X33200Y7518D02*
X32935Y7253D01*
X33500Y8600D02*
X33200Y8600D01*
X33200Y7518D01*
X1155Y14077D02*
X1000Y14077D01*
X1000Y12463D01*
X1155Y12463D01*
X18400Y11600D02*
X18400Y14000D01*
X18200Y14200D01*
X17600Y14200D01*
X17400Y14400D01*
X17400Y18200D01*
X17200Y18400D01*
X15000Y18400D01*
X14800Y18200D01*
X29500Y3500D02*
X29300Y3500D01*
X29200Y3600D01*
X29200Y3800D01*
X29000Y4000D01*
X29000Y6200D01*
X28905Y6295D01*
X28905Y6467D01*
X26500Y3500D02*
X26300Y3500D01*
X26200Y3600D01*
X26200Y3800D01*
X26000Y4000D01*
X26000Y6200D01*
X25905Y6295D01*
X25905Y6467D01*
X25500Y3500D02*
X25300Y3500D01*
X25200Y3400D01*
X25200Y3200D01*
X24800Y2800D01*
X24800Y1200D01*
X24700Y1100D01*
X24700Y900D01*
X27500Y3500D02*
X27300Y3500D01*
X27200Y3600D01*
X27200Y3800D01*
X27000Y4000D01*
X27000Y6200D01*
X26905Y6295D01*
X26905Y6467D01*
X5700Y10939D02*
X5539Y10939D01*
X5400Y10800D01*
X3800Y10800D01*
X3600Y10600D01*
X3600Y8900D01*
X3600Y8800D01*
X3500Y8800D01*
X3200Y8400D01*
X3200Y8000D01*
X3124Y7924D01*
X3124Y7620D01*
X17100Y3900D02*
X17100Y4100D01*
X17000Y4200D01*
X17000Y6200D01*
X16905Y6295D01*
X16905Y6467D01*
X14905Y12467D02*
X14733Y12467D01*
X14600Y12600D01*
X14600Y12800D01*
X14400Y13000D01*
X13200Y13000D01*
X13000Y13200D01*
X13000Y14800D01*
X12905Y14895D01*
X12905Y15067D01*
X25500Y3500D02*
X25300Y3500D01*
X25200Y3600D01*
X25200Y3800D01*
X25000Y4000D01*
X25000Y6200D01*
X24905Y6295D01*
X24905Y6467D01*
X3124Y14077D02*
X3124Y13924D01*
X3000Y13800D01*
X3000Y12800D01*
X3124Y12676D01*
X3124Y12463D01*
X1155Y12463D02*
X1000Y12463D01*
X1000Y10849D01*
X1155Y10849D01*
X6868Y19198D02*
X6671Y19000D01*
X6600Y19000D01*
X6600Y18800D01*
X6400Y18600D01*
X3400Y18600D01*
X3200Y18400D01*
X3200Y14400D01*
X3124Y14324D01*
X3124Y14077D01*
X28500Y3500D02*
X28300Y3500D01*
X28200Y3600D01*
X28200Y3800D01*
X28000Y4000D01*
X28000Y6200D01*
X27905Y6295D01*
X27905Y6467D01*
X14100Y3900D02*
X14100Y4100D01*
X14000Y4200D01*
X14000Y6200D01*
X13905Y6295D01*
X13905Y6467D01*
X14100Y3900D02*
X14100Y3700D01*
X14000Y3600D01*
X14000Y3400D01*
X13800Y3200D01*
X6000Y2500D02*
X5900Y2400D01*
X5100Y2400D01*
X5000Y2500D01*
X5000Y6500D01*
X5100Y6600D01*
X7200Y10600D02*
X7000Y10800D01*
X13800Y3200D02*
X6100Y3200D01*
X6000Y3100D01*
X6000Y2500D01*
X5100Y6600D02*
X7300Y6600D01*
X7400Y6700D01*
X7400Y10300D01*
X7200Y10500D01*
X7200Y10600D01*
X1155Y7620D02*
X1000Y7620D01*
X1000Y6006D01*
X1155Y6006D01*
X19868Y19198D02*
X19671Y19000D01*
X19600Y19000D01*
X19600Y18800D01*
X19400Y18600D01*
X12200Y18600D01*
X12000Y18400D01*
X12000Y12800D01*
X11905Y12705D01*
X11905Y12467D01*
X19400Y11600D02*
X19400Y13400D01*
X30500Y3500D02*
X30300Y3500D01*
X30200Y3600D01*
X30200Y3800D01*
X30000Y4000D01*
X30000Y6200D01*
X29905Y6295D01*
X29905Y6467D01*
X19905Y6467D02*
X20133Y6467D01*
X20200Y6400D01*
X20200Y6200D01*
X20400Y6000D01*
X21200Y6000D01*
X21400Y6200D01*
X21400Y7000D01*
X21200Y7200D01*
X9600Y8800D02*
X9400Y9000D01*
X9200Y9000D01*
X9105Y9095D01*
X9105Y9267D01*
X21200Y7200D02*
X9900Y7200D01*
X9800Y7300D01*
X9800Y8100D01*
X9600Y8300D01*
X9600Y8800D01*
X4868Y19198D02*
X4868Y18868D01*
X4800Y18800D01*
X3100Y18800D01*
X3000Y18700D01*
X3000Y15000D01*
X2800Y14800D01*
X1800Y14800D01*
X1600Y14600D01*
X1600Y14400D01*
X1478Y14400D01*
X1155Y14077D01*
X18100Y3900D02*
X18100Y4100D01*
X18000Y4200D01*
X18000Y6200D01*
X17905Y6295D01*
X17905Y6467D01*
X26905Y12467D02*
X26733Y12467D01*
X26600Y12600D01*
X26600Y12800D01*
X26200Y13200D01*
X26200Y14800D01*
X26105Y14895D01*
X26105Y15067D01*
X25905Y12467D02*
X25733Y12467D01*
X25600Y12600D01*
X25600Y12800D01*
X25200Y13200D01*
X25200Y14800D01*
X25105Y14895D01*
X25105Y15067D01*
X24905Y12467D02*
X24733Y12467D01*
X24600Y12600D01*
X24600Y12800D01*
X24200Y13200D01*
X24200Y14800D01*
X24105Y14895D01*
X24105Y15067D01*
X23905Y12467D02*
X23733Y12467D01*
X23600Y12600D01*
X23600Y12800D01*
X23200Y13200D01*
X23200Y14800D01*
X23105Y14895D01*
X23105Y15067D01*
X15905Y12467D02*
X15733Y12467D01*
X15600Y12600D01*
X15600Y12800D01*
X15400Y13000D01*
X14200Y13200D02*
X14000Y13400D01*
X14000Y14800D01*
X13905Y14895D01*
X13905Y15067D01*
X15400Y13000D02*
X14900Y13000D01*
X14700Y13200D01*
X14200Y13200D01*
X19000Y5800D02*
X22600Y5800D01*
X22800Y5600D01*
X23200Y5600D01*
X23400Y5400D01*
X34900Y1700D02*
X34700Y1700D01*
X34600Y1800D01*
X33400Y1800D01*
X33200Y2000D01*
X33200Y6988D01*
X32935Y7253D01*
X9105Y12267D02*
X8933Y12267D01*
X8800Y12400D01*
X6000Y12400D01*
X5700Y12700D01*
X5700Y12861D01*
X15100Y3900D02*
X15100Y4100D01*
X15000Y4200D01*
X15000Y6200D01*
X14905Y6295D01*
X14905Y6467D01*
X3124Y12463D02*
X3124Y12324D01*
X3000Y12200D01*
X3000Y11200D01*
X3124Y11076D01*
X3124Y10849D01*
X9105Y7267D02*
X9105Y7105D01*
X9000Y7000D01*
X9000Y6600D01*
X9105Y6495D01*
X9105Y6267D01*
X33200Y8600D02*
X32800Y8600D01*
X32600Y8800D01*
X32600Y11900D01*
X32700Y12000D01*
X33000Y12000D01*
X33200Y12200D01*
X33200Y15500D01*
X33300Y15600D01*
X34600Y15600D01*
X34620Y15620D01*
X34620Y15980D01*
X15100Y3900D02*
X15100Y3700D01*
X15000Y3600D01*
X15000Y3200D01*
X14800Y3000D01*
X6400Y3000D01*
X6200Y2800D01*
X6200Y2300D01*
X6100Y2200D01*
X4900Y2200D01*
X4800Y2300D01*
X4800Y6700D01*
X4900Y6800D01*
X7000Y6800D01*
X7200Y7000D01*
X7200Y10000D01*
X7000Y10200D01*
X6800Y10200D01*
X6600Y10400D01*
X6600Y10600D01*
X6400Y10800D01*
X22000Y11600D02*
X22200Y11400D01*
X22200Y7600D01*
X22000Y7400D01*
X10200Y7400D01*
X10000Y7600D01*
X10000Y8300D01*
X10000Y8400D01*
X9900Y8400D01*
X9800Y8600D01*
X9800Y9100D01*
X9800Y9200D01*
X9700Y9200D01*
X9600Y9400D01*
X9600Y9600D01*
X9400Y9700D01*
X9300Y9800D01*
X8200Y9800D01*
X19905Y12467D02*
X19905Y12705D01*
X20000Y12800D01*
X20000Y14200D01*
X19800Y14400D01*
X18200Y14400D01*
X18000Y14600D01*
X18000Y14800D01*
X17905Y14895D01*
X17905Y15067D01*
X27905Y12467D02*
X27733Y12467D01*
X27600Y12600D01*
X27600Y12800D01*
X27200Y13200D01*
X27200Y14800D01*
X27105Y14895D01*
X27105Y15067D01*
X1155Y10849D02*
X1155Y10600D01*
X800Y10600D01*
X600Y10400D01*
X600Y8800D01*
X800Y8600D01*
X800Y7976D01*
X1155Y7620D01*
X3138Y2900D02*
X2838Y3200D01*
X1600Y3200D01*
X1400Y3400D01*
X1400Y6006D01*
X1155Y6006D01*
X9105Y11267D02*
X8867Y11267D01*
X8800Y11200D01*
X5800Y11200D01*
X5700Y11100D01*
X5700Y10939D01*
X12100Y3900D02*
X11800Y4200D01*
X11800Y6200D01*
X11905Y6305D01*
X11905Y6467D01*
X29500Y3500D02*
X29300Y3500D01*
X29200Y3400D01*
X29200Y3200D01*
X28800Y2800D01*
X28800Y1200D01*
X28700Y1100D01*
X28700Y900D01*
X30905Y12467D02*
X30733Y12467D01*
X30600Y12600D01*
X30600Y12800D01*
X30400Y13000D01*
X30400Y14800D01*
X30372Y14800D01*
X30105Y15067D01*
X10000Y10800D02*
X8200Y10800D01*
X19100Y3900D02*
X19100Y4100D01*
X19000Y4200D01*
X19000Y6200D01*
X18905Y6295D01*
X18905Y6467D01*
X28905Y6467D02*
X29067Y6467D01*
X29200Y6600D01*
X29200Y6800D01*
X29400Y7000D01*
X29400Y13000D01*
X29200Y13200D01*
X28600Y13200D01*
X28400Y13400D01*
X28400Y14200D01*
X28600Y14400D01*
X28600Y15400D01*
X28400Y15500D01*
X28300Y15600D01*
X20600Y19900D02*
X20500Y20000D01*
X9400Y20000D01*
X9200Y19800D01*
X9200Y19400D01*
X9071Y19400D01*
X8868Y19198D01*
X28300Y15600D02*
X20700Y15600D01*
X20600Y15700D01*
X20600Y19900D01*
X16905Y12467D02*
X16733Y12467D01*
X16600Y12600D01*
X16600Y12800D01*
X16400Y13000D01*
X15200Y13200D02*
X15000Y13400D01*
X15000Y14800D01*
X14905Y14895D01*
X14905Y15067D01*
X16400Y13000D02*
X15900Y13000D01*
X15700Y13200D01*
X15200Y13200D01*
X23500Y3500D02*
X23500Y3300D01*
X23600Y3200D01*
X23600Y1800D01*
X23400Y1600D01*
X23200Y1600D01*
X23000Y1400D01*
X23000Y1200D01*
X22700Y900D01*
X23500Y3500D02*
X23700Y3500D01*
X23800Y3600D01*
X23200Y5800D02*
X23000Y6000D01*
X23000Y6200D01*
X22905Y6295D01*
X22905Y6467D01*
X23800Y3600D02*
X23800Y5700D01*
X23700Y5800D01*
X23200Y5800D01*
X3124Y10849D02*
X2875Y10600D01*
X2000Y10600D01*
X1400Y10000D01*
X1400Y9235D01*
X1155Y9235D01*
X35900Y3700D02*
X35900Y3900D01*
X36000Y4000D01*
X36000Y8000D01*
X37600Y11200D02*
X37800Y11400D01*
X37800Y16100D01*
X37800Y16200D01*
X37700Y16200D01*
X37400Y16500D01*
X37300Y16600D01*
X34400Y16600D01*
X34000Y16200D01*
X21400Y16200D01*
X21200Y16400D01*
X21200Y18000D01*
X21400Y18200D01*
X21500Y18200D01*
X21600Y18300D01*
X21600Y18900D01*
X21500Y19000D01*
X21200Y19000D01*
X21000Y19200D01*
X21000Y20300D01*
X20900Y20400D01*
X8100Y20400D01*
X8000Y20300D01*
X8000Y20000D01*
X7800Y19800D01*
X6400Y19800D01*
X6200Y19600D01*
X6200Y19400D01*
X6071Y19400D01*
X5868Y19198D01*
X12905Y12467D02*
X12667Y12467D01*
X12600Y12400D01*
X12600Y12200D01*
X12400Y12000D01*
X9800Y12000D01*
X9400Y11600D01*
X9200Y11600D01*
X9105Y11505D01*
X9105Y11267D01*
X21905Y12467D02*
X21733Y12467D01*
X21600Y12600D01*
X21600Y12800D01*
X21400Y13000D01*
X20200Y14800D02*
X20172Y14800D01*
X19905Y15067D01*
X21400Y13000D02*
X20300Y13000D01*
X20200Y13100D01*
X20200Y14800D01*
X24500Y3500D02*
X24300Y3500D01*
X24200Y3400D01*
X24200Y3200D01*
X23800Y2800D01*
X23800Y1200D01*
X23700Y1100D01*
X23700Y900D01*
X20905Y6467D02*
X20905Y6695D01*
X20600Y7000D01*
X9600Y7800D02*
X9400Y8000D01*
X9200Y8000D01*
X9105Y8095D01*
X9105Y8267D01*
X20600Y7000D02*
X9700Y7000D01*
X9600Y7100D01*
X9600Y7800D01*
X32200Y9200D02*
X32400Y9400D01*
X32400Y11600D01*
X32200Y11800D01*
X31800Y11800D01*
X31600Y12000D01*
X31600Y12900D01*
X31600Y13000D01*
X31500Y13000D01*
X31400Y13200D01*
X31200Y13200D01*
X30800Y13600D01*
X30800Y15700D01*
X30700Y15800D01*
X30200Y15800D01*
X30000Y15900D01*
X29900Y16000D01*
X21000Y18400D02*
X21200Y18600D01*
X29900Y16000D02*
X21100Y16000D01*
X21000Y16100D01*
X21000Y18400D01*
X28500Y3500D02*
X28300Y3500D01*
X28200Y3400D01*
X28200Y3200D01*
X27800Y2800D01*
X27800Y1200D01*
X27700Y1100D01*
X27700Y900D01*
X16100Y3900D02*
X16100Y4100D01*
X16000Y4200D01*
X16000Y6200D01*
X15905Y6295D01*
X15905Y6467D01*
X24500Y3500D02*
X24300Y3500D01*
X24200Y3600D01*
X24200Y3800D01*
X24000Y4000D01*
X24000Y6200D01*
X23905Y6295D01*
X23905Y6467D01*
X27905Y6467D02*
X27905Y6695D01*
X27600Y7000D01*
X22600Y7000D01*
X22400Y7200D01*
X22400Y13000D01*
X22200Y13200D01*
X20600Y13200D01*
X20400Y13400D01*
X20400Y19600D01*
X20200Y19800D01*
X10400Y19800D01*
X10200Y19600D01*
X10200Y19400D01*
X10071Y19400D01*
X9868Y19198D01*
X28905Y12467D02*
X28733Y12467D01*
X28600Y12600D01*
X28600Y12800D01*
X28200Y14800D02*
X28105Y14895D01*
X28105Y15067D01*
X28600Y12800D02*
X28400Y13000D01*
X28300Y13000D01*
X28200Y13100D01*
X28200Y14800D01*
X32935Y7253D02*
X32935Y7000D01*
X31200Y7000D01*
X30905Y6705D01*
X30905Y6467D01*
X9105Y6267D02*
X8867Y6267D01*
X8800Y6200D01*
X6000Y6200D01*
X5800Y6000D01*
X5800Y3200D01*
X5500Y2900D01*
G54D12*
G36*
X2941Y2585D02*
X2941Y2585D01*
X3335Y2585D01*
X3335Y3215D01*
X2941Y3215D01*
X2941Y2585D01*
D02*
G37*
X3335Y2585D01*
X3335Y3215D01*
X2941Y3215D01*
X2941Y2585D01*
G36*
X5303Y2585D02*
X5303Y2585D01*
X5697Y2585D01*
X5697Y3215D01*
X5303Y3215D01*
X5303Y2585D01*
D02*
G37*
X5697Y2585D01*
X5697Y3215D01*
X5303Y3215D01*
X5303Y2585D01*
G36*
X4004Y1246D02*
X4004Y1246D01*
X4004Y853D01*
X4634Y853D01*
X4634Y1246D01*
X4004Y1246D01*
D02*
G37*
X4004Y853D01*
X4634Y853D01*
X4634Y1246D01*
X4004Y1246D01*
G54D13*
X-150Y-150D02*
X-150Y3226D01*
X-150Y-150D02*
X3817Y-150D01*
X39520Y-150D02*
X35553Y-150D01*
X39520Y-150D02*
X39520Y3226D01*
X39520Y33615D02*
X39520Y30238D01*
X39520Y33615D02*
X35553Y33615D01*
X-150Y33615D02*
X3817Y33615D01*
X-150Y33615D02*
X-150Y30238D01*
X-2119Y-150D02*
X-6056Y-150D01*
X-4087Y-2119D02*
X-4087Y1819D01*
X-5563Y-150D02*
G75*
D01*
G02X-5563Y-150I1476J0*
G01*
X41489Y-150D02*
X45426Y-150D01*
X43457Y-2119D02*
X43457Y1819D01*
X41981Y-150D02*
G75*
D01*
G02X41981Y-150I1476J0*
G01*
X42965Y-150D02*
G75*
D01*
G02X42965Y-150I492J0*
G01*
X-2119Y33615D02*
X-6056Y33615D01*
X-4087Y31646D02*
X-4087Y35583D01*
X-5563Y33615D02*
G75*
D01*
G02X-5563Y33615I1476J0*
G01*
X-5071Y33615D02*
G75*
D01*
G02X-5071Y33615I984J0*
G01*
X-4579Y33615D02*
G75*
D01*
G02X-4579Y33615I492J0*
G01*
G54D14*
X34620Y15980D03*
X34620Y13420D03*
X37180Y15980D03*
X37180Y13420D03*
X5700Y12861D03*
X5700Y10939D03*
X30500Y3500D03*
X29500Y3500D03*
X28500Y3500D03*
X27500Y3500D03*
X26500Y3500D03*
X25500Y3500D03*
X24500Y3500D03*
X23500Y3500D03*
X22500Y3500D03*
X34900Y1700D03*
X36900Y1700D03*
X35900Y3700D03*
X4868Y19198D03*
X5868Y19198D03*
X6868Y19198D03*
X7868Y19198D03*
X8868Y19198D03*
X9868Y19198D03*
X10868Y19198D03*
X11868Y19198D03*
X12868Y19198D03*
X13868Y19198D03*
X14868Y19198D03*
X15868Y19198D03*
X16868Y19198D03*
X17868Y19198D03*
X18868Y19198D03*
X19868Y19198D03*
X4868Y31402D03*
X5868Y31402D03*
X6868Y31402D03*
X7868Y31402D03*
X8868Y31402D03*
X9868Y31402D03*
X10868Y31402D03*
X11868Y31402D03*
X12868Y31402D03*
X13868Y31402D03*
X14868Y31402D03*
X15868Y31402D03*
X16868Y31402D03*
X17868Y31402D03*
X18868Y31402D03*
X19868Y31402D03*
G54D15*
X32200Y9200D03*
X21200Y18600D03*
X23400Y5400D03*
X18400Y11600D03*
X14800Y18200D03*
X5400Y6200D03*
X7600Y10800D03*
X6400Y10800D03*
X10000Y10800D03*
X8200Y10800D03*
X36000Y8000D03*
X37600Y11200D03*
X22000Y11600D03*
X8200Y9800D03*
X19400Y11600D03*
X19400Y13400D03*
X7000Y10800D03*
G54D16*
X25905Y12467D03*
X25905Y6467D03*
X28905Y6467D03*
X29905Y6467D03*
X30905Y6467D03*
X26905Y6467D03*
X27905Y6467D03*
X19905Y6467D03*
X22905Y6467D03*
X23905Y6467D03*
X24905Y6467D03*
X20905Y6467D03*
X21905Y6467D03*
X16905Y6467D03*
X17905Y6467D03*
X18905Y6467D03*
X13905Y6467D03*
X14905Y6467D03*
X15905Y6467D03*
X12905Y6467D03*
X11905Y6467D03*
X28905Y12467D03*
X29905Y12467D03*
X30905Y12467D03*
X26905Y12467D03*
X27905Y12467D03*
X19905Y12467D03*
X22905Y12467D03*
X23905Y12467D03*
X24905Y12467D03*
X21905Y12467D03*
X20905Y12467D03*
X16905Y12467D03*
X18905Y12467D03*
X17905Y12467D03*
X13905Y12467D03*
X15905Y12467D03*
X14905Y12467D03*
X12905Y12467D03*
X11905Y12467D03*
G54D17*
X12905Y15067D03*
X13905Y15067D03*
X14905Y15067D03*
X15905Y15067D03*
X16905Y15067D03*
X17905Y15067D03*
X18905Y15067D03*
X23105Y15067D03*
X24105Y15067D03*
X25105Y15067D03*
X26105Y15067D03*
X27105Y15067D03*
X28105Y15067D03*
X29105Y15067D03*
X9105Y6267D03*
X9105Y7267D03*
X9105Y8267D03*
X9105Y9267D03*
X9105Y10267D03*
X9105Y11267D03*
X9105Y12267D03*
X29700Y900D03*
X28700Y900D03*
X27700Y900D03*
X26700Y900D03*
X25700Y900D03*
X24700Y900D03*
X23700Y900D03*
X19100Y3900D03*
X18100Y3900D03*
X17100Y3900D03*
X16100Y3900D03*
X15100Y3900D03*
X14100Y3900D03*
X13100Y3900D03*
G54D18*
X19905Y15067D03*
X30105Y15067D03*
X9105Y13267D03*
X22700Y900D03*
X12100Y3900D03*
G54D19*
X3124Y6006D03*
X3124Y7620D03*
X3124Y9235D03*
X3124Y10849D03*
X3124Y12463D03*
X3124Y14077D03*
X38053Y7253D03*
X38253Y9253D03*
X38253Y11453D03*
G54D20*
X1155Y6006D03*
X1155Y7620D03*
X1155Y9235D03*
X1155Y10849D03*
X1155Y12463D03*
X1155Y14077D03*
X32935Y7253D03*
X33135Y9253D03*
X33135Y11453D03*

M02*
