G04 Generated by Ultiboard 13.0 *
%FSLAX24Y24*%
%MOIN*%

%ADD11C,0.0394*%
%ADD12C,0.0236*%
%ADD13C,0.0350*%
%ADD14C,0.0400*%
%ADD15C,0.0354*%
%ADD16O,0.0315X0.0551*%
%ADD17O,0.0551X0.0315*%


G04 ColorRGB 000000 for the following layer *
%LNDrill-Copper Top-Copper Bottom*%
%LPD*%
G54D11*
X34620Y15980D03*
X34620Y13420D03*
X37180Y15980D03*
X37180Y13420D03*
X5700Y12861D03*
X5700Y10939D03*
X30500Y3500D03*
X29500Y3500D03*
X28500Y3500D03*
X27500Y3500D03*
X26500Y3500D03*
X25500Y3500D03*
X24500Y3500D03*
X23500Y3500D03*
X22500Y3500D03*
X34900Y1700D03*
X36900Y1700D03*
X35900Y3700D03*
X4868Y19198D03*
X5868Y19198D03*
X6868Y19198D03*
X7868Y19198D03*
X8868Y19198D03*
X9868Y19198D03*
X10868Y19198D03*
X11868Y19198D03*
X12868Y19198D03*
X13868Y19198D03*
X14868Y19198D03*
X15868Y19198D03*
X16868Y19198D03*
X17868Y19198D03*
X18868Y19198D03*
X19868Y19198D03*
X4868Y31402D03*
X5868Y31402D03*
X6868Y31402D03*
X7868Y31402D03*
X8868Y31402D03*
X9868Y31402D03*
X10868Y31402D03*
X11868Y31402D03*
X12868Y31402D03*
X13868Y31402D03*
X14868Y31402D03*
X15868Y31402D03*
X16868Y31402D03*
X17868Y31402D03*
X18868Y31402D03*
X19868Y31402D03*
G54D12*
X32200Y9200D03*
X21200Y18600D03*
X23400Y5400D03*
X18400Y11600D03*
X14800Y18200D03*
X5400Y6200D03*
X7600Y10800D03*
X6400Y10800D03*
X10000Y10800D03*
X8200Y10800D03*
X36000Y8000D03*
X37600Y11200D03*
X22000Y11600D03*
X8200Y9800D03*
X19400Y11600D03*
X19400Y13400D03*
X7000Y10800D03*
G54D13*
X25905Y12467D03*
X25905Y6467D03*
X28905Y6467D03*
X29905Y6467D03*
X30905Y6467D03*
X26905Y6467D03*
X27905Y6467D03*
X19905Y6467D03*
X22905Y6467D03*
X23905Y6467D03*
X24905Y6467D03*
X20905Y6467D03*
X21905Y6467D03*
X16905Y6467D03*
X17905Y6467D03*
X18905Y6467D03*
X13905Y6467D03*
X14905Y6467D03*
X15905Y6467D03*
X12905Y6467D03*
X11905Y6467D03*
X28905Y12467D03*
X29905Y12467D03*
X30905Y12467D03*
X26905Y12467D03*
X27905Y12467D03*
X19905Y12467D03*
X22905Y12467D03*
X23905Y12467D03*
X24905Y12467D03*
X21905Y12467D03*
X20905Y12467D03*
X16905Y12467D03*
X18905Y12467D03*
X17905Y12467D03*
X13905Y12467D03*
X15905Y12467D03*
X14905Y12467D03*
X12905Y12467D03*
X11905Y12467D03*
G54D14*
X12905Y15067D03*
X13905Y15067D03*
X14905Y15067D03*
X15905Y15067D03*
X16905Y15067D03*
X17905Y15067D03*
X18905Y15067D03*
X19905Y15067D03*
X23105Y15067D03*
X24105Y15067D03*
X25105Y15067D03*
X26105Y15067D03*
X27105Y15067D03*
X28105Y15067D03*
X29105Y15067D03*
X30105Y15067D03*
X9105Y6267D03*
X9105Y7267D03*
X9105Y8267D03*
X9105Y9267D03*
X9105Y10267D03*
X9105Y11267D03*
X9105Y12267D03*
X9105Y13267D03*
X29700Y900D03*
X28700Y900D03*
X27700Y900D03*
X26700Y900D03*
X25700Y900D03*
X24700Y900D03*
X23700Y900D03*
X22700Y900D03*
X19100Y3900D03*
X18100Y3900D03*
X17100Y3900D03*
X16100Y3900D03*
X15100Y3900D03*
X14100Y3900D03*
X13100Y3900D03*
X12100Y3900D03*
G54D15*
X3124Y6006D03*
X1155Y6006D03*
X3124Y7620D03*
X1155Y7620D03*
X3124Y9235D03*
X1155Y9235D03*
X3124Y10849D03*
X1155Y10849D03*
X3124Y12463D03*
X1155Y12463D03*
X3124Y14077D03*
X1155Y14077D03*
X38053Y7253D03*
X32935Y7253D03*
X38253Y9253D03*
X33135Y9253D03*
X38253Y11453D03*
X33135Y11453D03*
G54D16*
X3138Y2900D03*
X5500Y2900D03*
G54D17*
X4319Y1050D03*

M02*
