G04 Generated by Ultiboard 13.0 *
%FSLAX24Y24*%
%MOIN*%

%ADD11C,0.0001*%
%ADD12C,0.0050*%


G04 ColorRGB 00FFFF for the following layer *
%LNBoard Outline*%
%LPD*%
G54D10*
G54D11*
X0Y0D02*
X39370Y0D01*
X39370Y33465D01*
X0Y33465D01*
X0Y0D01*
G54D12*
X-150Y-150D02*
X-150Y3226D01*
X-150Y-150D02*
X3817Y-150D01*
X39520Y-150D02*
X35553Y-150D01*
X39520Y-150D02*
X39520Y3226D01*
X39520Y33615D02*
X39520Y30238D01*
X39520Y33615D02*
X35553Y33615D01*
X-150Y33615D02*
X3817Y33615D01*
X-150Y33615D02*
X-150Y30238D01*
X-2119Y-150D02*
X-6056Y-150D01*
X-4087Y-2119D02*
X-4087Y1819D01*
X-5563Y-150D02*
G75*
D01*
G02X-5563Y-150I1476J0*
G01*
X41489Y-150D02*
X45426Y-150D01*
X43457Y-2119D02*
X43457Y1819D01*
X41981Y-150D02*
G75*
D01*
G02X41981Y-150I1476J0*
G01*
X42965Y-150D02*
G75*
D01*
G02X42965Y-150I492J0*
G01*
X-2119Y33615D02*
X-6056Y33615D01*
X-4087Y31646D02*
X-4087Y35583D01*
X-5563Y33615D02*
G75*
D01*
G02X-5563Y33615I1476J0*
G01*
X-5071Y33615D02*
G75*
D01*
G02X-5071Y33615I984J0*
G01*
X-4579Y33615D02*
G75*
D01*
G02X-4579Y33615I492J0*
G01*

M02*
