G04 Generated by Ultiboard 13.0 *
%FSLAX24Y24*%
%MOIN*%

%ADD10C,0.0001*%
%ADD11C,0.0056*%
%ADD12C,0.0080*%
%ADD13C,0.0037*%
%ADD14C,0.0061*%
%ADD15C,0.0039*%
%ADD16C,0.0079*%
%ADD17C,0.0050*%


G04 ColorRGB FFFF00 for the following layer *
%LNSilkscreen Top*%
%LPD*%
G54D10*
G54D11*
X7412Y17332D02*
X7769Y17332D01*
X7769Y17189D01*
X7698Y17118D01*
X7662Y17118D01*
X7591Y17189D01*
X7591Y17332D01*
X7591Y17296D02*
X7412Y17118D01*
X7484Y17012D02*
X7412Y16941D01*
X7412Y16869D01*
X7484Y16798D01*
X7698Y17012D01*
X7769Y16941D01*
X7769Y16869D01*
X7698Y16798D01*
X7412Y16585D02*
X7769Y16585D01*
X7769Y16692D02*
X7769Y16478D01*
X7448Y16229D02*
X7376Y16229D01*
X7341Y16265D01*
X7769Y15732D02*
X7412Y15518D01*
X7412Y15732D02*
X7769Y15518D01*
X7412Y15305D02*
X7769Y15305D01*
X7769Y15412D02*
X7769Y15198D01*
X7412Y15092D02*
X7626Y15092D01*
X7769Y15021D01*
X7769Y14949D01*
X7626Y14878D01*
X7412Y14878D01*
X7519Y15092D02*
X7519Y14878D01*
X7769Y14772D02*
X7412Y14772D01*
X7412Y14558D01*
X7698Y14452D02*
X7769Y14381D01*
X7769Y14309D01*
X7698Y14238D01*
X7662Y14238D01*
X7412Y14452D01*
X7412Y14238D01*
X7448Y14238D01*
X7448Y13989D02*
X7376Y13989D01*
X7341Y14025D01*
X7769Y13492D02*
X7412Y13278D01*
X7412Y13492D02*
X7769Y13278D01*
X7412Y13065D02*
X7769Y13065D01*
X7769Y13172D02*
X7769Y12958D01*
X7412Y12852D02*
X7626Y12852D01*
X7769Y12781D01*
X7769Y12709D01*
X7626Y12638D01*
X7412Y12638D01*
X7519Y12852D02*
X7519Y12638D01*
X7769Y12532D02*
X7412Y12532D01*
X7412Y12318D01*
X7698Y12176D02*
X7769Y12105D01*
X7412Y12105D01*
X7412Y12212D02*
X7412Y11998D01*
X7448Y11749D02*
X7376Y11749D01*
X7341Y11785D01*
X7591Y11109D02*
X7591Y11038D01*
X7484Y11038D01*
X7412Y11109D01*
X7412Y11181D01*
X7484Y11252D01*
X7698Y11252D01*
X7769Y11181D01*
X7769Y11038D01*
X7412Y10932D02*
X7769Y10932D01*
X7412Y10718D01*
X7769Y10718D01*
X7412Y10612D02*
X7412Y10469D01*
X7484Y10398D01*
X7698Y10398D01*
X7769Y10469D01*
X7769Y10612D01*
X7769Y10576D02*
X7412Y10576D01*
X7448Y10149D02*
X7376Y10149D01*
X7341Y10185D01*
X7412Y9652D02*
X7769Y9652D01*
X7769Y9509D01*
X7698Y9438D01*
X7662Y9438D01*
X7591Y9509D01*
X7591Y9652D01*
X7484Y9332D02*
X7412Y9261D01*
X7412Y9189D01*
X7484Y9118D01*
X7698Y9332D01*
X7769Y9261D01*
X7769Y9189D01*
X7698Y9118D01*
X7412Y8798D02*
X7412Y9012D01*
X7591Y9012D01*
X7769Y9012D01*
X7769Y8798D01*
X7591Y9012D02*
X7591Y8869D01*
X7412Y8692D02*
X7769Y8692D01*
X7412Y8478D01*
X7769Y8478D01*
X7448Y8229D02*
X7376Y8229D01*
X7341Y8265D01*
X7412Y7732D02*
X7626Y7732D01*
X7769Y7661D01*
X7769Y7589D01*
X7626Y7518D01*
X7412Y7518D01*
X7519Y7732D02*
X7519Y7518D01*
X7769Y7412D02*
X7412Y7412D01*
X7412Y7198D01*
X7412Y6878D02*
X7412Y7092D01*
X7591Y7092D01*
X7769Y7092D01*
X7769Y6878D01*
X7591Y7092D02*
X7591Y6949D01*
X7412Y6772D02*
X7769Y6772D01*
X7769Y6629D01*
X7698Y6558D01*
X7662Y6558D01*
X7591Y6629D01*
X7591Y6772D01*
X7412Y6452D02*
X7769Y6452D01*
X7769Y6309D01*
X7698Y6238D01*
X7662Y6238D01*
X7591Y6309D01*
X7591Y6452D01*
X7591Y6416D02*
X7412Y6238D01*
X7484Y6132D02*
X7412Y6061D01*
X7412Y5989D01*
X7484Y5918D01*
X7698Y5918D01*
X7769Y5989D01*
X7769Y6061D01*
X7698Y6132D01*
X7484Y6132D01*
X7591Y5669D02*
X7591Y5598D01*
X7484Y5598D01*
X7412Y5669D01*
X7412Y5741D01*
X7484Y5812D01*
X7698Y5812D01*
X7769Y5741D01*
X7769Y5598D01*
X7448Y5349D02*
X7376Y5349D01*
X7341Y5385D01*
X7412Y4638D02*
X7412Y4852D01*
X7591Y4852D01*
X7769Y4852D01*
X7769Y4638D01*
X7591Y4852D02*
X7591Y4709D01*
X7412Y4532D02*
X7626Y4532D01*
X7769Y4461D01*
X7769Y4389D01*
X7626Y4318D01*
X7412Y4318D01*
X7519Y4532D02*
X7519Y4318D01*
X7769Y4212D02*
X7412Y4105D01*
X7769Y3998D01*
X7412Y3892D02*
X7769Y3892D01*
X7769Y3749D01*
X7698Y3678D01*
X7662Y3678D01*
X7591Y3749D01*
X7591Y3892D01*
X7412Y3572D02*
X7769Y3572D01*
X7769Y3429D01*
X7698Y3358D01*
X7662Y3358D01*
X7591Y3429D01*
X7591Y3572D01*
X7448Y3109D02*
X7376Y3109D01*
X7341Y3145D01*
X7769Y2612D02*
X7412Y2505D01*
X7769Y2398D01*
X7484Y2078D02*
X7412Y2149D01*
X7412Y2221D01*
X7484Y2292D01*
X7698Y2292D01*
X7769Y2221D01*
X7769Y2149D01*
X7698Y2078D01*
X7484Y1758D02*
X7412Y1829D01*
X7412Y1901D01*
X7484Y1972D01*
X7698Y1972D01*
X7769Y1901D01*
X7769Y1829D01*
X7698Y1758D01*
G54D12*
X34719Y15881D02*
X34719Y13519D01*
X37081Y13519D01*
X37081Y15881D01*
X35703Y15881D02*
X35704Y15864D01*
X35706Y15847D01*
X35710Y15830D01*
X35715Y15814D01*
X35722Y15798D01*
X35730Y15783D01*
X35739Y15768D01*
X35749Y15755D01*
X35761Y15742D01*
X35773Y15730D01*
X35787Y15720D01*
X35802Y15711D01*
X35817Y15703D01*
X35833Y15696D01*
X35849Y15691D01*
X35866Y15687D01*
X35883Y15685D01*
X35900Y15684D01*
X35917Y15685D01*
X35934Y15687D01*
X35951Y15691D01*
X35967Y15696D01*
X35983Y15703D01*
X35998Y15711D01*
X36013Y15720D01*
X36027Y15730D01*
X36039Y15742D01*
X36051Y15755D01*
X36061Y15768D01*
X36070Y15783D01*
X36078Y15798D01*
X36085Y15814D01*
X36090Y15830D01*
X36094Y15847D01*
X36096Y15864D01*
X36097Y15881D01*
X37081Y15881D02*
X36097Y15881D01*
X35703Y15881D02*
X34719Y15881D01*
X4716Y14164D02*
X4716Y9636D01*
X6684Y9636D01*
X6684Y14164D01*
X4716Y14164D01*
X31629Y13632D02*
X31629Y13209D01*
X31351Y13421D01*
X31074Y13209D01*
X31074Y13632D01*
X30240Y13548D02*
X30425Y13632D01*
X30611Y13632D01*
X30796Y13548D01*
X30796Y13294D01*
X30611Y13209D01*
X30425Y13209D01*
X30240Y13294D01*
X29962Y13209D02*
X29962Y13548D01*
X29777Y13632D01*
X29592Y13632D01*
X29407Y13548D01*
X29407Y13209D01*
X31655Y12967D02*
X11155Y12967D01*
X31655Y5967D02*
X11155Y5967D01*
X31655Y9967D02*
X31611Y9965D01*
X31568Y9960D01*
X31526Y9950D01*
X31484Y9937D01*
X31444Y9920D01*
X31405Y9900D01*
X31368Y9877D01*
X31334Y9850D01*
X31301Y9821D01*
X31272Y9789D01*
X31245Y9754D01*
X31222Y9717D01*
X31202Y9679D01*
X31185Y9638D01*
X31172Y9597D01*
X31163Y9554D01*
X31157Y9511D01*
X31155Y9467D01*
X31157Y9424D01*
X31163Y9380D01*
X31172Y9338D01*
X31185Y9296D01*
X31202Y9256D01*
X31222Y9217D01*
X31245Y9180D01*
X31272Y9146D01*
X31301Y9114D01*
X31334Y9084D01*
X31368Y9058D01*
X31405Y9034D01*
X31444Y9014D01*
X31484Y8997D01*
X31526Y8984D01*
X31568Y8975D01*
X31611Y8969D01*
X31655Y8967D01*
X31655Y9967D02*
X31655Y12967D01*
X31655Y8967D02*
X31655Y5967D01*
X11155Y12967D02*
X11155Y5967D01*
X30990Y4750D02*
X22010Y4750D01*
X22010Y2250D01*
X30990Y2250D01*
X30990Y4750D01*
X34024Y824D02*
X37776Y824D01*
X37776Y4576D01*
X34024Y4576D01*
X34024Y824D01*
X1352Y18213D02*
X32848Y18213D01*
X32848Y32387D01*
X1352Y32387D01*
X1352Y25103D02*
X1369Y25104D01*
X1386Y25106D01*
X1403Y25110D01*
X1419Y25115D01*
X1435Y25122D01*
X1450Y25130D01*
X1465Y25139D01*
X1479Y25149D01*
X1491Y25161D01*
X1503Y25173D01*
X1513Y25187D01*
X1522Y25202D01*
X1530Y25217D01*
X1537Y25233D01*
X1542Y25249D01*
X1546Y25266D01*
X1548Y25283D01*
X1549Y25300D01*
X1548Y25317D01*
X1546Y25334D01*
X1542Y25351D01*
X1537Y25367D01*
X1530Y25383D01*
X1522Y25398D01*
X1513Y25413D01*
X1503Y25427D01*
X1491Y25439D01*
X1479Y25451D01*
X1465Y25461D01*
X1450Y25470D01*
X1435Y25478D01*
X1419Y25485D01*
X1403Y25490D01*
X1386Y25494D01*
X1369Y25496D01*
X1352Y25497D01*
X1352Y32387D02*
X1352Y25497D01*
X1352Y25103D02*
X1352Y18213D01*
X12465Y15527D02*
X20345Y15527D01*
X20345Y14607D01*
X12465Y14607D01*
X12465Y15527D01*
X22665Y15527D02*
X30545Y15527D01*
X30545Y14607D01*
X22665Y14607D01*
X22665Y15527D01*
X1128Y267D02*
X1128Y661D01*
X1286Y661D01*
X1365Y582D01*
X1365Y543D01*
X1286Y464D01*
X1128Y464D01*
X1483Y346D02*
X1561Y267D01*
X1640Y267D01*
X1719Y346D01*
X1719Y582D01*
X1640Y661D01*
X1561Y661D01*
X1483Y582D01*
X1483Y346D01*
X1837Y661D02*
X1876Y267D01*
X1955Y424D01*
X2034Y267D01*
X2073Y661D01*
X2428Y267D02*
X2191Y267D01*
X2191Y464D01*
X2191Y661D01*
X2428Y661D01*
X2191Y464D02*
X2349Y464D01*
X2546Y267D02*
X2546Y661D01*
X2703Y661D01*
X2782Y582D01*
X2782Y543D01*
X2703Y464D01*
X2546Y464D01*
X2585Y464D02*
X2782Y267D01*
X2900Y267D02*
X3136Y267D01*
X3254Y346D02*
X3333Y267D01*
X3412Y267D01*
X3491Y346D01*
X3491Y661D01*
X3609Y267D02*
X3609Y503D01*
X3687Y661D01*
X3766Y661D01*
X3845Y503D01*
X3845Y267D01*
X3609Y385D02*
X3845Y385D01*
X4199Y346D02*
X4120Y267D01*
X4042Y267D01*
X3963Y346D01*
X3963Y582D01*
X4042Y661D01*
X4120Y661D01*
X4199Y582D01*
X4317Y267D02*
X4317Y661D01*
X4317Y464D02*
X4357Y464D01*
X4554Y661D01*
X4357Y464D02*
X4554Y267D01*
X8645Y5827D02*
X9565Y5827D01*
X9565Y13707D01*
X8645Y13707D01*
X8645Y5827D01*
X30140Y440D02*
X22260Y440D01*
X22260Y1360D01*
X30140Y1360D01*
X30140Y440D01*
X35140Y6033D02*
X35140Y6426D01*
X35296Y6426D01*
X35375Y6348D01*
X35375Y6308D01*
X35296Y6230D01*
X35140Y6230D01*
X35179Y6230D02*
X35375Y6033D01*
X35532Y6387D02*
X35571Y6426D01*
X35649Y6426D01*
X35728Y6348D01*
X35728Y6269D01*
X35688Y6230D01*
X35728Y6190D01*
X35728Y6111D01*
X35649Y6033D01*
X35571Y6033D01*
X35532Y6072D01*
X35571Y6230D02*
X35688Y6230D01*
X35340Y8033D02*
X35340Y8426D01*
X35496Y8426D01*
X35575Y8348D01*
X35575Y8308D01*
X35496Y8230D01*
X35340Y8230D01*
X35379Y8230D02*
X35575Y8033D01*
X35692Y8348D02*
X35771Y8426D01*
X35849Y8426D01*
X35928Y8348D01*
X35928Y8308D01*
X35692Y8033D01*
X35928Y8033D01*
X35928Y8072D01*
X19540Y3440D02*
X11660Y3440D01*
X11660Y4360D01*
X19540Y4360D01*
X19540Y3440D01*
X35340Y10233D02*
X35340Y10626D01*
X35496Y10626D01*
X35575Y10548D01*
X35575Y10508D01*
X35496Y10430D01*
X35340Y10430D01*
X35379Y10430D02*
X35575Y10233D01*
X35732Y10548D02*
X35810Y10626D01*
X35810Y10233D01*
X35692Y10233D02*
X35928Y10233D01*
G54D13*
X33339Y27067D02*
X33496Y27067D01*
X33574Y27146D01*
X33574Y27382D01*
X33496Y27461D01*
X33339Y27461D01*
X33378Y27461D02*
X33378Y27067D01*
X33731Y27343D02*
X33849Y27343D01*
X33888Y27303D01*
X33888Y27106D01*
X33849Y27067D01*
X33731Y27067D01*
X33692Y27106D01*
X33692Y27185D01*
X33731Y27224D01*
X33888Y27224D01*
X33888Y27106D02*
X33927Y27067D01*
X34045Y27067D02*
X34045Y27303D01*
X34045Y27343D01*
X34045Y27303D02*
X34084Y27343D01*
X34162Y27343D01*
X34201Y27303D01*
X34201Y27067D01*
X34515Y27067D02*
X34515Y27303D01*
X34515Y27382D02*
X34515Y27421D01*
X34985Y27146D02*
X34907Y27067D01*
X34829Y27067D01*
X34750Y27146D01*
X34750Y27264D01*
X34829Y27343D01*
X34907Y27343D01*
X34985Y27264D01*
X34946Y27224D01*
X34750Y27224D01*
X35142Y27461D02*
X35142Y27146D01*
X35221Y27067D01*
X35495Y27461D02*
X35495Y27146D01*
X35573Y27067D01*
X36044Y27146D02*
X35965Y27067D01*
X35887Y27067D01*
X35808Y27146D01*
X35808Y27264D01*
X35887Y27343D01*
X35965Y27343D01*
X36044Y27264D01*
X36004Y27224D01*
X35808Y27224D01*
X36671Y27264D02*
X36749Y27264D01*
X36749Y27146D01*
X36671Y27067D01*
X36592Y27067D01*
X36514Y27146D01*
X36514Y27382D01*
X36592Y27461D01*
X36749Y27461D01*
X36867Y27224D02*
X36984Y27343D01*
X37024Y27343D01*
X37102Y27264D01*
X36867Y27067D02*
X36867Y27343D01*
X37220Y27343D02*
X37220Y27146D01*
X37298Y27067D01*
X37376Y27067D01*
X37455Y27146D01*
X37455Y27343D01*
X37455Y27146D02*
X37455Y27067D01*
X37572Y27146D02*
X37651Y27067D01*
X37729Y27067D01*
X37807Y27146D01*
X37807Y27224D01*
X37729Y27303D01*
X37651Y27303D01*
X37572Y27224D01*
X37572Y27461D02*
X37572Y27067D01*
X38160Y27146D02*
X38082Y27067D01*
X38003Y27067D01*
X37925Y27146D01*
X37925Y27264D01*
X38003Y27343D01*
X38082Y27343D01*
X38160Y27264D01*
X38121Y27224D01*
X37925Y27224D01*
X38278Y27224D02*
X38395Y27343D01*
X38435Y27343D01*
X38513Y27264D01*
X38278Y27067D02*
X38278Y27343D01*
X33339Y26909D02*
X33339Y26516D01*
X33574Y26516D01*
X33927Y26594D02*
X33849Y26516D01*
X33770Y26516D01*
X33692Y26594D01*
X33692Y26831D01*
X33770Y26909D01*
X33849Y26909D01*
X33927Y26831D01*
X34045Y26516D02*
X34201Y26516D01*
X34280Y26594D01*
X34280Y26831D01*
X34201Y26909D01*
X34045Y26909D01*
X34084Y26909D02*
X34084Y26516D01*
X34750Y26516D02*
X34750Y26909D01*
X34985Y26516D02*
X34985Y26909D01*
X34750Y26713D02*
X34985Y26713D01*
X35338Y26594D02*
X35260Y26516D01*
X35181Y26516D01*
X35103Y26594D01*
X35103Y26713D01*
X35181Y26791D01*
X35260Y26791D01*
X35338Y26713D01*
X35299Y26673D01*
X35103Y26673D01*
X35495Y26909D02*
X35495Y26594D01*
X35573Y26516D01*
X35848Y26909D02*
X35848Y26594D01*
X35926Y26516D01*
X36161Y26594D02*
X36240Y26516D01*
X36318Y26516D01*
X36396Y26594D01*
X36396Y26713D01*
X36318Y26791D01*
X36240Y26791D01*
X36161Y26713D01*
X36161Y26594D01*
X36867Y26909D02*
X36906Y26516D01*
X36984Y26673D01*
X37063Y26516D01*
X37102Y26909D01*
X37220Y26594D02*
X37298Y26516D01*
X37376Y26516D01*
X37455Y26594D01*
X37455Y26713D01*
X37376Y26791D01*
X37298Y26791D01*
X37220Y26713D01*
X37220Y26594D01*
X37572Y26673D02*
X37690Y26791D01*
X37729Y26791D01*
X37807Y26713D01*
X37572Y26516D02*
X37572Y26791D01*
X37964Y26909D02*
X37964Y26594D01*
X38043Y26516D01*
X38513Y26594D02*
X38435Y26516D01*
X38356Y26516D01*
X38278Y26594D01*
X38278Y26673D01*
X38356Y26752D01*
X38435Y26752D01*
X38513Y26673D01*
X38513Y26909D02*
X38513Y26516D01*
X34574Y26240D02*
X34691Y25965D01*
X34809Y26240D01*
X35162Y26043D02*
X35083Y25965D01*
X35005Y25965D01*
X34927Y26043D01*
X34927Y26161D01*
X35005Y26240D01*
X35083Y26240D01*
X35162Y26161D01*
X35123Y26122D01*
X34927Y26122D01*
X35279Y26122D02*
X35397Y26240D01*
X35436Y26240D01*
X35515Y26161D01*
X35279Y25965D02*
X35279Y26240D01*
X35750Y25965D02*
X35750Y26004D01*
X36573Y26122D02*
X36338Y26122D01*
X36534Y26358D01*
X36534Y25965D01*
X36494Y25965D02*
X36573Y25965D01*
X36690Y26122D02*
X36926Y26122D01*
X37082Y26280D02*
X37161Y26358D01*
X37161Y25965D01*
X37043Y25965D02*
X37278Y25965D01*
X33692Y25413D02*
X33692Y25807D01*
X33927Y25413D01*
X33927Y25807D01*
X34045Y25492D02*
X34123Y25413D01*
X34201Y25413D01*
X34280Y25492D01*
X34280Y25610D01*
X34201Y25689D01*
X34123Y25689D01*
X34045Y25610D01*
X34045Y25492D01*
X34397Y25689D02*
X34515Y25413D01*
X34633Y25689D01*
X34985Y25492D02*
X34907Y25413D01*
X34829Y25413D01*
X34750Y25492D01*
X34750Y25610D01*
X34829Y25689D01*
X34907Y25689D01*
X34985Y25610D01*
X34946Y25571D01*
X34750Y25571D01*
X35103Y25413D02*
X35103Y25650D01*
X35103Y25689D01*
X35103Y25650D02*
X35142Y25689D01*
X35181Y25689D01*
X35221Y25650D01*
X35260Y25689D01*
X35299Y25689D01*
X35338Y25650D01*
X35338Y25413D01*
X35221Y25650D02*
X35221Y25413D01*
X35456Y25492D02*
X35534Y25413D01*
X35613Y25413D01*
X35691Y25492D01*
X35691Y25571D01*
X35613Y25650D01*
X35534Y25650D01*
X35456Y25571D01*
X35456Y25807D02*
X35456Y25413D01*
X36044Y25492D02*
X35965Y25413D01*
X35887Y25413D01*
X35808Y25492D01*
X35808Y25610D01*
X35887Y25689D01*
X35965Y25689D01*
X36044Y25610D01*
X36004Y25571D01*
X35808Y25571D01*
X36161Y25571D02*
X36279Y25689D01*
X36318Y25689D01*
X36396Y25610D01*
X36161Y25413D02*
X36161Y25689D01*
X36867Y25728D02*
X36945Y25807D01*
X37024Y25807D01*
X37102Y25728D01*
X37102Y25689D01*
X36867Y25413D01*
X37102Y25413D01*
X37102Y25453D01*
X37220Y25728D02*
X37298Y25807D01*
X37376Y25807D01*
X37455Y25728D01*
X37455Y25492D01*
X37376Y25413D01*
X37298Y25413D01*
X37220Y25492D01*
X37220Y25728D01*
X37455Y25728D02*
X37220Y25492D01*
X37572Y25728D02*
X37651Y25807D01*
X37729Y25807D01*
X37807Y25728D01*
X37807Y25689D01*
X37572Y25413D01*
X37807Y25413D01*
X37807Y25453D01*
X37925Y25728D02*
X38003Y25807D01*
X38082Y25807D01*
X38160Y25728D01*
X38160Y25689D01*
X37925Y25413D01*
X38160Y25413D01*
X38160Y25453D01*
G54D14*
X16091Y14044D02*
X16091Y14438D01*
X16248Y14438D01*
X16327Y14359D01*
X16327Y14320D01*
X16248Y14241D01*
X16091Y14241D01*
X16483Y14398D02*
X16523Y14438D01*
X16601Y14438D01*
X16679Y14359D01*
X16679Y14280D01*
X16640Y14241D01*
X16679Y14202D01*
X16679Y14123D01*
X16601Y14044D01*
X16523Y14044D01*
X16483Y14084D01*
X16523Y14241D02*
X16640Y14241D01*
X26291Y14044D02*
X26291Y14438D01*
X26448Y14438D01*
X26527Y14359D01*
X26527Y14320D01*
X26448Y14241D01*
X26291Y14241D01*
X26683Y14359D02*
X26762Y14438D01*
X26762Y14044D01*
X26644Y14044D02*
X26879Y14044D01*
X2035Y4833D02*
X1957Y4755D01*
X1879Y4755D01*
X1800Y4833D01*
X1800Y5070D01*
X1879Y5148D01*
X1957Y5148D01*
X2035Y5070D01*
X2192Y5070D02*
X2271Y5148D01*
X2271Y4755D01*
X2153Y4755D02*
X2388Y4755D01*
X2035Y6448D02*
X1957Y6369D01*
X1879Y6369D01*
X1800Y6448D01*
X1800Y6684D01*
X1879Y6763D01*
X1957Y6763D01*
X2035Y6684D01*
X2153Y6684D02*
X2231Y6763D01*
X2310Y6763D01*
X2388Y6684D01*
X2388Y6644D01*
X2153Y6369D01*
X2388Y6369D01*
X2388Y6408D01*
X2035Y8062D02*
X1957Y7983D01*
X1879Y7983D01*
X1800Y8062D01*
X1800Y8298D01*
X1879Y8377D01*
X1957Y8377D01*
X2035Y8298D01*
X2192Y8337D02*
X2231Y8377D01*
X2310Y8377D01*
X2388Y8298D01*
X2388Y8219D01*
X2349Y8180D01*
X2388Y8140D01*
X2388Y8062D01*
X2310Y7983D01*
X2231Y7983D01*
X2192Y8022D01*
X2231Y8180D02*
X2349Y8180D01*
X2035Y9676D02*
X1957Y9597D01*
X1879Y9597D01*
X1800Y9676D01*
X1800Y9912D01*
X1879Y9991D01*
X1957Y9991D01*
X2035Y9912D01*
X2388Y9755D02*
X2153Y9755D01*
X2349Y9991D01*
X2349Y9597D01*
X2310Y9597D02*
X2388Y9597D01*
X2035Y11290D02*
X1957Y11211D01*
X1879Y11211D01*
X1800Y11290D01*
X1800Y11526D01*
X1879Y11605D01*
X1957Y11605D01*
X2035Y11526D01*
X2388Y11605D02*
X2153Y11605D01*
X2153Y11448D01*
X2310Y11448D01*
X2388Y11369D01*
X2388Y11290D01*
X2310Y11211D01*
X2153Y11211D01*
X2035Y12904D02*
X1957Y12826D01*
X1879Y12826D01*
X1800Y12904D01*
X1800Y13140D01*
X1879Y13219D01*
X1957Y13219D01*
X2035Y13140D01*
X2349Y13219D02*
X2231Y13219D01*
X2153Y13140D01*
X2153Y12983D01*
X2153Y12904D01*
X2231Y12826D01*
X2310Y12826D01*
X2388Y12904D01*
X2388Y12983D01*
X2310Y13062D01*
X2231Y13062D01*
X2153Y12983D01*
X10049Y8925D02*
X10128Y9003D01*
X10128Y9081D01*
X10049Y9160D01*
X9813Y9160D01*
X9734Y9081D01*
X9734Y9003D01*
X9813Y8925D01*
X10049Y8925D01*
X10128Y9395D02*
X9734Y9395D01*
X9734Y9277D02*
X9734Y9512D01*
X10128Y9630D02*
X9734Y9630D01*
X10128Y9865D02*
X9734Y9865D01*
X9931Y9630D02*
X9931Y9865D01*
X10128Y10218D02*
X10128Y9983D01*
X9931Y9983D01*
X9734Y9983D01*
X9734Y10218D01*
X9931Y9983D02*
X9931Y10140D01*
X10128Y10336D02*
X9734Y10336D01*
X9734Y10492D01*
X9813Y10571D01*
X9852Y10571D01*
X9931Y10492D01*
X9931Y10336D01*
X9931Y10375D02*
X10128Y10571D01*
X26514Y1923D02*
X26514Y1529D01*
X26357Y1529D01*
X26278Y1608D01*
X26278Y1647D01*
X26357Y1726D01*
X26514Y1726D01*
X26161Y1608D02*
X26082Y1529D01*
X26004Y1529D01*
X25926Y1608D01*
X25926Y1844D01*
X26004Y1923D01*
X26082Y1923D01*
X26161Y1844D01*
X26161Y1608D01*
X25926Y1608D02*
X26161Y1844D01*
X15914Y4923D02*
X15914Y4529D01*
X15757Y4529D01*
X15678Y4608D01*
X15678Y4647D01*
X15757Y4726D01*
X15914Y4726D01*
X15561Y4608D02*
X15482Y4529D01*
X15404Y4529D01*
X15326Y4608D01*
X15326Y4647D01*
X15561Y4923D01*
X15326Y4923D01*
X15326Y4884D01*
G54D15*
X761Y6459D02*
X761Y5593D01*
G75*
D01*
G03X919Y5435I158J0*
G01*
X3360Y5435D01*
G75*
D01*
G03X3517Y5593I-1J158*
G01*
X3517Y6459D01*
G74*
D01*
G03X3360Y6617I157J1*
G01*
X919Y6617D01*
G75*
D01*
G03X761Y6459I0J-158*
G01*
X761Y8073D02*
X761Y7207D01*
G75*
D01*
G03X919Y7050I158J1*
G01*
X3360Y7050D01*
G75*
D01*
G03X3517Y7207I0J157*
G01*
X3517Y8073D01*
G74*
D01*
G03X3360Y8231I157J1*
G01*
X919Y8231D01*
G75*
D01*
G03X761Y8073I0J-158*
G01*
X761Y9687D02*
X761Y8821D01*
G75*
D01*
G03X919Y8664I158J1*
G01*
X3360Y8664D01*
G75*
D01*
G03X3517Y8821I0J157*
G01*
X3517Y9687D01*
G74*
D01*
G03X3360Y9845I157J1*
G01*
X919Y9845D01*
G75*
D01*
G03X761Y9687I0J-158*
G01*
X761Y11302D02*
X761Y10435D01*
G75*
D01*
G03X919Y10278I158J1*
G01*
X3360Y10278D01*
G75*
D01*
G03X3517Y10435I0J157*
G01*
X3517Y11302D01*
G74*
D01*
G03X3360Y11459I157J0*
G01*
X919Y11459D01*
G75*
D01*
G03X761Y11302I-1J-157*
G01*
X761Y12916D02*
X761Y12050D01*
G75*
D01*
G03X919Y11892I158J0*
G01*
X3360Y11892D01*
G75*
D01*
G03X3517Y12050I-1J158*
G01*
X3517Y12916D01*
G74*
D01*
G03X3360Y13073I157J0*
G01*
X919Y13073D01*
G75*
D01*
G03X761Y12916I-1J-157*
G01*
X761Y14530D02*
X761Y13664D01*
G75*
D01*
G03X919Y13506I158J0*
G01*
X3360Y13506D01*
G75*
D01*
G03X3517Y13664I-1J158*
G01*
X3517Y14530D01*
G74*
D01*
G03X3360Y14687I157J0*
G01*
X919Y14687D01*
G75*
D01*
G03X761Y14530I-1J-157*
G01*
X34116Y7761D02*
X36872Y7761D01*
X36872Y6757D01*
X34116Y6757D01*
X34116Y7761D01*
X33486Y7253D02*
X34116Y7253D01*
X36872Y7253D02*
X37541Y7253D01*
X34316Y9761D02*
X37072Y9761D01*
X37072Y8757D01*
X34316Y8757D01*
X34316Y9761D01*
X33686Y9253D02*
X34316Y9253D01*
X37072Y9253D02*
X37741Y9253D01*
X34316Y11961D02*
X37072Y11961D01*
X37072Y10957D01*
X34316Y10957D01*
X34316Y11961D01*
X33686Y11453D02*
X34316Y11453D01*
X37072Y11453D02*
X37741Y11453D01*
G54D16*
X106Y4672D02*
X5776Y4672D01*
X106Y1128D02*
X106Y4672D01*
X5776Y1128D02*
X4791Y1128D01*
X5776Y4672D02*
X5776Y3372D01*
X5776Y2428D02*
X5776Y1128D01*
X3846Y1128D02*
X106Y1128D01*
G54D17*
X-150Y-150D02*
X-150Y3226D01*
X-150Y-150D02*
X3817Y-150D01*
X39520Y-150D02*
X35553Y-150D01*
X39520Y-150D02*
X39520Y3226D01*
X39520Y33615D02*
X39520Y30238D01*
X39520Y33615D02*
X35553Y33615D01*
X-150Y33615D02*
X3817Y33615D01*
X-150Y33615D02*
X-150Y30238D01*
X-2119Y-150D02*
X-6056Y-150D01*
X-4087Y-2119D02*
X-4087Y1819D01*
X-5563Y-150D02*
G75*
D01*
G02X-5563Y-150I1476J0*
G01*
X41489Y-150D02*
X45426Y-150D01*
X43457Y-2119D02*
X43457Y1819D01*
X41981Y-150D02*
G75*
D01*
G02X41981Y-150I1476J0*
G01*
X42965Y-150D02*
G75*
D01*
G02X42965Y-150I492J0*
G01*
X-2119Y33615D02*
X-6056Y33615D01*
X-4087Y31646D02*
X-4087Y35583D01*
X-5563Y33615D02*
G75*
D01*
G02X-5563Y33615I1476J0*
G01*
X-5071Y33615D02*
G75*
D01*
G02X-5071Y33615I984J0*
G01*
X-4579Y33615D02*
G75*
D01*
G02X-4579Y33615I492J0*
G01*

M02*
